<svg xmlns="http://www.w3.org/2000/svg" xmlns:xlink="http://www.w3.org/1999/xlink" fill="none" version="1.1" width="92.45" height="9.9" viewBox="0 0 92.44921875 9.89947509765625"><defs><linearGradient x1="1" y1="1" x2="-0.00004005126433465399" y2="0.9999198814251511" id="master_svg0_0_707"><stop offset="0%" stop-color="#2979E8" stop-opacity="1"/><stop offset="100%" stop-color="#2577E8" stop-opacity="0"/></linearGradient></defs><g transform="matrix(0.7071067690849304,0.7071067690849304,-0.7071067690849304,0.7071067690849304,24.45658478140834,-59.043415218591676)"><path d="M83.84999999403954 0.34999999403957816C83.84999999403954 0.34999999403957816 83.84999999403954 0.34999999403957816 83.84999999403954 0.34999999403957816L90.15000000596046 0.34999999403957816C90.15000000596046 0.34999999403957816 90.15000000596046 0.34999999403957816 90.15000000596046 0.34999999403957816L90.15000000596046 6.650000005960507C90.15000000596046 6.650000005960507 90.15000000596046 6.650000005960507 90.15000000596046 6.650000005960507L83.84999999403954 6.650000005960507C83.84999999403954 6.650000005960507 83.84999999403954 6.650000005960507 83.84999999403954 6.650000005960507Z" fill-opacity="0" stroke-opacity="1" stroke="#2577E8" fill="none" stroke-width="0.699999988079071"/></g><path d="M-0.0000022649765,5.4497498624084475L0.50000006,5.449747562408447L78.5,5.449747562408447L79,5.4497498624084475L79,4.449745297431948L78.5,4.449747562408447L0.5,4.449747562408447L-0.0000022649765,4.449745297431948L-0.0000022649765,5.4497498624084475Z" fill-rule="evenodd" fill="url(#master_svg0_0_707)" fill-opacity="1"/><path d="M87.5 4.973799150320701e-14C87.5 4.973799150320701e-14 87.5 4.973799150320701e-14 87.5 4.973799150320701e-14L94.5 4.973799150320701e-14C94.5 4.973799150320701e-14 94.5 4.973799150320701e-14 94.5 4.973799150320701e-14L94.5 7.00000000000005C94.5 7.00000000000005 94.5 7.00000000000005 94.5 7.00000000000005L87.5 7.00000000000005C87.5 7.00000000000005 87.5 7.00000000000005 87.5 7.00000000000005Z" fill="#2577E8" fill-opacity="1" transform="matrix(0.7071067690849304,0.7071067690849304,-0.7071067690849304,0.7071067690849304,25.628157705068624,-61.8718422949314)"/></svg>