<svg xmlns="http://www.w3.org/2000/svg" xmlns:xlink="http://www.w3.org/1999/xlink" fill="none" version="1.1" width="355" height="390" viewBox="0 0 363.1484375 398.146484375"><defs><filter id="master_svg0_0_961" filterUnits="objectBoundingBox" color-interpolation-filters="sRGB" x="-0.016901408450704224" y="-0.01282051282051282" width="1.0338028169014084" height="1.0307692307692307"><feFlood flood-opacity="0" result="BackgroundImageFix"/><feColorMatrix in="SourceAlpha" type="matrix" values="0 0 0 0 0 0 0 0 0 0 0 0 0 0 0 0 0 0 127 0"/><feMorphology radius="2" operator="dilate"/><feOffset dy="1" dx="0"/><feGaussianBlur stdDeviation="1"/><feColorMatrix type="matrix" values="0 0 0 0 0.9180824756622314 0 0 0 0 0.96047043800354 0 0 0 0 1 0 0 0 1 0"/><feBlend mode="normal" in2="BackgroundImageFix" result="effect1_dropShadow"/><feBlend mode="normal" in="SourceGraphic" in2="effect1_dropShadow" result="shape"/></filter><linearGradient x1="0.45910465717315674" y1="0" x2="0.45910465717315674" y2="0.11668512970209122" id="master_svg1_0_126"><stop offset="0%" stop-color="#E0EDFF" stop-opacity="1"/><stop offset="100%" stop-color="#FFFFFF" stop-opacity="1"/></linearGradient><filter id="master_svg2_0_961" filterUnits="objectBoundingBox" color-interpolation-filters="sRGB" x="-0.016901408450704224" y="-0.01282051282051282" width="1.0338028169014084" height="1.0307692307692307"><feFlood flood-opacity="0" result="BackgroundImageFix"/><feColorMatrix in="SourceAlpha" type="matrix" values="0 0 0 0 0 0 0 0 0 0 0 0 0 0 0 0 0 0 127 0"/><feMorphology radius="2" operator="dilate"/><feOffset dy="1" dx="0"/><feGaussianBlur stdDeviation="1"/><feColorMatrix type="matrix" values="0 0 0 0 0.9180824756622314 0 0 0 0 0.96047043800354 0 0 0 0 1 0 0 0 1 0"/><feBlend mode="normal" in2="BackgroundImageFix" result="effect1_dropShadow"/><feBlend mode="normal" in="SourceGraphic" in2="effect1_dropShadow" result="shape"/></filter><mask id="master_svg3_0_961" style="mask-type:luminance" maskUnits="userSpaceOnUse" x="-26.92578125" y="-8.9267578125" width="386" height="402"><path d="M14.17141175,3.073242187500078L348.97701875,3.073242187499976C352.51137875,3.073242187499975,354.31850875,3.0803880692,355.66363875,3.7776361075000002C356.82140875,4.3777778875,357.76968875,5.326042187500001,358.36980875,6.4838363875C359.06704875,7.8289575875,359.07421875,9.636081687499999,359.07421875,13.1704351875L359.07421875,382.9760421875C359.07421875,386.5104021875,359.06704875,388.3175321875,358.36980875,389.6626621875C357.76968875,390.8204321875,356.82140875,391.7687121875,355.66363875,392.3688321875C354.31850875,393.0660721875,352.51137875,393.0732421875,348.97701875,393.0732421875L14.17141275,393.0732421875C10.63705735,393.0732421875,8.82993415,393.0660721875,7.48481275,392.3688321875C6.327018450000001,391.7687121875,5.3787543499999995,390.8204321875,4.77861261,389.6626621875C4.0813646317,388.3175321875,4.074218750000003,386.5104021875,4.074218750000004,382.9760421875L4.074218750000167,13.1704321875C4.074218750000169,9.636081687499999,4.0813733339,7.8289513875,4.77861261,6.4838363875C5.3787543499999995,5.326042187500001,6.327018450000001,4.3777778875,7.48481275,3.7776361075000002C8.82992745,3.080396831,10.63705735,3.073242187500079,14.17141175,3.073242187500078" fill-rule="evenodd" fill="#FFFFFF" fill-opacity="1" filter="url(#master_svg2_0_961)"/></mask><filter id="master_svg4_0_962" filterUnits="objectBoundingBox" color-interpolation-filters="sRGB" x="-0.12706078423394096" y="-0.6075093746185303" width="1.254121568467882" height="2.2150187492370605"><feFlood flood-opacity="0" result="BackgroundImageFix"/><feColorMatrix in="SourceAlpha" type="matrix" values="0 0 0 0 0 0 0 0 0 0 0 0 0 0 0 0 0 0 127 0"/><feOffset dy="1" dx="0"/><feGaussianBlur stdDeviation="0"/><feColorMatrix type="matrix" values="0 0 0 0 1 0 0 0 0 1 0 0 0 0 1 0 0 0 1 0"/><feBlend mode="normal" in2="BackgroundImageFix" result="effect1_dropShadow"/><feBlend mode="normal" in="SourceGraphic" in2="effect1_dropShadow" result="shape"/><feColorMatrix in="SourceAlpha" type="matrix" result="hardAlpha" values="0 0 0 0 0 0 0 0 0 0 0 0 0 0 0 0 0 0 127 0"/><feOffset dy="1" dx="0"/><feGaussianBlur stdDeviation="1.5"/><feComposite in2="hardAlpha" operator="arithmetic" k2="-1" k3="1"/><feColorMatrix type="matrix" values="0 0 0 0 1 0 0 0 0 1 0 0 0 0 1 0 0 0 0.5 0"/><feBlend mode="normal" in2="shape" result="effect2_innerShadow"/><feGaussianBlur stdDeviation="4.860074996948242" result="effect3_foregroundBlur"/></filter><linearGradient x1="0.539856493473053" y1="0.8155282139778137" x2="0.539856493473053" y2="0" id="master_svg5_0_181"><stop offset="0%" stop-color="#4F9CF0" stop-opacity="1"/><stop offset="100%" stop-color="#75C3F8" stop-opacity="1"/></linearGradient><filter id="master_svg6_0_963" filterUnits="objectBoundingBox" color-interpolation-filters="sRGB" x="0" y="0" width="1" height="1.03125"><feFlood flood-opacity="0" result="BackgroundImageFix"/><feColorMatrix in="SourceAlpha" type="matrix" values="0 0 0 0 0 0 0 0 0 0 0 0 0 0 0 0 0 0 127 0"/><feOffset dy="1" dx="0"/><feGaussianBlur stdDeviation="0"/><feColorMatrix type="matrix" values="0 0 0 0 1 0 0 0 0 1 0 0 0 0 1 0 0 0 1 0"/><feBlend mode="normal" in2="BackgroundImageFix" result="effect1_dropShadow"/><feBlend mode="normal" in="SourceGraphic" in2="effect1_dropShadow" result="shape"/><feColorMatrix in="SourceAlpha" type="matrix" result="hardAlpha" values="0 0 0 0 0 0 0 0 0 0 0 0 0 0 0 0 0 0 127 0"/><feOffset dy="1" dx="0"/><feGaussianBlur stdDeviation="1.5"/><feComposite in2="hardAlpha" operator="arithmetic" k2="-1" k3="1"/><feColorMatrix type="matrix" values="0 0 0 0 1 0 0 0 0 1 0 0 0 0 1 0 0 0 0.5 0"/><feBlend mode="normal" in2="shape" result="effect2_innerShadow"/></filter><linearGradient x1="0.539856493473053" y1="0.8155282139778137" x2="0.539856493473053" y2="0" id="master_svg7_0_188"><stop offset="0%" stop-color="#4F9CF0" stop-opacity="1"/><stop offset="100%" stop-color="#75C3F8" stop-opacity="1"/></linearGradient><linearGradient x1="0.7679015398025513" y1="0" x2="0.4779237687427305" y2="0.6071801920487051" id="master_svg8_0_152"><stop offset="0%" stop-color="#FFFFFF" stop-opacity="1"/><stop offset="100%" stop-color="#FFE0B1" stop-opacity="0"/></linearGradient><linearGradient x1="0.7679015398025513" y1="0" x2="0.3200385673641314" y2="0.49811650694201554" id="master_svg9_0_152"><stop offset="0%" stop-color="#FFFFFF" stop-opacity="1"/><stop offset="100%" stop-color="#FFE0B1" stop-opacity="0"/></linearGradient><filter id="master_svga_0_966" filterUnits="objectBoundingBox" color-interpolation-filters="sRGB" x="-0.6895774518939811" y="-2.225454503839666" width="2.379154903787962" height="5.450909007679332"><feFlood flood-opacity="0" result="BackgroundImageFix"/><feBlend mode="normal" in="SourceGraphic" in2="BackgroundImageFix" result="shape"/><feGaussianBlur stdDeviation="12.239999771118164" result="effect1_foregroundBlur"/></filter></defs><g mask="url(#master_svg3_0_961)"><g filter="url(#master_svg0_0_961)"><path d="M14.17141175,3.073242187500078L348.97701875,3.073242187499976C352.51137875,3.073242187499975,354.31850875,3.0803880692,355.66363875,3.7776361075000002C356.82140875,4.3777778875,357.76968875,5.326042187500001,358.36980875,6.4838363875C359.06704875,7.8289575875,359.07421875,9.636081687499999,359.07421875,13.1704351875L359.07421875,382.9760421875C359.07421875,386.5104021875,359.06704875,388.3175321875,358.36980875,389.6626621875C357.76968875,390.8204321875,356.82140875,391.7687121875,355.66363875,392.3688321875C354.31850875,393.0660721875,352.51137875,393.0732421875,348.97701875,393.0732421875L14.17141275,393.0732421875C10.63705735,393.0732421875,8.82993415,393.0660721875,7.48481275,392.3688321875C6.327018450000001,391.7687121875,5.3787543499999995,390.8204321875,4.77861261,389.6626621875C4.0813646317,388.3175321875,4.074218750000003,386.5104021875,4.074218750000004,382.9760421875L4.074218750000167,13.1704321875C4.074218750000169,9.636081687499999,4.0813733339,7.8289513875,4.77861261,6.4838363875C5.3787543499999995,5.326042187500001,6.327018450000001,4.3777778875,7.48481275,3.7776361075000002C8.82992745,3.080396831,10.63705735,3.073242187500079,14.17141175,3.073242187500078" fill-rule="evenodd" fill="url(#master_svg1_0_126)" fill-opacity="1"/><path d="M14.17141175,1.9999863875L348.97701875,1.9999863875Q354.56637875,1.9999863875,356.15755875,2.8247829275Q358.24215875,3.9053469874999998,359.32265875,5.9899360875Q360.14748875,7.5811967875,360.14748875,13.1704351875L360.14748875,382.9760421875Q360.14748875,388.5652721875,359.32265875,390.1565521875Q358.24215875,392.2411521875,356.15752875,393.3216821875Q354.56634875,394.1465121875,348.97701875,394.1465121875L14.17141275,394.1465121875Q8.58211185,394.1465121875,6.99089815,393.3216821875Q4.90634161,392.2411821875,3.82576482,390.1565821875Q3.00096295,388.5653721875,3.00096295,382.9760421875L3.00096295,13.1704321875Q3.00096295,7.5811233875,3.82575919,5.989926587499999Q4.90630752,3.9053301175,6.99090245,2.8247828075Q8.58209995,1.9999861875,14.17141175,1.9999863875ZM348.97701875,3.0732421875L14.17141175,3.0732421875C10.63705735,3.0732421875,8.82992745,3.080396831,7.48481275,3.7776361075000002C6.327018450000001,4.3777778875,5.3787543499999995,5.326042187500001,4.77861261,6.4838363875C4.0813733339,7.8289513875,4.07421875,9.636081687499999,4.07421875,13.1704321875L4.07421875,382.9760421875C4.07421875,386.5104021875,4.0813646317,388.3175321875,4.77861261,389.6626621875C5.3787543499999995,390.8204321875,6.327018450000001,391.7687121875,7.48481275,392.3688321875C8.82993415,393.0660721875,10.63705735,393.0732421875,14.17141275,393.0732421875L348.97701875,393.0732421875C352.51137875,393.0732421875,354.31850875,393.0660721875,355.66363875,392.3688321875C356.82140875,391.7687121875,357.76968875,390.8204321875,358.36980875,389.6626621875C359.06704875,388.3175321875,359.07421875,386.5104021875,359.07421875,382.9760421875L359.07421875,13.1704351875C359.07421875,9.636081687499999,359.06704875,7.8289575875,358.36980875,6.4838363875C357.76968875,5.326042187500001,356.82140875,4.3777778875,355.66363875,3.7776361075000002C354.31850875,3.0803880692,352.51137875,3.0732421875,348.97701875,3.0732421875Z" fill-rule="evenodd" fill="#FFFFFF" fill-opacity="1"/></g><path d="M-26.92578125000023,2.0732421875Q44.351417749999996,2.1931367575,126.07421875,2.0732421875Q118.22523874999999,2.2126433875,113.43371875,10.3634490875Q108.78474875,17.7830651875,103.55987875,25.4171031875C101.38640874999999,28.5927501875,100.25989875,30.1776121875,98.81083875,31.3232591875C97.53705875,32.3303161875,96.07876875,33.0844041875,94.52000875,33.545795187500005C92.74872875,34.0700911875,90.78596875,34.0732421875,86.90606875,34.0732421875L-7.28971125,34.0732421875C-11.74611925,34.0732421875,-14.02065125,34.0651131875,-15.77260425,33.2144911875C-17.28566265,32.4798581875,-18.55477235,31.3128741875,-19.41346455,29.8666091875C-20.40773395,28.1919971875,-20.60620215,25.9261241875,-20.97918365,21.4853491875L-22.13247445,7.7540993875Q-23.76415185,3.2458198874999997,-26.92578125000023,2.0732421875Z" fill-rule="evenodd" fill="url(#master_svg5_0_181)" fill-opacity="1" filter="url(#master_svg4_0_962)"/><path d="M-26.92578125000023,2.0732421875Q44.351417749999996,2.1931367575,126.07421875,2.0732421875Q118.22523874999999,2.2126433875,113.43371875,10.3634490875Q108.78474875,17.7830651875,103.55987875,25.4171031875C101.38640874999999,28.5927501875,100.25989875,30.1776121875,98.81083875,31.3232591875C97.53705875,32.3303161875,96.07876875,33.0844041875,94.52000875,33.545795187500005C92.74872875,34.0700911875,90.78596875,34.0732421875,86.90606875,34.0732421875L-7.28971125,34.0732421875C-11.74611925,34.0732421875,-14.02065125,34.0651131875,-15.77260425,33.2144911875C-17.28566265,32.4798581875,-18.55477235,31.3128741875,-19.41346455,29.8666091875C-20.40773395,28.1919971875,-20.60620215,25.9261241875,-20.97918365,21.4853491875L-22.13247445,7.7540993875Q-23.76415185,3.2458198874999997,-26.92578125000023,2.0732421875Z" fill-rule="evenodd" fill="url(#master_svg7_0_188)" fill-opacity="1" filter="url(#master_svg6_0_963)"/><path d="M85.11177075,-5.9267578125L53.07421874999999,44.0732421875L64.25174175000001,44.0732421875L96.07421875,-5.9267578125L85.11177075,-5.9267578125Z" fill-rule="evenodd" fill="url(#master_svg8_0_152)" fill-opacity="1"/><path d="M115.47989075,-5.9267578125L84.07421875000001,44.0732421875L111.87937775,44.0732421875L143.07421875,-5.9267578125L115.47989075,-5.9267578125Z" fill-rule="evenodd" fill="url(#master_svg9_0_152)" fill-opacity="1"/><ellipse cx="18.57421875" cy="2.0732421875" rx="35.5" ry="11" fill="#6CE8FF" fill-opacity="1" filter="url(#master_svga_0_966)"/></g></svg>