<svg xmlns="http://www.w3.org/2000/svg" xmlns:xlink="http://www.w3.org/1999/xlink" fill="none" version="1.1" width="142" height="23" viewBox="0 0 142 23"><defs><filter id="master_svg0_0_975" filterUnits="objectBoundingBox" color-interpolation-filters="sRGB" x="0" y="0" width="1" height="1"><feFlood flood-opacity="0" result="BackgroundImageFix"/><feBlend mode="normal" in="SourceGraphic" in2="BackgroundImageFix" result="shape"/><feColorMatrix in="SourceAlpha" type="matrix" result="hardAlpha" values="0 0 0 0 0 0 0 0 0 0 0 0 0 0 0 0 0 0 127 0"/><feOffset dy="-1" dx="0"/><feGaussianBlur stdDeviation="1"/><feComposite in2="hardAlpha" operator="arithmetic" k2="-1" k3="1"/><feColorMatrix type="matrix" values="0 0 0 0 1 0 0 0 0 1 0 0 0 0 1 0 0 0 0.5 0"/><feBlend mode="normal" in2="shape" result="effect1_innerShadow"/></filter><linearGradient x1="0.4424571394920349" y1="0.1275646835565567" x2="0.4424571394920349" y2="0.995271623134613" id="master_svg1_0_214"><stop offset="0%" stop-color="#FFDA92" stop-opacity="1"/><stop offset="100%" stop-color="#FFF1D4" stop-opacity="1"/></linearGradient></defs><path d="M8.000001,23L134,23C136.80026,23,138.23206,23.0056651831,139.29779,23.55809098C140.2151,24.033583,140.96642,24.7848924,141.44191,25.7022123C141.99434,26.7679453,142,28.1997337,142,31.000000999999997L142,37.999999C142,40.800266,141.99434,42.232056,141.44191,43.297789C140.96642,44.215109,140.2151,44.966417,139.29779,45.44191C138.23206,45.994335,136.80026,46,134,46L7.9999976,46C5.1997337,46,3.7679462,45.994333,2.7022123,45.44191C1.7848924,44.966417,1.033583,44.215109,0.55809098,43.297789C0.0056687593,42.232054000000005,-5.3810949e-12,40.800266,-5.3810949e-12,37.999999L-5.3810949e-12,31.000000999999997C-5.3810949e-12,28.1997337,0.0056686401,26.7679462,0.55809098,25.7022123C1.033583,24.7848924,1.7848924,24.033583,2.7022123,23.55809098C3.7679462,23.0056686401,5.1997337,23,8.000001,23" fill-rule="evenodd" fill="url(#master_svg1_0_214)" fill-opacity="1" transform="matrix(1,0,0,-1,0,46)" filter="url(#master_svg0_0_975)"/></svg>