<svg xmlns="http://www.w3.org/2000/svg" xmlns:xlink="http://www.w3.org/1999/xlink" fill="none" version="1.1" width="55.45" height="9.9" viewBox="0 0 55.455078125 9.8995361328125"><defs><linearGradient x1="1" y1="1" x2="-0.0005656072243468201" y2="0.9988655718738952" id="master_svg0_0_299"><stop offset="0%" stop-color="#2979E8" stop-opacity="1"/><stop offset="100%" stop-color="#2577E8" stop-opacity="0"/></linearGradient></defs><g transform="matrix(-1,0,0,1,110.8984375,0)"><g transform="matrix(0.7071067690849304,0.7071067690849304,-0.7071067690849304,0.7071067690849304,29.860236068954634,-72.08898268104532)"><path d="M102.29921874403954 0.3499999940394609C102.29921874403954 0.3499999940394609 102.29921874403954 0.3499999940394609 102.29921874403954 0.3499999940394609L108.59921875596046 0.3499999940394609C108.59921875596046 0.3499999940394609 108.59921875596046 0.3499999940394609 108.59921875596046 0.3499999940394609L108.59921875596046 6.65000000596039C108.59921875596046 6.65000000596039 108.59921875596046 6.65000000596039 108.59921875596046 6.65000000596039L102.29921874403954 6.65000000596039C102.29921874403954 6.65000000596039 102.29921874403954 6.65000000596039 102.29921874403954 6.65000000596039Z" fill-opacity="0" stroke-opacity="1" stroke="#2577E8" fill="none" stroke-width="0.699999988079071"/></g><path d="M55.4437621236,4.994487862408447L55.94373441,4.9999700624084475L96.94373675,5.4497175624084475L97.44370674999999,5.455204262408447L97.45467375,4.455259762408447L96.95470474999999,4.449777562408447L55.95470315,4.000030222408447L55.4547309577,3.9945434924084475L55.4437621236,4.994487862408447Z" fill-rule="evenodd" fill="url(#master_svg0_0_299)" fill-opacity="1"/><path d="M105.94921875 -7.105427357601002e-14C105.94921875 -7.105427357601002e-14 105.94921875 -7.105427357601002e-14 105.94921875 -7.105427357601002e-14L112.94921875 -7.105427357601002e-14C112.94921875 -7.105427357601002e-14 112.94921875 -7.105427357601002e-14 112.94921875 -7.105427357601002e-14L112.94921875 6.999999999999929C112.94921875 6.999999999999929 112.94921875 6.999999999999929 112.94921875 6.999999999999929L105.94921875 6.999999999999929C105.94921875 6.999999999999929 105.94921875 6.999999999999929 105.94921875 6.999999999999929Z" fill="#2577E8" fill-opacity="1" transform="matrix(0.7071067690849304,0.7071067690849304,-0.7071067690849304,0.7071067690849304,31.031808992614913,-74.91740975738504)"/></g></svg>