<svg xmlns="http://www.w3.org/2000/svg" xmlns:xlink="http://www.w3.org/1999/xlink" fill="none" version="1.1" width="44.89" height="15" viewBox="0 0 44.88971710205078 15"><path d="M5.5872011,4.97684e-14L39.302517,7.0750189e-15C41.258224,4.5985279e-15,42.258183,0.0039586425,43.002491,0.38977078C43.643147,0.72185445,44.167862,1.2465689,44.499947,1.8872252C44.885757,2.6315331,44.889717,3.6314945,44.889717,5.5872011L44.889717,9.4127998C44.889717,11.368505,44.885757,12.368466,44.499947,13.112775C44.167862,13.753431,43.643147,14.278146,43.002491,14.610229C42.258183,14.996041,41.258224,15,39.302517,15L5.5872006,15C3.6314945,15,2.6315336,14.996041,1.8872252,14.610229C1.2465689,14.278146,0.72185445,13.753431,0.38977078,13.112775C0.0039590895,12.368466,0,11.368505,0,9.4127989L0,5.5872006C0,3.6314945,0.0039589703,2.6315336,0.38977078,1.8872252C0.72185445,1.2465689,1.2465689,0.72185445,1.8872252,0.38977078C2.6315336,0.0039589703,3.6314945,5.2244894e-14,5.5872011,4.97684e-14" fill-rule="evenodd" fill="#F1F8FF" fill-opacity="1"/><path d="M5.5872011,0L39.302517,0C41.258224,0,42.258183,0.0039586425,43.002491,0.38977078C43.643147,0.72185445,44.167862,1.2465689,44.499947,1.8872252C44.885757,2.6315331,44.889717,3.6314945,44.889717,5.5872011L44.889717,9.4127998C44.889717,11.368505,44.885757,12.368466,44.499947,13.112775C44.167862,13.753431,43.643147,14.278146,43.002491,14.610229C42.258183,14.996041,41.258224,15,39.302517,15L5.5872006,15C3.6314945,15,2.6315336,14.996041,1.8872252,14.610229C1.2465689,14.278146,0.72185445,13.753431,0.38977078,13.112775C0.0039590895,12.368466,0,11.368505,0,9.4127989L0,5.5872006C0,3.6314945,0.0039589703,2.6315336,0.38977078,1.8872252C0.72185445,1.2465689,1.2465689,0.72185445,1.8872252,0.38977078C2.6315336,0.0039589703,3.6314945,0,5.5872011,0ZM5.5872011,0.55289996Q2.7739532,0.55290008,2.141669,0.88064408Q1.3111457,1.3111454,0.88064408,2.1416693Q0.55290002,2.773953,0.55290002,5.5872006L0.55289996,9.4128017Q0.55289996,12.226046,0.88064426,12.858331Q1.3111455,13.688856,2.1416688,14.119356Q2.7739553,14.4471,5.5872006,14.4471L39.302517,14.4471Q42.115761,14.4471,42.748047,14.119357Q43.578571,13.688853,44.009071,12.858331Q44.336819,12.226046,44.336819,9.4127998L44.336819,5.5872011Q44.336819,2.7739549,44.009075,2.1416707Q43.578571,1.3111472,42.748047,0.88064426Q42.115761,0.55290002,39.302517,0.55290002L5.5872011,0.55289996Z" fill-rule="evenodd" fill="#0976FF" fill-opacity="1"/></svg>