<svg xmlns="http://www.w3.org/2000/svg" xmlns:xlink="http://www.w3.org/1999/xlink" fill="none" version="1.1" width="355" height="294.5" viewBox="0 0 363.1484375 302.6466064453125"><defs><filter id="master_svg0_0_1330" filterUnits="objectBoundingBox" color-interpolation-filters="sRGB" x="-0.016901408450704224" y="-0.016977923414684848" width="1.0338028169014084" height="1.0407470161952437"><feFlood flood-opacity="0" result="BackgroundImageFix"/><feColorMatrix in="SourceAlpha" type="matrix" values="0 0 0 0 0 0 0 0 0 0 0 0 0 0 0 0 0 0 127 0"/><feMorphology radius="2" operator="dilate"/><feOffset dy="1" dx="0"/><feGaussianBlur stdDeviation="1"/><feColorMatrix type="matrix" values="0 0 0 0 0.9180824756622314 0 0 0 0 0.96047043800354 0 0 0 0 1 0 0 0 1 0"/><feBlend mode="normal" in2="BackgroundImageFix" result="effect1_dropShadow"/><feBlend mode="normal" in="SourceGraphic" in2="effect1_dropShadow" result="shape"/></filter><linearGradient x1="0.45910465717315674" y1="0" x2="0.45910465717315674" y2="0.11668512970209122" id="master_svg1_0_734"><stop offset="0%" stop-color="#E0EDFF" stop-opacity="1"/><stop offset="100%" stop-color="#FFFFFF" stop-opacity="1"/></linearGradient><filter id="master_svg2_0_1330" filterUnits="objectBoundingBox" color-interpolation-filters="sRGB" x="-0.016901408450704224" y="-0.016977923414684848" width="1.0338028169014084" height="1.0407470161952437"><feFlood flood-opacity="0" result="BackgroundImageFix"/><feColorMatrix in="SourceAlpha" type="matrix" values="0 0 0 0 0 0 0 0 0 0 0 0 0 0 0 0 0 0 127 0"/><feMorphology radius="2" operator="dilate"/><feOffset dy="1" dx="0"/><feGaussianBlur stdDeviation="1"/><feColorMatrix type="matrix" values="0 0 0 0 0.9180824756622314 0 0 0 0 0.96047043800354 0 0 0 0 1 0 0 0 1 0"/><feBlend mode="normal" in2="BackgroundImageFix" result="effect1_dropShadow"/><feBlend mode="normal" in="SourceGraphic" in2="effect1_dropShadow" result="shape"/></filter><mask id="master_svg3_0_1330" style="mask-type:luminance" maskUnits="userSpaceOnUse" x="4.07421875" y="3.0732421875" width="355" height="294.5000915527344"><path d="M14.17141175,3.0732421875003135L348.97701875,3.0732421874999036C352.51137875,3.0732421874998996,354.31850875,3.0803881288,355.66363875,3.7776362275C356.82140875,4.3777781875,357.76968875,5.326042387499999,358.36980875,6.4838368875C359.06704875,7.8289579875,359.07421875,9.636081687499999,359.07421875,13.1704351875L359.07421875,287.4761321875C359.07421875,291.0104721875,359.06704875,292.8175921875,358.36980875,294.1627221875C357.76968875,295.3205221875,356.82140875,296.2688021875,355.66363875,296.8689221875C354.31850875,297.5661621875,352.51137875,297.5733321875,348.97701875,297.5733321875L14.17141275,297.5733321875C10.63705735,297.5733321875,8.82993415,297.5661621875,7.48481275,296.8689221875C6.327018450000001,296.2688021875,5.3787543499999995,295.3205221875,4.77861261,294.1627221875C4.0813791156,292.8175921875,4.0742187500000036,291.0104721875,4.074218750000006,287.4761321875L4.074218750000165,13.1704431875C4.074218750000168,9.636081687499999,4.0813735127,7.8289517875,4.77861261,6.4838368875C5.3787543499999995,5.326042387499999,6.327018450000001,4.3777781875,7.48481275,3.7776362275C8.82992745,3.080396831,10.63705735,3.073242187500318,14.17141175,3.0732421875003135" fill-rule="evenodd" fill="#FFFFFF" fill-opacity="1" filter="url(#master_svg2_0_1330)"/></mask></defs><g mask="url(#master_svg3_0_1330)"><g filter="url(#master_svg0_0_1330)"><path d="M14.17141175,3.0732421875003135L348.97701875,3.0732421874999036C352.51137875,3.0732421874998996,354.31850875,3.0803881288,355.66363875,3.7776362275C356.82140875,4.3777781875,357.76968875,5.326042387499999,358.36980875,6.4838368875C359.06704875,7.8289579875,359.07421875,9.636081687499999,359.07421875,13.1704351875L359.07421875,287.4761321875C359.07421875,291.0104721875,359.06704875,292.8175921875,358.36980875,294.1627221875C357.76968875,295.3205221875,356.82140875,296.2688021875,355.66363875,296.8689221875C354.31850875,297.5661621875,352.51137875,297.5733321875,348.97701875,297.5733321875L14.17141275,297.5733321875C10.63705735,297.5733321875,8.82993415,297.5661621875,7.48481275,296.8689221875C6.327018450000001,296.2688021875,5.3787543499999995,295.3205221875,4.77861261,294.1627221875C4.0813791156,292.8175921875,4.0742187500000036,291.0104721875,4.074218750000006,287.4761321875L4.074218750000165,13.1704431875C4.074218750000168,9.636081687499999,4.0813735127,7.8289517875,4.77861261,6.4838368875C5.3787543499999995,5.326042387499999,6.327018450000001,4.3777781875,7.48481275,3.7776362275C8.82992745,3.080396831,10.63705735,3.073242187500318,14.17141175,3.0732421875003135" fill-rule="evenodd" fill="url(#master_svg1_0_734)" fill-opacity="1"/><path d="M3.00096295,13.1704441875L3.00096305,287.4761321875Q3.00096305,293.0654021875,3.82575715,294.6566421875Q4.9063217,296.7412721875,6.990910550000001,297.8218121875Q8.582131350000001,298.6465721875,14.17141275,298.6465721875L348.97701875,298.6465721875Q354.56631875,298.6465721875,356.15752875,297.8218121875Q358.24215875,296.7412721875,359.32265875,294.6566121875Q360.14748875,293.0653421875,360.14748875,287.4761321875L360.14748875,13.1704351875Q360.14748875,7.5811962875,359.32265875,5.9899370874999995Q358.24215875,3.9053474075,356.15755875,2.8247830575Q354.56637875,1.9999863875,348.97701875,1.9999863875L14.17141175,1.9999863875Q8.582099450000001,1.9999863875,6.99090175,2.8247821175Q4.90630686,3.9053309575,3.82575893,5.9899258875Q3.00096295,7.5811242875,3.00096295,13.1704441875ZM348.97701875,3.0732421875L14.17141175,3.0732421875C10.63705735,3.0732421875,8.82992745,3.080396831,7.48481275,3.7776362275C6.327018450000001,4.3777781875,5.3787543499999995,5.326042387499999,4.77861261,6.4838368875C4.0813735127,7.8289517875,4.07421875,9.636081687499999,4.07421875,13.1704431875L4.07421875,287.4761321875C4.07421875,291.0104721875,4.0813791156,292.8175921875,4.77861261,294.1627221875C5.3787543499999995,295.3205221875,6.327018450000001,296.2688021875,7.48481275,296.8689221875C8.82993415,297.5661621875,10.63705735,297.5733321875,14.17141275,297.5733321875L348.97701875,297.5733321875C352.51137875,297.5733321875,354.31850875,297.5661621875,355.66363875,296.8689221875C356.82140875,296.2688021875,357.76968875,295.3205221875,358.36980875,294.1627221875C359.06704875,292.8175921875,359.07421875,291.0104721875,359.07421875,287.4761321875L359.07421875,13.1704351875C359.07421875,9.636081687499999,359.06704875,7.8289579875,358.36980875,6.4838368875C357.76968875,5.326042387499999,356.82140875,4.3777781875,355.66363875,3.7776362275C354.31850875,3.0803881288,352.51137875,3.0732421875,348.97701875,3.0732421875Z" fill-rule="evenodd" fill="#FFFFFF" fill-opacity="1"/></g></g></svg>