<svg xmlns="http://www.w3.org/2000/svg" xmlns:xlink="http://www.w3.org/1999/xlink" fill="none" version="1.1" width="87" height="32.67" viewBox="0 0 87 33.6722412109375"><defs><filter id="master_svg0_0_1350" filterUnits="objectBoundingBox" color-interpolation-filters="sRGB" x="0" y="0" width="1" height="1.030606996815702"><feFlood flood-opacity="0" result="BackgroundImageFix"/><feColorMatrix in="SourceAlpha" type="matrix" values="0 0 0 0 0 0 0 0 0 0 0 0 0 0 0 0 0 0 127 0"/><feOffset dy="1" dx="0"/><feGaussianBlur stdDeviation="0"/><feColorMatrix type="matrix" values="0 0 0 0 1 0 0 0 0 0.501960813999176 0 0 0 0 0.05882352963089943 0 0 0 1 0"/><feBlend mode="normal" in2="BackgroundImageFix" result="effect1_dropShadow"/><feBlend mode="normal" in="SourceGraphic" in2="effect1_dropShadow" result="shape"/></filter><linearGradient x1="0.170284241437912" y1="0.5" x2="0.856869637966156" y2="0.5" id="master_svg1_0_754"><stop offset="0%" stop-color="#FF5B00" stop-opacity="1"/><stop offset="100%" stop-color="#F13816" stop-opacity="1"/></linearGradient><linearGradient x1="0.20493434369564056" y1="0.04801134765148163" x2="0.9808134524605177" y2="0.2209955813470259" id="master_svg2_0_756"><stop offset="0%" stop-color="#FFFCF6" stop-opacity="1"/><stop offset="100%" stop-color="#FFF0CF" stop-opacity="1"/></linearGradient><filter id="master_svg3_0_1350" filterUnits="objectBoundingBox" color-interpolation-filters="sRGB" x="0" y="0" width="1" height="1.030606996815702"><feFlood flood-opacity="0" result="BackgroundImageFix"/><feColorMatrix in="SourceAlpha" type="matrix" values="0 0 0 0 0 0 0 0 0 0 0 0 0 0 0 0 0 0 127 0"/><feOffset dy="1" dx="0"/><feGaussianBlur stdDeviation="0"/><feColorMatrix type="matrix" values="0 0 0 0 1 0 0 0 0 0.501960813999176 0 0 0 0 0.05882352963089943 0 0 0 1 0"/><feBlend mode="normal" in2="BackgroundImageFix" result="effect1_dropShadow"/><feBlend mode="normal" in="SourceGraphic" in2="effect1_dropShadow" result="shape"/></filter><mask id="master_svg4_0_1350" style="mask-type:luminance" maskUnits="userSpaceOnUse" x="0" y="-9.529411315917969" width="87.00000000000023" height="53.999998569488525"><path d="M16.336134,0L70.663864,0C70.97596,0,71.14592,0.00011701463,71.277901,0.0023648087C79.893814,0.14910164,86.850899,7.1061883,86.997635,15.722101C86.999886,15.854084,87,16.024044,87,16.336134C87,16.648224,86.999886,16.818184,86.997635,16.950167C86.850899,25.56608,79.893814,32.523167,71.277901,32.669903C71.14592,32.67215,70.97596,32.672268,70.663864,32.672268L16.336136,32.672268C16.024044,32.672268,15.854084,32.67215,15.722101,32.669903C7.1061883,32.523167,0.14910164,25.56608,0.0023648087,16.950167C0.00011701463,16.818184,6.5560057e-13,16.648224,6.5560057e-13,16.336134C6.5560057e-13,16.024044,0.00011701463,15.854084,0.0023648087,15.722101C0.14910164,7.1061883,7.1061883,0.14910164,15.722101,0.0023648087C15.854084,0.00011701463,16.024044,0,16.336134,0" fill-rule="evenodd" fill="#FFFFFF" fill-opacity="1" filter="url(#master_svg3_0_1350)"/></mask><filter id="master_svg5_0_1355" filterUnits="objectBoundingBox" color-interpolation-filters="sRGB" x="-1.6629758646820685" y="-1.7925613249723384" width="4.325951729364137" height="4.585122649944677"><feFlood flood-opacity="0" result="BackgroundImageFix"/><feBlend mode="normal" in="SourceGraphic" in2="BackgroundImageFix" result="shape"/><feGaussianBlur stdDeviation="12.608183860778809" result="effect1_foregroundBlur"/></filter><filter id="master_svg6_0_1358" filterUnits="objectBoundingBox" color-interpolation-filters="sRGB" x="-0.17343092515216335" y="-2.456813829273714" width="1.3468618503043268" height="5.913627658547428"><feFlood flood-opacity="0" result="BackgroundImageFix"/><feBlend mode="normal" in="SourceGraphic" in2="BackgroundImageFix" result="shape"/><feGaussianBlur stdDeviation="3.1307380199432373" result="effect1_foregroundBlur"/></filter><linearGradient x1="1" y1="0" x2="0.5885889797852426" y2="0.839899776301137" id="master_svg7_0_774"><stop offset="0%" stop-color="#FFFFFF" stop-opacity="1"/><stop offset="100%" stop-color="#FFFFFF" stop-opacity="0"/></linearGradient><linearGradient x1="1" y1="-0.1595868617296219" x2="0.4154422336327406" y2="0.8174067290705093" id="master_svg8_0_777"><stop offset="0%" stop-color="#FFFFFF" stop-opacity="1"/><stop offset="100%" stop-color="#FFFFFF" stop-opacity="0"/></linearGradient><linearGradient x1="0.5182071924209595" y1="-0.10522426664829254" x2="0.5182071924209595" y2="0.5699375867843628" id="master_svg9_0_780"><stop offset="0%" stop-color="#FFFFFF" stop-opacity="1"/><stop offset="100%" stop-color="#FFFFFF" stop-opacity="0"/></linearGradient></defs><g mask="url(#master_svg4_0_1350)"><g filter="url(#master_svg0_0_1350)"><path d="M16.336134,0L70.663864,0C70.97596,0,71.14592,0.00011701463,71.277901,0.0023648087C79.893814,0.14910164,86.850899,7.1061883,86.997635,15.722101C86.999886,15.854084,87,16.024044,87,16.336134C87,16.648224,86.999886,16.818184,86.997635,16.950167C86.850899,25.56608,79.893814,32.523167,71.277901,32.669903C71.14592,32.67215,70.97596,32.672268,70.663864,32.672268L16.336136,32.672268C16.024044,32.672268,15.854084,32.67215,15.722101,32.669903C7.1061883,32.523167,0.14910164,25.56608,0.0023648087,16.950167C0.00011701463,16.818184,6.5560057e-13,16.648224,6.5560057e-13,16.336134C6.5560057e-13,16.024044,0.00011701463,15.854084,0.0023648087,15.722101C0.14910164,7.1061883,7.1061883,0.14910164,15.722101,0.0023648087C15.854084,0.00011701463,16.024044,0,16.336134,0" fill-rule="evenodd" fill="url(#master_svg1_0_754)" fill-opacity="1"/><path d="M70.663864,0L16.336134,0C16.024044,0,15.854084,0.00011701463,15.722101,0.0023648087C7.1061883,0.14910164,0.14910164,7.1061883,0.0023648087,15.722101C0.00011701463,15.854084,0,16.024044,0,16.336134C0,16.648224,0.00011701463,16.818184,0.0023648087,16.950167C0.14910164,25.56608,7.1061883,32.523167,15.722101,32.669903C15.854084,32.67215,16.024044,32.672268,16.336136,32.672268L70.663864,32.672268C70.97596,32.672268,71.14592,32.67215,71.277901,32.669903C79.893814,32.523167,86.850899,25.56608,86.997635,16.950167C86.999886,16.818184,87,16.648224,87,16.336134C87,16.024044,86.999886,15.854084,86.997635,15.722101C86.850899,7.1061883,79.893814,0.14910164,71.277901,0.0023648087C71.14592,0.00011701463,70.97596,0,70.663864,0ZM16.33786,0.92707241L16.336134,0.92707884L15.737889,0.92930156Q9.650691,1.0329726,5.3418317,5.3418317Q1.0329733,9.6506882,0.92943037,15.725672L0.92706555,16.332563L0.92930156,16.93438Q1.0329726,23.021578,5.3418317,27.330437Q9.6506901,31.639294,15.725672,31.742838L16.336136,31.745195L70.660301,31.745203L71.262115,31.742966Q77.349312,31.639294,81.658173,27.330437Q85.967026,23.021585,86.070572,16.946592L86.072945,16.339708L86.070694,15.737889Q85.967026,9.6506844,81.658173,5.3418307Q77.349319,1.0329734,71.27433,0.92943037L70.663864,0.92707241L16.33786,0.92707241Z" fill-rule="evenodd" fill="url(#master_svg2_0_756)" fill-opacity="1" style="mix-blend-mode:screen"/></g><path d="M38.52323111364746,4.537815684082032Q38.52323111364746,4.883147684082031,38.50496911364746,5.2280626840820315Q38.48670211364746,5.572976684082031,38.45021611364746,5.916645684082031Q38.41372911364746,6.260312684082031,38.359108113647466,6.6019056840820305Q38.30449111364746,6.94349868408203,38.23187111364746,7.282193684082031Q38.15925011364746,7.62088968408203,38.068802113647465,7.95587168408203Q37.97835511364746,8.29085368408203,37.87030011364746,8.62131468408203Q37.76224311364746,8.951774684082032,37.63683711364746,9.276920684082032Q37.511433113647456,9.60206368408203,37.36898211364746,9.921108684082032Q37.226532113647465,10.24015268408203,37.06737911364746,10.55232768408203Q36.90822611364746,10.864503684082031,36.73275411364746,11.169059684082033Q36.55727911364746,11.473613684082032,36.365911113647456,11.769813684082031Q36.17453911364746,12.06601368408203,35.96773311364746,12.35314568408203Q35.76092711364746,12.640277684082033,35.53918311364746,12.917651684082031Q35.31744211364746,13.19502668408203,35.08129511364746,13.46197168408203Q34.84514811364746,13.728915684082033,34.59516711364746,13.98478868408203Q34.34518611364746,14.240661684082031,34.08197211364746,14.48484768408203Q33.81875811364746,14.72903468408203,33.54294611364746,14.96094468408203Q33.26713411364746,15.192853684082031,32.97938911364746,15.411929684082033Q32.69164311364746,15.631004684082033,32.39265611364746,15.836717684082032Q32.09366811364746,16.04243068408203,31.78416211364746,16.23428568408203Q31.47465511364746,16.42613968408203,31.15537411364746,16.60367568408203Q30.83609211364746,16.78121168408203,30.507807113647463,16.944001684082032Q30.17951811364746,17.10678868408203,29.843017113647463,17.25443668408203Q29.50651511364746,17.40208468408203,29.16261111364746,17.534236684082032Q28.81870411364746,17.66638968408203,28.46822511364746,17.78272868408203Q28.11774411364746,17.89906668408203,27.76153411364746,17.99931168408203Q27.40532111364746,18.09955568408203,27.04423311364746,18.18346168408203Q26.68314911364746,18.267371684082033,26.31806211364746,18.33474368408203Q25.95297411364746,18.402114684082033,25.58476211364746,18.45278568408203Q25.216551113647462,18.50345568408203,24.84610511364746,18.53730768408203Q24.47565611364746,18.57115368408203,24.10386511364746,18.588096684082032Q23.73207211364746,18.605041684082032,23.35983211364746,18.60504368408203Q22.98759111364746,18.605041684082032,22.61579811364746,18.588096684082032Q22.244007113647463,18.571151684082032,21.87355911364746,18.537305684082032Q21.503111113647464,18.50345568408203,21.13489811364746,18.452783684082032Q20.76668711364746,18.402114684082033,20.40159911364746,18.33474368408203Q20.03651011364746,18.267371684082033,19.67542511364746,18.18346368408203Q19.31434011364746,18.09955568408203,18.95812911364746,17.999313684082033Q18.60191711364746,17.89906668408203,18.25143511364746,17.78272868408203Q17.90095521364746,17.66638968408203,17.557048813647462,17.534236684082032Q17.21314431364746,17.40208468408203,16.87664221364746,17.25443668408203Q16.54014111364746,17.106790684082032,16.21185401364746,16.94400368408203Q15.88356681364746,16.781213684082033,15.56428531364746,16.60367568408203Q15.24500371364746,16.42613968408203,14.93549731364746,16.23428568408203Q14.62599091364746,16.04243068408203,14.327004413647462,15.83671968408203Q14.028018013647461,15.631004684082033,13.740272513647461,15.411929684082033Q13.45252661364746,15.192853684082031,13.17671441364746,14.96094468408203Q12.900902713647461,14.729032684082032,12.63768861364746,14.484845684082032Q12.374475013647462,14.240661684082031,12.124493313647461,13.984786684082032Q11.874511713647461,13.728914684082032,11.63836501364746,13.461969684082032Q11.402217913647462,13.19502268408203,11.180474713647461,12.91765068408203Q10.95873121364746,12.640277684082033,10.75192551364746,12.35314568408203Q10.54511971364746,12.06601368408203,10.35374971364746,11.769813684082031Q10.16238001364746,11.473613684082032,9.98690701364746,11.169059684082033Q9.81143401364746,10.864503684082031,9.65228071364746,10.55232768408203Q9.493127313647461,10.24015268408203,9.350677013647461,9.921108684082032Q9.20822681364746,9.60206368408203,9.08282274364746,9.276920684082032Q8.957418683647461,8.95177668408203,8.84936297364746,8.621316684082032Q8.741307253647461,8.290855684082032,8.650860163647462,7.955873684082032Q8.560413063647461,7.620891684082032,8.487792553647461,7.28219568408203Q8.415172023647461,6.943500684082032,8.360552993647461,6.6019076840820325Q8.305933983647462,6.260313684082032,8.269448026647462,5.916646684082032Q8.23296207164746,5.572977684082032,8.21469709264746,5.228063684082031Q8.196432113647752,4.883147684082031,8.196432113647752,4.537815684082032Q8.196432113647752,4.1924856840820315,8.21469709264746,3.847570684082031Q8.23296207164746,3.5026546840820316,8.269448026647462,3.1589866840820306Q8.305933983647462,2.815316684082031,8.360552993647461,2.473724684082031Q8.415172023647461,2.132130684082032,8.487792553647461,1.7934346840820314Q8.560413063647461,1.4547406840820312,8.65086013364746,1.1197576840820318Q8.741307253647461,0.7847766840820309,8.84936297364746,0.45431518408203075Q8.957418683647461,0.12385368408203057,9.08282268364746,-0.201291115917968Q9.20822681364746,-0.526435815917969,9.350677013647461,-0.8454799159179682Q9.493127313647461,-1.1645241159179687,9.65228071364746,-1.476698915917968Q9.81143401364746,-1.788874615917969,9.98690701364746,-2.0934295159179683Q10.16238001364746,-2.397984515917969,10.35374971364746,-2.694185215917969Q10.54511971364746,-2.990385015917969,10.75192551364746,-3.2775173159179687Q10.95873121364746,-3.5646496159179684,11.18047451364746,-3.842021915917969Q11.40221811364746,-4.119394315917969,11.63836531364746,-4.386339215917968Q11.87451191364746,-4.653283115917969,12.124493613647461,-4.909156815917969Q12.374475013647462,-5.165030015917969,12.63768861364746,-5.409215915917969Q12.900902713647461,-5.653401815917968,13.176714913647462,-5.885312115917969Q13.45252661364746,-6.117222315917969,13.740272513647461,-6.3362980159179685Q14.028018013647461,-6.555373715917969,14.327004413647462,-6.761087215917969Q14.62599091364746,-6.966800715917969,14.93549731364746,-7.158656315917969Q15.24500371364746,-7.350512015917969,15.56428531364746,-7.528047515917969Q15.88356681364746,-7.705583115917969,16.21185401364746,-7.868371015917969Q16.54014111364746,-8.031158915917969,16.87664221364746,-8.178807015917968Q17.21314431364746,-8.32645511591797,17.557048813647462,-8.458607515917969Q17.90095521364746,-8.590759995917969,18.25143511364746,-8.707098545917969Q18.60191711364746,-8.82343703591797,18.95812911364746,-8.92368131591797Q19.31434011364746,-9.023925605917968,19.67542511364746,-9.107834215917968Q20.03651011364746,-9.19174277591797,20.40159911364746,-9.259113515917969Q20.76668711364746,-9.32648426591797,21.13489911364746,-9.37715484591797Q21.503111113647464,-9.427825415917969,21.87356011364746,-9.461673773917969Q22.244007113647463,-9.49552213391797,22.615799113647462,-9.512466724917969Q22.98759111364746,-9.529411315917969,23.35983211364746,-9.529411315917969Q23.73207211364746,-9.529411315917969,24.10386511364746,-9.512466724917969Q24.47565611364746,-9.49552213391797,24.84610511364746,-9.461673773917969Q25.216551113647462,-9.427825415917969,25.58476211364746,-9.37715484591797Q25.95297411364746,-9.32648426591797,26.31806211364746,-9.259113515917969Q26.68314911364746,-9.19174277591797,27.04423511364746,-9.107834155917969Q27.40532111364746,-9.023925545917969,27.76153411364746,-8.92368125591797Q28.11774411364746,-8.823436975917968,28.46822511364746,-8.707098545917969Q28.81870411364746,-8.590759995917969,29.16261111364746,-8.458607515917969Q29.50651511364746,-8.32645511591797,29.843017113647463,-8.178807015917968Q30.17951811364746,-8.031158915917969,30.507807113647463,-7.868371015917969Q30.83609211364746,-7.705583115917969,31.15537311364746,-7.528047515917969Q31.47465311364746,-7.350512015917969,31.78416111364746,-7.158656315917969Q32.09366811364746,-6.966800715917969,32.39265411364746,-6.761087215917969Q32.691641113647464,-6.555373715917969,32.97938711364746,-6.3362977159179685Q33.26713411364746,-6.117222315917969,33.542944113647465,-5.885312115917969Q33.81875811364746,-5.653401815917968,34.08197211364746,-5.409215915917969Q34.34518611364746,-5.165030015917969,34.59516711364746,-4.909156815917969Q34.84514811364746,-4.653283115917969,35.081297113647466,-4.386338715917969Q35.31744211364746,-4.119394315917969,35.53918611364746,-3.842021915917969Q35.760929113647464,-3.5646496159179684,35.967735113647464,-3.2775173159179687Q36.17453911364746,-2.990385015917969,36.365911113647456,-2.694185215917969Q36.55728111364746,-2.397984515917969,36.73275611364746,-2.0934295159179683Q36.90822811364746,-1.788874615917969,37.06738111364746,-1.4766998159179696Q37.22653411364746,-1.1645241159179687,37.36898411364746,-0.8454799159179682Q37.51143411364746,-0.526435815917969,37.63683911364746,-0.201291115917968Q37.76224311364746,0.12385368408203057,37.870298113647465,0.45431518408203075Q37.97835311364746,0.7847766840820309,38.068802113647465,1.119758684082031Q38.15925011364746,1.4547406840820312,38.23187111364746,1.7934346840820314Q38.30449111364746,2.132130684082032,38.35911011364746,2.473724684082031Q38.41372911364746,2.815316684082031,38.45021611364746,3.1589866840820306Q38.48670211364746,3.5026546840820316,38.50496911364746,3.847570684082031Q38.52323111364746,4.1924856840820315,38.52323111364746,4.537815684082032Z" fill="#FF8F4F" fill-opacity="1" filter="url(#master_svg5_0_1355)"/><path d="M14.996784190490722,1.5410382938702392L73.99034219049072,1.4386719231702392C74.06359219049072,1.4385448208702392,74.10094519049072,1.4384912634702394,74.13639119049073,1.4395322380702393C74.66765719049073,1.4551355928702392,75.17726219049072,1.6541632238702393,75.57847719049072,2.002739783870239C75.60524119049072,2.025995313870239,75.63267619049073,2.051351013870239,75.68645619049072,2.1010882238702395L75.70379019049072,2.117124553870239C75.99579719049072,2.387204173870239,76.16036319049073,2.5410659638702393,76.23542119049073,2.6262518638702392C77.45563619049072,4.011142263870239,76.58748719049072,6.233136463870239,74.75161119049072,6.423990463870239C74.63868819049073,6.435730263870239,74.41340719049072,6.43727896387024,74.01564919049072,6.43786076387024L15.004752590490723,6.524191163870239C14.580214490490722,6.524812463870239,14.339698790490722,6.5238387638702395,14.224407190490723,6.511959763870239C12.342675690490722,6.318077363870239,11.495458590490722,4.000576463870239,12.808474590490722,2.6387785638702392C12.888921690490722,2.5553426638702392,13.072100590490724,2.3994773638702394,13.396943090490723,2.1261446438702394C13.448988890490723,2.0823521638702394,13.475470990490724,2.0600802938702394,13.501381890490723,2.0395301538702393C13.889316090490723,1.7318536038702392,14.366207590490722,1.5574410138702393,14.861108290490723,1.5422401538702393C14.894163590490724,1.5412248738702392,14.928765790490722,1.5411563138702393,14.996784190490722,1.5410382938702392" fill-rule="evenodd" fill="#FFB297" fill-opacity="1" filter="url(#master_svg6_0_1358)"/><path d="M73.43688433911133,-6.352941036224365L81.63331633911133,-6.352941036224365L54.21427343911133,44.47058696377564L46.01784133911121,44.47058696377564L73.43688433911133,-6.352941036224365Z" fill-rule="evenodd" fill="url(#master_svg7_0_774)" fill-opacity="0.699999988079071"/><path d="M60.32259221447754,-8.16806697845459L73.43688421447754,-8.16806697845459L46.01783921447754,42.65546102154541L27.611429214477607,42.65546102154541L60.32259221447754,-8.16806697845459Z" fill-rule="evenodd" fill="url(#master_svg8_0_777)" fill-opacity="0.800000011920929"/><path d="M16.33613400000023,0L70.66386400000023,0C79.68606600000022,0,87.00000000000023,7.3139362,87.00000000000023,16.336134C87.00000000000023,25.358332,79.68606600000022,32.672268,70.66386400000023,32.672268L16.336136000000227,32.672268C7.313936200000227,32.672268,8.829742454432321e-13,25.358332,8.829742454432321e-13,16.336134C8.829742454432321e-13,7.3139362,7.313936200000227,0,16.33613400000023,0" fill-rule="evenodd" fill="url(#master_svg9_0_780)" fill-opacity="1"/></g></svg>