<svg xmlns="http://www.w3.org/2000/svg" xmlns:xlink="http://www.w3.org/1999/xlink" fill="none" version="1.1" width="153.49" height="16" viewBox="0 0 153.48828125 16"><g style="opacity:0.6476963758468628;"><path d="M57.488158999999996,0L63.488158999999996,0L51,16L45,16L57.488158999999996,0Z" fill-rule="evenodd" fill="#FFE3B5" fill-opacity="1"/><path d="M117.488159,0L123.488159,0L111,16L105,16L117.488159,0Z" fill-rule="evenodd" fill="#FFE3B5" fill-opacity="1"/><path d="M147.488159,0L153.488159,0L141,16L135,16L147.488159,0Z" fill-rule="evenodd" fill="#FFE3B5" fill-opacity="1"/><path d="M42.488158999999996,0L48.488158999999996,0L36,16L30,16L42.488158999999996,0Z" fill-rule="evenodd" fill="#FFE3B5" fill-opacity="1"/><path d="M102.488159,0L108.488159,0L96,16L90,16L102.488159,0Z" fill-rule="evenodd" fill="#FFE3B5" fill-opacity="1"/><path d="M132.488159,0L138.488159,0L126,16L120,16L132.488159,0Z" fill-rule="evenodd" fill="#FFE3B5" fill-opacity="1"/><path d="M27.488159,0L33.488158999999996,0L21,16L15,16L27.488159,0Z" fill-rule="evenodd" fill="#FFE3B5" fill-opacity="1"/><path d="M87.488159,0L93.488159,0L81,16L75,16L87.488159,0Z" fill-rule="evenodd" fill="#FFE3B5" fill-opacity="1"/><path d="M12.488159,0L18.488159,0L6,16L0,16L12.488159,0Z" fill-rule="evenodd" fill="#FFE3B5" fill-opacity="1"/><path d="M72.488159,9.094947017729282e-13L78.488159,9.094947017729282e-13L66,16.00000000000091L60,16.00000000000091L72.488159,9.094947017729282e-13Z" fill-rule="evenodd" fill="#FFE3B5" fill-opacity="1"/></g></svg>