<svg xmlns="http://www.w3.org/2000/svg" xmlns:xlink="http://www.w3.org/1999/xlink" fill="none" version="1.1" width="92.45" height="9.9" viewBox="0 0 92.44921875 9.89947509765625"><defs><linearGradient x1="1" y1="1" x2="-0.00004005126433465399" y2="0.9999198814251511" id="master_svg0_0_719"><stop offset="0%" stop-color="#2979E8" stop-opacity="1"/><stop offset="100%" stop-color="#2577E8" stop-opacity="0"/></linearGradient></defs><g transform="matrix(-1,0,0,1,184.8984375,0)"><g transform="matrix(0.7071067690849304,0.7071067690849304,-0.7071067690849304,0.7071067690849304,51.53433515666987,-124.41488359333015)"><path d="M176.29921874403954 0.34999999403957816C176.29921874403954 0.34999999403957816 176.29921874403954 0.34999999403957816 176.29921874403954 0.34999999403957816L182.59921875596046 0.34999999403957816C182.59921875596046 0.34999999403957816 182.59921875596046 0.34999999403957816 182.59921875596046 0.34999999403957816L182.59921875596046 6.650000005960507C182.59921875596046 6.650000005960507 182.59921875596046 6.650000005960507 182.59921875596046 6.650000005960507L176.29921874403954 6.650000005960507C176.29921874403954 6.650000005960507 176.29921874403954 6.650000005960507 176.29921874403954 6.650000005960507Z" fill-opacity="0" stroke-opacity="1" stroke="#2577E8" fill="none" stroke-width="0.699999988079071"/></g><path d="M92.4492164850235,5.4497498624084475L92.94921881,5.449747562408447L170.94921875,5.449747562408447L171.44921875,5.4497498624084475L171.44921875,4.449745297431948L170.94921875,4.449747562408447L92.94921875,4.449747562408447L92.4492164850235,4.449745297431948L92.4492164850235,5.4497498624084475Z" fill-rule="evenodd" fill="url(#master_svg0_0_719)" fill-opacity="1"/><path d="M179.94921875 4.973799150320701e-14C179.94921875 4.973799150320701e-14 179.94921875 4.973799150320701e-14 179.94921875 4.973799150320701e-14L186.94921875 4.973799150320701e-14C186.94921875 4.973799150320701e-14 186.94921875 4.973799150320701e-14 186.94921875 4.973799150320701e-14L186.94921875 7.00000000000005C186.94921875 7.00000000000005 186.94921875 7.00000000000005 186.94921875 7.00000000000005L179.94921875 7.00000000000005C179.94921875 7.00000000000005 179.94921875 7.00000000000005 179.94921875 7.00000000000005Z" fill="#2577E8" fill-opacity="1" transform="matrix(0.7071067690849304,0.7071067690849304,-0.7071067690849304,0.7071067690849304,52.70590808033015,-127.24331066966985)"/></g></svg>