<svg xmlns="http://www.w3.org/2000/svg" xmlns:xlink="http://www.w3.org/1999/xlink" fill="none" version="1.1" width="136" height="20" viewBox="0 0 136 20"><g><path d="M19.158684,6.739606006943512L19.158684,0.853391706943512L0.52734375,0.853391706943512L0.52734375,3.260393906943512L15.863047,3.260393906943512L15.863047,6.739606006943512L19.158684,6.739606006943512ZM8.5019884,7.899340206943512Q5.6457691,6.455139206943512,2.7675781,6.017502406943512L2.7675781,3.676145606943512Q6.1510997,3.938727906943512,8.5019884,4.901528406943512L8.5019884,7.899340206943512ZM1.8007812,9.693653206943512Q4.6350298,10.109407506943512,7.5351915,11.487962706943511L7.5351915,8.512033506943512Q5.1403608,7.483586806943512,1.8007812,7.264768706943512L1.8007812,9.693653206943512ZM19.598061,13.938616706943511L19.598061,11.531614706943511L0,11.531614706943511L0,13.938616706943511L8.8762522,13.938616706943511C9.5553532,14.784050706943512,10.15456,14.386199706943511,11.534734,15.929863706943513Q13.81971,18.75262070694351,19.33441,19.956121706943513L19.33441,17.85546470694351Q15.555412,16.586318706943512,13.951534,13.938616706943511L19.598061,13.938616706943511Z" fill-rule="evenodd" fill="#FFFFFF" fill-opacity="1"/></g><g><path d="M22.630048333842772,1.1159736907143594L22.630048333842772,3.3260393907143593L24.893053313842774,3.3260393907143593L24.893053313842774,9.60612669071436L22.036833494842774,9.60612669071436L22.036833494842774,11.816192190714359L25.903715613842774,11.816192190714359Q24.673344113842774,13.39168419071436,21.948949813842773,14.485777190714359L21.948949813842773,16.52078819071436C23.809154413842773,16.08315119071436,25.325147913842773,15.52881119071436,26.496930613842775,14.85776819071436L26.496930613842775,15.886214190714359L29.902423413842772,15.886214190714359L29.902423413842772,17.17724219071436L23.464943413842775,17.17724219071436L23.464943413842775,19.40919119071436L40.09692981384278,19.40919119071436L40.09692981384278,17.17724219071436L33.52762481384278,17.17724219071436L33.52762481384278,15.886214190714359L36.95508881384277,15.886214190714359L36.95508881384277,14.85776819071436C38.141517813842775,15.543399190714359,39.65751281384277,16.097739190714357,41.50306881384277,16.52078819071436L41.50306881384277,14.485777190714359Q38.756704813842774,13.391685190714359,37.52633281384277,11.816192190714359L41.547010813842775,11.816192190714359L41.547010813842775,9.60612669071436L38.536994813842774,9.60612669071436L38.536994813842774,3.3260393907143593L40.95379681384277,3.3260393907143593L40.95379681384277,1.1159736907143594L38.536994813842774,1.1159736907143594L38.536994813842774,0.10940919071435928L34.86785081384277,0.10940919071435928L34.86785081384277,1.1159736907143594L28.562197213842772,1.1159736907143594L28.562197213842772,0.10940919071435928L24.893053313842774,0.10940919071435928L24.893053313842774,1.1159736907143594L22.630048333842772,1.1159736907143594ZM28.562231013842773,3.325961890714359L28.562231013842773,4.20123559071436L34.867885813842776,4.20123559071436L34.867885813842776,3.325961890714359L28.562231013842773,3.325961890714359ZM28.562231013842773,6.017612290714359L28.562231013842773,6.9147675907143595L34.867885813842776,6.9147675907143595L34.867885813842776,6.017612290714359L28.562231013842773,6.017612290714359ZM28.562231013842773,9.606174290714359L28.562231013842773,8.70901859071436L34.867885813842776,8.70901859071436L34.867885813842776,9.606174290714359L28.562231013842773,9.606174290714359ZM29.924872913842773,11.81619619071436Q28.980123513842774,13.04158019071436,28.013402913842775,13.807443190714359L29.902902113842774,13.807443190714359L29.902902113842774,12.538296190714359L33.52810481384277,12.538296190714359L33.52810481384277,13.807443190714359L35.417603813842774,13.807443190714359Q34.40694081384277,12.99781619071436,33.52810481384277,11.81619619071436L29.924872913842773,11.81619619071436Z" fill-rule="evenodd" fill="#FFFFFF" fill-opacity="1"/></g><g><path d="M47.764782634277346,7.2866521L47.764782634277346,8.5557985L51.74151943427734,8.5557985L51.74151943427734,10.065645L45.347981434277344,10.065645L45.347981434277344,12.582057L51.74151943427734,12.582057L51.74151943427734,16.892778L44.205493544277346,16.892778L44.205493544277346,19.409191L63.27625313427734,19.409191L63.27625313427734,16.892778L55.696285134277346,16.892778L55.696285134277346,12.582057L62.13376413427734,12.582057L62.13376413427734,10.065645L55.696285134277346,10.065645L55.696285134277346,8.5557985L59.71696413427735,8.5557985L59.71696413427735,7.3304157Q61.47463813427734,8.0306339,63.62778713427734,8.5776806L63.62778713427734,6.1925602Q58.17899913427735,4.0919037,55.80614013427734,0L51.58772273427734,0Q49.214863734277344,4.0919037,43.766075134277344,6.1925602L43.766075134277344,8.5776806Q46.07302193427734,7.9649892,47.764782634277346,7.2866521ZM50.33443453427734,6.0394859Q52.04816533427734,5.0548029,53.695985834277344,3.4355469Q55.25592213427734,4.9891572,57.03556513427734,6.0394859L50.33443453427734,6.0394859ZM49.72040273427734,13.12915L46.40279393427734,13.12915Q46.534619334277345,14.857815,47.25965973427734,16.345781L50.44544313427734,16.345781Q49.87419983427734,14.857817,49.72040273427734,13.12915ZM60.99036413427734,13.12915Q60.85853913427734,14.857817,60.13349913427734,16.345781L56.94771613427734,16.345781Q57.518959134277345,14.857815,57.67275613427734,13.12915L60.99036413427734,13.12915Z" fill-rule="evenodd" fill="#FFFFFF" fill-opacity="1"/></g><g><path d="M88.30113226660157,11.85995569918251L91.83845126660157,11.85995569918251L91.83845126660157,9.34354509918251L84.06074426660156,9.34354509918251L84.06074426660156,3.9387308991825103L91.02552626660156,3.9387308991825103L91.02552626660156,1.4223193991825103L84.06074426660156,1.4223193991825103L84.06074426660156,0.17505469918251038L80.21583316660156,0.17505469918251038L80.21583316660156,1.4223193991825103L73.31696420660157,1.4223193991825103L73.31696420660157,3.9387308991825103L80.21583316660156,3.9387308991825103L80.21583316660156,9.34354509918251L72.46009826660156,9.34354509918251L72.46009826660156,11.85995569918251L75.99741646660156,11.85995569918251Q75.38223076660157,15.05470469918251,72.56995286660157,16.84901469918251L72.56995286660157,19.14660869918251Q78.54604336660157,17.39606069918251,79.64458946660156,11.85995569918251L80.21583316660156,11.85995569918251L80.21583316660156,19.99999969918251L84.06074426660156,19.99999969918251L84.06074426660156,11.85995569918251L84.63198826660157,11.85995569918251Q85.77447726660156,17.417943699182512,91.72859526660156,19.14660869918251L91.72859526660156,16.84901469918251Q88.91631726660157,15.05470469918251,88.30113226660157,11.85995569918251ZM74.52455136660156,4.70459569918251L77.97398566660156,4.70459569918251Q78.17172436660157,6.73960699918251,79.05056096660157,8.55579959918251L75.71098116660156,8.55579959918251Q74.89805696660156,7.045951999182511,74.52455136660156,4.70459569918251ZM89.72829426660157,4.70459569918251C89.47929226660156,6.265500199182511,89.08381426660156,7.549234499182511,88.54186626660156,8.55579959918251L85.20228626660156,8.55579959918251Q86.08112326660157,6.73960699918251,86.27886126660157,4.70459569918251L89.72829426660157,4.70459569918251Z" fill-rule="evenodd" fill="#FFFFFF" fill-opacity="1"/></g><g><path d="M99.37447688847656,0.21881838142871857L95.96898398847657,0.21881838142871857L95.96898398847657,2.6258205814287185L94.36510672847656,2.6258205814287185L94.36510672847656,5.010940781428719L95.96898398847657,5.010940781428719L95.96898398847657,9.365426781428718C95.19267808847657,9.482129781428718,94.57016867847656,9.55506968142872,94.10145568847656,9.584245381428719L94.10145568847656,12.60393838142872Q95.11211798847657,12.450765381428718,95.96898398847657,12.25382938142872L95.96898398847657,16.63019738142872C95.96898398847657,17.22829938142872,95.70533288847656,17.52005938142872,95.17803088847656,17.50547038142872L94.58481594847656,17.50547038142872L94.58481594847656,19.91247338142872L96.40840248847657,19.91247338142872C98.41507958847656,19.941648381428717,99.40377138847656,18.956966381428717,99.37447688847656,16.958425381428718L99.37447688847656,11.203501381428719Q99.96769138847657,10.96280038142872,100.16543008847657,10.875273381428718C100.37049198847656,10.773158381428718,100.53161188847656,10.70021838142872,100.64878988847656,10.656454381428718L100.64878988847656,8.205689181428719C100.48766998847657,8.26404068142872,100.26063728847656,8.336980581428719,99.96769138847657,8.42450778142872Q99.57221508847657,8.533916181428719,99.37447688847656,8.599562381428719L99.37447688847656,5.010940781428719L100.73667378847657,5.010940781428719L100.73667378847657,2.6258205814287185L99.37447688847656,2.6258205814287185L99.37447688847656,0.21881838142871857ZM101.17566728847656,0.7439648614287185L113.54529568847656,0.7439648614287185L113.54529568847656,6.214424281428719C113.61853168847657,8.533898981428718,112.47604368847657,9.657167181428719,110.11783168847657,9.584227281428719L107.85482768847656,9.584227281428719L107.85482768847656,7.1772252814287185L108.95337268847656,7.1772252814287185C109.70038468847656,7.220988981428719,110.05924368847656,6.841703581428718,110.02994868847657,6.039369781428719L110.02994868847657,3.1509670814287185L106.86613668847656,3.1509670814287185Q106.86613668847656,8.512016981428719,101.08778378847656,10.393855381428718L101.08778378847656,8.24943518142872Q102.44997978847657,7.2647520814287185,102.91137028847656,6.214424281428719Q103.37276078847657,5.2516237814287186,103.37275978847656,3.1509670814287185L101.17566728847656,3.1509670814287185L101.17566728847656,0.7439648614287185ZM101.24208068847656,10.787666381428718L101.24208068847656,19.91239138142872L110.20621668847656,19.91239138142872C112.43260168847657,19.98533238142872,113.51650268847656,18.818301381428718,113.45791268847657,16.41129838142872L113.45791268847657,10.787666381428718L101.24208068847656,10.787666381428718ZM104.64833068847656,13.194648381428719L110.05317668847655,13.194648381428719L110.05317668847655,16.214341381428717C110.09711868847657,17.14796838142872,109.72361368847656,17.578309381428717,108.93265968847656,17.50537038142872L104.64833068847656,17.50537038142872L104.64833068847656,13.194648381428719Z" fill-rule="evenodd" fill="#FFFFFF" fill-opacity="1"/></g><g><path d="M119.93926005273437,0.26258206367492676Q119.03845215273438,3.238512263674927,116.33602905273438,4.551422363674927L116.33602905273438,6.652078863674927Q121.98255585273438,5.864332463674927,123.71825835273438,0.26258206367492676L119.93926005273437,0.26258206367492676ZM135.3405610527344,1.1597988636749268L124.72860715273437,1.1597988636749268L124.72860715273437,3.6543283636749266L135.3405610527344,3.6543283636749266L135.3405610527344,1.1597988636749268ZM118.31341195273437,19.978055063674926L118.31341195273437,11.662956063674926C117.72752075273438,11.852599063674926,117.06839305273438,12.013066063674927,116.33602905273438,12.144357063674926L116.33602905273438,10.065582563674926Q118.97253945273438,8.621381063674926,119.93926005273437,5.776742263674927L123.71825835273438,5.776742263674927Q122.92730565273438,8.074335363674926,121.82875915273438,9.365363363674927L121.82875915273438,19.978055063674926L118.31341195273437,19.978055063674926ZM124.07040405273438,6.367562563674927L124.07040405273438,8.862092263674926L129.43130905273438,8.862092263674926L129.43130905273438,16.258153063674925C129.43130905273438,16.972959063674928,129.1090680527344,17.330363063674927,128.46458805273437,17.330363063674927L126.66297205273437,17.330363063674927L126.66297205273437,19.737367063674927L130.2442320527344,19.737367063674927C132.29485205273437,19.766542063674926,133.30551505273436,18.687038063674926,133.27622005273437,16.498853063674925L133.27622005273437,8.862092263674926L136.00061405273436,8.862092263674926L136.00061405273436,6.367562563674927L124.07040405273438,6.367562563674927Z" fill-rule="evenodd" fill="#FFFFFF" fill-opacity="1"/></g></svg>