<svg xmlns="http://www.w3.org/2000/svg" xmlns:xlink="http://www.w3.org/1999/xlink" fill="none" version="1.1" width="321" height="171" viewBox="0 0 321 171"><defs><filter id="master_svg0_0_1369" filterUnits="objectBoundingBox" color-interpolation-filters="sRGB" x="0" y="0" width="1" height="1"><feFlood flood-opacity="0" result="BackgroundImageFix"/><feBlend mode="normal" in="SourceGraphic" in2="BackgroundImageFix" result="shape"/><feColorMatrix in="SourceAlpha" type="matrix" result="hardAlpha" values="0 0 0 0 0 0 0 0 0 0 0 0 0 0 0 0 0 0 127 0"/><feOffset dy="1" dx="0"/><feGaussianBlur stdDeviation="0"/><feComposite in2="hardAlpha" operator="arithmetic" k2="-1" k3="1"/><feColorMatrix type="matrix" values="0 0 0 0 1 0 0 0 0 1 0 0 0 0 1 0 0 0 1 0"/><feBlend mode="normal" in2="shape" result="effect1_innerShadow"/></filter><linearGradient x1="0.5098735690116882" y1="1" x2="0.5098735690116882" y2="0" id="master_svg1_0_741"><stop offset="0%" stop-color="#FFFCF4" stop-opacity="1"/><stop offset="100%" stop-color="#FFFAEF" stop-opacity="1"/></linearGradient><linearGradient x1="0.5098735690116882" y1="1" x2="0.4751106882034538" y2="0.0008659740905077491" id="master_svg2_0_742"><stop offset="0%" stop-color="#FFFFFF" stop-opacity="1"/><stop offset="100%" stop-color="#F0F8FF" stop-opacity="1"/></linearGradient><linearGradient x1="0.5" y1="0" x2="0.5" y2="1" id="master_svg3_0_746"><stop offset="0%" stop-color="#BDE3FF" stop-opacity="1"/><stop offset="100%" stop-color="#FFFFFF" stop-opacity="0"/></linearGradient></defs><g filter="url(#master_svg0_0_1369)"><path d="M12.800002,7.3975293e-13L308.20001,7.3975293e-13C312.68042,7.3975293e-13,314.97128,0.0090700388,316.67645,0.89294559C318.14417,1.6537329,319.34625,2.8558278,320.10706,4.3235397C320.99094,6.0287066,321,8.3195744,321,12.800002L321,158.2C321,162.68042,320.99094,164.97128,320.10706,166.67645C319.34625,168.14417,318.14417,169.34627,316.67645,170.10706C314.97128,170.99094,312.68042,171,308.20001,171L12.799999,171C8.3195744,171,6.0287137,170.99094,4.3235397,170.10706C2.8558278,169.34627,1.6537329,168.14417,0.89294559,166.67645C0.0090700388,164.97128,-1.9573936e-15,162.68042,-3.0115293e-15,158.2L-3.722061e-14,12.800006C-3.8274746e-14,8.3195744,0.00906986,6.0287142,0.89294559,4.3235397C1.6537329,2.8558278,2.8558278,1.6537329,4.3235397,0.89294559C6.0287142,0.00906986,8.3195744,7.3975293e-13,12.800002,7.3975293e-13" fill-rule="evenodd" fill="url(#master_svg1_0_741)" fill-opacity="1"/><path d="M12.800002,7.3975293e-13L308.20001,7.3975293e-13C312.68042,7.3975293e-13,314.97128,0.0090700388,316.67645,0.89294559C318.14417,1.6537329,319.34625,2.8558278,320.10706,4.3235397C320.99094,6.0287066,321,8.3195744,321,12.800002L321,158.2C321,162.68042,320.99094,164.97128,320.10706,166.67645C319.34625,168.14417,318.14417,169.34627,316.67645,170.10706C314.97128,170.99094,312.68042,171,308.20001,171L12.799999,171C8.3195744,171,6.0287137,170.99094,4.3235397,170.10706C2.8558278,169.34627,1.6537329,168.14417,0.89294559,166.67645C0.0090700388,164.97128,-1.9573936e-15,162.68042,-3.0115293e-15,158.2L-3.722061e-14,12.800006C-3.8274746e-14,8.3195744,0.00906986,6.0287142,0.89294559,4.3235397C1.6537329,2.8558278,2.8558278,1.6537329,4.3235397,0.89294559C6.0287142,0.00906986,8.3195744,7.3975293e-13,12.800002,7.3975293e-13" fill-rule="evenodd" fill="url(#master_svg2_0_742)" fill-opacity="1"/><path d="M12.800002,0L308.20001,0C312.68042,0,314.97128,0.0090700388,316.67645,0.89294559C318.14417,1.6537329,319.34625,2.8558278,320.10706,4.3235397C320.99094,6.0287066,321,8.3195744,321,12.800002L321,158.2C321,162.68042,320.99094,164.97128,320.10706,166.67645C319.34625,168.14417,318.14417,169.34627,316.67645,170.10706C314.97128,170.99094,312.68042,171,308.20001,171L12.799999,171C8.3195744,171,6.0287137,170.99094,4.3235397,170.10706C2.8558278,169.34627,1.6537329,168.14417,0.89294559,166.67645C0.0090700388,164.97128,0,162.68042,0,158.2L0,12.800006C0,8.3195744,0.00906986,6.0287142,0.89294559,4.3235397C1.6537329,2.8558278,2.8558278,1.6537329,4.3235397,0.89294559C6.0287142,0.00906986,8.3195744,0,12.800002,0ZM12.800002,1.0000002Q6.2899857,1,4.7837386,1.7807616Q2.8059478,2.8059483,1.7807617,4.7837372Q1,6.2899857,1,12.800006L1.0000002,158.2Q1.0000002,164.71002,1.7807617,166.21626Q2.8059554,168.19406,4.7837372,169.21924Q6.2899928,170,12.799999,170L308.20001,170Q314.70999,170,316.21625,169.21924Q318.19403,168.19408,319.21924,166.21626Q320,164.71001,320,158.2L320,12.800002Q320,6.2899871,319.21924,4.7837462Q318.19403,2.8059394,316.21625,1.7807622Q314.71002,1,308.20001,1L12.800002,1.0000002Z" fill-rule="evenodd" fill="#C7E5FF" fill-opacity="1"/><path d="M12.800002,0L308.20001,0C312.68042,0,314.97128,0.0090700388,316.67645,0.89294559C318.14417,1.6537329,319.34625,2.8558278,320.10706,4.3235397C320.99094,6.0287066,321,8.3195744,321,12.800002L321,158.2C321,162.68042,320.99094,164.97128,320.10706,166.67645C319.34625,168.14417,318.14417,169.34627,316.67645,170.10706C314.97128,170.99094,312.68042,171,308.20001,171L12.799999,171C8.3195744,171,6.0287137,170.99094,4.3235397,170.10706C2.8558278,169.34627,1.6537329,168.14417,0.89294559,166.67645C0.0090700388,164.97128,0,162.68042,0,158.2L0,12.800006C0,8.3195744,0.00906986,6.0287142,0.89294559,4.3235397C1.6537329,2.8558278,2.8558278,1.6537329,4.3235397,0.89294559C6.0287142,0.00906986,8.3195744,0,12.800002,0ZM12.800002,1.0000002Q6.2899857,1,4.7837386,1.7807616Q2.8059478,2.8059483,1.7807617,4.7837372Q1,6.2899857,1,12.800006L1.0000002,158.2Q1.0000002,164.71002,1.7807617,166.21626Q2.8059554,168.19406,4.7837372,169.21924Q6.2899928,170,12.799999,170L308.20001,170Q314.70999,170,316.21625,169.21924Q318.19403,168.19408,319.21924,166.21626Q320,164.71001,320,158.2L320,12.800002Q320,6.2899871,319.21924,4.7837462Q318.19403,2.8059394,316.21625,1.7807622Q314.71002,1,308.20001,1L12.800002,1.0000002Z" fill-rule="evenodd" fill="url(#master_svg3_0_746)" fill-opacity="1"/></g></svg>