<svg xmlns="http://www.w3.org/2000/svg" xmlns:xlink="http://www.w3.org/1999/xlink" fill="none" version="1.1" width="51" height="15" viewBox="0 0 51 15"><path d="M5.5872011,5.0616053e-14L45.4128,6.2273659e-15C47.368507,4.0475808e-15,48.368465,0.0039586425,49.112774,0.38977078C49.753429,0.72185445,50.278145,1.2465689,50.610229,1.8872252C50.99604,2.6315331,51,3.6314945,51,5.5872011L51,9.4127998C51,11.368505,50.99604,12.368466,50.610229,13.112775C50.278145,13.753431,49.753429,14.278146,49.112774,14.610229C48.368465,14.996041,47.368507,15,45.4128,15L5.5872021,15C3.6314945,15,2.6315336,14.996041,1.8872252,14.610229C1.2465689,14.278146,0.72185445,13.753431,0.38977078,13.112775C0.0039590895,12.368466,0,11.368505,0,9.4127989L0,5.5872006C0,3.6314945,0.0039589703,2.6315336,0.38977078,1.8872252C0.72185445,1.2465689,1.2465689,0.72185445,1.8872252,0.38977078C2.6315336,0.0039589703,3.6314945,5.2795838e-14,5.5872011,5.0616053e-14" fill-rule="evenodd" fill="#F1F8FF" fill-opacity="1"/><path d="M5.5872011,0L45.4128,0C47.368507,0,48.368465,0.0039586425,49.112774,0.38977078C49.753429,0.72185445,50.278145,1.2465689,50.610229,1.8872252C50.99604,2.6315331,51,3.6314945,51,5.5872011L51,9.4127998C51,11.368505,50.99604,12.368466,50.610229,13.112775C50.278145,13.753431,49.753429,14.278146,49.112774,14.610229C48.368465,14.996041,47.368507,15,45.4128,15L5.5872021,15C3.6314945,15,2.6315336,14.996041,1.8872252,14.610229C1.2465689,14.278146,0.72185445,13.753431,0.38977078,13.112775C0.0039590895,12.368466,0,11.368505,0,9.4127989L0,5.5872006C0,3.6314945,0.0039589703,2.6315336,0.38977078,1.8872252C0.72185445,1.2465689,1.2465689,0.72185445,1.8872252,0.38977078C2.6315336,0.0039589703,3.6314945,0,5.5872011,0ZM5.5872011,0.55289996Q2.7739532,0.55290008,2.141669,0.88064408Q1.3111457,1.3111454,0.88064408,2.1416693Q0.55290002,2.773953,0.55290002,5.5872006L0.55289996,9.4128017Q0.55289996,12.226046,0.88064426,12.858331Q1.3111455,13.688856,2.1416688,14.119356Q2.7739551,14.4471,5.5872021,14.4471L45.412796,14.4471Q48.226044,14.4471,48.858334,14.119356Q49.688847,13.688861,50.119354,12.858331Q50.447098,12.226046,50.447098,9.4127998L50.447098,5.5872011Q50.447098,2.7739549,50.119354,2.1416707Q49.688847,1.3111395,48.858334,0.88064426Q48.226048,0.55290002,45.4128,0.55290002L5.5872011,0.55289996Z" fill-rule="evenodd" fill="#0976FF" fill-opacity="1"/></svg>