<svg xmlns="http://www.w3.org/2000/svg" xmlns:xlink="http://www.w3.org/1999/xlink" fill="none" version="1.1" width="55.45" height="9.9" viewBox="0 0 55.455078125 9.8995361328125"><defs><linearGradient x1="1" y1="1" x2="-0.0005656072243468201" y2="0.9988655718738952" id="master_svg0_0_287"><stop offset="0%" stop-color="#2979E8" stop-opacity="1"/><stop offset="100%" stop-color="#2577E8" stop-opacity="0"/></linearGradient></defs><g transform="matrix(0.7071067690849304,0.7071067690849304,-0.7071067690849304,0.7071067690849304,13.621251408825579,-32.8846079661744)"><path d="M46.855859369039536 0.3499999940394609C46.855859369039536 0.3499999940394609 46.855859369039536 0.3499999940394609 46.855859369039536 0.3499999940394609L53.155859380960464 0.3499999940394609C53.155859380960464 0.3499999940394609 53.155859380960464 0.3499999940394609 53.155859380960464 0.3499999940394609L53.155859380960464 6.65000000596039C53.155859380960464 6.65000000596039 53.155859380960464 6.65000000596039 53.155859380960464 6.65000000596039L46.855859369039536 6.65000000596039C46.855859369039536 6.65000000596039 46.855859369039536 6.65000000596039 46.855859369039536 6.65000000596039Z" fill-opacity="0" stroke-opacity="1" stroke="#2577E8" fill="none" stroke-width="0.699999988079071"/></g><path d="M0.00040274859999999985,4.994487862408447L0.500375035,4.9999700624084475L41.500377375,5.4497175624084475L42.000347375,5.455204262408447L42.011314375,4.455259762408447L41.511345375,4.449777562408447L0.511343775,4.000030222408447L0.0113715827,3.9945434924084475L0.00040274859999999985,4.994487862408447Z" fill-rule="evenodd" fill="url(#master_svg0_0_287)" fill-opacity="1"/><path d="M50.505859375 -7.105427357601002e-14C50.505859375 -7.105427357601002e-14 50.505859375 -7.105427357601002e-14 50.505859375 -7.105427357601002e-14L57.505859375 -7.105427357601002e-14C57.505859375 -7.105427357601002e-14 57.505859375 -7.105427357601002e-14 57.505859375 -7.105427357601002e-14L57.505859375 6.999999999999929C57.505859375 6.999999999999929 57.505859375 6.999999999999929 57.505859375 6.999999999999929L50.505859375 6.999999999999929C50.505859375 6.999999999999929 50.505859375 6.999999999999929 50.505859375 6.999999999999929Z" fill="#2577E8" fill-opacity="1" transform="matrix(0.7071067690849304,0.7071067690849304,-0.7071067690849304,0.7071067690849304,14.792824332485857,-35.713035042514115)"/></svg>