<svg xmlns="http://www.w3.org/2000/svg" xmlns:xlink="http://www.w3.org/1999/xlink" fill="none" version="1.1" width="355" height="408" viewBox="0 0 369.146511554718 422.146511554718"><defs><filter id="master_svg0_0_1106" filterUnits="objectBoundingBox" color-interpolation-filters="sRGB" x="-0.016901408450704224" y="-0.012254901960784314" width="1.0338028169014084" height="1.0294117647058822"><feFlood flood-opacity="0" result="BackgroundImageFix"/><feColorMatrix in="SourceAlpha" type="matrix" values="0 0 0 0 0 0 0 0 0 0 0 0 0 0 0 0 0 0 127 0"/><feMorphology radius="2" operator="dilate"/><feOffset dy="1" dx="0"/><feGaussianBlur stdDeviation="1"/><feColorMatrix type="matrix" values="0 0 0 0 0.9180824756622314 0 0 0 0 0.96047043800354 0 0 0 0 1 0 0 0 1 0"/><feBlend mode="normal" in2="BackgroundImageFix" result="effect1_dropShadow"/><feBlend mode="normal" in="SourceGraphic" in2="effect1_dropShadow" result="shape"/></filter><linearGradient x1="0.45910465717315674" y1="0" x2="0.45910465717315674" y2="0.11668512970209122" id="master_svg1_0_252"><stop offset="0%" stop-color="#E0EDFF" stop-opacity="1"/><stop offset="100%" stop-color="#FFFFFF" stop-opacity="1"/></linearGradient></defs><g filter="url(#master_svg0_0_1106)"><path d="M17.17044877735901,6.073255777359307L351.976055777359,6.073255777358917C355.510415777359,6.073255777358913,357.317545777359,6.080401659059008,358.662675777359,6.777649697359009C359.820445777359,7.3777914773590085,360.768725777359,8.32605577735901,361.368845777359,9.483849977359009C362.06608577735904,10.828971177359008,362.073255777359,12.636095277359008,362.073255777359,16.17044877735901L362.073255777359,403.976055777359C362.073255777359,407.510415777359,362.06608577735904,409.317545777359,361.368845777359,410.662675777359C360.768725777359,411.820445777359,359.820445777359,412.768725777359,358.662675777359,413.368845777359C357.317545777359,414.06608577735904,355.510415777359,414.073255777359,351.976055777359,414.073255777359L17.17044977735901,414.073255777359C13.636094377359008,414.073255777359,11.828971177359008,414.06608577735904,10.483849777359008,413.368845777359C9.32605547735901,412.768725777359,8.377791377359008,411.820445777359,7.7776496373590085,410.662675777359C7.080401659059008,409.317545777359,7.0732557773590115,407.510415777359,7.073255777359013,403.976055777359L7.073255777359176,16.17045177735901C7.0732557773591775,12.636095277359008,7.080410361259009,10.828964977359009,7.7776496373590085,9.483849977359009C8.377791377359008,8.32605577735901,9.32605547735901,7.3777914773590085,10.483849777359008,6.777649697359009C11.828964477359008,6.080410420859009,13.636094377359008,6.073255777359311,17.17044877735901,6.073255777359307" fill-rule="evenodd" fill="url(#master_svg1_0_252)" fill-opacity="1"/><path d="M17.17044877735901,4.999999977359009L351.976055777359,4.999999977359009Q357.565415777359,4.999999977359009,359.15659577735903,5.824796517359009Q361.241195777359,6.9053605773590085,362.321695777359,8.989949677359009Q363.146525777359,10.581210377359008,363.146525777359,16.17044877735901L363.146525777359,403.976085777359Q363.146525777359,409.565285777359,362.321695777359,411.156565777359Q361.241195777359,413.241165777359,359.156565777359,414.321695777359Q357.565385777359,415.146525777359,351.976055777359,415.146525777359L17.17044977735901,415.146525777359Q11.58114887735901,415.146525777359,9.989935177359008,414.321695777359Q7.905378637359009,413.241195777359,6.824801847359009,411.156625777359Q5.999999977359009,409.565385777359,5.999999977359009,403.976085777359L5.999999977359009,16.17045177735901Q5.999999977359009,10.581136977359009,6.824796217359009,8.989940177359008Q7.905344547359009,6.905343707359009,9.989939477359009,5.824796397359009Q11.581136977359009,4.999999777359009,17.17044877735901,4.999999977359009ZM351.976055777359,6.073255777359009L17.17044877735901,6.073255777359009C13.636094377359008,6.073255777359009,11.828964477359008,6.080410420859009,10.483849777359008,6.777649697359009C9.32605547735901,7.3777914773590085,8.377791377359008,8.32605577735901,7.7776496373590085,9.483849977359009C7.080410361259009,10.828964977359009,7.073255777359009,12.636095277359008,7.073255777359009,16.17045177735901L7.073255777359009,403.976055777359C7.073255777359009,407.510415777359,7.080401659059008,409.317545777359,7.7776496373590085,410.662675777359C8.377791377359008,411.820445777359,9.32605547735901,412.768725777359,10.483849777359008,413.368845777359C11.828971177359008,414.06608577735904,13.636094377359008,414.073255777359,17.17044977735901,414.073255777359L351.976055777359,414.073255777359C355.510415777359,414.073255777359,357.317545777359,414.06608577735904,358.662675777359,413.368845777359C359.820445777359,412.768725777359,360.768725777359,411.820445777359,361.368845777359,410.662675777359C362.06608577735904,409.317545777359,362.073255777359,407.510415777359,362.073255777359,403.976055777359L362.073255777359,16.17044877735901C362.073255777359,12.636095277359008,362.06608577735904,10.828971177359008,361.368845777359,9.483849977359009C360.768725777359,8.32605577735901,359.820445777359,7.3777914773590085,358.662675777359,6.777649697359009C357.317545777359,6.080401659059008,355.510415777359,6.073255777359009,351.976055777359,6.073255777359009Z" fill-rule="evenodd" fill="#FFFFFF" fill-opacity="1"/></g></svg>