<svg xmlns="http://www.w3.org/2000/svg" xmlns:xlink="http://www.w3.org/1999/xlink" fill="none" version="1.1" width="31.23" height="22.54" viewBox="0 0 51.072265625 45.11328125"><defs><filter id="master_svg0_0_1385" filterUnits="objectBoundingBox" color-interpolation-filters="sRGB" x="-0.22415637862595794" y="-0.26624262775926877" width="1.5123574368593324" height="1.7099803406913834"><feFlood flood-opacity="0" result="BackgroundImageFix"/><feColorMatrix in="SourceAlpha" type="matrix" values="0 0 0 0 0 0 0 0 0 0 0 0 0 0 0 0 0 0 127 0"/><feOffset dy="2" dx="1"/><feGaussianBlur stdDeviation="2"/><feColorMatrix type="matrix" values="0 0 0 0 1 0 0 0 0 0.4898693561553955 0 0 0 0 0.034466702491045 0 0 0 0.5 0"/><feBlend mode="normal" in2="BackgroundImageFix" result="effect1_dropShadow"/><feBlend mode="normal" in="SourceGraphic" in2="effect1_dropShadow" result="shape"/><feColorMatrix in="SourceAlpha" type="matrix" result="hardAlpha" values="0 0 0 0 0 0 0 0 0 0 0 0 0 0 0 0 0 0 127 0"/><feOffset dy="-2" dx="1"/><feGaussianBlur stdDeviation="2.5"/><feComposite in2="hardAlpha" operator="arithmetic" k2="-1" k3="1"/><feColorMatrix type="matrix" values="0 0 0 0 0.9746642112731934 0 0 0 0 0.7862836718559265 0 0 0 0 0.6780200600624084 0 0 0 1 0"/><feBlend mode="normal" in2="shape" result="effect2_innerShadow"/><feColorMatrix in="SourceAlpha" type="matrix" result="hardAlpha" values="0 0 0 0 0 0 0 0 0 0 0 0 0 0 0 0 0 0 127 0"/><feOffset dy="1" dx="1"/><feGaussianBlur stdDeviation="0.5"/><feComposite in2="hardAlpha" operator="arithmetic" k2="-1" k3="1"/><feColorMatrix type="matrix" values="0 0 0 0 1 0 0 0 0 1 0 0 0 0 1 0 0 0 0.8035606741905212 0"/><feBlend mode="normal" in2="effect2_innerShadow" result="effect3_innerShadow"/></filter><linearGradient x1="0.13887421786785126" y1="0.07451221346855164" x2="1.0509876839151706" y2="0.4956757979852986" id="master_svg1_0_800"><stop offset="0%" stop-color="#FEFBF5" stop-opacity="1"/><stop offset="62.86056041717529%" stop-color="#FEECE4" stop-opacity="1"/><stop offset="100%" stop-color="#FFE0CE" stop-opacity="1"/></linearGradient><filter id="master_svg2_0_1385" filterUnits="objectBoundingBox" color-interpolation-filters="sRGB" x="-0.22415637862595794" y="-0.26624262775926877" width="1.5123574368593324" height="1.7099803406913834"><feFlood flood-opacity="0" result="BackgroundImageFix"/><feColorMatrix in="SourceAlpha" type="matrix" values="0 0 0 0 0 0 0 0 0 0 0 0 0 0 0 0 0 0 127 0"/><feOffset dy="2" dx="1"/><feGaussianBlur stdDeviation="2"/><feColorMatrix type="matrix" values="0 0 0 0 1 0 0 0 0 0.4898693561553955 0 0 0 0 0.034466702491045 0 0 0 0.5 0"/><feBlend mode="normal" in2="BackgroundImageFix" result="effect1_dropShadow"/><feBlend mode="normal" in="SourceGraphic" in2="effect1_dropShadow" result="shape"/><feColorMatrix in="SourceAlpha" type="matrix" result="hardAlpha" values="0 0 0 0 0 0 0 0 0 0 0 0 0 0 0 0 0 0 127 0"/><feOffset dy="-2" dx="1"/><feGaussianBlur stdDeviation="2.5"/><feComposite in2="hardAlpha" operator="arithmetic" k2="-1" k3="1"/><feColorMatrix type="matrix" values="0 0 0 0 0.9746642112731934 0 0 0 0 0.7862836718559265 0 0 0 0 0.6780200600624084 0 0 0 1 0"/><feBlend mode="normal" in2="shape" result="effect2_innerShadow"/><feColorMatrix in="SourceAlpha" type="matrix" result="hardAlpha" values="0 0 0 0 0 0 0 0 0 0 0 0 0 0 0 0 0 0 127 0"/><feOffset dy="1" dx="1"/><feGaussianBlur stdDeviation="0.5"/><feComposite in2="hardAlpha" operator="arithmetic" k2="-1" k3="1"/><feColorMatrix type="matrix" values="0 0 0 0 1 0 0 0 0 1 0 0 0 0 1 0 0 0 0.8035606741905212 0"/><feBlend mode="normal" in2="effect2_innerShadow" result="effect3_innerShadow"/></filter><mask id="master_svg3_0_1385" style="mask-type:luminance" maskUnits="userSpaceOnUse" x="13.22265625" y="5.2232666015625" width="31.228199005126953" height="30.585043907165527"><path d="M24.78828725,18.6897016015625Q22.72427845,14.8917456015625,13.69669601,8.105797501562499C12.73101181,6.6912374015625,13.277847599,5.0865784415625,14.99930215,5.2325396612625C16.72075675,5.3785008815625,20.33264015,8.4705429015625,20.84967375,8.8783407015625C20.94855215,8.801922801562501,21.438485149999998,7.4774611015625005,24.78828725,8.105797501562499C25.24680525,8.022748901562501,26.30598725,5.8399481215625,29.87633325,7.0281184015625C30.20525725,6.8128004015625,31.35778825,5.4012310615625,33.50050525,6.3007261015625C35.64322325,7.2002209015625,37.18021625,8.8592446015625,39.53377725,11.9564843015625C41.887336250000004,15.0537233015625,44.45698125,19.3151166015625,44.45078825,19.7494266015625C44.44459525,20.1837366015625,40.85228725,25.4632916015625,35.21075825,27.7591016015625C34.58856025,27.7148766015625,32.61887125,25.1819326015625,30.01363225,24.8961816015625C27.40839025,24.6104296015625,18.86551095,22.7083566015625,17.43291665,20.7454006015625C16.00032235,18.7824436015625,17.08254555,17.0671636015625,19.49695255,17.7648136015625Q21.911359750000003,18.4624636015625,24.78828725,18.6897016015625Z" fill-rule="evenodd" fill="#FFFFFF" fill-opacity="1" filter="url(#master_svg2_0_1385)"/></mask><radialGradient cx="0" cy="0" r="1" gradientUnits="userSpaceOnUse" id="master_svg4_0_807" gradientTransform="translate(30.16387629508972 33.07485914230347) rotate(129.49116489326033) scale(1.0343008046457347 4.7493538856770625)"><stop offset="0%" stop-color="#FFBDB4" stop-opacity="1"/><stop offset="100%" stop-color="#FFE8DD" stop-opacity="0.09927987307310104"/></radialGradient><filter id="master_svg5_0_1387" filterUnits="objectBoundingBox" color-interpolation-filters="sRGB" x="-0.1825081152675037" y="-0.19877240116365114" width="1.3650162305350075" height="1.3975448023273023"><feFlood flood-opacity="0" result="BackgroundImageFix"/><feBlend mode="normal" in="SourceGraphic" in2="BackgroundImageFix" result="shape"/><feGaussianBlur stdDeviation="0.21150720119476318" result="effect1_foregroundBlur"/></filter><radialGradient cx="0" cy="0" r="1" gradientUnits="userSpaceOnUse" id="master_svg6_0_810" gradientTransform="translate(33.3431670665741 31.209812879562378) rotate(128.8157833919978) scale(0.9596220397307639 3.1385224990217204)"><stop offset="0%" stop-color="#FEBDB4" stop-opacity="1"/><stop offset="100%" stop-color="#FFBDB4" stop-opacity="0"/></radialGradient><filter id="master_svg7_0_1388" filterUnits="objectBoundingBox" color-interpolation-filters="sRGB" x="-0.2157507373582056" y="-0.26105576231807676" width="1.4315014747164112" height="1.5221115246361534"><feFlood flood-opacity="0" result="BackgroundImageFix"/><feBlend mode="normal" in="SourceGraphic" in2="BackgroundImageFix" result="shape"/><feGaussianBlur stdDeviation="0.21150720119476318" result="effect1_foregroundBlur"/></filter><radialGradient cx="0" cy="0" r="1" gradientUnits="userSpaceOnUse" id="master_svg8_0_815" gradientTransform="translate(37.2874622879273 29.567818760871887) rotate(132.0358654318176) scale(0.7002782043099297 2.2903171817025227)"><stop offset="0%" stop-color="#FFE2D5" stop-opacity="1"/><stop offset="100%" stop-color="#FFDFDB" stop-opacity="0"/></radialGradient></defs><g transform="matrix(0.9612616896629333,0.27563735842704773,-0.27563735842704773,0.9612616896629333,1.9519507697077643,-3.4423175175543292)" mask="url(#master_svg3_0_1385)"><path d="M24.78828725,18.6897016015625Q22.72427845,14.8917456015625,13.69669601,8.105797501562499C12.73101181,6.6912374015625,13.277847599,5.0865784415625,14.99930215,5.2325396612625C16.72075675,5.3785008815625,20.33264015,8.4705429015625,20.84967375,8.8783407015625C20.94855215,8.801922801562501,21.438485149999998,7.4774611015625005,24.78828725,8.105797501562499C25.24680525,8.022748901562501,26.30598725,5.8399481215625,29.87633325,7.0281184015625C30.20525725,6.8128004015625,31.35778825,5.4012310615625,33.50050525,6.3007261015625C35.64322325,7.2002209015625,37.18021625,8.8592446015625,39.53377725,11.9564843015625C41.887336250000004,15.0537233015625,44.45698125,19.3151166015625,44.45078825,19.7494266015625C44.44459525,20.1837366015625,40.85228725,25.4632916015625,35.21075825,27.7591016015625C34.58856025,27.7148766015625,32.61887125,25.1819326015625,30.01363225,24.8961816015625C27.40839025,24.6104296015625,18.86551095,22.7083566015625,17.43291665,20.7454006015625C16.00032235,18.7824436015625,17.08254555,17.0671636015625,19.49695255,17.7648136015625Q21.911359750000003,18.4624636015625,24.78828725,18.6897016015625Z" fill-rule="evenodd" fill="url(#master_svg1_0_800)" fill-opacity="1" filter="url(#master_svg0_0_1385)"/><path d="M27.02953052520752,30.541175265878906Q31.38746642520752,34.52650927587891,32.70994522520752,35.6833200758789C33.24798582520752,36.336521575878905,34.24605842520752,34.32689307587891,31.11918072520752,32.0426646758789Q27.99230307520752,29.758436265878906,27.02953052520752,30.541175265878906Z" fill-rule="evenodd" fill="url(#master_svg4_0_807)" fill-opacity="1"/><path d="M31.02538299560547,29.74839646050293Q33.490963695605465,30.95621789050293,35.41222669560547,33.308644290502926C35.95586729560547,33.586060090502926,35.63521049560547,31.83469109050293,34.183863595605466,30.55060179050293C33.59266469560547,30.02753448050293,32.39111019560547,29.16956736850293,31.91610848560547,29.08540579230293Q31.61371576560547,29.03182734950293,31.02538299560547,29.74839646050293Z" fill-rule="evenodd" fill="url(#master_svg6_0_810)" fill-opacity="1" filter="url(#master_svg5_0_1387)"/><path d="M35.94195365905762,28.61413819023926Q37.43013515905762,29.456699020239256,39.040215059057616,31.12829282023926C39.583855859057614,31.40570882023926,40.55178115905762,30.700432820239257,39.100434259057614,29.41634352023926C38.50923535905762,28.893276210239257,37.30768085905762,28.035309098239257,36.83267914905762,27.951147522039257Q36.53028642905762,27.897569079239258,35.94195365905762,28.61413819023926Z" fill-rule="evenodd" fill="url(#master_svg8_0_815)" fill-opacity="1" filter="url(#master_svg7_0_1388)"/></g></svg>