<svg xmlns="http://www.w3.org/2000/svg" xmlns:xlink="http://www.w3.org/1999/xlink" fill="none" version="1.1" width="284.55" height="149" viewBox="0 0 284.548828125 149"><path d="M284.54794,0.75L0,0.75L0,0.25L284.54794,0.25L284.54794,0.75Z" fill-rule="evenodd" fill="#E1E1E1" fill-opacity="1"/><path d="M284.54794,21.89285659790039L0,21.89285659790039L0,21.39285659790039L284.54794,21.39285659790039L284.54794,21.89285659790039Z" fill-rule="evenodd" fill="#E1E1E1" fill-opacity="1"/><path d="M284.54794,43.03571319580078L0,43.03571319580078L0,42.53571319580078L284.54794,42.53571319580078L284.54794,43.03571319580078Z" fill-rule="evenodd" fill="#E1E1E1" fill-opacity="1"/><path d="M284.54794,64.17856979370117L0,64.17856979370117L0,63.67856979370117L284.54794,63.67856979370117L284.54794,64.17856979370117Z" fill-rule="evenodd" fill="#E1E1E1" fill-opacity="1"/><path d="M284.54794,85.32142639160156L0,85.32142639160156L0,84.82142639160156L284.54794,84.82142639160156L284.54794,85.32142639160156Z" fill-rule="evenodd" fill="#E1E1E1" fill-opacity="1"/><path d="M284.54794,106.46428680419922L0,106.46428680419922L0,105.96428680419922L284.54794,105.96428680419922L284.54794,106.46428680419922Z" fill-rule="evenodd" fill="#E1E1E1" fill-opacity="1"/><path d="M284.54794,127.60713958740234L0,127.60713958740234L0,127.10713958740234L284.54794,127.10713958740234L284.54794,127.60713958740234Z" fill-rule="evenodd" fill="#E1E1E1" fill-opacity="1"/><path d="M284.54794,148.75L0,148.75L0,148.25L284.54794,148.25L284.54794,148.75Z" fill-rule="evenodd" fill="#E1E1E1" fill-opacity="1"/></svg>