<svg xmlns="http://www.w3.org/2000/svg" xmlns:xlink="http://www.w3.org/1999/xlink" fill="none" version="1.1" width="355" height="233" viewBox="0 0 363.1484375 241.1465301513672"><defs><filter id="master_svg0_0_951" filterUnits="objectBoundingBox" color-interpolation-filters="sRGB" x="-0.016901408450704224" y="-0.02145922746781116" width="1.0338028169014084" height="1.0515021459227467"><feFlood flood-opacity="0" result="BackgroundImageFix"/><feColorMatrix in="SourceAlpha" type="matrix" values="0 0 0 0 0 0 0 0 0 0 0 0 0 0 0 0 0 0 127 0"/><feMorphology radius="2" operator="dilate"/><feOffset dy="1" dx="0"/><feGaussianBlur stdDeviation="1"/><feColorMatrix type="matrix" values="0 0 0 0 0.9180824756622314 0 0 0 0 0.96047043800354 0 0 0 0 1 0 0 0 1 0"/><feBlend mode="normal" in2="BackgroundImageFix" result="effect1_dropShadow"/><feBlend mode="normal" in="SourceGraphic" in2="effect1_dropShadow" result="shape"/></filter><linearGradient x1="0.45910465717315674" y1="0" x2="0.45910465717315674" y2="0.11668512970209122" id="master_svg1_0_126"><stop offset="0%" stop-color="#E0EDFF" stop-opacity="1"/><stop offset="100%" stop-color="#FFFFFF" stop-opacity="1"/></linearGradient><filter id="master_svg2_0_951" filterUnits="objectBoundingBox" color-interpolation-filters="sRGB" x="-0.016901408450704224" y="-0.02145922746781116" width="1.0338028169014084" height="1.0515021459227467"><feFlood flood-opacity="0" result="BackgroundImageFix"/><feColorMatrix in="SourceAlpha" type="matrix" values="0 0 0 0 0 0 0 0 0 0 0 0 0 0 0 0 0 0 127 0"/><feMorphology radius="2" operator="dilate"/><feOffset dy="1" dx="0"/><feGaussianBlur stdDeviation="1"/><feColorMatrix type="matrix" values="0 0 0 0 0.9180824756622314 0 0 0 0 0.96047043800354 0 0 0 0 1 0 0 0 1 0"/><feBlend mode="normal" in2="BackgroundImageFix" result="effect1_dropShadow"/><feBlend mode="normal" in="SourceGraphic" in2="effect1_dropShadow" result="shape"/></filter><mask id="master_svg3_0_951" style="mask-type:luminance" maskUnits="userSpaceOnUse" x="-26.92578125" y="-4.9267425537109375" width="386" height="241"><path d="M14.17141175,3.073257446289347L348.97701875,3.073257446288975C352.51137875,3.073257446288971,354.31850875,3.0804033279890626,355.66363875,3.7776513662890627C356.82140875,4.377793146289062,357.76968875,5.326057446289063,358.36980875,6.483851646289063C359.06704875,7.828972846289062,359.07421875,9.636096946289062,359.07421875,13.170450446289063L359.07421875,225.97605744628908C359.07421875,229.51041744628907,359.06704875,231.31753744628907,358.36980875,232.66265744628907C357.76968875,233.82044744628905,356.82140875,234.76872744628906,355.66363875,235.36886744628907C354.31850875,236.06611744628907,352.51137875,236.07325744628906,348.97701875,236.07325744628906L14.17141275,236.07325744628906C10.63705735,236.07325744628906,8.82992645,236.06609744628906,7.48481275,235.36886744628907C6.327018450000001,234.76872744628906,5.3787543499999995,233.82044744628905,4.77861261,232.66265744628907C4.0813719034,231.31754744628907,4.074218750000004,229.51041744628907,4.074218750000007,225.97605744628908L4.074218750000164,13.170455446289063C4.074218750000166,9.636096946289062,4.0813733339,7.828966646289063,4.77861261,6.483851646289063C5.3787543499999995,5.326057446289063,6.327018450000001,4.377793146289062,7.48481275,3.7776513662890627C8.82992745,3.0804120897890623,10.63705735,3.073257446289351,14.17141175,3.073257446289347" fill-rule="evenodd" fill="#FFFFFF" fill-opacity="1" filter="url(#master_svg2_0_951)"/></mask><filter id="master_svg4_0_952" filterUnits="objectBoundingBox" color-interpolation-filters="sRGB" x="-0.12706078423394096" y="-0.6480099995930989" width="1.254121568467882" height="2.296019999186198"><feFlood flood-opacity="0" result="BackgroundImageFix"/><feColorMatrix in="SourceAlpha" type="matrix" values="0 0 0 0 0 0 0 0 0 0 0 0 0 0 0 0 0 0 127 0"/><feOffset dy="1" dx="0"/><feGaussianBlur stdDeviation="0"/><feColorMatrix type="matrix" values="0 0 0 0 1 0 0 0 0 1 0 0 0 0 1 0 0 0 1 0"/><feBlend mode="normal" in2="BackgroundImageFix" result="effect1_dropShadow"/><feBlend mode="normal" in="SourceGraphic" in2="effect1_dropShadow" result="shape"/><feColorMatrix in="SourceAlpha" type="matrix" result="hardAlpha" values="0 0 0 0 0 0 0 0 0 0 0 0 0 0 0 0 0 0 127 0"/><feOffset dy="1" dx="0"/><feGaussianBlur stdDeviation="1.5"/><feComposite in2="hardAlpha" operator="arithmetic" k2="-1" k3="1"/><feColorMatrix type="matrix" values="0 0 0 0 1 0 0 0 0 1 0 0 0 0 1 0 0 0 0.5 0"/><feBlend mode="normal" in2="shape" result="effect2_innerShadow"/><feGaussianBlur stdDeviation="4.860074996948242" result="effect3_foregroundBlur"/></filter><linearGradient x1="0.5" y1="0" x2="0.5" y2="0.7660638689994812" id="master_svg5_0_133"><stop offset="0%" stop-color="#75C4F8" stop-opacity="1"/><stop offset="100%" stop-color="#4F9CF0" stop-opacity="1"/></linearGradient><linearGradient x1="0.539856493473053" y1="0.8155282139778137" x2="0.539856493473053" y2="0" id="master_svg6_0_134"><stop offset="0%" stop-color="#4F9CF0" stop-opacity="1"/><stop offset="100%" stop-color="#75C3F8" stop-opacity="1"/></linearGradient><filter id="master_svg7_0_953" filterUnits="objectBoundingBox" color-interpolation-filters="sRGB" x="0" y="0" width="1" height="1.0333333333333334"><feFlood flood-opacity="0" result="BackgroundImageFix"/><feColorMatrix in="SourceAlpha" type="matrix" values="0 0 0 0 0 0 0 0 0 0 0 0 0 0 0 0 0 0 127 0"/><feOffset dy="1" dx="0"/><feGaussianBlur stdDeviation="0"/><feColorMatrix type="matrix" values="0 0 0 0 1 0 0 0 0 1 0 0 0 0 1 0 0 0 1 0"/><feBlend mode="normal" in2="BackgroundImageFix" result="effect1_dropShadow"/><feBlend mode="normal" in="SourceGraphic" in2="effect1_dropShadow" result="shape"/><feColorMatrix in="SourceAlpha" type="matrix" result="hardAlpha" values="0 0 0 0 0 0 0 0 0 0 0 0 0 0 0 0 0 0 127 0"/><feOffset dy="1" dx="0"/><feGaussianBlur stdDeviation="1.5"/><feComposite in2="hardAlpha" operator="arithmetic" k2="-1" k3="1"/><feColorMatrix type="matrix" values="0 0 0 0 1 0 0 0 0 1 0 0 0 0 1 0 0 0 0.5 0"/><feBlend mode="normal" in2="shape" result="effect2_innerShadow"/></filter><linearGradient x1="0.539856493473053" y1="0.8155282139778137" x2="0.539856493473053" y2="0" id="master_svg8_0_143"><stop offset="0%" stop-color="#4F9CF0" stop-opacity="1"/><stop offset="100%" stop-color="#75C3F8" stop-opacity="1"/></linearGradient><linearGradient x1="0.7679015398025513" y1="0" x2="0.4463068497587143" y2="0.5950006832762832" id="master_svg9_0_152"><stop offset="0%" stop-color="#FFFFFF" stop-opacity="1"/><stop offset="100%" stop-color="#FFE0B1" stop-opacity="0"/></linearGradient><linearGradient x1="0.7679015398025513" y1="0" x2="0.29578091484354985" y2="0.4639748673951007" id="master_svga_0_152"><stop offset="0%" stop-color="#FFFFFF" stop-opacity="1"/><stop offset="100%" stop-color="#FFE0B1" stop-opacity="0"/></linearGradient><filter id="master_svgb_0_956" filterUnits="objectBoundingBox" color-interpolation-filters="sRGB" x="-0.6895774518939811" y="-2.225454503839666" width="2.379154903787962" height="5.450909007679332"><feFlood flood-opacity="0" result="BackgroundImageFix"/><feBlend mode="normal" in="SourceGraphic" in2="BackgroundImageFix" result="shape"/><feGaussianBlur stdDeviation="12.239999771118164" result="effect1_foregroundBlur"/></filter></defs><g mask="url(#master_svg3_0_951)"><g filter="url(#master_svg0_0_951)"><path d="M14.17141175,3.073257446289347L348.97701875,3.073257446288975C352.51137875,3.073257446288971,354.31850875,3.0804033279890626,355.66363875,3.7776513662890627C356.82140875,4.377793146289062,357.76968875,5.326057446289063,358.36980875,6.483851646289063C359.06704875,7.828972846289062,359.07421875,9.636096946289062,359.07421875,13.170450446289063L359.07421875,225.97605744628908C359.07421875,229.51041744628907,359.06704875,231.31753744628907,358.36980875,232.66265744628907C357.76968875,233.82044744628905,356.82140875,234.76872744628906,355.66363875,235.36886744628907C354.31850875,236.06611744628907,352.51137875,236.07325744628906,348.97701875,236.07325744628906L14.17141275,236.07325744628906C10.63705735,236.07325744628906,8.82992645,236.06609744628906,7.48481275,235.36886744628907C6.327018450000001,234.76872744628906,5.3787543499999995,233.82044744628905,4.77861261,232.66265744628907C4.0813719034,231.31754744628907,4.074218750000004,229.51041744628907,4.074218750000007,225.97605744628908L4.074218750000164,13.170455446289063C4.074218750000166,9.636096946289062,4.0813733339,7.828966646289063,4.77861261,6.483851646289063C5.3787543499999995,5.326057446289063,6.327018450000001,4.377793146289062,7.48481275,3.7776513662890627C8.82992745,3.0804120897890623,10.63705735,3.073257446289351,14.17141175,3.073257446289347" fill-rule="evenodd" fill="url(#master_svg1_0_126)" fill-opacity="1"/><path d="M14.17141175,2.0000016462890624L348.97701875,2.0000016462890624Q354.56637875,2.0000016462890624,356.15755875,2.8247981862890623Q358.24215875,3.9053622462890623,359.32265875,5.989951346289063Q360.14748875,7.581212046289062,360.14748875,13.170450446289063L360.14748875,225.97605744628908Q360.14748875,231.56527744628906,359.32265875,233.15655744628907Q358.24215875,235.24116744628907,356.15755875,236.32172744628906Q354.56640875,237.14652744628907,348.97701875,237.14652744628907L14.17141275,237.14652744628907Q8.58212045,237.14652744628907,6.99090885,236.32172744628906Q4.90629935,235.24116744628907,3.82575715,233.15656744628907Q3.00096295,231.56538744628907,3.00096295,225.97605744628908L3.00096295,13.170455446289063Q3.00096295,7.581138646289062,3.82575919,5.989941846289062Q4.90630752,3.9053453762890626,6.99090245,2.8247980662890626Q8.58209995,2.0000014462890627,14.17141175,2.0000016462890624ZM348.97701875,3.0732574462890625L14.17141175,3.0732574462890625C10.63705735,3.0732574462890625,8.82992745,3.0804120897890623,7.48481275,3.7776513662890627C6.327018450000001,4.377793146289062,5.3787543499999995,5.326057446289063,4.77861261,6.483851646289063C4.0813733339,7.828966646289063,4.07421875,9.636096946289062,4.07421875,13.170455446289063L4.07421875,225.97605744628908C4.07421875,229.51041744628907,4.0813719034,231.31754744628907,4.77861261,232.66265744628907C5.3787543499999995,233.82044744628905,6.327018450000001,234.76872744628906,7.48481275,235.36886744628907C8.82992645,236.06609744628906,10.63705735,236.07325744628906,14.17141275,236.07325744628906L348.97701875,236.07325744628906C352.51137875,236.07325744628906,354.31850875,236.06611744628907,355.66363875,235.36886744628907C356.82140875,234.76872744628906,357.76968875,233.82044744628905,358.36980875,232.66265744628907C359.06704875,231.31753744628907,359.07421875,229.51041744628907,359.07421875,225.97605744628908L359.07421875,13.170450446289063C359.07421875,9.636096946289062,359.06704875,7.828972846289062,358.36980875,6.483851646289063C357.76968875,5.326057446289063,356.82140875,4.377793146289062,355.66363875,3.7776513662890627C354.31850875,3.0804033279890626,352.51137875,3.0732574462890625,348.97701875,3.0732574462890625Z" fill-rule="evenodd" fill="#FFFFFF" fill-opacity="1"/></g><g filter="url(#master_svg4_0_952)"><path d="M-26.92578125000023,2.0732574462890625Q44.351417749999996,2.1856586062890626,126.07421875,2.0732574462890625Q118.22523874999999,2.2039460662890624,113.43371875,9.845326446289063Q108.79563875,16.784912446289063,103.58436875000001,23.924579446289062C101.38779875,26.93399244628906,100.25502875,28.43016044628906,98.82949875,29.506889446289062C97.57854875,30.451751446289062,96.16028875,31.15476844628906,94.64990875,31.583808446289062C92.93142875,32.07196644628907,91.04444875,32.07325744628906,87.30471875,32.07325744628906L-7.3599792499999985,32.07325744628906C-11.79380825,32.07325744628906,-14.05654325,32.06522744628906,-15.80319525,31.220920446289064C-17.31200125,30.491584446289064,-18.57944865,29.33261144628906,-19.44051075,27.894903446289064C-20.437308350000002,26.230558446289063,-20.64721345,23.977565446289063,-21.04285335,19.56142644628906L-22.13247445,7.399061246289063Q-23.76415185,3.1725491462890627,-26.92578125000023,2.0732574462890625Z" fill-rule="evenodd" fill="url(#master_svg5_0_133)" fill-opacity="1"/><path d="M-26.92578125000023,2.0732574462890625Q44.351417749999996,2.1856586062890626,126.07421875,2.0732574462890625Q118.22523874999999,2.2039460662890624,113.43371875,9.845326446289063Q108.79563875,16.784912446289063,103.58436875000001,23.924579446289062C101.38779875,26.93399244628906,100.25502875,28.43016044628906,98.82949875,29.506889446289062C97.57854875,30.451751446289062,96.16028875,31.15476844628906,94.64990875,31.583808446289062C92.93142875,32.07196644628907,91.04444875,32.07325744628906,87.30471875,32.07325744628906L-7.3599792499999985,32.07325744628906C-11.79380825,32.07325744628906,-14.05654325,32.06522744628906,-15.80319525,31.220920446289064C-17.31200125,30.491584446289064,-18.57944865,29.33261144628906,-19.44051075,27.894903446289064C-20.437308350000002,26.230558446289063,-20.64721345,23.977565446289063,-21.04285335,19.56142644628906L-22.13247445,7.399061246289063Q-23.76415185,3.1725491462890627,-26.92578125000023,2.0732574462890625Z" fill-rule="evenodd" fill="url(#master_svg6_0_134)" fill-opacity="1"/></g><path d="M-26.92578125000023,2.0732574462890625Q44.351417749999996,2.1856586062890626,126.07421875,2.0732574462890625Q118.22523874999999,2.2039460662890624,113.43371875,9.845326446289063Q108.79563875,16.784912446289063,103.58436875000001,23.924579446289062C101.38779875,26.93399244628906,100.25502875,28.43016044628906,98.82949875,29.506889446289062C97.57854875,30.451751446289062,96.16028875,31.15476844628906,94.64990875,31.583808446289062C92.93142875,32.07196644628907,91.04444875,32.07325744628906,87.30471875,32.07325744628906L-7.3599792499999985,32.07325744628906C-11.79380825,32.07325744628906,-14.05654325,32.06522744628906,-15.80319525,31.220920446289064C-17.31200125,30.491584446289064,-18.57944865,29.33261144628906,-19.44051075,27.894903446289064C-20.437308350000002,26.230558446289063,-20.64721345,23.977565446289063,-21.04285335,19.56142644628906L-22.13247445,7.399061246289063Q-23.76415185,3.1725491462890627,-26.92578125000023,2.0732574462890625Z" fill-rule="evenodd" fill="url(#master_svg8_0_143)" fill-opacity="1" filter="url(#master_svg7_0_953)"/><path d="M85.11177075,-4.9267425537109375L53.07421874999999,42.07325744628906L64.25174175000001,42.07325744628906L96.07421875,-4.9267425537109375L85.11177075,-4.9267425537109375Z" fill-rule="evenodd" fill="url(#master_svg9_0_152)" fill-opacity="1"/><path d="M115.47989075,-4.9267425537109375L84.07421875000001,42.07325744628906L111.87937775,42.07325744628906L143.07421875,-4.9267425537109375L115.47989075,-4.9267425537109375Z" fill-rule="evenodd" fill="url(#master_svga_0_152)" fill-opacity="1"/><ellipse cx="18.57421875" cy="7.0732574462890625" rx="35.5" ry="11" fill="#6CE8FF" fill-opacity="1" filter="url(#master_svgb_0_956)"/></g></svg>