<svg xmlns="http://www.w3.org/2000/svg" xmlns:xlink="http://www.w3.org/1999/xlink" fill="none" version="1.1" width="241" height="35" viewBox="0 0 241 36"><defs><filter id="master_svg0_0_1373" filterUnits="objectBoundingBox" color-interpolation-filters="sRGB" x="0" y="0" width="1" height="1.0285714285714285"><feFlood flood-opacity="0" result="BackgroundImageFix"/><feColorMatrix in="SourceAlpha" type="matrix" values="0 0 0 0 0 0 0 0 0 0 0 0 0 0 0 0 0 0 127 0"/><feOffset dy="1" dx="0"/><feGaussianBlur stdDeviation="0"/><feColorMatrix type="matrix" values="0 0 0 0 1 0 0 0 0 0.501960813999176 0 0 0 0 0.05882352963089943 0 0 0 1 0"/><feBlend mode="normal" in2="BackgroundImageFix" result="effect1_dropShadow"/><feBlend mode="normal" in="SourceGraphic" in2="effect1_dropShadow" result="shape"/></filter><linearGradient x1="0.170284241437912" y1="0.5" x2="0.856869637966156" y2="0.5" id="master_svg1_0_754"><stop offset="0%" stop-color="#FF5B00" stop-opacity="1"/><stop offset="100%" stop-color="#F13816" stop-opacity="1"/></linearGradient><linearGradient x1="0.20493434369564056" y1="0.04801134765148163" x2="0.8381698605527997" y2="0.06912482053411395" id="master_svg2_0_756"><stop offset="0%" stop-color="#FFFCF6" stop-opacity="1"/><stop offset="100%" stop-color="#FFF0CF" stop-opacity="1"/></linearGradient><filter id="master_svg3_0_1373" filterUnits="objectBoundingBox" color-interpolation-filters="sRGB" x="0" y="0" width="1" height="1.0285714285714285"><feFlood flood-opacity="0" result="BackgroundImageFix"/><feColorMatrix in="SourceAlpha" type="matrix" values="0 0 0 0 0 0 0 0 0 0 0 0 0 0 0 0 0 0 127 0"/><feOffset dy="1" dx="0"/><feGaussianBlur stdDeviation="0"/><feColorMatrix type="matrix" values="0 0 0 0 1 0 0 0 0 0.501960813999176 0 0 0 0 0.05882352963089943 0 0 0 1 0"/><feBlend mode="normal" in2="BackgroundImageFix" result="effect1_dropShadow"/><feBlend mode="normal" in="SourceGraphic" in2="effect1_dropShadow" result="shape"/></filter><mask id="master_svg4_0_1373" style="mask-type:luminance" maskUnits="userSpaceOnUse" x="0" y="-10.208333015441895" width="241" height="57.8472204208374"><path d="M17.5,0L223.5,0C224.00137,0,224.27397,0.00027742283,224.48598,0.0057498231C233.49838,0.23839021,240.76161,7.5016031,240.99425,16.514023C240.99973,16.726021,241,16.998621,241,17.5C241,18.001379,240.99973,18.273979,240.99425,18.485977C240.76161,27.498398,233.49838,34.761608,224.48598,34.994251C224.27397,34.999725,224.00137,35,223.5,35L17.500006,35C16.998621,35,16.726021,34.999725,16.514023,34.994251C7.5016031,34.761608,0.23839021,27.498398,0.0057498231,18.485977C0.00027743261,18.273979,4.7747327e-12,18.001379,4.7747327e-12,17.5C4.7747327e-12,16.998621,0.00027743168,16.726021,0.0057498231,16.514023C0.23839021,7.5016031,7.5016031,0.23839021,16.514023,0.0057498231C16.726021,0.00027743168,16.998621,0,17.5,0" fill-rule="evenodd" fill="#FFFFFF" fill-opacity="1" filter="url(#master_svg3_0_1373)"/></mask><filter id="master_svg5_0_1374" filterUnits="objectBoundingBox" color-interpolation-filters="sRGB" x="-1.660268758808482" y="-1.773744802536576" width="4.320537517616964" height="4.547489605073152"><feFlood flood-opacity="0" result="BackgroundImageFix"/><feBlend mode="normal" in="SourceGraphic" in2="BackgroundImageFix" result="shape"/><feGaussianBlur stdDeviation="13.36467456817627" result="effect1_foregroundBlur"/></filter><filter id="master_svg6_0_1375" filterUnits="objectBoundingBox" color-interpolation-filters="sRGB" x="-0.058920032336218654" y="-2.4310248587578513" width="1.1178400646724374" height="5.862049717515703"><feFlood flood-opacity="0" result="BackgroundImageFix"/><feBlend mode="normal" in="SourceGraphic" in2="BackgroundImageFix" result="shape"/><feGaussianBlur stdDeviation="3.318582534790039" result="effect1_foregroundBlur"/></filter><linearGradient x1="1" y1="0" x2="0.595467600939539" y2="0.8407279309032043" id="master_svg7_0_774"><stop offset="0%" stop-color="#FFFFFF" stop-opacity="1"/><stop offset="100%" stop-color="#FFFFFF" stop-opacity="0"/></linearGradient><linearGradient x1="1" y1="-0.1595868617296219" x2="0.5395351806972623" y2="0.8597752082842552" id="master_svg8_0_777"><stop offset="0%" stop-color="#FFFFFF" stop-opacity="1"/><stop offset="100%" stop-color="#FFFFFF" stop-opacity="0"/></linearGradient><linearGradient x1="0.5182071924209595" y1="-0.10522426664829254" x2="0.5182071924209595" y2="0.5699375867843628" id="master_svg9_0_780"><stop offset="0%" stop-color="#FFFFFF" stop-opacity="1"/><stop offset="100%" stop-color="#FFFFFF" stop-opacity="0"/></linearGradient></defs><g mask="url(#master_svg4_0_1373)"><g filter="url(#master_svg0_0_1373)"><path d="M17.5,0L223.5,0C224.00137,0,224.27397,0.00027742283,224.48598,0.0057498231C233.49838,0.23839021,240.76161,7.5016031,240.99425,16.514023C240.99973,16.726021,241,16.998621,241,17.5C241,18.001379,240.99973,18.273979,240.99425,18.485977C240.76161,27.498398,233.49838,34.761608,224.48598,34.994251C224.27397,34.999725,224.00137,35,223.5,35L17.500006,35C16.998621,35,16.726021,34.999725,16.514023,34.994251C7.5016031,34.761608,0.23839021,27.498398,0.0057498231,18.485977C0.00027743261,18.273979,4.7747327e-12,18.001379,4.7747327e-12,17.5C4.7747327e-12,16.998621,0.00027743168,16.726021,0.0057498231,16.514023C0.23839021,7.5016031,7.5016031,0.23839021,16.514023,0.0057498231C16.726021,0.00027743168,16.998621,0,17.5,0" fill-rule="evenodd" fill="url(#master_svg1_0_754)" fill-opacity="1"/><path d="M17.5,0L223.5,0C224.00137,0,224.27397,0.00027742283,224.48598,0.0057498231C233.49838,0.23839021,240.76161,7.5016031,240.99425,16.514023C240.99973,16.726021,241,16.998621,241,17.5C241,18.001379,240.99973,18.273979,240.99425,18.485977C240.76161,27.498398,233.49838,34.761608,224.48598,34.994251C224.27397,34.999725,224.00137,35,223.5,35L17.500006,35C16.998621,35,16.726021,34.999725,16.514023,34.994251C7.5016031,34.761608,0.23839021,27.498398,0.0057498231,18.485977C0.00027743261,18.273979,0,18.001379,0,17.5C0,16.998621,0.00027743168,16.726021,0.0057498231,16.514023C0.23839021,7.5016031,7.5016031,0.23839021,16.514023,0.0057498231C16.726021,0.00027743168,16.998621,0,17.5,0ZM17.5,0.98269677Q16.749449,0.98269677,16.539385,0.98811877Q10.172206,1.1524762,5.6623411,5.6623402Q1.1524773,10.172204,0.9881193,16.539381Q0.98269677,16.749449,0.98269677,17.5Q0.98269677,18.250551,0.98811877,18.460609Q1.1524762,24.827793,5.6623402,29.337658Q10.172203,33.847523,16.539385,34.011883Q16.74935,34.017303,17.500006,34.017303L223.49998,34.017303Q224.25066,34.017303,224.46062,34.011883Q230.82777,33.847523,235.33763,29.337658Q239.8475,24.827787,240.01186,18.460592Q240.0173,18.250141,240.0173,17.5Q240.0173,16.749859,240.01186,16.539385Q239.8475,10.17221,235.33763,5.6623411Q230.82777,1.1524768,224.46062,0.9881193Q224.25055,0.98269677,223.49998,0.98269677L17.5,0.98269677Z" fill-rule="evenodd" fill="url(#master_svg2_0_756)" fill-opacity="1" style="mix-blend-mode:screen"/></g><path d="M124.27157590625,4.8611119845581054Q124.27157590625,5.231045984558106,124.25218190625,5.600533984558105Q124.23278790625,5.970022984558106,124.19405390624999,6.338175984558106Q124.15531490625,6.706327984558104,124.09732390625,7.072256984558106Q124.03933290625,7.438187984558105,123.96222890625,7.801012984558106Q123.88512390625,8.163839984558106,123.78909490625,8.522686984558106Q123.69306590625,8.881535984558106,123.57834090624999,9.235540984558106Q123.46361390625,9.589544984558106,123.33046690625,9.937853984558107Q123.19732290625001,10.286161984558106,123.04607790625,10.627937984558105Q122.89483490625,10.969713984558105,122.72585690625,11.304129984558106Q122.55687890625,11.638546984558104,122.37057490625,11.964800984558106Q122.18426890625,12.291052984558107,121.98108890625,12.608355984558106Q121.77790490625,12.925657984558107,121.55833290625,13.233246984558104Q121.33875990625,13.540834984558106,121.10333090625,13.837969984558107Q120.86789890625,14.135103984558107,120.61717590625,14.421066984558106Q120.36645090625001,14.707029984558105,120.10103990625001,14.981132984558105Q119.83562690625,15.255236984558106,119.55616590625,15.516817984558106Q119.27670290625,15.778400984558104,118.98386590625,16.026833984558106Q118.69102890625,16.275265984558107,118.38552090625001,16.509949984558105Q118.08001090625,16.744631984558104,117.76256990625001,16.965000984558106Q117.44512590625,17.185369984558104,117.11651390624999,17.390894984558106Q116.78790290625,17.596418984558106,116.44891390625,17.786604984558107Q116.10992390625,17.976788984558105,115.76137190625,18.151175984558105Q115.41282090625,18.325560984558106,115.05554990625001,18.483725984558106Q114.69827690625,18.641893984558106,114.33314090625001,18.783461984558105Q113.96800590625,18.925028984558107,113.59589190625,19.049656984558105Q113.22377790625,19.174282984558104,112.84557690625,19.281670984558104Q112.46737690625,19.389055984558105,112.08400390625,19.478941984558105Q111.70062790624999,19.568827984558105,111.31300390625,19.640997984558105Q110.92538090625,19.713169984558107,110.53443890625,19.767450984558106Q110.14349790625,19.821732984558107,109.75018290625,19.857992984558106Q109.35686890625,19.894251984558107,108.96212390625,19.912403984558104Q108.56738290625,19.930555984558104,108.17216490625,19.930555984558104Q107.77694590625,19.930555984558104,107.38220390625,19.912401984558105Q106.98746190625,19.894251984558107,106.59414690625,19.857992984558106Q106.20083190625,19.821732984558107,105.80989190625,19.767450984558106Q105.41894990625,19.713171984558105,105.03132490625,19.640999984558107Q104.64370090625,19.568829984558107,104.26032590625,19.478943984558107Q103.87695290625,19.389055984558105,103.49875290625,19.281671984558105Q103.12055190625,19.174284984558106,102.74843590625,19.049654984558106Q102.37631990625,18.925028984558107,102.01118560625,18.783461984558105Q101.64605140625,18.641893984558106,101.28877830625,18.483725984558106Q100.93150520625,18.325560984558106,100.58295440625,18.151175984558105Q100.23440270625,17.976788984558105,99.89541240625,17.786604984558107Q99.55642220625,17.596418984558106,99.22781040625,17.390894984558106Q98.89919850625,17.185369984558104,98.58175610625,16.965000984558106Q98.26431370625,16.744631984558104,97.95880600625,16.509949984558105Q97.65329740625,16.275265984558107,97.36046030625,16.026833984558106Q97.06762310625,15.778400984558104,96.78816170625,15.516817984558106Q96.50870040625,15.255236984558106,96.24328800625,14.981131984558104Q95.97787550625,14.707029984558105,95.72715190625,14.421066984558106Q95.47642780625,14.135103984558107,95.24099640625,13.837969984558107Q95.00556520625,13.540834984558106,94.78599360625,13.233244984558105Q94.56642200625,12.925655984558105,94.36323930625,12.608353984558107Q94.16005630625,12.291050984558105,93.97375190625,11.964798984558104Q93.78744720625,11.638544984558106,93.61846950625,11.304127984558104Q93.44949190625,10.969709984558104,93.29824840625,10.627935984558107Q93.14700480625,10.286161984558106,93.01385980625,9.937851984558105Q92.88071477625,9.589544984558106,92.76598900625,9.235540984558106Q92.65126317625,8.881536984558107,92.55523297625,8.522688984558105Q92.45920276625,8.163839984558106,92.38209950625,7.801014984558105Q92.30499625625,7.438189984558104,92.24700568625,7.072258984558104Q92.18901511625,6.706327984558104,92.15027695925,6.338175984558106Q92.11153879025,5.970022984558106,92.09214634825,5.600533984558105Q92.07275390625031,5.231045984558106,92.07275390625031,4.8611119845581054Q92.07275390625031,4.491177984558105,92.09214634825,4.121689984558106Q92.11153879025,3.7522009845581064,92.15027695925,3.384047984558105Q92.18901511625,3.0158949845581056,92.24700567625,2.649963984558106Q92.30499625625,2.2840339845581052,92.38209950625,1.9212079845581052Q92.45920276625,1.558381984558105,92.55523300625,1.199533984558105Q92.65126323625,0.8406879845581052,92.76598906625,0.4866829845581062Q92.88071483625,0.13267798455810542,93.01385986625,-0.21563151544189374Q93.14700480625,-0.5639410154418947,93.29824840625,-0.9057159154418937Q93.44949190625,-1.2474909154418938,93.61846950625,-1.5819063154418949Q93.78744720625,-1.9163227154418951,93.97375190625,-2.2425756154418943Q94.16005630625,-2.5688286154418947,94.36323930625,-2.886131715441895Q94.56642200625,-3.2034349154418944,94.78599360625,-3.5110235154418943Q95.00556520625,-3.818613015441895,95.24099660625,-4.115746515441894Q95.47642750625,-4.412880415441895,95.72715160625,-4.698843015441894Q95.97787520625,-4.984806015441895,96.24328800625,-5.258909215441895Q96.50870040625,-5.5330124154418945,96.78816170625,-5.794595215441895Q97.06762310625,-6.056178115441894,97.36046030625,-6.304611015441894Q97.65329740625,-6.553043415441895,97.95880600625,-6.787726915441894Q98.26431370625,-7.022410615441895,98.58175610625,-7.242780215441894Q98.89919850625,-7.463149515441895,99.22781040625,-7.668674015441894Q99.55642220625,-7.874198415441894,99.89541240625,-8.064382515441896Q100.23440270625,-8.254566415441895,100.58295440625,-8.428952215441894Q100.93150520625,-8.603338015441894,101.28877830625,-8.761505215441895Q101.64605140625,-8.919672515441894,102.01118560625,-9.061240115441894Q102.37631990625,-9.202807615441895,102.74843590625,-9.327434655441895Q103.12055190625,-9.452061715441895,103.49875190624999,-9.559447885441894Q103.87695190625,-9.666834115441894,104.26032590625,-9.756720725441895Q104.64369990624999,-9.846607355441895,105.03132390625,-9.918777915441895Q105.41894890625,-9.990948465441894,105.80989090625,-10.045229065441895Q106.20083190625,-10.099509655441894,106.59414790625,-10.135769531441895Q106.98746290625,-10.172029409441894,107.38220390625,-10.190181212441894Q107.77694590625,-10.208333015441895,108.17216490625,-10.208333015441895Q108.56738290625,-10.208333015441895,108.96212590625001,-10.190181212441894Q109.35686890625,-10.172029409441894,109.75018290625,-10.135769531441895Q110.14349790625,-10.099509655441894,110.53443890625,-10.045229065441895Q110.92538090625,-9.990948465441894,111.31300390625,-9.918777915441895Q111.70062590625,-9.846607355441895,112.08400190625,-9.756720725441895Q112.46737490625,-9.666834115441894,112.84557490625,-9.559447885441894Q113.22377390625,-9.452061715441895,113.59588990625,-9.327434655441895Q113.96800590625,-9.202807615441895,114.33313990625,-9.061240115441894Q114.69827490624999,-8.919672515441894,115.05554990625001,-8.761505215441895Q115.41282090625,-8.603338015441894,115.76137190625,-8.428952215441894Q116.10992390625,-8.254566415441895,116.44891390625,-8.064382315441895Q116.78790290625,-7.874198415441894,117.11651390624999,-7.668674015441894Q117.44512590625,-7.463149515441895,117.76256790625,-7.242780215441894Q118.08001090625,-7.022410615441895,118.38552090625001,-6.787726915441894Q118.69102890625,-6.553043415441895,118.98386590625,-6.304610715441894Q119.27670290625,-6.056178115441894,119.55616390624999,-5.794595215441895Q119.83562490625,-5.5330124154418945,120.10103790625,-5.258909215441895Q120.36644890625,-4.984806015441895,120.61717390625,-4.698843515441895Q120.86789690625,-4.412880915441894,121.10332890625,-4.115747415441895Q121.33875890625,-3.818613015441895,121.55833090625,-3.5110245154418944Q121.77790290625,-3.2034359154418945,121.98108490625,-2.8861322154418945Q122.18426890625,-2.568829015441895,122.37057490625,-2.2425756154418943Q122.55687690625,-1.9163227154418951,122.72585690625,-1.5819063154418949Q122.89483290625,-1.2474909154418938,123.04607590625,-0.9057159154418937Q123.19731890625,-0.5639410154418947,123.33046490625,-0.21563151544189374Q123.46361190625001,0.13267798455810542,123.57833690625,0.4866829845581062Q123.69306190625,0.8406879845581052,123.78909290625,1.199533984558105Q123.88512390625,1.558381984558105,123.96222690625,1.9212079845581052Q124.03933290625,2.2840339845581052,124.09732390625,2.649963984558106Q124.15531490625,3.0158949845581056,124.19405390624999,3.384047984558105Q124.23278790625,3.7522009845581064,124.25218190625,4.121688984558105Q124.27157590625,4.491177984558105,124.27157590625,4.8611119845581054Z" fill="#FF8F4F" fill-opacity="1" filter="url(#master_svg5_0_1374)"/><path d="M15.940697174291993,1.6519938109457397L227.171801774292,1.5399110485457397C227.261821774292,1.5398632772857397,227.307741774292,1.5398547487557397,227.351271774292,1.5414015576457398C227.908731774292,1.5612058809457396,228.442701774292,1.7714914709457397,228.863961774292,2.13711721094574C228.896861774292,2.1656748609457397,228.930431774292,2.19698357094574,228.996241774292,2.25840104094574L229.002651774292,2.26438081094574C229.35685177429198,2.5949231209457397,229.555681774292,2.7827056209457397,229.645281774292,2.88862482094574C230.882311774292,4.35108002094574,229.978761774292,6.64538082094574,228.076691774292,6.87157622094574C227.938931774292,6.88795842094574,227.665451774292,6.88973372094574,227.180971774292,6.88997682094574L15.943453774291992,6.99607882094574C15.427789174291991,6.996337820945739,15.136627674291992,6.99470942094574,14.996120474291992,6.9778212209457395C13.049312074291993,6.74382392094574,12.170800674291993,4.35347022094574,13.502737474291992,2.9144555209457397C13.598867374291991,2.81059742094574,13.819678274291991,2.62080752094574,14.212784274291991,2.2870706309457396C14.276757674291993,2.2327587009457397,14.309307574291992,2.2051406509457396,14.341269474291991,2.17980844094574C14.750057674291991,1.8558144909457397,15.252023674291992,1.6713219409457398,15.773330174291992,1.6534689909457398C15.814089774291993,1.6520731109457398,15.856777674291992,1.6520383409457398,15.940697174291993,1.6519938109457397" fill-rule="evenodd" fill="#FFB297" fill-opacity="1" filter="url(#master_svg6_0_1375)"/><path d="M207.53792182519533,-6.80555534362793L216.24030682519532,-6.80555534362793L187.1287307251953,47.63888765637207L178.42634582519702,47.63888765637207L207.53792182519533,-6.80555534362793Z" fill-rule="evenodd" fill="url(#master_svg7_0_774)" fill-opacity="0.699999988079071"/><path d="M193.6141132861328,-8.75L207.53792928613282,-8.75L178.4263522861328,45.694443L164.88374328613128,45.694443L193.6141132861328,-8.75Z" fill-rule="evenodd" fill="url(#master_svg8_0_777)" fill-opacity="0.800000011920929"/><path d="M17.5,0L223.5,0C233.16498,0,241,7.8350163,241,17.5C241,27.164984,233.16498,35,223.5,35L17.500006,35C7.8350163,35,4.7747327e-12,27.164984,4.7747327e-12,17.5C4.7747327e-12,7.8350163,7.8350163,0,17.5,0" fill-rule="evenodd" fill="url(#master_svg9_0_780)" fill-opacity="1"/></g></svg>