<svg xmlns="http://www.w3.org/2000/svg" xmlns:xlink="http://www.w3.org/1999/xlink" fill="none" version="1.1" width="173.37" height="52.4" viewBox="0 0 173.37142944335938 52.399017333984375"><defs><linearGradient x1="0.5" y1="1.1549999713897705" x2="0.5" y2="-0.1550000011920929" id="master_svg0_0_530"><stop offset="0%" stop-color="#EEF6FF" stop-opacity="1"/><stop offset="26.8798828125%" stop-color="#FDFFFF" stop-opacity="1"/><stop offset="100%" stop-color="#FDFFFF" stop-opacity="1"/></linearGradient></defs><g><path d="M14.864155,27.883591L11.084319,29.167351L11.491573,35.053329Q11.63549,37.133339,11.22829,38.3176Q10.821088,39.501862,9.7056484,40.090256Q8.5902081,40.678654,6.4659252,40.825348L2.2616138,41.115677L0.90077686,36.229355L4.5740166,35.9757Q5.6361589,35.902351,6.0283384,35.786339Q6.420517,35.670319,6.5287876,35.307106Q6.6370592,34.943893,6.5727558,34.014526L6.3553495,30.872389L0.80388975,32.901024L0.0000069141388,27.709438Q1.0880322,27.367502,6.0001497,25.73875L5.7000675,21.401712L0.34510279,21.771503L0.0021512508,16.814884L5.3571167,16.445095L5.0233517,11.621247L9.8472452,11.28813L10.18101,16.111977L14.119785,15.839983L14.462738,20.7966L10.523961,21.068596L10.738306,24.166477L14.081707,23.001793L14.446903,25.066521L14.864155,27.883591ZM34.989552,38.544365Q37.09465,41.333813,40.786026,47.126408L36.278625,50.10569Q34.220554,46.067913,30.631615,41.113113L34.452354,38.492527Q31.836517,37.961693,30.257465,33.134903Q29.98719,32.442101,29.701321,30.238491L27.864872,34.5452Q26.01502,33.516804,23.160921,32.113083Q22.331209,34.260326,20.89179,36.271805Q19.452375,38.283283,17.168343,40.619888L12.574051,37.201927Q14.961906,35.08049,16.357904,33.40551Q17.753901,31.73053,18.510412,29.810677Q16.720127,29.000502,14.841333,28.196436L16.665533,23.712704L19.551641,24.936344Q19.644316,23.062332,19.539917,20.268124L15.999445,20.512613L15.65037,15.467487L19.235098,15.219942L18.922768,10.705881L23.746662,10.372764L24.058992,14.886825L33.308475,14.248096L33.850464,22.081318Q34.171978,26.728146,34.587845,30.167849Q34.867592,32.282944,35.398659,32.246273Q35.752708,32.221825,35.94796,31.83037Q36.143211,31.438919,36.297127,30.450016L36.574333,28.029659L36.723511,26.329613L39.989548,27.260216Q39.957829,28.729816,39.720978,30.769417Q39.484127,32.809021,39.244762,33.848289Q38.648579,36.157272,37.682053,37.291222Q36.71553,38.425175,35.210831,38.529083L34.989552,38.544365ZM29.548504,29.315237Q29.172447,26.450853,28.909111,22.644882L28.70089,19.635508L24.408068,19.93195Q24.604326,24.053823,24.319607,27.008305L29.548504,29.315237ZM26.033159,39.563053Q27.053007,41.449181,29.653297,47.539448L30.077774,48.532875L25.219099,50.291336Q23.875246,46.293182,21.534655,41.385578L26.033159,39.563053ZM1.3083725,50.475098Q3.8086605,46.122547,4.9445267,41.330612L9.9259729,42.631897Q8.8891926,46.927849,6.2884312,52.399014L1.3083725,50.475098ZM16.974623,41.03347Q17.58392,42.770069,18.37888,45.583294Q19.173836,48.396511,19.615295,50.278111L14.634426,51.555874Q13.723946,47.394386,12.215031,42.295952L16.974623,41.03347ZM65.204796,18.937853L79.145401,17.975174L80.269173,34.216942L49.024509,36.374565L47.90073,20.132795L59.58429,19.325979L58.800404,7.9965734L64.420906,7.6084461L64.613815,10.396542L81.873611,9.2046547L82.244118,14.55957L64.984322,15.751457L65.204796,18.937853ZM54.321819,30.672722L74.281227,29.294413L73.892349,23.673964L53.932934,25.052273L54.321819,30.672722ZM45.176548,46.956619Q46.480831,44.598732,47.68198,41.714371Q48.883129,38.830009,49.444248,36.656845L54.314362,38.277084Q53.702862,40.364788,52.587158,43.198784Q51.471458,46.032784,50.521229,48.366215Q50.409897,48.685173,50.314564,48.914089Q50.219238,49.143009,50.142967,49.326145L45.176548,46.956619ZM79.193405,34.735901Q80.425339,36.473972,82.173332,39.243614Q83.921326,42.013256,84.617462,43.076862L85.215889,44.013809L80.841255,46.983917Q78.813812,43.388702,74.785088,37.2192L79.193405,34.735901ZM70.144051,36.339081Q71.060074,38.010036,72.222023,40.664513Q73.383965,43.318993,74.13829,45.223446L69.320808,46.934597Q68.193779,43.499538,65.55397,38.123466L70.144051,36.339081ZM60.972504,37.461563Q62.789825,43.16124,63.698631,46.655838L58.546856,48.034332Q58.137402,45.972664,57.455456,43.507374Q56.773506,41.042084,56.600929,40.475933L56.12746,38.774418L60.972504,37.461563ZM110.25395,14.492947L110.07635,11.926129L99.056633,12.687103L98.735115,8.0402737L109.75484,7.2793002L109.53437,4.092907L114.75656,3.7322855L114.97703,6.9186788L126.21803,6.1424241L126.53955,10.789253L115.29855,11.565508L115.47614,14.132325L125.1682,13.463035L126.01945,25.766064L117.34528,26.365063Q124.66982,30.039154,127.62773,31.658037L125.14888,36.320377Q121.3423,34.004162,116.6581,31.214947L117.08067,37.322205L111.85847,37.682827L111.38692,30.867481Q108.18298,34.690552,103.08662,38.155174L99.679428,33.899296Q102.20786,32.524086,104.55077,30.717018Q106.89367,28.909952,108.67113,26.964062L101.45742,27.46221L100.60616,15.159181L110.25395,14.492947ZM94.05658,16.901007L93.016975,15.371988Q92.226196,14.225988,90.646194,11.956116Q89.066185,9.6862411,88.284592,8.673008L92.78894,5.6494732Q94.787148,8.1795025,98.608238,13.918673L94.05658,16.901007ZM129.20403,37.730091L128.44669,42.851624L108.88558,44.202427Q105.74342,44.419411,103.63583,44.164749Q101.52824,43.910091,99.79821,43.006821Q98.068184,42.103546,96.340256,40.266323L91.618263,45.928436L89.149361,40.451626L93.103966,35.90971L92.341507,24.890091L88.358482,25.165142L87.984917,19.765974L97.367165,19.118076L98.484818,35.271332Q100.39145,37.763218,102.78226,38.576389Q105.17306,39.389565,109.37737,39.099236L129.20403,37.730091ZM110.54791,18.741474L105.72402,19.074593L105.9843,22.836308L110.80819,22.503193L110.54791,18.741474ZM120.76576,21.815565L120.50549,18.053848L115.7701,18.380854L116.03038,22.14257L120.76576,21.815565ZM144.74184,13.578775L154.30112,12.918653L154.09596,9.9535341L143.96135,10.653385L143.66739,6.4048581L148.93385,6.0411801Q147.34314,3.6164117,146.36002,2.2613573L151.04474,0.55937672L154.0383,4.6214819L151.19089,5.8853183L157.87354,5.4238439Q159.3593,2.4753599,160.43311,-0.0000085830688L165.69678,0.88157654Q164.87766,2.5389543,163.44978,5.0387731L168.93752,4.6598134L169.72141,15.989221L159.54254,16.692129L159.75995,19.834269L171.39926,19.03051Q171.70741,25.412468,171.6284,26.840868Q171.58304,28.756081,171.07814,29.813686Q170.57324,30.871294,169.45169,31.371178Q168.33011,31.871067,166.29434,32.01165L162.48833,32.274475L161.30618,28.042812L164.31558,27.834995Q165.73177,27.7372,166.19562,27.371666Q166.65948,27.00613,166.64252,26.117964L166.55647,23.589291L160.05084,24.03854L160.75513,34.217304L155.79848,34.559589L155.30548,27.434456Q151.30663,31.979424,146.64807,34.702339L143.63475,30.997337Q148.63814,28.117207,152.17331,24.582527L144.16298,25.135685L144.74184,13.578775ZM138.22231,13.184114L137.44379,12.215133Q136.81026,11.41401,134.86703,9.0358191Q132.92378,6.6576271,131.91174,5.5269084L135.73387,2.2836838Q137.17178,3.7851954,139.07912,5.9657655Q140.98645,8.1463356,142.25346,9.7485857L138.22231,13.184114ZM164.36333,9.2445135L159.05261,9.611249L159.25777,12.576368L164.56848,12.209633L164.36333,9.2445135ZM173.37141,34.680084L172.82619,39.653572L152.37996,41.065498Q148.08714,41.361942,145.53224,40.426693Q142.97736,39.491447,140.47397,36.729507L135.92149,42.913517L133.38246,37.708351L137.26216,32.726936L136.49052,21.574554L132.72878,21.834324L132.35521,16.435154L141.33916,15.814761L142.47212,32.189293Q144.42609,34.722382,146.68411,35.54472Q148.94215,36.367062,152.83667,36.098125L173.37141,34.680084ZM149.22705,20.561625L154.8033,20.176554L154.58589,17.034414L149.40794,17.391979L149.22705,20.561625Z" fill="url(#master_svg0_0_530)" fill-opacity="1"/></g></svg>