<svg xmlns="http://www.w3.org/2000/svg" xmlns:xlink="http://www.w3.org/1999/xlink" fill="none" version="1.1" width="706" height="319" viewBox="0 0 706 319"><defs><linearGradient x1="0" y1="0.5" x2="1" y2="0.5" id="master_svg0_0_703"><stop offset="0%" stop-color="#FFBD9C" stop-opacity="1"/><stop offset="100%" stop-color="#FF2B2B" stop-opacity="1"/></linearGradient><linearGradient x1="0" y1="0.5" x2="1" y2="0.5" id="master_svg1_0_703"><stop offset="0%" stop-color="#FFBD9C" stop-opacity="1"/><stop offset="100%" stop-color="#FF2B2B" stop-opacity="1"/></linearGradient><linearGradient x1="0" y1="0.5" x2="1" y2="0.5" id="master_svg2_0_703"><stop offset="0%" stop-color="#FFBD9C" stop-opacity="1"/><stop offset="100%" stop-color="#FF2B2B" stop-opacity="1"/></linearGradient><linearGradient x1="0" y1="0.5" x2="1" y2="0.5" id="master_svg3_0_703"><stop offset="0%" stop-color="#FFBD9C" stop-opacity="1"/><stop offset="100%" stop-color="#FF2B2B" stop-opacity="1"/></linearGradient><linearGradient x1="0" y1="0.5" x2="1" y2="0.5" id="master_svg4_0_703"><stop offset="0%" stop-color="#FFBD9C" stop-opacity="1"/><stop offset="100%" stop-color="#FF2B2B" stop-opacity="1"/></linearGradient><linearGradient x1="0" y1="0.5" x2="1" y2="0.5" id="master_svg5_0_703"><stop offset="0%" stop-color="#FFBD9C" stop-opacity="1"/><stop offset="100%" stop-color="#FF2B2B" stop-opacity="1"/></linearGradient><linearGradient x1="0" y1="0.5" x2="1" y2="0.5" id="master_svg6_0_703"><stop offset="0%" stop-color="#FFBD9C" stop-opacity="1"/><stop offset="100%" stop-color="#FF2B2B" stop-opacity="1"/></linearGradient><linearGradient x1="0" y1="0.5" x2="1" y2="0.5" id="master_svg7_0_703"><stop offset="0%" stop-color="#FFBD9C" stop-opacity="1"/><stop offset="100%" stop-color="#FF2B2B" stop-opacity="1"/></linearGradient><linearGradient x1="0" y1="0.5" x2="1" y2="0.5" id="master_svg8_0_703"><stop offset="0%" stop-color="#FFBD9C" stop-opacity="1"/><stop offset="100%" stop-color="#FF2B2B" stop-opacity="1"/></linearGradient><linearGradient x1="0" y1="0.5" x2="1" y2="0.5" id="master_svg9_0_703"><stop offset="0%" stop-color="#FFBD9C" stop-opacity="1"/><stop offset="100%" stop-color="#FF2B2B" stop-opacity="1"/></linearGradient><linearGradient x1="0" y1="0.5" x2="1" y2="0.5" id="master_svga_0_703"><stop offset="0%" stop-color="#FFBD9C" stop-opacity="1"/><stop offset="100%" stop-color="#FF2B2B" stop-opacity="1"/></linearGradient><linearGradient x1="0" y1="0.5" x2="1" y2="0.5" id="master_svgb_0_703"><stop offset="0%" stop-color="#FFBD9C" stop-opacity="1"/><stop offset="100%" stop-color="#FF2B2B" stop-opacity="1"/></linearGradient><linearGradient x1="0" y1="0.5" x2="1" y2="0.5" id="master_svgc_0_703"><stop offset="0%" stop-color="#FFBD9C" stop-opacity="1"/><stop offset="100%" stop-color="#FF2B2B" stop-opacity="1"/></linearGradient><linearGradient x1="0" y1="0.5" x2="1" y2="0.5" id="master_svgd_0_703"><stop offset="0%" stop-color="#FFBD9C" stop-opacity="1"/><stop offset="100%" stop-color="#FF2B2B" stop-opacity="1"/></linearGradient></defs><rect x="0" y="232" width="32.34000015258789" height="86" rx="0" fill="url(#master_svg0_0_703)" fill-opacity="1"/><rect x="52.54998779296875" y="186" width="32.34000015258789" height="132" rx="0" fill="url(#master_svg1_0_703)" fill-opacity="1"/><rect x="102.39999389648438" y="209" width="32.34000015258789" height="109" rx="0" fill="url(#master_svg2_0_703)" fill-opacity="1"/><rect x="156.29000854492188" y="289" width="32.34000015258789" height="29" rx="0" fill="url(#master_svg3_0_703)" fill-opacity="1"/><rect x="673.6599731445312" y="304" width="32.34000015258789" height="15" rx="0" fill="url(#master_svg4_0_703)" fill-opacity="1"/><rect x="208.83999633789062" y="279" width="32.34000015258789" height="39" rx="0" fill="url(#master_svg5_0_703)" fill-opacity="1"/><rect x="260.0299987792969" y="205" width="32.34000015258789" height="113" rx="0" fill="url(#master_svg6_0_703)" fill-opacity="1"/><rect x="311.22998046875" y="173" width="32.34000015258789" height="146" rx="0" fill="url(#master_svg7_0_703)" fill-opacity="1"/><rect x="362.42999267578125" y="189" width="32.34000015258789" height="130" rx="0" fill="url(#master_svg8_0_703)" fill-opacity="1"/><rect x="414.97998046875" y="176" width="32.34000015258789" height="143" rx="0" fill="url(#master_svg9_0_703)" fill-opacity="1"/><rect x="467.52001953125" y="104" width="32.34000015258789" height="215" rx="0" fill="url(#master_svga_0_703)" fill-opacity="1"/><rect x="520.0700073242188" y="93" width="32.34000015258789" height="226" rx="0" fill="url(#master_svgb_0_703)" fill-opacity="1"/><rect x="571.27001953125" y="60" width="32.34000015258789" height="259" rx="0" fill="url(#master_svgc_0_703)" fill-opacity="1"/><rect x="622.469970703125" y="0" width="32.34000015258789" height="319" rx="0" fill="url(#master_svgd_0_703)" fill-opacity="1"/></svg>