<svg xmlns="http://www.w3.org/2000/svg" xmlns:xlink="http://www.w3.org/1999/xlink" fill="none" version="1.1" width="656.74" height="81.14" viewBox="0 0 656.7401123046875 81.1419677734375"><defs><linearGradient x1="0.5" y1="1.1549999713897705" x2="0.5" y2="-0.1550000011920929" id="master_svg0_0_463"><stop offset="0%" stop-color="#6A290D" stop-opacity="1"/><stop offset="99.853515625%" stop-color="#A66345" stop-opacity="0.9960784316062927"/><stop offset="100%" stop-color="#9D4A17" stop-opacity="0.9960784316062927"/><stop offset="100%" stop-color="#6ECCFE" stop-opacity="0.9960784316062927"/><stop offset="100%" stop-color="#0095EB" stop-opacity="0.9960784316062927"/><stop offset="100%" stop-color="#0095EB" stop-opacity="0.9960784316062927"/></linearGradient></defs><g><path d="M74.429695,21.24136L43.757183,21.24136L43.757183,30.162727L70.861145,30.162727L70.861145,59.220898Q70.861145,64.063927,69.671631,66.655373Q68.482117,69.246819,65.635773,70.308884Q62.789436,71.370949,57.436615,71.370949L48.260349,71.370949L46.05125,59.56076L54.71772,59.56076Q57.181717,59.56076,57.861443,58.668625Q58.541164,57.776485,58.541164,54.802696L58.541164,41.633057L43.757183,41.633057L43.757183,80.207352L31.267269,80.207352L31.267269,41.633057L16.653217,41.633057L16.653217,72.050674L4.8430262,72.050674L4.8430262,30.162727L31.267269,30.162727L31.267269,21.24136L-0.0000019073486,21.24136L-0.0000019073486,10.110893L31.352234,10.110893Q28.888237,2.8038635,28.208515,1.1895218L42.142841,0.59476471Q42.992493,2.633934,45.28656,10.110893L74.429695,10.110893L74.429695,21.24136ZM129.86963,28.378456L156.20889,28.378456Q155.95401,33.561344,155.27429,45.753883Q154.59456,57.946419,154.08478,66.273026Q153.7449,71.03109,152.38547,73.622536Q151.026,76.213982,148.17967,77.276047Q145.33333,78.338112,140.23541,78.338112L131.73886,78.338112L130.29445,69.586678Q126.13115,75.619225,120.01364,81.057007L112.19682,73.240189Q120.43846,66.018127,124.94164,57.946419Q129.44479,49.874702,131.73886,38.99913L126.72591,38.99913Q121.03322,59.815655,106.67407,71.370949L99.452011,64.658684Q101.83104,62.619514,102.85062,61.514965Q97.412842,63.129303,91.805122,64.913582Q86.197403,66.697853,83.053688,67.802406L81.609276,55.822281Q83.138649,55.567383,89.680984,53.698147L89.680984,31.097347L83.478516,31.097347L83.478516,19.966881L89.680984,19.966881L89.680984,1.954216L100.98138,1.954216L100.98138,19.966881L107.43876,19.966881L107.43876,31.097347L100.98138,31.097347L100.98138,50.46946Q105.65448,49.110016,106.33421,48.855118L106.41917,51.828907L106.50414,57.776485Q110.15765,53.528214,112.53668,48.940086Q114.91571,44.351952,116.44509,38.99913L108.88317,38.99913L108.88317,29.313076L131.48396,15.973507L110.83737,15.973507L110.83737,4.8430405L151.11098,4.8430405L151.11098,16.143436L129.86963,28.378456ZM143.37912,62.364616Q143.63403,60.580345,144.14381,53.528214Q144.65361,46.476089,144.90851,43.247402L145.16339,38.99913L141.42493,38.99913Q138.70602,55.907249,131.73886,67.207649L137.85637,67.207649Q141.00009,67.207649,142.06216,66.273026Q143.12424,65.338409,143.37912,62.364616ZM241.72659,34.156101L241.72659,46.221191L226.77267,46.221191L226.77267,78.42308L214.02786,78.42308L214.02786,46.221191L194.91064,46.221191Q194.40085,54.207939,192.61658,59.56076Q190.83231,64.913582,187.13631,69.629158Q183.44032,74.344742,176.47316,80.46225L166.5322,70.691231Q172.47978,66.273026,175.58102,62.831924Q178.68225,59.390831,180.08418,55.609871Q181.48611,51.828907,181.91093,46.221191L165.51262,46.221191L165.51262,34.156101L182.16583,34.156101L182.16583,15.973507L169.33606,15.973507L169.33606,4.3332443L238.66783,4.3332443L238.66783,15.973507L226.77267,15.973507L226.77267,34.156101L241.72659,34.156101ZM195.16554,15.973507L195.16554,34.156101L214.02786,34.156101L214.02786,15.973507L195.16554,15.973507ZM321.80649,37.809616L266.7489,37.809616Q266.7489,39.848785,266.57895,43.587265L320.10718,43.587265L320.10718,80.29232L308.12704,80.29232L308.12704,76.213982L277.96432,76.213982L277.96432,80.29232L266.15414,80.29232L266.15414,48.345325Q265.30447,56.162144,263.13788,63.341721Q260.97125,70.521301,256.72296,79.272736L246.61209,72.220604Q250.18063,64.998543,251.92242,59.135933Q253.66422,53.273319,254.30145,46.900913Q254.93869,40.528507,254.93869,30.67252L254.93869,8.666481L282.29758,8.666481L280.08847,1.5293884L293.513,0.0000076293945L296.40182,8.666481L321.80649,8.666481L321.80649,37.809616ZM309.82635,27.019009L309.82635,19.287155L266.83386,19.287155L266.83386,27.019009L309.82635,27.019009ZM308.12704,65.763237L308.12704,54.292904L277.96432,54.292904L277.96432,65.763237L308.12704,65.763237ZM364.33167,19.542053L344.10989,19.542053L344.10989,29.992798L332.89447,29.992798L332.89447,12.914749L364.33167,12.914749L364.33167,9.6860657L337.22772,9.6860657L337.22772,3.1437302L402.39618,3.1437302L402.39618,9.6860657L375.29221,9.6860657L375.29221,12.914749L407.06927,12.914749L407.06927,29.992798L396.02377,29.992798L396.02377,19.542053L375.29221,19.542053L375.29221,33.731277L364.33167,33.731277L364.33167,19.542053ZM346.8288,22.00605L362.46243,22.00605L362.46243,26.679146L346.8288,26.679146L346.8288,22.00605ZM377.50131,22.00605L393.13495,22.00605L393.13495,26.679146L377.50131,26.679146L377.50131,22.00605ZM362.46243,33.391415L346.8288,33.391415L346.8288,28.888248L362.46243,28.888248L362.46243,33.391415ZM377.58627,28.888248L393.21991,28.888248L393.21991,33.391415L377.58627,33.391415L377.58627,28.888248ZM403.84061,79.867493Q393.30487,78.338112,386.16779,75.619225Q379.0307,72.90033,373.50793,68.482124L373.67786,76.213982L352.18161,80.717148L348.86798,72.7304Q351.24701,71.540886,351.24701,69.926537L351.24701,61.175102L347.33859,61.175102Q346.48895,66.697853,344.36481,71.498398Q342.24066,76.298943,338.58716,81.141975L328.98605,74.344742Q332.46964,69.841576,334.21143,66.315506Q335.95322,62.789444,336.63297,58.711105Q337.31268,54.632767,337.31268,48.345325L337.31268,35.940376L404.69025,35.940376L404.69025,42.142853L348.10327,42.142853L348.10327,50.894287Q348.10327,52.933456,348.01831,53.953041L405.96472,53.953041L405.96472,61.175102L397.89301,61.175102L400.69687,65.42337L393.72971,68.397163Q399.93219,69.841576,408.5137,70.436333L403.84061,79.867493ZM401.03671,45.031677L401.03671,51.064217L349.97253,51.064217L349.97253,45.031677L401.03671,45.031677ZM362.0376,69.841576L372.40338,67.46254Q369.93939,65.338409,366.2009,61.175102L362.0376,61.175102L362.0376,69.841576ZM383.6188,64.573715Q385.57303,63.809029,389.65137,61.939789L391.35068,61.175102L378.69083,61.175102Q380.89993,63.044342,383.6188,64.573715ZM471.77045,2.0391769L471.77045,6.3724136L490.88766,6.3724136L490.88766,16.483299L471.77045,16.483299L471.77045,21.411293L459.87531,21.411293L459.87531,16.483299L445.1763,16.483299L445.1763,21.411293L433.36609,21.411293L433.36609,16.483299L414.58875,16.483299L414.58875,6.3724136L433.36609,6.3724136L433.36609,2.0391769L445.1763,2.0391769L445.1763,6.3724136L459.87531,6.3724136L459.87531,2.0391769L471.77045,2.0391769ZM432.17657,36.280239Q422.74542,30.417625,418.07233,27.69873L423.34018,18.947296Q434.04581,24.80991,437.44443,27.019009L432.17657,36.280239ZM482.9859,32.626724L459.19559,40.953335L488.5936,40.953335Q487.40408,63.893997,486.97928,68.057297Q486.55444,73.919914,483.1983,76.256462Q479.84216,78.59301,472.28024,78.59301L464.63336,78.59301L463.27393,71.03109Q459.28055,75.874115,452.90814,80.547218L445.09131,73.155228Q452.73819,68.142265,456.39172,63.29924Q460.04523,58.456207,461.8295,51.064217L457.1564,51.064217Q454.69241,58.371246,450.14676,63.766548Q445.6011,69.16185,437.10458,75.279358L430.98706,67.717438Q425.54929,79.102806,424.61465,80.46225L414.84363,75.704185Q415.6933,74.59964,420.5788,64.913582Q425.46432,55.227524,426.05908,53.613182L430.81714,55.652351L435.5752,57.86145Q434.64056,60.070553,431.4119,66.782822Q437.69934,62.704483,441.2254,59.050968Q444.75146,55.397453,446.53574,51.064217L436.25491,51.064217L436.25491,40.613472L461.23474,32.796658L439.31366,32.796658L439.31366,23.025635L482.9859,23.025635L482.9859,32.626724ZM428.26816,52.508629L425.37933,50.639393Q415.52335,44.266987,413.82404,43.332367L419.17688,34.580929Q422.5755,36.450169,426.61136,38.871681Q430.64719,41.293198,434.13077,43.417332L428.26816,52.508629ZM476.52853,59.90062Q477.12326,52.678562,477.20825,51.064217L472.19528,51.064217Q470.15613,61.43,465.22812,68.482124L470.24109,68.482124Q473.63971,68.482124,474.78671,67.589989Q475.93375,66.697853,476.18866,63.893997L476.52853,59.90062ZM554.73926,63.129303Q557.54309,65.763237,562.25867,67.29261Q566.97424,68.821991,574.28125,69.841576L571.13757,80.122391Q563.32068,79.017838,557.07581,76.129013Q550.83081,73.240189,546.92236,68.737022Q539.44543,76.129013,522.70728,80.46225L518.96875,70.691231Q526.44568,69.16185,531.07629,67.335098Q535.70691,65.508339,538.25586,63.129303L520.58313,63.129303L520.58313,53.783112L541.82446,53.783112L541.99438,50.46946L524.49158,50.46946L524.49158,41.0383L519.64844,49.704773L515.82507,46.221191L515.82507,80.037422L505.28934,80.037422L505.28934,50.46946Q502.82535,56.162144,498.91693,63.129303L496.70782,45.711399Q499.76657,40.443542,501.55087,36.067825Q503.33514,31.692104,504.77954,26.084389L498.40714,26.084389L498.40714,14.953922L505.28934,14.953922L505.28934,1.8692474L515.82507,1.8692474L515.82507,14.953922L521.26282,14.953922L521.26282,26.084389L515.82507,26.084389L515.82507,32.456795L524.49158,39.508923L524.49158,20.731567L570.45776,20.731567L570.45776,50.46946L553.03992,50.46946L552.95496,53.783112L573.85645,53.783112L573.85645,63.129303L554.73926,63.129303ZM542.41919,19.457088L531.88354,19.457088L531.88354,15.633644L521.68762,15.633644L521.68762,6.2874527L531.88354,6.2874527L531.88354,2.294075L542.41919,2.294075L542.41919,6.2874527L552.53015,6.2874527L552.53015,2.294075L563.0658,2.294075L563.0658,6.2874527L573.60156,6.2874527L573.60156,15.633644L563.0658,15.633644L563.0658,19.457088L552.53015,19.457088L552.53015,15.633644L542.41919,15.633644L542.41919,19.457088ZM559.7522,32.201897L559.7522,28.973213L535.11218,28.973213L535.11218,32.201897L559.7522,32.201897ZM559.7522,38.829201L535.11218,38.829201L535.11218,42.227818L559.7522,42.227818L559.7522,38.829201ZM656.74011,56.502007Q656.40027,59.135933,655.80554,62.831924Q655.21082,66.527924,654.61609,68.737022Q652.91675,75.364326,650.32532,77.870804Q647.73389,80.377281,643.65552,80.377281Q639.57715,80.377281,636.34851,77.870804Q633.11975,75.364326,629.72119,69.076889Q626.66248,62.959373,624.28333,52.21125Q621.9043,41.463127,620.96973,26.849079L580.95105,26.849079L580.95105,15.378746L620.45996,15.378746Q620.375,8.5815125,619.9502,2.0391769L632.27014,2.0391769Q632.27014,6.5423431,632.52502,15.378746L642.38098,15.378746L634.90405,8.4965515L641.87122,0.76469421Q648.32861,6.2874527,653.00171,10.535721L648.83838,15.378746L656.06042,15.378746L656.06042,26.849079L633.11975,26.849079Q634.1394,41.887955,636.13611,51.106701Q638.13269,60.325447,641.53137,65.253441Q642.5509,66.782822,643.74048,66.782822Q644.33521,66.782822,644.76001,65.805717Q645.18494,64.828613,645.6947,62.194687Q646.96912,54.717731,647.13904,53.188354L656.74011,56.502007ZM622.66907,65.593307L622.75403,71.116058Q619.78027,71.285988,602.10742,73.410118Q584.43457,75.534256,581.54578,76.213982L580.10132,63.978958Q580.95105,63.978958,591.82654,62.874413L595.14026,62.534546L595.14026,46.051262L582.48035,46.051262L582.48035,34.750862L619.10046,34.750862L619.10046,46.051262L607.12036,46.051262L607.12036,61.090137Q618.84558,59.73069,622.58411,59.135933L622.66907,65.593307Z" fill="url(#master_svg0_0_463)" fill-opacity="1"/></g></svg>