<svg xmlns="http://www.w3.org/2000/svg" xmlns:xlink="http://www.w3.org/1999/xlink" fill="none" version="1.1" width="673.66" height="189" viewBox="0 0 677.6639404296875 193"><path d="M625.79077,92.00782L675.46436,96.990257L675.86353,93.010231L626.01245,88.009987Q625.83496,87.99218,625.65704,88.006081L575.51111,91.924324L522.27972,25.747187Q521.99994,25.399403,521.59888,25.203554L470.40051,0.20282160000000005Q470.25589,0.13219669999999994,470.10184,0.08560970000000001Q469.94775,0.03902270000000008,469.78824,0.01767289999999999Q469.62872,-0.0036770999999999887,469.46783,0.0007596999999999188Q469.30695,0.005196600000000107,469.14883,0.03530600000000006Q468.99072,0.06541510000000006,468.83948,0.12042189999999997Q468.6882,0.17542860000000005,468.54767,0.25391699999999995Q468.40717,0.3324053,468.28098,0.43235500000000004Q468.15482,0.5323047999999999,468.04623,0.6511433L414.58423,59.179447L364.01105,70.045357Q363.53732,70.147141,363.16272,70.454445L312.56903,111.95792L262.15128,109.00391Q262.02032,108.99625,261.88947,109.00575Q261.75861,109.01525,261.63007,109.04176Q261.50159,109.06828,261.37762,109.11137Q261.25372,109.15445,261.13647,109.21334Q261.01923,109.27225,260.91071,109.34596Q260.80212,109.41967,260.70413,109.50693Q260.60614,109.5942,260.52042,109.69352Q260.43469,109.79285,260.36264,109.9025L208.89896,188.25453L163.4662,159.35138L106.93626,117.39474Q106.83224,117.31754,106.71912,117.25439Q106.60599,117.19125,106.48566,117.14322Q106.36534,117.0952,106.23982,117.0631Q106.1143,117.031,105.98569,117.01536Q105.85709,116.99973,105.72754,117.00081Q105.59798,117.0019,105.46965,117.01968Q105.34132,117.03748,105.21637,117.07167Q105.0914,117.10587,104.97189,117.1559L53.920975,138.52998L3.6447194,65.86304100000001L0.35528059999999995,68.138916L51.553677,142.13867Q51.602142,142.20871,51.656387,142.27438Q51.710632,142.34006,51.770264,142.40088Q51.829895,142.4617,51.894478,142.51724Q51.959064,142.57277,52.028141,142.6226Q52.097221,142.67245,52.170284,142.71625Q52.243347,142.76004,52.31987,142.79745Q52.396393,142.83487,52.475819,142.86563Q52.555244,142.89641,52.636997,142.92032Q52.718754,142.94423,52.802246,142.96111Q52.885738,142.97797,52.970364,142.98769Q53.054985,142.99741,53.140129,142.99988Q53.225273,143.00235,53.310318,142.99759Q53.395363,142.99283,53.479698,142.98085Q53.564034,142.96887,53.647041,142.94977Q53.730049,142.93065,53.811134,142.90454Q53.89222,142.87845,53.970791,142.84557L105.46653,121.28525L161.14003,162.60623Q161.19778,162.64911,161.25848,162.68771L208.41498,192.68747Q208.4971,192.73972,208.58392,192.78375Q208.67072,192.82779,208.76141,192.86317Q208.85208,192.89856,208.94577,192.92496Q209.03946,192.95137,209.13528,192.96857Q209.23108,192.98575,209.32811,192.99356Q209.42514,193.00137,209.52248,192.99973Q209.6198,192.99806,209.71651,192.98697Q209.8132,192.97586,209.90839,192.95543Q210.00354,192.935,210.09628,192.90543Q210.18903,192.87584,210.27846,192.8374Q210.36789,192.79895,210.45316,192.75198Q210.53842,192.70503,210.61873,192.65002Q210.69904,192.595,210.77362,192.53246Q210.84821,192.46991,210.91637,192.40042Q210.98453,192.33093,211.04561,192.25514Q211.10669,192.17935,211.16014,192.09799L263.07132,113.06467L313.11584,115.99682Q313.30249,116.00777,313.48788,115.98392Q313.67328,115.96009,313.85101,115.9023Q314.02881,115.84454,314.19281,115.75482Q314.35681,115.6651,314.50128,115.54653L365.32504,73.854332L416.04974,62.955864Q416.35474,62.890327,416.62531,62.735012Q416.89587,62.579689,417.10629,62.349346L469.9902,4.453901500000001L519.44263,28.602043L573.05597,95.254036Q573.20886,95.444191,573.40308,95.591988Q573.59729,95.739784,573.82135,95.836548Q574.04541,95.933311,574.28613,95.973366Q574.52686,96.013412,574.7702,95.994408L625.79077,92.00782Z" fill-rule="evenodd" fill="#DBAF90" fill-opacity="1"/></svg>