<svg xmlns="http://www.w3.org/2000/svg" xmlns:xlink="http://www.w3.org/1999/xlink" fill="none" version="1.1" width="329.33" height="79.78" viewBox="0 0 329.325927734375 79.78253173828125"><defs><linearGradient x1="0.5" y1="1.1549999713897705" x2="0.5" y2="-0.1550000011920929" id="master_svg0_0_463"><stop offset="0%" stop-color="#6A290D" stop-opacity="1"/><stop offset="99.853515625%" stop-color="#A66345" stop-opacity="0.9960784316062927"/><stop offset="100%" stop-color="#9D4A17" stop-opacity="0.9960784316062927"/><stop offset="100%" stop-color="#6ECCFE" stop-opacity="0.9960784316062927"/><stop offset="100%" stop-color="#0095EB" stop-opacity="0.9960784316062927"/><stop offset="100%" stop-color="#0095EB" stop-opacity="0.9960784316062927"/></linearGradient></defs><g><path d="M27.78368,3.3136444Q24.300098,14.104256,19.966862,23.195553L19.966862,78.932861L9.0063248,78.932861L9.0063248,42.822563Q7.1370859,45.796352,3.9084001,50.384483L-0.0000088214874,35.345608Q4.6730886,28.973202,9.388669,19.287144Q14.104248,9.6010895,16.823141,0.084960938L27.78368,3.3136444ZM72.900314,39.084084Q69.841553,37.044914,66.44294,34.495953L66.44294,77.403481L54.802681,77.403481L54.802681,32.201885L63.724045,32.201885Q54.20792,23.960243,49.44986,14.019291Q44.606831,23.365482,35.430565,32.11692L44.691795,32.11692L44.691795,43.672218Q44.691795,52.763515,43.714695,58.243782Q42.737591,63.724052,39.976215,68.524597Q37.21484,73.325142,31.437191,79.782516L22.090998,71.965698Q26.934025,67.207634,29.228092,63.511642Q31.522156,59.815643,32.286846,55.482407Q33.051537,51.14917,33.051537,43.842148L33.051537,34.241055Q30.757469,36.365192,26.509199,39.678841L20.901482,27.868652Q30.162712,21.411282,35.982841,14.996391Q41.802971,8.5815048,45.031658,0.93461609L53.443233,0.93461609Q61.090118,17.927696,78.592995,27.443825L72.900314,39.084084ZM108.92564,2.3790283Q105.86689,13.169636,102.97807,20.646591L102.97807,78.932861L91.932564,78.932861L91.932564,42.822563Q89.383606,46.900902,87.00457,50.214554L83.690918,34.750851Q87.259468,29.567959,90.95546,19.881901Q94.651459,10.195847,97.115456,0L108.92564,2.3790283ZM156.59125,18.947285L156.59125,67.292603L161.09441,67.292603L161.09441,76.808723L105.52703,76.808723L105.52703,67.292603L110.62495,67.292603L110.62495,18.947285L127.703,18.947285L127.703,15.038876L108.16096,15.038876L108.16096,5.0979233L127.703,5.0979233L127.703,0.084960938L139.08836,0.084960938L139.08836,5.0979233L160.24475,5.0979233L160.24475,15.038876L139.08836,15.038876L139.08836,18.947285L156.59125,18.947285ZM145.37581,32.371819L145.37581,28.208511L122.01031,28.208511L122.01031,32.371819L145.37581,32.371819ZM122.01031,43.842148L145.37581,43.842148L145.37581,40.273602L122.01031,40.273602L122.01031,43.842148ZM145.37581,55.397446L145.37581,51.743931L122.01031,51.743931L122.01031,55.397446L145.37581,55.397446ZM145.37581,63.299225L122.01031,63.299225L122.01031,67.292603L145.37581,67.292603L145.37581,63.299225ZM227.62231,2.5489578L227.62231,27.35886L242.83113,27.35886L242.83113,77.998245L230.25626,77.998245L230.25626,74.089836L184.9697,74.089836L184.9697,77.998245L172.39481,77.998245L172.39481,27.35886L187.60362,27.35886L187.60362,2.5489578L227.62231,2.5489578ZM184.9697,39.508911L184.9697,62.27964L230.25626,62.27964L230.25626,39.508911L215.30234,39.508911L215.30234,14.699013L199.75366,14.699013L199.75366,39.508911L184.9697,39.508911ZM307.31989,65.253433L329.32593,65.253433L329.32593,76.553833L254.21649,76.553833L254.21649,65.253433L276.47742,65.253433L276.47742,38.489326L260.41898,38.489326L260.41898,1.6143417L323.29337,1.6143417L323.29337,38.489326L307.31989,38.489326L307.31989,58.201302Q310.03876,54.292892,313.22498,49.02504Q316.41116,43.757179,318.19543,40.273602L328.47626,45.881317Q326.09723,50.129585,322.74109,55.694824Q319.38495,61.260056,317.09088,64.658676L307.31989,58.881023L307.31989,65.253433ZM311.05835,16.398319L311.05835,11.895153L272.56903,11.895153L272.56903,16.398319L311.05835,16.398319ZM311.05835,24.130173L272.56903,24.130173L272.56903,28.633339L311.05835,28.633339L311.05835,24.130173ZM295.42471,38.489326L288.37259,38.489326L288.37259,65.253433L295.42471,65.253433L295.42471,38.489326ZM264.49731,40.273602Q272.05923,50.639381,276.22253,57.351646L266.62143,64.31881Q260.0791,53.443237,254.98117,46.561043L264.49731,40.273602Z" fill="url(#master_svg0_0_463)" fill-opacity="1"/></g></svg>