<svg xmlns="http://www.w3.org/2000/svg" xmlns:xlink="http://www.w3.org/1999/xlink" fill="none" version="1.1" width="191" height="33.33" viewBox="0 0 192.12054443359375 34.4359130859375"><defs><linearGradient x1="-0.18660868704319" y1="4.163336342344337e-17" x2="0.532907355382167" y2="1.2655590448171956" id="master_svg0_0_86"><stop offset="0%" stop-color="#FD5D74" stop-opacity="1"/><stop offset="100%" stop-color="#FFFFFF" stop-opacity="0"/></linearGradient><linearGradient x1="0.26134634017944336" y1="-2.0816681711721685e-17" x2="0.3772960638311202" y2="1.014030628941267" id="master_svg1_0_88"><stop offset="0%" stop-color="#FFFFFF" stop-opacity="1"/><stop offset="100%" stop-color="#FFFFFF" stop-opacity="0"/></linearGradient><linearGradient x1="-0.18660868704319" y1="4.163336342344337e-17" x2="0.532907355382167" y2="1.2655590448171956" id="master_svg2_0_86"><stop offset="0%" stop-color="#FD5D74" stop-opacity="1"/><stop offset="100%" stop-color="#FFFFFF" stop-opacity="0"/></linearGradient><linearGradient x1="0.26134634017944336" y1="-2.0816681711721685e-17" x2="0.3772960638311202" y2="1.014030628941267" id="master_svg3_0_88"><stop offset="0%" stop-color="#FFFFFF" stop-opacity="1"/><stop offset="100%" stop-color="#FFFFFF" stop-opacity="0"/></linearGradient></defs><g style="opacity:0.699999988079071;"><path d="M5.717718616796875,0.83160742953125C6.028848616796875,0.62322745453125,6.404354616796875,0.52843206953125,6.779135716796875,0.56365579463125C7.093990316796875,0.58928218453125,7.393425916796875,0.70860309953125,7.637549416796875,0.90572168953125C8.777267416796874,1.84070171953125,9.519680016796874,2.88970371953125,9.858984916796874,4.04987711953125C10.627497216796876,6.66098021953125,10.627497216796876,7.69572921953125,10.508594516796874,8.83879951953125C10.430294016796875,9.59989641953125,10.212790516796876,10.55198001953125,9.858984916796874,11.70360151953125C8.069656416796875,10.44650931953125,6.729835016796875,8.73617931953125,5.836620816796875,6.58116481953125C5.250940816796875,5.17361261953125,5.012438816796875,3.64980891953125,5.140609716796875,2.13430831953125L5.187010316796875,1.66681821953125C5.234210516796875,1.32660877953125,5.427404916796875,1.02256613953125,5.717718616796875,0.83160742953125ZM1.547456796796875,8.405517619531249C0.378738206796875,8.405517619531249,0.45703945679687497,9.46592141953125,0.7702444167968749,10.37239641953125C1.083449426796875,11.27887151953125,2.417470716796875,13.98119151953125,4.723007216796875,15.62595851953125C6.260031716796875,16.72056951953125,8.208862816796875,17.66980151953125,10.563700216796875,18.47650751953125C10.038791616796875,15.53474051953125,8.910674116796875,13.22009451953125,7.185146816796875,11.53827051953125C4.595405616796875,9.01268481953125,2.713275416796875,8.40836811953125,1.547456796796875,8.40836811953125L1.547456796796875,8.405517619531249ZM0.570136512596875,18.25416751953125C0.7238389367968749,19.20625151953125,1.730155016796875,21.63491851953125,4.624401116796875,23.47637151953125C6.927037716796875,24.94440451953125,9.554479616796876,25.99625751953125,12.350124216796875,26.56066751953125C12.623594216796874,26.61735551953125,12.895103216796874,26.67681351953125,13.158946216796876,26.73459251953125C14.898434216796876,27.11552451953125,16.304716216796876,27.42348651953125,15.743178216796874,26.38393451953125C15.090668216796875,25.18670251953125,12.892433216796874,22.21072951953125,9.711082416796875,20.12127651953125C6.535531516796875,18.03182451953125,4.859304916796875,17.78382651953125,3.446982416796875,17.49307051953125C2.025959716796875,17.19946251953125,0.419334096796875,17.30493351953125,0.570136512596875,18.25701751953125L0.570136512596875,18.25416751953125ZM5.593019916796875,30.11815251953125C5.268214716796875,29.30004451953125,6.303531216796875,28.17407751953125,8.542367016796874,28.03725051953125L8.542367016796874,28.03440051953125C10.781202216796874,27.89757351953125,13.136040216796875,28.03440051953125,16.500093216796877,29.13471251953125C19.005211216796877,29.97464751953125,21.338379216796874,31.24583451953125,23.390604216796874,32.88888551953125C24.275118216796876,33.63287751953125,22.564091216796875,33.83241651953125,21.114067216796876,33.83241651953125C20.834877216796876,33.83241651953125,20.468250216796875,33.84175451953125,20.030788216796875,33.85289351953125C18.200767216796876,33.89950151953125,15.131123216796874,33.97767651953125,12.036922216796874,33.53596151953125C8.200161416796874,32.98580551953125,5.917825216796875,30.93340851953125,5.593019916796875,30.11815251953125Z" fill-rule="evenodd" fill="url(#master_svg0_0_86)" fill-opacity="1"/><path d="M6.831120016796875,0.010537799531250003Q6.055454716796875,-0.062363030468750025,5.410473316796875,0.36873945953125Q4.745389016796875,0.8072477595312499,4.636725916796875,1.59047241953125L4.635239616796875,1.60118431953125L4.587029916796875,2.0874895195312497Q4.380619016796874,4.5281129195312495,5.323403316796875,6.79388431953125Q6.728114616796875,10.18296531953125,9.539617516796875,12.15818451953125L10.165432916796876,12.59785251953125L10.390043216796874,11.86675551953125Q10.939598216796876,10.07797911953125,11.061168216796874,8.89627931953125Q11.270947216796875,6.87955851953125,10.392204316796875,3.89393141953125Q9.835438716796874,1.99020441953125,7.986563216796875,0.47348224353125Q7.478420216796875,0.06317868953125,6.831120016796875,0.010537799531250003ZM6.779135216796875,0.56365579413125C6.404354616796875,0.52843207153125,6.028848616796875,0.62322745453125,5.717718616796875,0.83160742953125C5.427404916796875,1.02256613953125,5.234210516796875,1.32660871953125,5.187010316796875,1.66681811953125L5.140609216796875,2.13430821953125C5.012438816796875,3.64980861953125,5.250940816796875,5.17361261953125,5.836620816796875,6.58116481953125C6.649160416796875,8.54154061953125,7.831276416796875,10.13393111953125,9.385151816796874,11.35189851953125C9.539430616796874,11.47282551953125,9.697374316796875,11.59006251953125,9.858984916796874,11.70360151953125C9.918444616796876,11.51006151953125,9.974055316796875,11.32215751953125,10.025802616796875,11.13984751953125C10.281966216796874,10.23736191953125,10.443452816796874,9.47198771953125,10.508594516796874,8.83879951953125C10.627496216796875,7.69572881953125,10.627496216796875,6.66098021953125,9.858984916796874,4.04987711953125C9.519680016796874,2.88970351953125,8.777267416796874,1.84070171953125,7.637548916796875,0.90572168953125C7.393425916796875,0.70860309953125,7.093989816796875,0.58928218453125,6.779135216796875,0.56365579413125ZM2.103012316796875,7.88783501953125L2.103012316796875,7.84996171953125L1.547456736796875,7.84996171953125Q0.309789476796875,7.84996171953125,0.061812936796874995,8.92405411953125Q-0.09030705320312504,9.58295061953125,0.24514972679687502,10.55382631953125Q0.628228179796875,11.66252951953125,1.536791686796875,13.02979351953125Q2.807298616796875,14.94173151953125,4.4003627167968755,16.078221519531247Q6.765519616796875,17.76259951953125,10.383652716796876,19.00207751953125L11.276378216796875,19.30790351953125L11.110617216796875,18.37891951953125Q10.291900616796875,13.79054851953125,7.572913216796875,11.14042751953125Q4.549727916796876,8.19213531953125,2.103012316796875,7.88783501953125ZM0.991901156796875,8.52088311953125C1.133407826796875,8.44711831953125,1.315971556796875,8.405517619531249,1.547456736796875,8.405517619531249L1.547456736796875,8.40836811953125C2.713275416796875,8.40836811953125,4.595405616796875,9.01268481953125,7.185146316796875,11.53827051953125C8.785292616796875,13.09788851953125,9.871692616796874,15.20170451953125,10.439724016796875,17.84517251953125C10.484232916796875,18.05230551953125,10.525558516796876,18.26275051953125,10.563700216796875,18.47650751953125C10.358873416796875,18.40633951953125,10.157118816796874,18.33509251953125,9.958439816796876,18.26276551953125C7.872955316796875,17.50357051953125,6.126339416796875,16.62535851953125,4.723007216796875,15.62595751953125C2.417470716796875,13.98119151953125,1.083449426796875,11.27887151953125,0.7702444167968749,10.37239641953125C0.519075195796875,9.64546491953125,0.418971536796875,8.81954191953125,0.991901156796875,8.52088311953125ZM1.125692006796875,19.77907151953125C0.795502986796875,19.14340351953125,0.626922972796875,18.60322751953125,0.570586790796875,18.25694651953125C0.570435892796875,18.25601951953125,0.570285799796875,18.25509251953125,0.570136511696875,18.25416751953125L0.570136511696875,18.25701751953125C0.569989640296875,18.25609051953125,0.569844435896875,18.25516351953125,0.569700895796875,18.25423851953125C0.515881195796875,17.90716351953125,0.696165666796875,17.67292751953125,1.015935126796875,17.52974151953125C1.570976416796875,17.28120051953125,2.546264016796875,17.30696651953125,3.446982416796875,17.49307051953125C4.859304916796875,17.78382651953125,6.535531516796875,18.03182451953125,9.711082416796875,20.12127651953125C12.892433216796874,22.21072951953125,15.090667216796875,25.18670051953125,15.743177216796875,26.38393451953125C16.304712216796876,27.42348451953125,14.898445216796874,27.11552651953125,13.158946216796876,26.73459251953125C12.895103216796874,26.67681351953125,12.623594216796874,26.61735351953125,12.350123216796876,26.56066551953125C9.554479616796876,25.99625551953125,6.927037716796875,24.94440251953125,4.624401116796875,23.47636951953125C2.782471416796875,22.30445051953125,1.705188916796875,20.89469751953125,1.125692006796875,19.77907151953125ZM1.125691946796875,20.86759751953125L1.125691766796875,25.31568351953125L0.02142083679687501,18.34392751953125Q-0.017673553203125025,18.09710651953125,0.014580966796875039,17.88903051953125L0.014580786796875023,11.32702151953125L0.9244461667968751,16.96302751953125Q1.101879356796875,16.90352451953125,1.3133639667968748,16.86251251953125Q2.256044716796875,16.67971251953125,3.559006016796875,16.94892451953125Q3.640954716796875,16.96579751953125,3.808794716796875,16.99967951953125Q5.290511116796875,17.29880351953125,6.292191516796875,17.67899551953125Q7.988560716796875,18.32286051953125,10.016064616796875,19.65691951953125Q12.190323216796875,21.08493251953125,14.090266216796875,23.21763951953125Q15.532614216796874,24.83669051953125,16.231979216796873,26.11989751953125Q16.599270216796874,26.79984851953125,16.272011216796876,27.25511751953125Q15.995172216796876,27.64024351953125,15.319897216796875,27.64747051953125Q14.758293216796876,27.65348051953125,13.042148216796875,27.27773851953125Q13.041136216796875,27.27751751953125,13.040121216796875,27.27729451953125L12.240182216796875,27.10523451953125Q7.912472716796875,26.23151951953125,4.326176116796875,23.94509651953125Q2.330858016796875,22.67558251953125,1.125691946796875,20.86759751953125ZM5.758008916796875,28.38941951953125Q4.659832016796875,29.27323751953125,5.076670616796875,30.32315451953125L5.076917216796875,30.32377451953125Q5.470250616796875,31.31103151953125,7.202911416796875,32.39718251953125Q9.285451916796875,33.70266351953125,11.958409216796875,34.08594151953125Q15.098734216796876,34.53424051953125,20.044929216796874,34.40826751953125L20.045610216796874,34.40825251953125Q20.842075216796875,34.38797351953125,21.114071216796876,34.38797351953125Q22.533376216796874,34.38797351953125,23.280878216796875,34.17369451953125Q23.922941216796875,33.98963951953125,24.113622216796873,33.58887451953125Q24.391512216796876,33.00482951953125,23.748215216796876,32.46372751953125L23.743068216796875,32.45940251953125L23.737819216796876,32.45519851953125Q20.557897216796874,29.90929251953125,16.672800216796876,28.60668551953125Q12.484759216796874,27.23686451953125,8.508476716796874,27.47987951953125L7.986811116796875,27.51176251953125L7.986811116796875,27.53202651953125Q6.598657616796875,27.71286151953125,5.758008916796875,28.38941951953125ZM8.542367016796874,28.03725051953125C6.303531216796875,28.17407751953125,5.268214716796875,29.30004451953125,5.593019916796875,30.11815251953125C5.917825216796875,30.93340651953125,8.200161016796875,32.98580551953125,12.036922216796874,33.53596151953125C15.131123216796874,33.97767651953125,18.200767216796876,33.89950151953125,20.030788216796875,33.85289351953125C20.468250216796875,33.84175451953125,20.834877216796876,33.83241651953125,21.114067216796876,33.83241651953125C22.564091216796875,33.83241651953125,24.275116216796874,33.63287751953125,23.390604216796874,32.88888551953125C21.338379216796874,31.24583451953125,19.005211216796877,29.97464751953125,16.500092216796872,29.13471251953125C13.136040216796875,28.03440051953125,10.781202216796874,27.89757151953125,8.542367016796874,28.03440051953125L8.542367016796874,28.03725051953125Z" fill-rule="evenodd" fill="url(#master_svg1_0_88)" fill-opacity="1"/></g><g transform="matrix(-1,0,0,1,383.12054443359375,0)"><g style="opacity:0.699999988079071;"><path d="M196.71771861679687,0.83160742953125C197.02884861679686,0.62322745453125,197.40435461679687,0.52843206953125,197.77913571679687,0.56365579463125C198.09399031679686,0.58928218453125,198.39342591679687,0.70860309953125,198.63754941679687,0.90572168953125C199.77726741679686,1.84070171953125,200.51968001679688,2.88970371953125,200.85898491679689,4.04987711953125C201.62749721679688,6.66098021953125,201.62749721679688,7.69572921953125,201.50859451679688,8.83879951953125C201.43029401679686,9.59989641953125,201.21279051679687,10.55198001953125,200.85898491679689,11.70360151953125C199.06965641679687,10.44650931953125,197.72983501679687,8.73617931953125,196.83662081679688,6.58116481953125C196.25094081679688,5.17361261953125,196.01243881679687,3.64980891953125,196.1406097167969,2.13430831953125L196.1870103167969,1.66681821953125C196.23421051679688,1.32660877953125,196.4274049167969,1.02256613953125,196.71771861679687,0.83160742953125ZM192.54745679679687,8.405517619531249C191.37873820679687,8.405517619531249,191.45703945679688,9.46592141953125,191.77024441679688,10.37239641953125C192.08344942679688,11.27887151953125,193.41747071679688,13.98119151953125,195.72300721679687,15.62595851953125C197.26003171679687,16.72056951953125,199.20886281679688,17.66980151953125,201.56370021679686,18.47650751953125C201.03879161679689,15.53474051953125,199.91067411679688,13.22009451953125,198.18514681679687,11.53827051953125C195.59540561679688,9.01268481953125,193.71327541679688,8.40836811953125,192.54745679679687,8.40836811953125L192.54745679679687,8.405517619531249ZM191.5701365125969,18.25416751953125C191.72383893679688,19.20625151953125,192.73015501679689,21.63491851953125,195.6244011167969,23.47637151953125C197.92703771679686,24.94440451953125,200.55447961679687,25.99625751953125,203.35012421679687,26.56066751953125C203.62359421679687,26.61735551953125,203.89510321679688,26.67681351953125,204.15894621679686,26.73459251953125C205.8984342167969,27.11552451953125,207.30471621679686,27.42348651953125,206.74317821679688,26.38393451953125C206.09066821679687,25.18670251953125,203.89243321679686,22.21072951953125,200.71108241679687,20.12127651953125C197.53553151679688,18.03182451953125,195.85930491679687,17.78382651953125,194.44698241679689,17.49307051953125C193.02595971679688,17.19946251953125,191.4193340967969,17.30493351953125,191.5701365125969,18.25701751953125L191.5701365125969,18.25416751953125ZM196.59301991679686,30.11815251953125C196.26821471679688,29.30004451953125,197.30353121679687,28.17407751953125,199.54236701679687,28.03725051953125L199.54236701679687,28.03440051953125C201.78120221679688,27.89757351953125,204.13604021679689,28.03440051953125,207.50009321679687,29.13471251953125C210.00521121679688,29.97464751953125,212.33837921679688,31.24583451953125,214.39060421679687,32.88888551953125C215.27511821679687,33.63287751953125,213.56409121679687,33.83241651953125,212.11406721679688,33.83241651953125C211.83487721679688,33.83241651953125,211.4682502167969,33.84175451953125,211.03078821679688,33.85289351953125C209.20076721679686,33.89950151953125,206.13112321679688,33.97767651953125,203.03692221679688,33.53596151953125C199.20016141679687,32.98580551953125,196.91782521679687,30.93340851953125,196.59301991679686,30.11815251953125Z" fill-rule="evenodd" fill="url(#master_svg2_0_86)" fill-opacity="1"/><path d="M197.8311200167969,0.010537799531250003Q197.05545471679687,-0.062363030468750025,196.41047331679687,0.36873945953125Q195.74538901679688,0.8072477595312499,195.63672591679688,1.59047241953125L195.63523961679687,1.60118431953125L195.58702991679687,2.0874895195312497Q195.38061901679689,4.5281129195312495,196.32340331679688,6.79388431953125Q197.7281146167969,10.18296531953125,200.53961751679688,12.15818451953125L201.16543291679687,12.59785251953125L201.39004321679687,11.86675551953125Q201.93959821679687,10.07797911953125,202.0611682167969,8.89627931953125Q202.27094721679688,6.87955851953125,201.39220431679686,3.89393141953125Q200.8354387167969,1.99020441953125,198.98656321679687,0.47348224353125Q198.47842021679688,0.06317868953125,197.8311200167969,0.010537799531250003ZM197.77913521679687,0.56365579413125C197.40435461679687,0.52843207153125,197.02884861679686,0.62322745453125,196.71771861679687,0.83160742953125C196.4274049167969,1.02256613953125,196.23421051679688,1.32660871953125,196.1870103167969,1.66681811953125L196.14060921679686,2.13430821953125C196.01243881679687,3.64980861953125,196.25094081679688,5.17361261953125,196.83662081679688,6.58116481953125C197.6491604167969,8.54154061953125,198.83127641679687,10.13393111953125,200.38515181679688,11.35189851953125C200.53943061679686,11.47282551953125,200.69737431679687,11.59006251953125,200.85898491679689,11.70360151953125C200.91844461679688,11.51006151953125,200.97405531679686,11.32215751953125,201.02580261679688,11.13984751953125C201.2819662167969,10.23736191953125,201.44345281679688,9.47198771953125,201.50859451679688,8.83879951953125C201.62749621679689,7.69572881953125,201.62749621679689,6.66098021953125,200.85898491679689,4.04987711953125C200.51968001679688,2.88970351953125,199.77726741679686,1.84070171953125,198.63754891679687,0.90572168953125C198.39342591679687,0.70860309953125,198.09398981679686,0.58928218453125,197.77913521679687,0.56365579413125ZM193.10301231679688,7.88783501953125L193.10301231679688,7.84996171953125L192.54745673679687,7.84996171953125Q191.30978947679688,7.84996171953125,191.06181293679688,8.92405411953125Q190.90969294679687,9.58295061953125,191.24514972679688,10.55382631953125Q191.62822817979688,11.66252951953125,192.53679168679687,13.02979351953125Q193.80729861679688,14.94173151953125,195.40036271679688,16.078221519531247Q197.76551961679687,17.76259951953125,201.3836527167969,19.00207751953125L202.27637821679687,19.30790351953125L202.11061721679687,18.37891951953125Q201.29190061679688,13.79054851953125,198.57291321679688,11.14042751953125Q195.54972791679688,8.19213531953125,193.10301231679688,7.88783501953125ZM191.99190115679687,8.52088311953125C192.13340782679688,8.44711831953125,192.31597155679688,8.405517619531249,192.54745673679687,8.405517619531249L192.54745673679687,8.40836811953125C193.71327541679688,8.40836811953125,195.59540561679688,9.01268481953125,198.18514631679687,11.53827051953125C199.78529261679688,13.09788851953125,200.87169261679688,15.20170451953125,201.43972401679687,17.84517251953125C201.48423291679688,18.05230551953125,201.52555851679688,18.26275051953125,201.56370021679686,18.47650751953125C201.35887341679688,18.40633951953125,201.15711881679687,18.33509251953125,200.95843981679687,18.26276551953125C198.87295531679686,17.50357051953125,197.12633941679687,16.62535851953125,195.72300721679687,15.62595751953125C193.41747071679688,13.98119151953125,192.08344942679688,11.27887151953125,191.77024441679688,10.37239641953125C191.5190751957969,9.64546491953125,191.41897153679687,8.81954191953125,191.99190115679687,8.52088311953125ZM192.12569200679687,19.77907151953125C191.79550298679686,19.14340351953125,191.62692297279688,18.60322751953125,191.57058679079688,18.25694651953125C191.57043589279687,18.25601951953125,191.57028579979686,18.25509251953125,191.5701365116969,18.25416751953125L191.5701365116969,18.25701751953125C191.56998964029688,18.25609051953125,191.56984443589687,18.25516351953125,191.56970089579687,18.25423851953125C191.51588119579688,17.90716351953125,191.69616566679687,17.67292751953125,192.01593512679688,17.52974151953125C192.57097641679687,17.28120051953125,193.54626401679687,17.30696651953125,194.44698241679689,17.49307051953125C195.85930491679687,17.78382651953125,197.53553151679688,18.03182451953125,200.71108241679687,20.12127651953125C203.89243321679686,22.21072951953125,206.09066721679687,25.18670051953125,206.74317721679688,26.38393451953125C207.30471221679687,27.42348451953125,205.8984452167969,27.11552651953125,204.15894621679686,26.73459251953125C203.89510321679688,26.67681351953125,203.62359421679687,26.61735351953125,203.35012321679687,26.56066551953125C200.55447961679687,25.99625551953125,197.92703771679686,24.94440251953125,195.6244011167969,23.47636951953125C193.78247141679688,22.30445051953125,192.70518891679689,20.89469751953125,192.12569200679687,19.77907151953125ZM192.12569194679688,20.86759751953125L192.12569176679688,25.31568351953125L191.02142083679686,18.34392751953125Q190.98232644679686,18.09710651953125,191.01458096679687,17.88903051953125L191.01458078679687,11.32702151953125L191.92444616679688,16.96302751953125Q192.10187935679687,16.90352451953125,192.31336396679689,16.86251251953125Q193.25604471679688,16.67971251953125,194.55900601679687,16.94892451953125Q194.64095471679687,16.96579751953125,194.80879471679688,16.99967951953125Q196.29051111679686,17.29880351953125,197.29219151679686,17.67899551953125Q198.98856071679688,18.32286051953125,201.01606461679688,19.65691951953125Q203.19032321679688,21.08493251953125,205.09026621679686,23.21763951953125Q206.53261421679687,24.83669051953125,207.23197921679687,26.11989751953125Q207.59927021679687,26.79984851953125,207.27201121679687,27.25511751953125Q206.99517221679687,27.64024351953125,206.31989721679687,27.64747051953125Q205.7582932167969,27.65348051953125,204.04214821679687,27.27773851953125Q204.04113621679687,27.27751751953125,204.04012121679688,27.27729451953125L203.24018221679688,27.10523451953125Q198.91247271679688,26.23151951953125,195.3261761167969,23.94509651953125Q193.33085801679687,22.67558251953125,192.12569194679688,20.86759751953125ZM196.75800891679688,28.38941951953125Q195.65983201679688,29.27323751953125,196.0766706167969,30.32315451953125L196.0769172167969,30.32377451953125Q196.47025061679687,31.31103151953125,198.20291141679687,32.39718251953125Q200.2854519167969,33.70266351953125,202.95840921679687,34.08594151953125Q206.09873421679688,34.53424051953125,211.04492921679687,34.40826751953125L211.0456102167969,34.40825251953125Q211.84207521679687,34.38797351953125,212.11407121679687,34.38797351953125Q213.53337621679688,34.38797351953125,214.28087821679688,34.17369451953125Q214.9229412167969,33.98963951953125,215.11362221679687,33.58887451953125Q215.39151221679688,33.00482951953125,214.74821521679686,32.46372751953125L214.74306821679687,32.45940251953125L214.73781921679688,32.45519851953125Q211.55789721679687,29.90929251953125,207.67280021679687,28.60668551953125Q203.48475921679687,27.23686451953125,199.50847671679688,27.47987951953125L198.98681111679687,27.51176251953125L198.98681111679687,27.53202651953125Q197.59865761679688,27.71286151953125,196.75800891679688,28.38941951953125ZM199.54236701679687,28.03725051953125C197.30353121679687,28.17407751953125,196.26821471679688,29.30004451953125,196.59301991679686,30.11815251953125C196.91782521679687,30.93340651953125,199.20016101679687,32.98580551953125,203.03692221679688,33.53596151953125C206.13112321679688,33.97767651953125,209.20076721679686,33.89950151953125,211.03078821679688,33.85289351953125C211.4682502167969,33.84175451953125,211.83487721679688,33.83241651953125,212.11406721679688,33.83241651953125C213.56409121679687,33.83241651953125,215.27511621679687,33.63287751953125,214.39060421679687,32.88888551953125C212.33837921679688,31.24583451953125,210.00521121679688,29.97464751953125,207.50009221679687,29.13471251953125C204.13604021679689,28.03440051953125,201.78120221679688,27.89757151953125,199.54236701679687,28.03440051953125L199.54236701679687,28.03725051953125Z" fill-rule="evenodd" fill="url(#master_svg3_0_88)" fill-opacity="1"/></g></g></svg>