<svg xmlns="http://www.w3.org/2000/svg" xmlns:xlink="http://www.w3.org/1999/xlink" fill="none" version="1.1" width="87" height="23" viewBox="0 0 87 23"><defs><filter id="master_svg0_0_2276" filterUnits="objectBoundingBox" color-interpolation-filters="sRGB" x="0" y="0" width="1" height="1"><feFlood flood-opacity="0" result="BackgroundImageFix"/><feBlend mode="normal" in="SourceGraphic" in2="BackgroundImageFix" result="shape"/><feColorMatrix in="SourceAlpha" type="matrix" result="hardAlpha" values="0 0 0 0 0 0 0 0 0 0 0 0 0 0 0 0 0 0 127 0"/><feOffset dy="1" dx="0"/><feGaussianBlur stdDeviation="1.5"/><feComposite in2="hardAlpha" operator="arithmetic" k2="-1" k3="1"/><feColorMatrix type="matrix" values="0 0 0 0 1 0 0 0 0 0.9675249457359314 0 0 0 0 0.9287347793579102 0 0 0 0.8492133021354675 0"/><feBlend mode="normal" in2="shape" result="effect1_innerShadow"/></filter><linearGradient x1="1.0495431423187256" y1="0.4915525019168854" x2="-0.005605446174740791" y2="0.4915525019168854" id="master_svg1_0_1687"><stop offset="0%" stop-color="#FFE5D8" stop-opacity="1"/><stop offset="21.01803869009018%" stop-color="#F74545" stop-opacity="1"/><stop offset="77.45654582977295%" stop-color="#F85845" stop-opacity="1"/><stop offset="94.37187910079956%" stop-color="#FE9271" stop-opacity="1"/><stop offset="97.91861176490784%" stop-color="#FFEBE3" stop-opacity="1"/><stop offset="100%" stop-color="#FFFFFF" stop-opacity="1"/></linearGradient></defs><path d="M4.8000007,-1.4571062e-14L77.044586,-2.3387943e-13C78.480415,-2.3823809e-13,79.207451,0.0013408661,79.840744,0.22148675C80.394783,0.41408125,80.900299,0.72650683,81.320335,1.1359231C81.800461,1.6039078,82.126793,2.2535861,82.768913,3.5378332L86.252235,10.504475C86.525917,11.051831,86.663742,11.328393,86.713875,11.614967C86.757904,11.866654,86.753296,12.124619,86.700317,12.374575C86.639992,12.659179,86.492371,12.930642,86.199333,13.467884L82.819283,19.664654C82.157448,20.878017,81.821518,21.491392,81.346085,21.932384C80.929733,22.318577,80.435425,22.612017,79.897018,22.792603C79.282211,22.998814,78.58287,23,77.200745,23L4.8000031,23C3.1198406,23,2.2607679,22.996599,1.6213276,22.665146C1.0709356,22.37985,0.62014997,21.929066,0.33485466,21.378674C0.0034012794,20.739233,0,19.880159,0,18.199999L0,4.8000002C0,3.1198406,0.00340119,2.2607675,0.33485466,1.6213273C0.62014997,1.0709354,1.0709356,0.62014979,1.6213276,0.33485454C2.2607679,0.0034011602,3.1198406,-9.4707059e-15,4.8000007,-1.4571062e-14" fill-rule="evenodd" fill="url(#master_svg1_0_1687)" fill-opacity="1" filter="url(#master_svg0_0_2276)"/></svg>