<svg xmlns="http://www.w3.org/2000/svg" xmlns:xlink="http://www.w3.org/1999/xlink" fill="none" version="1.1" width="254" height="30" viewBox="0 0 254 30"><defs><linearGradient x1="1.1122194528579712" y1="-2.3021817207336426" x2="-0.21949394520939616" y2="-2.2634169457605493" id="master_svg0_0_1448"><stop offset="0%" stop-color="#BAD7FF" stop-opacity="1"/><stop offset="69.82560753822327%" stop-color="#B5E0FF" stop-opacity="0.39939871430397034"/><stop offset="100%" stop-color="#FFFFFF" stop-opacity="0"/></linearGradient><linearGradient x1="1" y1="0.5" x2="0.07296527177095413" y2="0.5" id="master_svg1_0_1219"><stop offset="0%" stop-color="#FFFFFF" stop-opacity="1"/><stop offset="100%" stop-color="#FFFFFF" stop-opacity="0"/></linearGradient></defs><g transform="matrix(-1,0,0,1,508,0)"><path d="M261.7239327,3.7166408e-15L495.41777,1.1616662e-13C497.02031,1.1693775e-13,497.86319000000003,0.004082635,498.5249,0.16021843C500.72775,0.68000197,502.4617,2.4139504,502.98149,4.6168003C503.13763,5.2785058,503.14171,6.1213932,503.14171,7.7239327L508,7.7239327Q503.14171,12.423405,503.14171,13.414865Q503.14171,14.123758,503.14171,22.29767C503.14171999999996,23.886385,503.13763,24.722313,502.98149,25.384016C502.4617,27.586714,500.72775,29.320198,498.5249,29.83983C497.86319000000003,29.995924,497.02031,30,495.41777,30L261.7239323,30C260.1213932,30,259.2785063,29.995916,258.6168003,29.839781C256.4139504,29.319998,254.68000197,27.58605,254.16021843,25.383202C254.0040825158,24.721497,254,23.878607,254,22.276066L254,7.7239323C254,6.1213937,254.0040826052,5.2785063,254.16021843,4.6168003C254.68000197,2.4139504,256.4139504,0.68000197,258.6168003,0.16021843C259.2785063,0.0040826052,260.1213932,2.9455228e-15,261.7239327,3.7166408e-15" fill-rule="evenodd" fill="url(#master_svg0_0_1448)" fill-opacity="1"/><path d="M502.98149,4.6168003C503.13763,5.2785058,503.14171,6.1213932,503.14171,7.7239327L508,7.7239327Q507.45938,8.2468796,506.9789,8.7239332Q503.14171,12.533735,503.14171,13.414865L503.14171,22.29767C503.14171999999996,23.886385,503.13763,24.722313,502.98149,25.384016C502.4617,27.586714,500.72775,29.320198,498.5249,29.83983C497.86319000000003,29.995924,497.02031,30,495.41777,30L261.7239323,30C260.1213932,30,259.2785063,29.995916,258.6168003,29.839781C256.4139504,29.319998,254.68000197,27.58605,254.16021843,25.383202C254.0040825158,24.721497,254,23.878607,254,22.276066L254,7.7239323C254,6.1213937,254.0040826052,5.2785063,254.16021843,4.6168003C254.68000197,2.4139504,256.4139504,0.68000197,258.6168003,0.16021843C259.2785063,0.0040826052,260.1213932,0,261.7239327,0L495.41777,0C497.02031,0,497.86319000000003,0.004082635,498.5249,0.16021843C500.72775,0.68000197,502.4617,2.4139504,502.98149,4.6168003ZM502.14171,8.7239332L505.57758,8.7239332Q502.14171,12.260209,502.14171,13.414865L502.14171,22.297672Q502.14171999999996,24.588562,502.00822,25.154346Q501.29947000000004,28.157887,498.29532,28.866545Q497.72958,29,495.41777,29L261.7239323,29Q259.4121923,29,258.8464518,28.866508Q255.8423405,28.15766,255.1334904,25.153549Q255,24.587814,255,22.276068L255,7.7239323Q255,5.4121895,255.133491,4.8464527Q255.8423404,1.8423405,258.8464537,1.1334906Q259.4121904,1,261.7239332,1L495.41777,1Q497.72952,1,498.29526,1.1334908Q501.29938000000004,1.8423488,502.00822,4.8464503Q502.14171,5.4121323,502.14171,7.7239332L502.14171,8.7239332Z" fill-rule="evenodd" fill="url(#master_svg1_0_1219)" fill-opacity="1"/></g></svg>