<svg xmlns="http://www.w3.org/2000/svg" xmlns:xlink="http://www.w3.org/1999/xlink" fill="none" version="1.1" width="269" height="27" viewBox="0 0 269 27"><defs><linearGradient x1="1.1122194528579712" y1="-2.3021817207336426" x2="-0.028958424058535565" y2="-2.2751816418638544" id="master_svg0_0_1217"><stop offset="0%" stop-color="#BAD7FF" stop-opacity="1"/><stop offset="69.82560753822327%" stop-color="#B5E0FF" stop-opacity="0.39939871430397034"/><stop offset="100%" stop-color="#FFFFFF" stop-opacity="0"/></linearGradient><linearGradient x1="1" y1="0.5" x2="0.07296527177095413" y2="0.5" id="master_svg1_0_1219"><stop offset="0%" stop-color="#FFFFFF" stop-opacity="1"/><stop offset="100%" stop-color="#FFFFFF" stop-opacity="0"/></linearGradient></defs><g transform="matrix(-1,0,0,1,538,0)"><path d="M276.7239327,2.3666787e-15L525.41776,7.8568581e-14C527.0202899999999,7.9059616e-14,527.86319,0.004082635,528.5249,0.16021843C530.72775,0.68000197,532.4617000000001,2.4139504,532.9814799999999,4.6168003C533.1376,5.2785068,533.1416899999999,6.1213932,533.1416899999999,7.7239327L538,7.7239327Q533.1416899999999,12.423405,533.1416899999999,13.414865Q533.1416899999999,14.041963,533.1416899999999,19.3106C533.1416899999999,20.920263,533.13815,21.764305,532.9814799999999,22.425886C532.4617000000001,24.620808,530.72775,26.33046,528.5249,26.842314C527.86267,26.996191,527.0202899999999,27,525.41776,27L276.7239313,27C275.1213932,27,274.2785063,26.995916,273.6168003,26.839781C271.4139504,26.319998,269.68000197,24.58605,269.16021843,22.383202C269.0040825158,21.721497,269,20.878607,269,19.276068L269,7.7239313C269,6.1213932,269.0040826052,5.2785063,269.16021843,4.6168003C269.68000197,2.4139504,271.4139504,0.68000197,273.6168003,0.16021843C274.2785063,0.0040826052,275.1213932,1.8756469e-15,276.7239327,2.3666787e-15" fill-rule="evenodd" fill="url(#master_svg0_0_1217)" fill-opacity="1"/><path d="M532.9814799999999,4.6168003C533.1376,5.2785068,533.1416899999999,6.1213932,533.1416899999999,7.7239327L538,7.7239327Q537.45892,8.2473326,536.97888,8.7239332Q533.1416899999999,12.533723,533.1416899999999,13.414865L533.1416899999999,19.3106C533.1416899999999,20.920263,533.13815,21.764305,532.9814799999999,22.425886C532.4617000000001,24.620808,530.72775,26.33046,528.5249,26.842314C527.86267,26.996191,527.0202899999999,27,525.41776,27L276.7239313,27C275.1213932,27,274.2785063,26.995916,273.6168003,26.839781C271.4139504,26.319998,269.68000197,24.58605,269.16021843,22.383202C269.0040825158,21.721497,269,20.878607,269,19.276068L269,7.7239313C269,6.1213932,269.0040826052,5.2785063,269.16021843,4.6168003C269.68000197,2.4139504,271.4139504,0.68000197,273.6168003,0.16021843C274.2785063,0.0040826052,275.1213932,0,276.7239327,0L525.41776,0C527.0202899999999,0,527.86319,0.004082635,528.5249,0.16021843C530.72775,0.68000197,532.4617000000001,2.4139504,532.9814799999999,4.6168003ZM532.1416899999999,8.7239332L535.57758,8.7239332Q532.1416899999999,12.260214,532.1416899999999,13.414865L532.1416899999999,19.3106Q532.1416899999999,21.632607,532.00842,22.195465Q531.30402,25.169912,528.29858,25.868263Q527.73163,26,525.41779,26L276.7239318,26Q274.4121923,26,273.8464518,25.866508Q270.8423405,25.15766,270.1334904,22.153549Q270,21.587814,270,19.276068L270,7.7239318Q270,5.4121895,270.133491,4.8464518Q270.8423404,1.8423405,273.8464537,1.1334906Q274.4121904,1,276.7239332,1L525.41779,1Q527.72952,1,528.29526,1.1334908Q531.2993799999999,1.8423488,532.00824,4.8464503Q532.1416899999999,5.4120917,532.1416899999999,7.7239332L532.1416899999999,8.7239332Z" fill-rule="evenodd" fill="url(#master_svg1_0_1219)" fill-opacity="1"/></g></svg>