<svg xmlns="http://www.w3.org/2000/svg" xmlns:xlink="http://www.w3.org/1999/xlink" fill="none" version="1.1" width="266" height="39" viewBox="0 0 266 39"><defs><linearGradient x1="1.1122194528579712" y1="-2.3021817207336426" x2="-0.20183263355363035" y2="-2.2310646165965444" id="master_svg0_0_1271"><stop offset="0%" stop-color="#BAD7FF" stop-opacity="1"/><stop offset="69.82560753822327%" stop-color="#B5E0FF" stop-opacity="0.39939871430397034"/><stop offset="100%" stop-color="#FFFFFF" stop-opacity="0"/></linearGradient><linearGradient x1="1" y1="0.5" x2="0.07296527177095413" y2="0.5" id="master_svg1_0_1219"><stop offset="0%" stop-color="#FFFFFF" stop-opacity="1"/><stop offset="100%" stop-color="#FFFFFF" stop-opacity="0"/></linearGradient></defs><g transform="matrix(-1,0,0,1,532,0)"><path d="M273.7239327,1.2326445e-15L519.41776,4.0442354e-14C521.0202899999999,4.06981e-14,521.86319,0.004082635,522.5249,0.16021843C524.72775,0.68000197,526.4617000000001,2.4139504,526.9814799999999,4.6168003C527.1376,5.2785068,527.1416899999999,6.1213932,527.1416899999999,7.7239327L532,7.7239327Q527.1416899999999,12.423405,527.1416899999999,13.414865Q527.1416899999999,14.237529,527.1416899999999,31.309965C527.1416899999999,32.857067,527.13699,33.674858,526.98145,34.3367C526.46167,36.548187,524.72775,38.308601,522.5249,38.837025C521.86378,38.995617,521.0202899999999,39,519.41776,39L273.7239323,39C272.1213932,39,271.2785063,38.995918,270.6168003,38.839783C268.4139504,38.32,266.68000197,36.586052,266.16021843,34.383202C266.004082635,33.721497,266,32.878609,266,31.276068L266,7.7239323C266,6.1213932,266.0040826052,5.2785063,266.16021843,4.6168003C266.68000197,2.4139504,268.4139504,0.68000197,270.6168003,0.16021843C271.2785063,0.0040826052,272.1213932,9.7689898e-16,273.7239327,1.2326445e-15" fill-rule="evenodd" fill="url(#master_svg0_0_1271)" fill-opacity="1"/><path d="M526.9814799999999,4.6168003C527.1376,5.2785068,527.1416899999999,6.1213932,527.1416899999999,7.7239327L532,7.7239327Q531.45892,8.2473326,530.97888,8.7239332Q527.1416899999999,12.533723,527.1416899999999,13.414865L527.1416899999999,31.309965C527.1416899999999,32.857067,527.13699,33.674858,526.98145,34.3367C526.46167,36.548187,524.72775,38.308601,522.5249,38.837025C521.86378,38.995617,521.0202899999999,39,519.41776,39L273.7239323,39C272.1213932,39,271.2785063,38.995918,270.6168003,38.839783C268.4139504,38.32,266.68000197,36.586052,266.16021843,34.383202C266.004082635,33.721497,266,32.878609,266,31.276068L266,7.7239323C266,6.1213932,266.0040826052,5.2785063,266.16021843,4.6168003C266.68000197,2.4139504,268.4139504,0.68000197,270.6168003,0.16021843C271.2785063,0.0040826052,272.1213932,0,273.7239327,0L519.41776,0C521.0202899999999,0,521.86319,0.004082635,522.5249,0.16021843C524.72775,0.68000197,526.4617000000001,2.4139504,526.9814799999999,4.6168003ZM526.1416899999999,8.7239332L529.57758,8.7239332Q526.1416899999999,12.260214,526.1416899999999,13.414865L526.1416899999999,31.309965Q526.1416899999999,33.539024,526.008,34.107899Q525.29431,37.144325,522.29166,37.864616Q521.72726,38,519.41777,38L273.7239323,38Q271.4121814,38,270.8464518,37.866512Q267.8423402,37.157661,267.1334906,34.153549Q267,33.587814,267,31.276068L267,7.7239323Q267,5.4121895,267.133491,4.8464518Q267.8423404,1.8423405,270.8464537,1.1334906Q271.4121904,1,273.7239332,1L519.41777,1Q521.72952,1,522.29526,1.1334908Q525.2993799999999,1.8423488,526.00824,4.8464503Q526.1416899999999,5.4120917,526.1416899999999,7.7239332L526.1416899999999,8.7239332Z" fill-rule="evenodd" fill="url(#master_svg1_0_1219)" fill-opacity="1"/></g></svg>