<svg xmlns="http://www.w3.org/2000/svg" xmlns:xlink="http://www.w3.org/1999/xlink" fill="none" version="1.1" width="319" height="1" viewBox="0 0 319.5 1.5"><path d="M0.25,1L1.2468872100000001,1L1.2468872100000001,0.5L0.25,0.5L0.25,1ZM4.2375183,1L6.2312622,1L6.2312622,0.5L4.2375183,0.5L4.2375183,1ZM9.2218933,1L11.215637,1L11.215637,0.5L9.2218933,0.5L9.2218933,1ZM14.206268,1L16.200012,1L16.200012,0.5L14.206268,0.5L14.206268,1ZM19.190643,1L21.184387,1L21.184387,0.5L19.190643,0.5L19.190643,1ZM24.175018,1L26.168762,1L26.168762,0.5L24.175018,0.5L24.175018,1ZM29.159393,1L31.153137,1L31.153137,0.5L29.159393,0.5L29.159393,1ZM34.143768,1L36.137512,1L36.137512,0.5L34.143768,0.5L34.143768,1ZM39.128143,1L41.121887,1L41.121887,0.5L39.128143,0.5L39.128143,1ZM44.112518,1L46.106262,1L46.106262,0.5L44.112518,0.5L44.112518,1ZM49.096893,1L51.090637,1L51.090637,0.5L49.096893,0.5L49.096893,1ZM54.081268,1L56.075012,1L56.075012,0.5L54.081268,0.5L54.081268,1ZM59.065643,1L61.059387,1L61.059387,0.5L59.065643,0.5L59.065643,1ZM64.050003,1L66.043762,1L66.043762,0.5L64.050003,0.5L64.050003,1ZM69.034378,1L71.028137,1L71.028137,0.5L69.034378,0.5L69.034378,1ZM74.018753,1L76.012512,1L76.012512,0.5L74.018753,0.5L74.018753,1ZM79.003128,1L80.996887,1L80.996887,0.5L79.003128,0.5L79.003128,1ZM83.987503,1L85.981262,1L85.981262,0.5L83.987503,0.5L83.987503,1ZM88.971878,1L90.965637,1L90.965637,0.5L88.971878,0.5L88.971878,1ZM93.956253,1L95.950012,1L95.950012,0.5L93.956253,0.5L93.956253,1ZM98.940628,1L100.93439,1L100.93439,0.5L98.940628,0.5L98.940628,1ZM103.925,1L105.91876,1L105.91876,0.5L103.925,0.5L103.925,1ZM108.90938,1L110.90314,1L110.90314,0.5L108.90938,0.5L108.90938,1ZM113.89375,1L115.88751,1L115.88751,0.5L113.89375,0.5L113.89375,1ZM118.87813,1L120.87189,1L120.87189,0.5L118.87813,0.5L118.87813,1ZM123.8625,1L125.85626,1L125.85626,0.5L123.8625,0.5L123.8625,1ZM128.84688,1L130.84062,1L130.84062,0.5L128.84688,0.5L128.84688,1ZM133.83125,1L135.825,1L135.825,0.5L133.83125,0.5L133.83125,1ZM138.81563,1L140.80937,1L140.80937,0.5L138.81563,0.5L138.81563,1ZM143.8,1L145.79375,1L145.79375,0.5L143.8,0.5L143.8,1ZM148.78438,1L150.77812,1L150.77812,0.5L148.78438,0.5L148.78438,1ZM153.76875,1L155.7625,1L155.7625,0.5L153.76875,0.5L153.76875,1ZM158.75313,1L160.74687,1L160.74687,0.5L158.75313,0.5L158.75313,1ZM163.7375,1L165.73125,1L165.73125,0.5L163.7375,0.5L163.7375,1ZM168.72188,1L170.71562,1L170.71562,0.5L168.72188,0.5L168.72188,1ZM173.70625,1L175.7,1L175.7,0.5L173.70625,0.5L173.70625,1ZM178.69063,1L180.68437,1L180.68437,0.5L178.69063,0.5L178.69063,1ZM183.675,1L185.66875,1L185.66875,0.5L183.675,0.5L183.675,1ZM188.65938,1L190.65312,1L190.65312,0.5L188.65938,0.5L188.65938,1ZM193.64375,1L195.63751,1L195.63751,0.5L193.64375,0.5L193.64375,1ZM198.62813,1L200.62189,1L200.62189,0.5L198.62813,0.5L198.62813,1ZM203.6125,1L205.60626,1L205.60626,0.5L203.6125,0.5L203.6125,1ZM208.59688,1L210.59064,1L210.59064,0.5L208.59688,0.5L208.59688,1ZM213.58125,1L215.57501,1L215.57501,0.5L213.58125,0.5L213.58125,1ZM218.56563,1L220.55939,1L220.55939,0.5L218.56563,0.5L218.56563,1ZM223.55,1L225.54376,1L225.54376,0.5L223.55,0.5L223.55,1ZM228.53438,1L230.52814,1L230.52814,0.5L228.53438,0.5L228.53438,1ZM233.51875,1L235.51251,1L235.51251,0.5L233.51875,0.5L233.51875,1ZM238.50313,1L240.49689,1L240.49689,0.5L238.50313,0.5L238.50313,1ZM243.4875,1L245.48126,1L245.48126,0.5L243.4875,0.5L243.4875,1ZM248.47188,1L250.46564,1L250.46564,0.5L248.47188,0.5L248.47188,1ZM253.45625,1L255.45,1L255.45,0.5L253.45625,0.5L253.45625,1ZM258.44061,1L260.43439,1L260.43439,0.5L258.44061,0.5L258.44061,1ZM263.42499,1L265.41876,1L265.41876,0.5L263.42499,0.5L263.42499,1ZM268.40936,1L270.40314,1L270.40314,0.5L268.40936,0.5L268.40936,1ZM273.39374,1L275.38751,1L275.38751,0.5L273.39374,0.5L273.39374,1ZM278.37811,1L280.37189,1L280.37189,0.5L278.37811,0.5L278.37811,1ZM283.36249,1L285.35626,1L285.35626,0.5L283.36249,0.5L283.36249,1ZM288.34686,1L290.34064,1L290.34064,0.5L288.34686,0.5L288.34686,1ZM293.33124,1L295.32501,1L295.32501,0.5L293.33124,0.5L293.33124,1ZM298.31561,1L300.30939,1L300.30939,0.5L298.31561,0.5L298.31561,1ZM303.29999,1L305.29376,1L305.29376,0.5L303.29999,0.5L303.29999,1ZM308.28436,1L310.27814,1L310.27814,0.5L308.28436,0.5L308.28436,1ZM313.26874,1L315.26251,1L315.26251,0.5L313.26874,0.5L313.26874,1ZM318.25311,1L319.25,1L319.25,0.5L318.25311,0.5L318.25311,1Z" fill-rule="evenodd" fill="#B9C9E0" fill-opacity="1"/></svg>