<svg xmlns="http://www.w3.org/2000/svg" xmlns:xlink="http://www.w3.org/1999/xlink" fill="none" version="1.1" width="255.82" height="86" viewBox="0 0 255.81613159179688 86"><path d="M255.81613,85.75L0,85.75L0,85.25L255.81613,85.25L255.81613,85.75Z" fill-rule="evenodd" fill="#C9D6E7" fill-opacity="1"/><g style="opacity:0.30000001192092896;"><path d="M255.81613,68.75L0,68.75L0,68.25L255.81613,68.25L255.81613,68.75Z" fill-rule="evenodd" fill="#C9D6E7" fill-opacity="1"/></g><g style="opacity:0.30000001192092896;"><path d="M255.81613,51.75L0,51.75L0,51.25L255.81613,51.25L255.81613,51.75Z" fill-rule="evenodd" fill="#C9D6E7" fill-opacity="1"/></g><g style="opacity:0.30000001192092896;"><path d="M255.81613,34.75L0,34.75L0,34.25L255.81613,34.25L255.81613,34.75Z" fill-rule="evenodd" fill="#C9D6E7" fill-opacity="1"/></g><g style="opacity:0.30000001192092896;"><path d="M255.81613,17.75L0,17.75L0,17.25L255.81613,17.25L255.81613,17.75Z" fill-rule="evenodd" fill="#C9D6E7" fill-opacity="1"/></g><g style="opacity:0.30000001192092896;"><path d="M255.81613,0.75L0,0.75L0,0.25L255.81613,0.25L255.81613,0.75Z" fill-rule="evenodd" fill="#C9D6E7" fill-opacity="1"/></g></svg>