<svg xmlns="http://www.w3.org/2000/svg" xmlns:xlink="http://www.w3.org/1999/xlink" fill="none" version="1.1" width="132.73" height="41.54" viewBox="0 0 136.12271118164062 47.12200927734375"><defs><linearGradient x1="0.20988669991493225" y1="-7.771561172376096e-16" x2="0.20988669991493225" y2="1" id="master_svg0_0_67"><stop offset="0%" stop-color="#FF7F9C" stop-opacity="1"/><stop offset="39.42912220954895%" stop-color="#F03A56" stop-opacity="1"/><stop offset="70.78683376312256%" stop-color="#F2263E" stop-opacity="1"/><stop offset="100%" stop-color="#FFA79E" stop-opacity="1"/></linearGradient></defs><g><path d="M4.469348665527344,25.5835610546875L18.546547165527343,25.5835610546875L18.153506165527343,29.6103190546875L2.3383827255273437,29.6103190546875L1.6959382855273437,36.1922570546875L17.511062165527342,36.1922570546875L16.594404165527344,45.5835610546875L26.482220165527345,45.5835610546875L27.398878165527343,36.1922570546875L43.387794165527346,36.1922570546875L44.03023916552734,29.6103190546875L28.041323165527345,29.6103190546875L28.434362165527343,25.5835610546875L42.68535216552734,25.5835610546875L43.32779716552734,19.001622054687502L29.076807165527345,19.001622054687502L30.536671165527345,4.0451002746875L20.648855165527344,4.0451002746875L19.188991165527344,19.001622054687502L5.111793065527344,19.001622054687502L4.469348665527344,25.5835610546875ZM102.58733716552734,45.5835380546875L94.08986616552734,45.5835380546875L96.35613216552734,22.3653540546875Q95.76583116552735,22.5304260546875,94.94387016552734,22.7701610546875L94.91063716552735,22.7798540546875L94.87666316552735,22.7865220546875Q94.08605916552735,22.9417190546875,93.80919616552734,23.0737990546875L92.58010816552735,23.6601450546875L93.17422516552735,17.5732660546875L93.50404316552735,17.3736300546875Q98.41909816552734,14.3985681546875,101.21471416552734,4.7736589756875L101.37582416552735,4.2189894946875L110.32091716552735,4.2189893146875L109.98224716552734,5.2320971746875Q109.18376716552734,7.6207091546875,108.37711716552734,9.6102938546875L106.71392716552734,9.6102938546875Q107.44698716552735,7.8592228546875,108.17780716552734,5.7574509946875L102.52764116552734,5.7574509946875Q99.67310316552734,15.1871050546875,94.63132516552734,18.4817270546875L94.35398816552734,21.3231050546875Q94.44722016552734,21.3032680546875,94.54595216552734,21.2836590546875Q96.32496616552734,20.7651030546875,97.04698916552735,20.5887760546875L98.10041816552734,20.3315150546875L95.78580516552735,44.0450780546875L101.19173416552735,44.0450780546875L104.04487716552734,14.8142642546875L104.14652716552735,14.6572170546875Q105.38419716552734,12.7449269546875,106.61554716552735,9.8436932546875L106.18512716552735,14.2533492546875Q105.86311716552734,14.8247830546875,105.53989716552735,15.3342310546875L103.70584716552735,34.1242540546875Q103.45350716552734,34.5849480546875,103.18854716552734,35.0285680546875L103.10011716552734,35.1766300546875L102.36529516552734,42.7049480546875L102.91007716552734,42.2770880546875L102.58733716552734,45.5835380546875ZM102.91007716552734,42.2770880546875L103.70584716552735,34.1242540546875Q107.57269716552734,27.0647890546875,108.46463716552735,16.018321054687497L106.01285716552735,16.018321054687497L106.18512716552735,14.2533492546875Q107.28853716552734,12.2952661546875,108.37711716552734,9.6102938546875L116.02312716552734,9.6102938546875L116.54935716552734,4.2189894946875L125.22061716552734,4.2189893746875L124.69439716552735,9.6102938546875L134.42677716552734,9.6102938546875L133.80130716552733,16.018321054687497L131.00473716552733,16.018321054687497Q129.62919716552733,27.8660010546875,132.71135716552735,35.1222710546875L132.78798716552734,35.3026640546875L132.76894716552735,35.4977300546875L132.06772716552734,42.6817860546875L130.91666716552734,41.5325930546875Q128.39967716552735,39.0197030546875,126.75401716552734,36.5834410546875L126.60547716552735,38.1052780546875L121.91307716552734,38.1052780546875L121.18314716552734,45.5835380546875L112.51187716552734,45.5835380546875L113.24181716552734,38.1052780546875L108.37561716552734,38.1052780546875L108.47868716552735,37.0493890546875Q106.45338716552735,39.4942170546875,103.78086716552734,41.5931780546875L102.91007716552734,42.2770880546875ZM106.61554716552735,9.8436932546875Q106.66485716552734,9.7275161546875,106.71392716552734,9.6102938546875L106.63832716552734,9.6102938546875L106.61554716552735,9.8436932546875ZM87.77832816552734,5.0885572446875L86.98413816552734,13.2251729546875Q86.76789116552735,16.4365340546875,85.02697016552735,17.958123054687498L89.47664616552734,17.958123054687498L89.24260716552735,20.3558800546875Q88.81385816552735,26.6381320546875,82.54724116552734,26.6324230546875L82.61305216552735,25.9581260546875L73.42041016552734,25.9581260546875L73.35511816552734,26.6270200546875L57.181892165527344,26.6270200546875Q53.67730316552734,26.7211130546875,52.081230165527344,24.7813220546875Q50.514030165527345,22.8766210546875,50.969066165527344,19.1648000546875L52.343010165527346,5.0885573646874995L87.77832816552734,5.0885572446875ZM52.77653516552734,33.5835440546875L46.78102116552734,33.5835440546875L47.38951516552734,27.3494300546875L73.28460716552735,27.3494300546875L73.35511816552734,26.6270200546875L82.18631716552734,26.6270200546875Q82.36913316552734,26.6322610546875,82.54724116552734,26.6324230546875L82.47725716552735,27.3494300546875L89.08137516552735,27.3494300546875L88.47287716552735,33.5835440546875L81.86876716552734,33.5835440546875L81.37636516552735,38.6281700546875Q80.75043516552735,45.0409930546875,74.32170916552734,45.2353670546875L74.31008916552734,45.2357180546875L64.76086416552735,45.2357180546875L65.33541116552735,39.3494300546875L70.89940616552734,39.3494300546875Q72.22663116552734,39.3494300546875,72.24567416552735,38.0206830546875L72.24613216552734,37.9887540546875L72.67611716552734,33.5835440546875L60.650974165527344,33.5835440546875L60.455856165527344,33.2625080546875L52.655907165527346,33.2625080546875L52.77653516552734,33.5835440546875ZM52.77653516552734,33.5835440546875L60.650974165527344,33.5835440546875L60.68055716552735,33.6322150546875Q62.546577165527346,36.7024060546875,63.39960516552734,40.8326720546875L63.590607165527345,41.7574920546875L54.64578616552734,41.7574920546875L54.58103916552734,41.0592920546875Q54.25188416552734,37.5099640546875,53.046608165527346,34.3023050546875L52.77653516552734,33.5835440546875ZM20.242485165527345,24.0451010546875L19.549114165527342,31.1487790546875L3.7339907655273437,31.1487790546875L3.391875925527344,34.6537970546875L19.207001165527345,34.6537970546875L18.290342165527342,44.0451010546875L25.086613165527343,44.0451010546875L26.003271165527345,34.6537970546875L41.99218716552734,34.6537970546875L42.33430516552735,31.1487790546875L26.345384165527342,31.1487790546875L27.038755165527345,24.0451010546875L41.28974516552734,24.0451010546875L41.631862165527345,20.540084054687497L27.380869165527344,20.540084054687497L28.840732165527342,5.5835618346875L22.044462165527342,5.5835618346875L20.584598165527343,20.540084054687497L6.507400965527344,20.540084054687497L6.165286265527344,24.0451010546875L20.242485165527345,24.0451010546875ZM131.21889716552735,35.5415460546875Q127.98245716552735,27.7334940546875,129.55956716552734,15.1534040546875L129.64400716552734,14.4798593546875L132.40569716552736,14.4798593546875L132.73084716552734,11.1487555546875L122.99845716552734,11.1487555546875L123.52468716552734,5.7574510546875L117.94495716552734,5.7574510546875L117.41872716552734,11.1487555546875L108.03393716552735,11.1487555546875L107.70879716552734,14.4798593546875L110.11875716552734,14.4798593546875L110.06128716552735,15.3026890546875Q109.18231716552734,27.8865510546875,104.59790716552735,35.6681590546875L104.25340716552735,39.1976740546875Q106.97609716552735,36.788483054687504,108.87270716552734,33.951960054687504L109.67569716552734,32.7510340546875L109.17847716552734,33.583534054687505L110.36274716552734,33.583534054687505L110.07155716552734,36.5668180546875L114.93774716552734,36.5668180546875L114.20781716552735,44.0450780546875L119.78754716552734,44.0450780546875L120.51746716552735,36.5668180546875L125.20987716552735,36.5668180546875L125.50106716552735,33.583534054687505L126.75319716552734,33.583534054687505L126.89190716552734,33.843517054687496Q128.29965716552735,36.4820590546875,130.85669716552735,39.2522810546875L131.21889716552735,35.5415460546875ZM126.75319716552734,33.583534054687505L126.87920716552735,33.583534054687505L126.34657716552735,32.4799500546875Q123.84087716552735,27.2882540546875,125.17828716552734,15.3346170546875L125.27391716552734,14.4798536546875L122.67326716552735,14.4798536546875L120.80860716552735,33.583534054687505L125.50106716552735,33.583534054687505L125.69470716552735,31.5996110546875L126.75319716552734,33.583534054687505ZM110.36274716552734,33.583534054687505L115.22892716552734,33.583532054687495L117.09358716552734,14.4798536546875L114.68912716552734,14.4798536546875L114.61224716552735,15.1630720546875Q113.31973716552734,26.6497760546875,109.87348716552735,32.4198670546875L109.67569716552734,32.7510340546875L110.57533716552734,31.4055630546875L110.36274716552734,33.583534054687505ZM80.74414816552735,21.9313680546875Q83.46170016552735,21.9313680546875,83.60405716552734,19.4965850546875L87.78070816552734,19.4965850546875L87.70918316552735,20.229357054687497L87.70840416552734,20.2408990546875Q87.37177316552734,25.2409510546875,82.22023816552735,25.0888920546875L82.20889316552734,25.0885580546875L57.160751165527344,25.0885580546875L57.150093165527345,25.0888540546875Q54.38954116552734,25.1653800546875,53.26923716552734,23.8038220546875Q52.11966316552734,22.4066850546875,52.497181165527344,19.343173054687497L52.498371165527345,19.3335090546875L53.738617165527344,6.6270189546875L86.08239716552734,6.6270189546875L85.45066116552735,13.0992832546875L85.44986716552734,13.1111879546875Q85.12965416552734,17.935210054687502,80.32772816552735,17.7845880546875L80.31566616552735,17.7842100546875L58.576904165527345,17.7842100546875L58.44413016552734,19.1444610546875Q58.198299165527345,20.5586040546875,58.946796165527346,21.3127210546875Q59.664398165527345,22.0357150546875,61.13386516552735,21.9313680546875L80.74414816552735,21.9313680546875ZM9.719072865527345,17.5022600546875Q7.769857865527344,13.5476160546875,7.257493065527344,7.8396460546875L7.182271465527344,7.0016431546875L16.261530165527343,7.0016431546875L16.265942165527342,7.7664360546874995Q16.294315165527344,12.684261754687501,17.74098516552734,16.9131980546875L18.089302165527343,17.9314090546875L9.930597265527343,17.9314090546875L9.719072865527345,17.5022600546875ZM34.331522165527346,7.0016431546875L43.45368216552735,7.0016431546875L43.17439316552734,7.9816939546875005Q41.55385616552734,13.6682262546875,38.84959416552734,17.598230054687498L38.62033116552735,17.9314090546875L30.325233165527344,17.9314090546875L30.934166165527344,16.7980950546875Q33.21622316552734,12.5508446546875,34.20738216552734,7.619302754687499L34.331522165527346,7.0016431546875ZM8.874141265527344,8.540104854687499Q9.385272065527344,13.1110830546875,10.894659965527344,16.3929470546875L15.959210165527344,16.3929470546875Q14.854987165527344,12.6984772546875,14.740224165527344,8.540104854687499L8.874141265527344,8.540104854687499ZM32.87074516552734,16.3929470546875Q34.676708165527344,12.7006020546875,35.58612816552734,8.540104854687499L41.40302616552734,8.540104854687499Q39.98233416552734,13.1097068546875,37.80715216552734,16.3929470546875L32.87074516552734,16.3929470546875ZM79.94233716552735,12.3673248546875L80.19446516552735,9.7842359546875L59.35771916552734,9.7842359546875L58.885025165527345,14.6270456546875L77.45983916552734,14.6270456546875Q78.53990916552735,14.6270456546875,79.18936916552734,14.0349712546875Q79.83721116552735,13.4443654546875,79.94233716552735,12.3673248546875ZM78.49852716552735,11.322697654687499L60.75332616552734,11.322697654687499L60.58096316552734,13.0885839546875L77.45983916552734,13.0885839546875Q77.94390116552735,13.0885839546875,78.15289316552735,12.8980503546875Q78.36350216552735,12.7060480546875,78.41115616552734,12.2178707546875L78.49852716552735,11.322697654687499ZM80.29178616552734,19.3226720546875Q81.25107616552734,19.3518180546875,82.07347916552735,19.2292670546875L82.07338716552735,19.243891054687502Q82.06561316552734,20.3929050546875,80.74414816552735,20.3929050546875L61.076248165527346,20.3929050546875L61.04698916552734,20.3951410546875Q60.263115165527346,20.455030054687498,60.03871516552734,20.2289420546875Q59.846340165527344,20.0351230546875,59.96375316552734,19.3860100546875L59.96934516552734,19.3550910546875L59.972511165527344,19.3226720546875L80.29178616552734,19.3226720546875ZM111.84078716552735,32.0450710546875Q113.47105716552734,28.8929750546875,114.57745716552735,24.4212260546875L113.83331716552735,32.0450710546875L111.84078716552735,32.0450710546875ZM124.49267716552734,32.0450730546875L122.50454716552734,32.0450730546875L123.21880716552734,24.7273220546875Q123.40839716552735,29.1312180546875,124.49267716552734,32.0450730546875ZM74.81601716552734,27.4965860546875L80.91712216552735,27.4965860546875L80.78131816552734,28.8878920546875L87.38543716552735,28.8878920546875L87.07727016552734,32.0450820546875L80.47315216552734,32.0450820546875L79.84518416552734,38.4787180546875Q79.35132616552734,43.5384290546875,74.28666716552735,43.6972540546875L66.45680616552735,43.6972540546875L66.73101816552735,40.8878900546875L70.89940616552734,40.8878900546875Q73.72662316552734,40.8878900546875,73.78340916552735,38.0758170546875L74.37204716552735,32.0450820546875L48.47695916552735,32.0450820546875L48.78512216552734,28.8878920546875L74.68021416552735,28.8878920546875L74.81601716552734,27.4965860546875ZM54.85302016552735,34.8009680546875Q55.711346165527345,37.4091220546875,56.039783165527346,40.2190280546875L61.68511216552734,40.2190280546875Q60.94249716552734,37.1695670546875,59.58416416552734,34.8009680546875L54.85302016552735,34.8009680546875Z" fill-rule="evenodd" fill="url(#master_svg0_0_67)" fill-opacity="1"/><path d="M92.39392816552734,47.1220020546875L103.98294716552735,47.1220020546875L104.37739716552734,43.0809060546875L104.73111716552734,42.8030970546875Q106.63356716552734,41.3089410546875,108.22640716552735,39.6437420546875L111.54587716552734,39.6437420546875L110.81593716552734,47.1220020546875L122.57874716552735,47.1220020546875L123.30869716552735,39.6437420546875L127.12072716552734,39.6437420546875Q128.32886716552736,41.1229510546875,129.82969716552736,42.6213380546875L133.28288716552734,46.0689200546875L134.30013716552733,35.6472340546875L134.35725716552736,35.0619870546875L134.12738716552735,34.5208050546875Q131.38026716552736,28.0533370546875,132.38840716552735,17.5567830546875L135.19690716552734,17.5567830546875L136.12271716552735,8.0718324546875L126.39033716552734,8.0718324546875L126.91654716552735,2.6805276546875L115.15374716552735,2.6805279546875L114.62751716552734,8.0718324546875L110.61834716552734,8.0718324546875Q111.03124716552735,6.9466533546875,111.44134716552735,5.7198512546875L112.45734716552734,2.6805276546875L108.86051716552734,2.6805276546875L109.12215716552734,-0.000011445312500413252L107.98447716552734,2.6805276546875L100.22064216552734,2.6805279546875L99.73731216552734,4.3445378546875Q97.10908516552735,13.3931751546875,92.70739016552734,16.0574940546875L91.71794116552735,16.6564010546875L90.78434716552735,26.2213940546875L94.47161116552735,24.4623470546875Q94.50826216552734,24.4448620546875,94.60998516552735,24.4183200546875L92.39392816552734,47.1220020546875ZM94.76711316552735,22.8084830546875Q94.80566416552735,22.8005900546875,94.84566516552735,22.7926440546875L94.87666316552735,22.7864880546875L94.91063716552735,22.7798540546875L94.91177416552735,22.7795140546875L94.94387016552734,22.7701610546875L94.97647816552734,22.7606560546875Q95.77757216552735,22.5271430546875,96.35614016552735,22.3653540546875L96.19564016552734,24.0097260546875L94.24003616552734,44.0450780546875L94.08986616552734,45.5835420546875L102.58733716552734,45.5835420546875L102.70327716552734,44.3957370546875L102.86356716552734,42.7535820546875L102.89260716552734,42.4560580546875L102.91007716552734,42.2770880546875L103.78086716552734,41.5931780546875Q103.91084716552734,41.4910960546875,104.03961716552735,41.3879320546875Q104.31663716552734,41.1660080546875,104.58631716552735,40.9404530546875Q104.91907716552734,40.6621550546875,105.24098716552734,40.3780820546875L105.27290716552734,40.3498380546875Q105.33056716552734,40.2988590546875,105.38798716552735,40.2475550546875Q106.09371716552734,39.6170200546875,106.74657716552734,38.9583010546875Q107.60696716552734,38.0901950546875,108.37561716552734,37.1730800546875Q108.42728716552735,37.1114200546875,108.47868716552735,37.0493890546875L108.37561716552734,38.1052780546875L113.24181716552734,38.1052780546875L113.09164716552735,39.6437420546875L112.66204716552734,44.0450780546875L112.51187716552734,45.5835420546875L121.18314716552734,45.5835420546875L121.91308716552734,38.1052780546875L126.60547716552735,38.1052780546875L126.75402716552735,36.5834410546875Q127.37467716552734,37.5022770546875,128.11935716552733,38.4320950546875Q128.86131716552734,39.3585240546875,129.72626716552736,40.2957150546875Q130.17613716552734,40.7831650546875,130.65939716552734,41.2736360546875Q130.78713716552735,41.4032710546875,130.91666716552734,41.5325930546875L132.06772716552734,42.6817860546875L132.26108716552736,40.7008740546875L132.76894716552735,35.4977300546875L132.78746716552735,35.3079740546875L132.78798716552734,35.3026660546875L132.71135716552735,35.1222710546875Q132.67786716552735,35.043428054687496,132.64505716552733,34.9643920546875L132.64011716552736,34.952455054687505Q132.62845716552735,34.9243700546875,132.61612716552733,34.8943900546875Q132.47496716552735,34.5509970546875,132.34351716552735,34.1973020546875Q130.76650716552734,29.9542140546875,130.59993716552734,24.2584150546875Q130.48890716552734,20.4612240546875,131.00473716552733,16.018322054687502L133.80129716552733,16.018322054687502L133.80130716552733,16.0181610546875L134.27660716552734,11.1487555546875L134.42677716552734,9.6102938546875L124.69440716552734,9.6102938546875L124.84456716552734,8.0718324546875L125.07045716552734,5.7574509946875L125.22060716552734,4.2191497046875L125.22061716552734,4.2189893746875L123.87582716552734,4.2189894346875L116.54935716552734,4.2189894346875L116.02313716552734,9.6102938546875L108.37711716552734,9.6102938546875Q108.67773716552735,8.868830154687501,108.97726716552734,8.0718324546875Q109.30476716552734,7.2003669546874995,109.63088716552734,6.2627148546875Q109.71800716552734,6.0122557546875,109.80489716552735,5.7574509346875Q109.89357716552735,5.4973625546875,109.98225716552734,5.2320971746875L110.32091716552735,4.2189893146875L108.71034716552734,4.2189893746875L107.33151716552734,4.2189893746875L101.38595616552735,4.2189894946875L101.37582416552735,4.2189894946875L101.21471416552734,4.7736589756875Q101.14346316552735,5.0189806646875,101.07069416552734,5.2604131446875L101.05516816552735,5.3117055346875Q98.36389116552735,14.2064971546875,93.78977216552734,17.193891054687498L93.76725016552734,17.2085580546875Q93.63644416552734,17.293489054687498,93.50404316552735,17.3736300546875L93.17422516552735,17.5732670546875L93.17184416552735,17.5976300546875L92.75460816552734,21.8723370546875L92.61866016552734,23.2652070546875L92.58010816552735,23.6601450546875L93.80919616552734,23.0737990546875Q93.94281816552734,23.0100550546875,94.19608316552734,22.9409290546875Q94.36079416552734,22.8959730546875,94.57606516552734,22.8487510546875Q94.66691616552734,22.8288210546875,94.76711316552735,22.8084830546875ZM95.94267316552734,20.8834930546875L95.94181816552734,20.8837320546875Q95.86665316552734,20.9047510546875,95.78858216552734,20.9267390546875Q95.25208316552734,21.0778290546875,94.54595216552734,21.2836590546875Q94.54025316552735,21.2847900546875,94.53458416552735,21.2859210546875Q94.44181016552734,21.3044170546875,94.35398816552734,21.3231030546875L94.40502916552734,20.8001970546875L94.41982316552735,20.6486310546875L94.51328316552734,19.6911560546875L94.63133216552734,18.4817270546875Q95.13626816552734,18.1517670546875,95.61927816552735,17.7602650546875Q99.95899216552735,14.2427082546875,102.52764116552734,5.7574509946875L108.17780716552734,5.7574509946875Q107.90167716552735,6.5515942546875,107.62511716552734,7.2959124546875Q107.47817716552734,7.6913905546875,107.33150716552734,8.0718324546875Q107.18732716552735,8.4457745546875,107.04305716552734,8.8061683546875Q106.99758716552735,8.9197258546875,106.95190716552735,9.0324568546875Q106.83299716552735,9.325871454687501,106.71392716552734,9.6102938546875L106.63832716552734,9.6102938546875L106.61575716552734,9.841467354687499L106.61555716552735,9.843692754687499Q106.32708716552735,10.5233416546875,106.03826716552734,11.1487555546875Q105.44241716552735,12.4390249546875,104.84509716552735,13.4982147546875Q104.81617716552735,13.5495157546875,104.78702716552735,13.6006488546875Q104.73657716552735,13.6891622546875,104.68598716552735,13.7762222546875L104.68597716552735,13.7763519546875Q104.46350716552735,14.1591577546875,104.24083716552734,14.5100431546875L104.23117716552734,14.5252551546875Q104.18876716552734,14.5919551546875,104.14652716552735,14.6572170546875L104.04487716552734,14.8142642546875L104.04433716552734,14.8197390546875L102.20569616552734,33.6568360546875L102.20526116552735,33.6613690546875L102.17466716552734,33.9748000546875L101.44275616552734,41.4732780546875L101.43780516552734,41.5240130546875L101.37889116552735,42.1276360546875L101.19174216552734,44.0450780546875L95.78581216552735,44.0450780546875L95.93597416552734,42.5066180546875L97.94206216552735,21.9538610546875L98.10041816552734,20.331516054687498L97.04698916552735,20.588777054687498Q96.82949016552735,20.6418920546875,96.51613616552734,20.7260470546875Q96.26116216552734,20.7945210546875,95.94267316552734,20.8834930546875ZM96.28183716552735,19.196435054687498Q96.50955216552734,19.1363520546875,96.68200716552734,19.0942360546875L99.84229316552734,18.322454054687498L97.48175016552734,42.5066180546875L99.79612716552734,42.5066180546875L102.55003716552734,14.2924280546875L102.85497716552734,13.8212814546875Q103.97470716552735,12.0912256546875,105.10744716552735,9.4577617546875L105.24270716552735,8.0718324546875L105.67958716552734,8.0718324546875Q105.83028716552734,7.6920919546875,105.98133716552735,7.2959124546875L103.65555716552734,7.2959124546875Q100.91140016552734,15.6522150546875,96.28183716552735,19.196435054687498ZM102.57208716552735,40.5863150546875L102.46266916552734,41.7074240546875L102.41181216552734,42.2284580546875L102.36529516552734,42.7049520546875L102.91007716552734,42.2770880546875L103.11686716552734,40.1584550546875L103.11714716552734,40.1556240546875L103.31424716552735,38.1363030546875L103.33157716552735,37.9586870546875L103.57542716552734,35.4605080546875L103.59837716552734,35.2252650546875L103.70584716552735,34.1242540546875Q104.81459716552735,32.1000120546875,105.67877716552735,29.7479970546875Q107.61588716552734,24.4758340546875,108.32401716552734,17.5567830546875Q108.40172716552735,16.797588054687502,108.46464716552734,16.018322054687502L106.01285716552735,16.018322054687502L106.04814716552734,15.6566970546875L106.07452716552734,15.3864160546875L106.11240716552734,14.9984310546875L106.16302716552734,14.4798603546875L106.18507716552735,14.2538757546875L106.18512716552735,14.2533492546875Q106.95909716552734,12.8798713546875,107.72578716552735,11.1487555546875Q107.87856716552734,10.8037614546875,108.03110716552735,10.4444885546875Q108.07759716552735,10.3349852546875,108.12421716552734,10.2237701546875Q108.12833716552734,10.2139587546875,108.13245716552734,10.204136354687499Q108.25477716552734,9.9120550546875,108.37711716552734,9.6102938546875L106.71392716552734,9.6102938546875Q106.71244716552734,9.6138386546875,106.71095716552735,9.617382554687499Q106.67492716552735,9.7034292546875,106.63832716552734,9.7899355546875Q106.62696716552735,9.8167915546875,106.61555716552735,9.8436932546875L106.48815716552734,11.1487555546875L106.18512716552735,14.2533492546875Q106.12072716552734,14.3676300546875,106.05602716552734,14.4798603546875Q106.03407716552735,14.5179386546875,106.01285716552735,14.5544786546875Q105.77669716552734,14.9609920546875,105.53989716552735,15.3342310546875L105.41000716552735,16.6648640546875L105.32295716552734,17.5567830546875L104.16680716552735,29.4017030546875L103.70584716552735,34.1242540546875Q103.51662716552734,34.4697040546875,103.32023716552735,34.805689054687505Q103.29619716552735,34.8468150546875,103.27237716552735,34.8872450546875L103.26559716552734,34.898756054687496Q103.22703716552735,34.9641190546875,103.18854716552734,35.0285680546875L103.10011716552734,35.1766320546875L103.09975716552735,35.1802460546875L102.57208716552735,40.5863150546875ZM107.85896716552735,12.9413986546875L107.71631716552734,14.4028053546875L107.70879716552734,14.4798603546875L110.11875716552734,14.4798603546875L110.06129716552735,15.3026890546875Q110.03615716552734,15.6625570546875,110.00800716552735,16.018322054687502L109.99810716552734,16.142139054687497Q109.94070716552734,16.8530020546875,109.87117716552734,17.5481320546875Q108.84931716552734,27.7639270546875,105.20686716552734,34.582870054687504Q105.13152716552734,34.723906054687504,105.05515716552735,34.8633380546875Q104.85547716552735,35.2278730546875,104.64832716552735,35.5822580546875Q104.62354716552734,35.624651054687504,104.59790716552735,35.6681650546875L104.48026716552734,36.8734890546875L104.25340716552735,39.1976740546875Q104.53375716552735,38.9496380546875,104.80528716552735,38.6971210546875Q105.01411716552734,38.5028950546875,105.21797716552734,38.3057940546875Q105.59742716552735,37.9389300546875,105.95873716552734,37.5629270546875Q106.66022716552735,36.8329310546875,107.29393716552734,36.0679450546875Q107.68030716552734,35.6014540546875,108.04154716552735,35.121998054687495Q108.41712716552735,34.6235220546875,108.76549716552735,34.1109980546875Q108.81954716552734,34.0314690546875,108.87270716552734,33.9519610546875L109.17847716552734,33.4946590546875L109.19524716552735,33.4695780546875L109.65390716552734,32.7836320546875L109.67569716552734,32.7510360546875L109.65558716552735,32.784700054687505L109.24371716552734,33.4743080546875L109.17847716552734,33.5835360546875L110.36275716552734,33.5835360546875L110.29751716552734,34.2518860546875L110.25900716552735,34.6465090546875L110.22172716552734,35.0283560546875L110.21257716552735,35.121998054687495L110.07155716552734,36.5668180546875L111.61733716552735,36.5668160546875L114.93775716552734,36.5668160546875L114.78758716552734,38.1052780546875L114.35797716552734,42.5066180546875L114.20781716552735,44.0450780546875L119.78753716552734,44.0450780546875L119.78754716552734,44.0449370546875L120.51747716552734,36.5668160546875L125.20987716552735,36.5668160546875L125.35090716552735,35.121998054687495L125.42504716552735,34.3624610546875L125.43228716552734,34.2883110546875L125.44553716552734,34.1525000546875L125.50107716552735,33.5835360546875L126.75319716552734,33.5835360546875L126.77899716552734,33.6318990546875L126.82198716552735,33.712463054687504L126.89190716552734,33.843517054687496Q126.94602716552734,33.9449480546875,127.00166716552734,34.0462680546875Q127.29556716552734,34.581404054687496,127.63660716552734,35.121998054687495Q127.80285716552734,35.385548054687504,127.98022716552734,35.6502400546875Q128.64504716552733,36.6424250546875,129.46706716552734,37.6526790546875Q130.11332716552732,38.4469340546875,130.85669716552735,39.2522810546875L131.06061716552733,37.1632160546875L131.21889716552735,35.5415530546875Q130.85857716552735,34.6722700546875,130.55791716552736,33.7438070546875Q128.23221716552735,26.5619720546875,129.47656716552734,15.8408960546875Q129.51624716552735,15.4989960546875,129.55956716552734,15.1534040546875L129.64401716552734,14.4798603546875L132.40570716552733,14.4798603546875L132.58067716552733,12.6872172546875L132.73084716552734,11.1487555546875L122.99845716552734,11.1487555546875L122.99845716552734,11.1482734546875L123.14857716552734,9.6102938546875L123.37448716552734,7.2959124546875L123.52464716552734,5.7574509946875L121.97892716552734,5.7574510546875L117.94495716552734,5.7574510546875L117.41873716552735,11.1487555546875L108.03394716552734,11.1487555546875L107.85896716552735,12.9413986546875ZM109.42954716552734,12.6872172546875L109.40472716552735,12.9413986546875L111.76841716552734,12.9413986546875L111.59601716552734,15.4098750546875Q110.87898716552735,25.6752170546875,107.73216716552734,32.8898830546875L108.37499716552735,31.9284900546875L108.55267716552734,31.6309990546875Q111.82816716552735,26.1468120546875,113.08344716552735,14.9910550546875L113.31405716552734,12.9413928546875L115.83295716552735,12.9413928546875L115.89584716552734,12.6872172546875L109.42954716552734,12.6872172546875ZM117.26856716552734,12.6872172546875L117.24374716552734,12.9413928546875L118.78953716552735,12.9413928546875L116.63367716552735,35.028355054687495L116.62454716552735,35.121998054687495L115.90375716552734,42.5066180546875L118.39194716552734,42.5066180546875L119.11272716552735,35.1220040546875L119.12186716552735,35.0283560546875L121.27766716552735,12.9413928546875L122.82343716552734,12.9413928546875L122.84824716552734,12.6872172546875L121.30251716552735,12.6872172546875L121.82874716552735,7.2959124546875L119.34056716552735,7.2959124546875L118.81434716552734,12.6872172546875L117.26856716552734,12.6872172546875ZM124.24037716552735,12.6872172546875L124.25132716552734,12.9413928546875L126.99411716552734,12.9413928546875L126.70720716552735,15.5056770546875Q125.41908716552734,27.0187760546875,127.73210716552734,31.8112410546875L128.92114716552734,34.2748580546875Q129.11276716552734,34.579676054687496,129.32098716552736,34.8871060546875Q126.52629716552734,26.9809190546875,128.03305716552734,14.9620340546875L128.28637716552734,12.9413986546875L131.01009716552736,12.9413986546875L131.03490716552736,12.6872172546875L124.24037716552735,12.6872172546875ZM124.72802716552734,24.0148410546875Q124.63581716552734,20.5098900546875,125.10435716552735,16.0183150546875Q125.13968716552735,15.6796390546875,125.17828716552734,15.3346180546875L125.27392716552734,14.4798536546875L122.67326716552735,14.4798536546875L120.95876716552735,32.045074054687504L120.80860716552735,33.5835360546875L125.50106716552735,33.5835360546875L125.63783716552734,32.1825100546875L125.65122716552735,32.045074054687504L125.69470716552735,31.5996110546875L125.93237716552734,32.045074054687504L126.59945716552734,33.295387054687495L126.75319716552734,33.5835360546875L126.87920716552735,33.5835360546875L126.85339716552734,33.5300710546875L126.75319716552734,33.3224410546875L126.34657716552735,32.4799520546875Q126.24433716552734,32.2681250546875,126.14851716552734,32.045074054687504Q126.06498716552734,31.8506320546875,125.98631716552734,31.6476650546875Q125.98197716552734,31.6364500546875,125.97844716552734,31.6273060546875Q125.21632716552735,29.6506250546875,124.91314716552735,26.8664340546875Q124.76797716552734,25.5332110546875,124.72802716552734,24.0148410546875ZM123.21880716552734,24.7273220546875L122.65470716552734,30.5066130546875L122.59136716552734,31.1555520546875L122.50454716552734,32.045074054687504L124.49268716552734,32.045074054687504Q124.33284716552734,31.6155470546875,124.19246716552735,31.1536750546875Q124.17157716552734,31.0849530546875,124.15089716552734,31.0147230546875Q124.07742716552734,30.7652990546875,124.00949716552735,30.5066130546875Q123.36287716552734,28.0438690546875,123.21949716552734,24.7430380546875Q123.21915716552735,24.7351820546875,123.21880716552734,24.7273220546875ZM111.90852716552735,33.5835360546875L115.22892716552734,33.583534054687505L116.94342716552734,16.0183150546875L117.09358716552734,14.4798536546875L114.68912716552734,14.4798536546875L114.61224716552735,15.1630730546875Q114.08076716552735,19.886472054687502,113.18510716552734,23.6432130546875Q112.95204716552735,24.6207710546875,112.69431716552734,25.5329420546875Q111.73949716552734,28.9121210546875,110.44623716552735,31.3929630546875Q110.43575716552735,31.4130570546875,110.42409716552734,31.4353240546875Q110.26047716552735,31.7475050546875,110.09164716552735,32.045074054687504Q109.98374716552735,32.2352690546875,109.87348716552735,32.4198670546875L109.69580716552734,32.717371054687504L109.67569716552734,32.7510360546875L109.69749716552734,32.7184390546875L109.97550716552735,32.3026470546875L110.14773716552735,32.045074054687504L110.57533716552734,31.4055630546875L110.51291716552734,32.045074054687504L110.49774716552734,32.200449054687496L110.40360716552735,33.164961054687495L110.40167716552735,33.184635054687504L110.39693716552735,33.2332840546875L110.39507716552734,33.2523290546875L110.36275716552734,33.583534054687505L110.91882716552735,33.5835360546875L111.90852716552735,33.5835360546875ZM113.55914716552735,32.0450730546875L113.83331716552735,32.0450730546875L113.90696716552735,31.2905750546875L114.57745716552735,24.4212320546875Q113.72852716552734,27.8523830546875,112.57114716552735,30.5066110546875Q112.48641716552734,30.7009300546875,112.40022716552734,30.8906590546875Q112.25806716552735,31.2035980546875,112.11135716552734,31.5054050546875Q112.08734716552735,31.5548130546875,112.06281716552735,31.6047110546875Q111.95300716552734,31.8280810546875,111.84078716552735,32.0450730546875L112.05869716552735,32.045074054687504L113.55914716552735,32.0450730546875ZM3.716185065527344,17.4631600546875L2.773410975527344,27.1220230546875L16.850609165527345,27.1220230546875L16.757898165527344,28.0718590546875L0.9427747655273437,28.0718590546875L4.6552734378479954e-7,37.7307170546875L15.815124165527344,37.7307170546875L14.898466165527344,47.1220210546875L27.877827165527343,47.1220210546875L28.794485165527345,37.7307170546875L44.783401165527344,37.7307170546875L45.726177165527346,28.0718590546875L29.737259165527345,28.0718590546875L29.829971165527343,27.1220230546875L44.08096316552734,27.1220230546875L45.023731165527344,17.4631600546875L40.77638616552734,17.4631600546875Q43.164753165527344,13.6289710546875,44.65395316552734,8.4033257546875L45.49181016552734,5.4631813746875L34.33152416552734,5.4631814946875L33.071503165527346,5.4631813746875L32.69908316552734,7.3161587546875Q32.174890165527344,9.9242849546875,31.273840165527343,12.3293609546875L32.232611165527345,2.5066385546875L19.253246165527344,2.5066385546875L18.252302165527343,12.761461754687499Q17.819422165527342,10.364932554687499,17.804379165527344,7.7575583546875L17.791139165527344,5.4631814946875L5.499527965527344,5.4631814946875L5.725192265527344,7.9771904546875Q6.218047665527344,13.4678201546875,8.001617865527344,17.4631600546875L3.716185065527344,17.4631600546875ZM9.930597265527343,17.9314090546875L18.089302165527343,17.9314090546875L17.929120165527344,17.4631600546875L17.823516165527344,17.1544530546875L17.74098516552734,16.9131980546875Q17.652441165527343,16.6543650546875,17.569209165527344,16.3929470546875Q16.394210165527344,12.7024669546875,16.278107165527345,8.497662054687499Q16.268063165527344,8.1339566546875,16.265943165527343,7.7664360546874995L16.261530165527343,7.0016431546875L16.236812165527343,7.0016431546875L8.726919165527343,7.0016434546875L7.182271465527344,7.0016434546875L7.257493065527344,7.8396460546875Q7.289232265527343,8.1932351546875,7.326486065527344,8.540104854687499Q7.855590365527344,13.4665613546875,9.496949165527344,17.0357800546875Q9.596362065527344,17.2519580546875,9.699857265527344,17.4631600546875Q9.709451665527343,17.4827400546875,9.719072865527345,17.5022600546875L9.930597265527343,17.9314090546875ZM15.547054165527344,14.8544850546875Q14.887539165527343,12.0798788546875,14.758372165527344,9.0566210546875Q14.747374165527344,8.7992365546875,14.740224165527344,8.5401050546875L8.874141265527344,8.5401050546875Q8.962300765527344,9.3285055546875,9.080160165527344,10.0785665546875Q9.592075365527343,13.3364257546875,10.664264665527345,15.8707620546875Q10.776396765527343,16.1358090546875,10.894659065527344,16.3929470546875L15.959211165527345,16.3929470546875Q15.732230165527344,15.6335240546875,15.547054165527344,14.8544850546875ZM13.967990165527343,14.8544850546875Q13.448588165527344,12.544954754687499,13.275258165527344,10.0785665546875L10.638384865527344,10.0785665546875Q11.077480365527343,12.7376556546875,11.910954465527343,14.8544850546875L13.967990165527343,14.8544850546875ZM8.742907565527343,19.001622054687502L19.188991165527344,19.001622054687502L19.387096165527343,16.9720150546875L20.648855165527344,4.0451003946875L30.536672165527342,4.0451003946875L30.386507165527345,5.5835618946875L29.315016165527343,16.561132054687498L29.226971165527345,17.4631600546875L29.076807165527345,19.001622054687502L43.32780416552735,19.001622054687502L43.32778916552734,19.0017020546875L43.177631165527345,20.540084054687497L42.685356165527345,25.5835610546875L28.434362165527343,25.5835610546875L28.191488165527343,28.0718590546875L28.041323165527345,29.6103210546875L29.587095165527344,29.6103190546875L44.030243165527345,29.6103190546875L43.88007316552734,31.1487830546875L43.387794165527346,36.1922590546875L27.398878165527343,36.1922590546875L26.482220165527345,45.5835610546875L16.594404165527344,45.5835610546875L16.744571165527343,44.0450970546875L17.360898165527345,37.7307170546875L17.511063165527343,36.1922590546875L1.6959382255273439,36.1922590546875L1.8461033155273436,34.6537970546875L2.3383828855273436,29.6103190546875L18.153506165527343,29.6103190546875L18.396382165527342,27.1220230546875L18.546547165527343,25.5835610546875L4.469348665527344,25.5835610546875L4.619513765527344,24.0450990546875L5.111793265527344,19.001622054687502L8.742907565527343,19.001622054687502ZM20.584598165527343,20.540084054687497L6.507400965527344,20.540084054687497L6.315451165527344,22.5066390546875L6.165286265527344,24.0451010546875L7.711059065527344,24.0450990546875L20.242485165527345,24.0450990546875L20.092319165527343,25.5835630546875L19.549114165527342,31.1487830546875L3.7339907655273437,31.1487810546875L3.542040825527344,33.1153370546875L3.391875985527344,34.6537990546875L4.937648965527344,34.6537970546875L19.207001165527345,34.6537970546875L19.056837165527345,36.1922610546875L18.440507165527343,42.5066410546875L18.290342165527342,44.0450970546875L25.086611165527344,44.0450970546875L26.003269165527342,34.6537970546875L41.99218716552734,34.6537970546875L42.18413916552734,32.6872420546875L42.33430516552735,31.1487830546875L40.78853216552734,31.1487810546875L26.345384165527342,31.1487810546875L26.495552165527343,29.6103190546875L27.038757165527343,24.0451010546875L41.28974516552734,24.0450990546875L41.481693165527346,22.0785450546875L41.631859165527345,20.540084054687497L27.380871165527342,20.540084054687497L27.531034165527345,19.001622054687502L28.690569165527343,7.1220235546875L28.840734165527344,5.5835618946875L22.044462165527342,5.5835618946875L20.584598165527343,20.540084054687497ZM23.440071165527343,7.1220235546875L21.980207165527343,22.0785450546875L7.9030093655273435,22.0785450546875L7.861224165527344,22.5066390546875L21.938423165527343,22.5066390546875L21.773670165527342,24.1945550546875L20.944723165527343,32.6872420546875L5.129598865527344,32.6872420546875L5.087813665527344,33.1153370546875L20.902939165527343,33.1153370546875L19.986278165527345,42.5066410546875L23.691006165527345,42.5066410546875L24.607664165527343,33.1153370546875L40.59658016552734,33.1153370546875L40.638363165527345,32.6872420546875L24.649446165527344,32.6872420546875L25.643148165527343,22.5066390546875L39.894138165527345,22.5066390546875L39.93592416552735,22.0785450546875L25.684933165527344,22.0785450546875L27.144796165527342,7.1220235546875L23.440071165527343,7.1220235546875ZM32.07170716552734,17.9314090546875L38.62033116552735,17.9314090546875L38.84959416552734,17.598230054687498Q38.89577116552734,17.5311280546875,38.94186416552734,17.4631600546875Q39.01609416552734,17.3537120546875,39.089462165527344,17.242965054687502L39.08968316552734,17.2426390546875Q41.386204165527346,13.7762508546875,42.872127165527345,8.9968495546875Q42.94265716552734,8.769963454687499,43.011379165527345,8.540104854687499Q43.09424216552734,8.2629501546875,43.17439616552734,7.9816939546875005L43.45368216552735,7.0016431546875L34.33152416552734,7.0016431546875L34.20738216552734,7.619302754687499Q34.14761516552734,7.9166786546875,34.08315116552734,8.211577654687499Q34.08049916552734,8.2237007546875,34.07844516552734,8.2330725546875Q33.977213165527345,8.6948077546875,33.86446016552735,9.1504573546875Q33.008463165527345,12.609638654687501,31.488720165527344,15.7169850546875Q31.322384165527343,16.057085054687498,31.148109165527345,16.3929470546875Q31.042589165527342,16.5963070546875,30.934168165527343,16.7980950546875L30.816236165527343,17.0175830546875L30.576826165527343,17.4631600546875L30.325233165527344,17.9314090546875L32.07170716552734,17.9314090546875ZM36.962826165527346,14.8544850546875Q38.257160165527345,12.7362403546875,39.25243416552734,10.0785665546875L36.80404316552735,10.0785665546875Q36.17979016552734,12.5470490546875,35.24247716552734,14.8544850546875L36.962826165527346,14.8544850546875ZM34.574459165527344,16.3929470546875L37.80715216552734,16.3929470546875Q39.60706316552734,13.6761445546875,40.890358165527346,10.0785665546875Q41.09752616552734,9.4977998546875,41.291210165527346,8.8941335546875Q41.347702165527345,8.7180612546875,41.40303016552734,8.540104854687499L39.788891165527346,8.5401050546875L35.58612816552734,8.5401050546875Q34.86373116552734,11.8449945546875,33.57562216552734,14.8544850546875Q33.36444516552734,15.3478730546875,33.13809416552735,15.8332560546875Q33.00699216552734,16.114388054687502,32.87074616552734,16.3929470546875L34.574459165527344,16.3929470546875ZM88.51751716552734,13.3521699546875L89.30950916552734,5.2380105246875L89.47425816552735,3.5500957546875L50.94740316552734,3.5500955546875L49.439682165527344,18.9969010546875Q48.911091165527345,23.3498270546875,50.893226165527345,25.7588210546875Q50.91481016552734,25.7850550546875,50.936603165527345,25.8109700546875L45.993908165527344,25.8109700546875L45.085083165527344,35.1220070546875L51.70911816552734,35.1220070546875Q52.753364165527344,38.0118370546875,53.049152165527346,41.2013550546875L53.24339716552734,43.2959560546875L63.40442616552734,43.2959560546875L63.06492216552734,46.7741810546875L74.33338916552735,46.7741810546875L74.36820216552735,46.7731250546875Q82.15010116552735,46.5378380546875,82.90754716552735,38.7776260546875L83.26436616552735,35.1220070546875L89.86849216552734,35.1220070546875L90.77732116552734,25.8109700546875L88.87718916552734,25.8109700546875Q90.53688016552735,23.9115920546875,90.77591716552735,20.4834930546875L91.17258416552734,16.419661054687502L87.88309516552734,16.419661054687502Q88.39839216552734,15.0784030546875,88.51751716552734,13.3521699546875ZM86.98413816552734,13.2251739546875L87.62816616552735,6.6270188546875L87.77831316552735,5.0887176046875L87.77832816552734,5.0885572446875L86.23255916552735,5.0885571846875L52.343010165527346,5.0885571846875L50.969066165527344,19.1648010546875Q50.94119216552734,19.3921570546875,50.920902165527345,19.6128210546875Q50.61004616552734,22.9933130546875,52.08123416552734,24.7813220546875Q52.58977916552735,25.3993890546875,53.29208416552734,25.8109700546875Q54.79395316552734,26.6911320546875,57.181892165527344,26.6270200546875L73.35511816552734,26.6270200546875L73.28460716552735,27.3494320546875L47.38951516552734,27.3494320546875L46.93118716552734,32.0450840546875L46.78102116552734,33.5835460546875L52.77653516552734,33.5835460546875L53.046608165527346,34.3023070546875Q53.13989616552735,34.550573054687504,53.227962165527344,34.8009720546875Q53.284298165527346,34.961151054687505,53.338432165527344,35.1220070546875Q53.36526116552734,35.201727054687495,53.39164016552734,35.281897054687505Q53.99892416552734,37.1271630546875,54.32532916552734,39.0821380546875Q54.434135165527344,39.7338140546875,54.51172616552734,40.3976360546875Q54.55021716552734,40.7269320546875,54.58103916552734,41.0592960546875L54.645790165527345,41.7574920546875L63.590610165527345,41.7574920546875L63.56615016552735,41.6390690546875L63.39960816552735,40.8326720546875Q63.33562116552734,40.5228580546875,63.265941165527344,40.2190320546875Q63.22395316552734,40.0359460546875,63.17989016552735,39.8550110546875Q62.54962116552734,37.2669300546875,61.49588416552734,35.1220070546875Q61.22164516552734,34.5637910546875,60.91874716552734,34.0356200546875L60.91366216552734,34.026762054687495Q60.79912916552735,33.827307054687495,60.68055716552735,33.6322170546875L60.650974165527344,33.5835460546875L72.67611716552734,33.5835460546875L72.52594716552734,35.1220070546875L72.24646016552734,37.9854280546875L72.24613216552734,37.9887540546875L72.24567416552735,38.0206870546875L72.24526216552735,38.0447540546875Q72.22055816552735,39.2678830546875,71.05929516552735,39.3443300546875Q70.98185016552735,39.3494300546875,70.89940616552734,39.3494300546875L65.33541116552735,39.3494300546875L65.11999916552735,41.5563580546875L64.95020316552734,43.2959560546875L64.91103016552734,43.6972580546875L64.76086416552735,45.2357180546875L74.31078316552734,45.2357180546875L74.32170916552734,45.2353670546875L74.33489216552735,45.2349620546875Q79.94913516552734,45.0594790546875,81.12959316552734,40.1326260546875Q81.29821016552734,39.4288830546875,81.37636516552735,38.6281700546875L81.86876716552734,33.5835460546875L88.47288516552734,33.5835460546875L88.93122116552735,28.8878940546875L89.08138316552734,27.3494320546875L82.47725716552735,27.3494320546875L82.54724916552735,26.6324230546875Q82.58035316552734,26.6324520546875,82.61305216552735,26.6323090546875Q82.79894216552735,26.6314940546875,82.97969016552734,26.6250880546875Q83.56925916552734,26.6041910546875,84.10360716552735,26.5238130546875Q85.36731716552734,26.3337270546875,86.32215916552734,25.8109700546875Q86.87117016552735,25.5103970546875,87.31807716552734,25.0998500546875Q88.15875216552735,24.3275510546875,88.63812216552735,23.1660690546875Q89.13257616552734,21.9680190546875,89.24260716552735,20.3558800546875L89.32648516552734,19.4965850546875L89.47663116552734,17.9582840546875L89.47664616552734,17.958123054687498L85.02697016552735,17.958123054687498Q85.74338516552734,17.3319710546875,86.20159916552734,16.419661054687502Q86.85683416552735,15.1150930546875,86.98412316552735,13.2254142546875L86.98414616552735,13.2251748546875L86.98413816552734,13.2251739546875ZM85.44915816552735,13.1218080546875L85.44987516552735,13.1111888546875L85.45066816552735,13.0992851546875L85.45071416552734,13.0987358546875L85.93222016552734,8.1654806546875L86.08239716552734,6.6270188546875L84.53662916552734,6.6270189546875L53.738617165527344,6.6270189546875L52.49840916552734,19.3331530546875L52.498371165527345,19.3335090546875L52.49718516552734,19.343174054687502L52.496094165527346,19.3519990546875Q52.12136816552734,22.4087540546875,53.26923716552734,23.8038230546875Q54.38760416552734,25.1630270546875,57.14060216552734,25.0891110546875L57.150093165527345,25.0888580546875L57.16075516552734,25.0885710546875L57.161243165527345,25.0885580546875L82.20837416552735,25.0885580546875L82.20889316552734,25.0885730546875L82.22023816552735,25.0888980546875L82.23041516552735,25.0891890546875Q83.36251116552734,25.1215150546875,84.26164216552735,24.9045660546875Q87.10704016552734,24.2180120546875,87.61941516552734,21.0350470546875Q87.66032416552734,20.7808940546875,87.68635516552735,20.510922054687498Q87.69872316552734,20.3829190546875,87.70771016552735,20.2511270546875L87.70841216552735,20.2408990546875L87.70919816552734,20.2293590546875L87.70923616552734,20.228749054687498L87.78070816552734,19.4965850546875L83.60405716552734,19.4965850546875Q83.49729116552734,21.3226720546875,81.94197116552735,21.7791940546875Q81.42353016552734,21.9313680546875,80.74414816552735,21.9313680546875L61.13386516552735,21.9313680546875Q59.66440216552734,22.0357170546875,58.946796165527346,21.3127210546875Q58.85323716552735,21.2184600546875,58.77520716552734,21.1138780546875Q58.22903016552734,20.3818370546875,58.444134165527345,19.1444620546875L58.57690816552734,17.7845720546875L58.57694216552734,17.7842100546875L80.31514716552735,17.7842100546875L80.31566616552735,17.7842260546875L80.32773616552734,17.784593054687498L80.33850816552734,17.7849210546875Q85.12473316552735,17.9296360546875,85.44915816552735,13.1218080546875ZM61.28042216552734,19.3226720546875L59.972511165527344,19.3226720546875L59.96972316552734,19.3512260546875L59.96934516552734,19.3550910546875L59.96375616552734,19.3860110546875Q59.962303165527345,19.3940260546875,59.96081916552735,19.402442054687498L59.95986216552734,19.4079510546875Q59.87275316552734,19.9060700546875,59.972511165527344,20.1295620546875Q59.98569916552734,20.1591140546875,60.002159165527345,20.1838660546875Q60.018783165527346,20.2088600546875,60.03871516552734,20.228943054687498Q60.05938716552734,20.249770054687502,60.08485816552734,20.2681740546875Q60.33103516552735,20.4460430546875,61.02489116552734,20.3967700546875L61.046997165527344,20.3952010546875L61.076248165527346,20.3929050546875L61.07930716552735,20.3929050546875L80.25926216552735,20.3929060546875L80.74414816552735,20.3929060546875Q81.91130016552735,20.3929050546875,82.05365716552734,19.4965850546875Q82.07247916552734,19.3780970546875,82.07338716552735,19.243891054687502L82.07347916552735,19.229268054687502Q81.62388616552734,19.296265054687503,81.13337716552735,19.317924054687502Q80.73238416552735,19.3356310546875,80.30403916552734,19.3230380546875Q80.29743216552734,19.3228440546875,80.29178616552734,19.3226720546875L61.28042216552734,19.3226720546875ZM56.91816716552734,18.9415490546875L57.181301165527344,16.2457480546875L80.33972916552734,16.2457480546875L80.37596916552734,16.2468820546875Q83.69297816552735,16.3509280546875,83.91484816552735,13.0082740546875L83.91721316552734,12.9730701546875L84.38645916552734,8.1654806546875L55.13422816552735,8.1654806546875L54.027679165527346,19.5022290546875L54.02409316552735,19.5313360546875Q53.72736716552734,21.9392600546875,54.45724116552734,22.8263210546875Q55.09930816552735,23.6066510546875,57.107487165527345,23.5509830546875L57.139446165527346,23.5500960546875L82.23156716552734,23.5500960546875L82.26563216552735,23.5511000546875Q85.43318916552734,23.6446000546875,86.04389916552735,21.0350470546875L84.87451916552735,21.0350470546875Q84.04496016552734,23.4698300546875,80.74414816552735,23.4698300546875L61.185165165527344,23.4698300546875Q59.053379165527346,23.6040100546875,57.85487716552734,22.3965010546875Q56.56452216552734,21.0964560546875,56.91816716552734,18.9415490546875ZM81.06728316552734,25.9581260546875L73.42041016552734,25.9581260546875L73.35511816552734,26.6270200546875L82.18631716552734,26.6270200546875Q82.19285616552735,26.6272070546875,82.20072916552735,26.6274240546875Q82.34039316552735,26.6312810546875,82.47725716552735,26.6321640546875Q82.51237516552735,26.6323910546875,82.54724916552735,26.6324230546875L82.61305216552735,25.9581280546875L82.54785916552734,25.9581260546875L81.06728316552734,25.9581260546875ZM79.37135316552734,27.4965880546875L74.81601716552734,27.4965880546875L74.75072516552734,28.1654830546875L74.68021416552735,28.8878940546875L48.78512216552734,28.8878940546875L48.627125165527346,30.5066220546875L48.476963165527344,32.0450840546875L74.37205516552734,32.0450840546875L74.22188616552734,33.5835460546875L73.78340916552735,38.0758170546875Q73.72662316552734,40.8878900546875,70.89940616552734,40.8878900546875L66.73101816552735,40.8878900546875L66.60697216552734,42.1587940546875L66.45681016552734,43.6972580546875L74.28664416552735,43.6972580546875Q79.31170616552734,43.5396800546875,79.83717316552735,38.5575600546875Q79.84131616552735,38.5182840546875,79.84517716552735,38.4787100546875L80.47316016552735,32.0450840546875L87.07727816552735,32.0450840546875L87.23527516552734,30.4263550546875L87.38543716552735,28.8878940546875L80.78131816552734,28.8878940546875L80.85145616552734,28.1693380546875L80.85182916552735,28.1654820546875L80.91710616552734,27.4967350546875L80.91713716552735,27.4965900546875L80.78131816552734,27.4965880546875L79.37135316552734,27.4965880546875ZM76.21162416552734,29.0350470546875L79.22118416552735,29.0350470546875L79.08538016552734,30.4263550546875L85.68949916552734,30.4263550546875L85.68166316552734,30.5066220546875L79.07754516552734,30.5066220546875L78.31400316552734,38.3292660546875Q77.95262916552734,42.0316160546875,74.26139116552734,42.1587940546875L72.79406016552734,42.1587940546875Q75.23233816552734,41.3590890546875,75.32006816552735,38.1691170546875L76.06797816552735,30.5066220546875L50.172897165527345,30.5066220546875L50.180729165527346,30.4263550546875L76.07582116552734,30.4263550546875L76.21162416552734,29.0350470546875ZM52.655910165527345,33.262510054687496L52.77653516552734,33.5835460546875L60.650974165527344,33.5835460546875L60.45586016552734,33.262510054687496L54.29938516552734,33.2625080546875L52.72709616552734,33.2625080546875L52.655910165527345,33.262510054687496ZM59.58416416552734,34.8009700546875L54.85302316552735,34.8009700546875Q54.90573916552734,34.9611700546875,54.956421165527345,35.1220070546875Q55.14654916552735,35.7253550546875,55.308597165527345,36.3394320546875Q55.77765616552735,38.1169170546875,56.011345165527345,39.9840050546875Q56.02600116552734,40.1010930546875,56.039783165527346,40.2190320546875L61.68511616552735,40.2190320546875Q61.492199165527346,39.4268450546875,61.257717165527346,38.6805650546875Q60.65692516552734,36.7684590546875,59.78332916552734,35.1580280546875Q59.773441165527345,35.1397990546875,59.763737165527345,35.1220070546875Q59.67530816552734,34.9599070546875,59.58416416552734,34.8009700546875ZM56.89677016552734,36.3394320546875Q57.18368916552734,37.4927020546875,57.377621165527344,38.6805650546875L59.639252165527346,38.6805650546875Q59.215874165527346,37.4349020546875,58.664966165527346,36.3394320546875L56.89677016552734,36.3394320546875ZM64.20967516552734,37.8109660546875L70.71770516552735,37.8109660546875L70.98017116552734,35.1220070546875L63.19554516552734,35.1220070546875Q63.76958416552734,36.3997760546875,64.20967516552734,37.8109660546875ZM80.22583816552735,15.1718980546875Q81.31092116552735,14.1826763546875,81.47351816552734,12.5167713546875L81.89040416552734,8.2457742546875L57.962112165527344,8.2457742546875L57.18908716552735,16.165507054687502L77.45983916552734,16.165507054687502Q79.13591716552735,16.165507054687502,80.22583816552735,15.1718980546875ZM78.49852716552735,11.322697654687499L78.41114816552735,12.217868854687499Q78.40819516552735,12.2482595546875,78.40456416552735,12.2777361546875Q78.35553016552734,12.6758537546875,78.18942216552735,12.8611593546875Q78.17180616552734,12.8808078546875,78.15289316552735,12.8980503546875Q78.12677016552735,12.9218635546875,78.09635916552735,12.9427003546875Q77.88340716552734,13.0885839546875,77.45983916552734,13.0885839546875L60.58095916552735,13.0885839546875L60.73112916552734,11.550122254687501L60.75332616552734,11.322698154687501L78.49853516552734,11.322698154687501L78.49852716552735,11.322697654687499ZM78.64869716552734,9.7842364546875L80.19446516552735,9.7842364546875L80.04430416552735,11.322697654687499L79.94233716552735,12.3673248546875Q79.93576016552734,12.4346790546875,79.92707816552735,12.5000548546875Q79.79673016552735,13.4812774546875,79.18936916552734,14.0349712546875Q78.53990916552735,14.6270456546875,77.45983916552734,14.6270456546875L58.885025165527345,14.6270456546875L59.03519016552735,13.0885839546875L59.35771916552734,9.7842364546875L78.64869716552734,9.7842364546875Z" fill-rule="evenodd" fill="#FFFFFF" fill-opacity="1"/></g></svg>