<svg xmlns="http://www.w3.org/2000/svg" xmlns:xlink="http://www.w3.org/1999/xlink" fill="none" version="1.1" width="16.8" height="1" viewBox="0 0 18.300573348999023 2.5"><path d="M17.550573,0.5L0.75,0.5Q0.676131457,0.5000000099999999,0.60368228,0.51441106Q0.53123312,0.52882209,0.46298748,0.5570903700000001Q0.39474183,0.58535863,0.33332238,0.6263978Q0.27190292,0.667436965,0.21966993999999995,0.719669923Q0.16743702000000005,0.77190287,0.12639785000000003,0.833322316Q0.08535868000000002,0.89474177,0.057090399999999986,0.96298741Q0.02882211999999995,1.03123304,0.01441108999999996,1.10368222Q0,1.1761314299999999,0,1.25Q0,1.32386851,0.01441108999999996,1.3963177199999999Q0.02882211999999995,1.4687669300000001,0.057090399999999986,1.53701252Q0.08535868000000002,1.60525817,0.12639785000000003,1.66667759Q0.16743702000000005,1.72809708,0.21966993999999995,1.7803301Q0.27190292,1.8325629,0.33332238,1.8736022Q0.39474183,1.9146414,0.46298748,1.9429096Q0.53123312,1.9711778,0.60368228,1.985589Q0.676131457,2,0.75,2L17.550573,2Q17.624443,2,17.69689,1.9855889Q17.769341,1.9711778,17.837585,1.9429096Q17.90583,1.9146414,17.967251,1.8736022Q18.028669,1.8325629,18.080902,1.7803301Q18.133135,1.72809708,18.174173,1.66667765Q18.215214,1.60525817,18.243481,1.53701252Q18.271749,1.4687669300000001,18.286161,1.3963177199999999Q18.300571,1.32386851,18.300573,1.25Q18.300571,1.1761314299999999,18.286161,1.10368222Q18.271749,1.03123304,18.243481,0.96298739Q18.215214,0.89474176,18.174173,0.833322309Q18.133135,0.771902867,18.080902,0.719669916Q18.028669,0.667436965,17.967249,0.6263978Q17.90583,0.58535863,17.837585,0.5570903700000001Q17.769341,0.52882209,17.69689,0.51441106Q17.624443,0.5000000099999999,17.550573,0.5Z" fill-rule="evenodd" fill="#F23346" fill-opacity="1"/></svg>