<svg xmlns="http://www.w3.org/2000/svg" xmlns:xlink="http://www.w3.org/1999/xlink" fill="none" version="1.1" width="94" height="41" viewBox="0 0 94.00236511230469 41"><defs><filter id="master_svg0_0_2059" filterUnits="objectBoundingBox" color-interpolation-filters="sRGB" x="0" y="0" width="1" height="1"><feFlood flood-opacity="0" result="BackgroundImageFix"/><feBlend mode="normal" in="SourceGraphic" in2="BackgroundImageFix" result="shape"/><feColorMatrix in="SourceAlpha" type="matrix" result="hardAlpha" values="0 0 0 0 0 0 0 0 0 0 0 0 0 0 0 0 0 0 127 0"/><feOffset dy="1" dx="0"/><feGaussianBlur stdDeviation="1.5"/><feComposite in2="hardAlpha" operator="arithmetic" k2="-1" k3="1"/><feColorMatrix type="matrix" values="0 0 0 0 1 0 0 0 0 0.9675249457359314 0 0 0 0 0.9287347793579102 0 0 0 0.8492133021354675 0"/><feBlend mode="normal" in2="shape" result="effect1_innerShadow"/></filter><linearGradient x1="1.0717071294784546" y1="0.4879183769226074" x2="-0.046366505324840546" y2="0.4879183769226074" id="master_svg1_0_1156"><stop offset="0%" stop-color="#FFDBA6" stop-opacity="1"/><stop offset="16.277945041656494%" stop-color="#EEB977" stop-opacity="1"/><stop offset="41.19586944580078%" stop-color="#E5A656" stop-opacity="1"/><stop offset="80.40425181388855%" stop-color="#E2AF68" stop-opacity="1"/><stop offset="91.46380424499512%" stop-color="#FFFAF3" stop-opacity="1"/><stop offset="100%" stop-color="#FFEDCB" stop-opacity="1"/></linearGradient><linearGradient x1="0.9210543036460876" y1="0.42105433344841003" x2="-0.08278251229067242" y2="0.45120602336451565" id="master_svg2_0_1160"><stop offset="0%" stop-color="#FFFFFF" stop-opacity="1"/><stop offset="100%" stop-color="#FFFFFF" stop-opacity="0.5919197797775269"/></linearGradient></defs><g filter="url(#master_svg0_0_2059)"><path d="M10.071682,-8.8497413e-14L80.002365,1.0606201e-13C87.734352,1.2757376e-13,94.002365,6.268013,94.002365,14C94.002365,21.731987,87.734352,28,80.002365,28L7.9088974,28C4.5094376,28,1.618422,30.480257,1.1015098,33.840187L-2.7170974e-14,41L3.1543485e-13,10.071681C3.7705228e-13,4.5092454,4.5092454,-1.0397308e-13,10.071682,-8.8497406e-14" fill-rule="evenodd" fill="url(#master_svg1_0_1156)" fill-opacity="1"/><path d="M1.1015098,33.840187L1,34.5L0,41L0,10.071681C0,4.5092454,4.5092454,0,10.071682,0L80.002365,0C87.734352,0,94.002365,6.268013,94.002365,14C94.002365,21.731987,87.734352,28,80.002365,28L7.9088974,28C4.5094376,28,1.618422,30.480257,1.1015098,33.840187ZM10.071682,1Q6.3140678,1,3.6570339,3.6570339Q1,6.3140678,1,10.071681L1,31.048693Q1.6650147,29.85182,2.7731175,28.901157Q4.9891257,27,7.9088974,27L80.002365,27Q85.387146,27,89.194756,23.192389Q93.002365,19.384781,93.002365,14Q93.002365,8.615221,89.194756,4.8076115Q85.387146,1,80.002365,1L10.071682,1Z" fill-rule="evenodd" fill="url(#master_svg2_0_1160)" fill-opacity="1"/></g></svg>