<svg xmlns="http://www.w3.org/2000/svg" xmlns:xlink="http://www.w3.org/1999/xlink" fill="none" version="1.1" width="93.32" height="41" viewBox="0 0 93.32366943359375 41"><defs><filter id="master_svg0_0_1918" filterUnits="objectBoundingBox" color-interpolation-filters="sRGB" x="0" y="0" width="1" height="1"><feFlood flood-opacity="0" result="BackgroundImageFix"/><feBlend mode="normal" in="SourceGraphic" in2="BackgroundImageFix" result="shape"/><feColorMatrix in="SourceAlpha" type="matrix" result="hardAlpha" values="0 0 0 0 0 0 0 0 0 0 0 0 0 0 0 0 0 0 127 0"/><feOffset dy="1" dx="0"/><feGaussianBlur stdDeviation="1.5"/><feComposite in2="hardAlpha" operator="arithmetic" k2="-1" k3="1"/><feColorMatrix type="matrix" values="0 0 0 0 1 0 0 0 0 0.9675249457359314 0 0 0 0 0.9287347793579102 0 0 0 0.8492133021354675 0"/><feBlend mode="normal" in2="shape" result="effect1_innerShadow"/></filter><linearGradient x1="1.0717071294784546" y1="0.4879183769226074" x2="-0.046366505324840546" y2="0.4879183769226074" id="master_svg1_0_1156"><stop offset="0%" stop-color="#FFDBA6" stop-opacity="1"/><stop offset="16.277945041656494%" stop-color="#EEB977" stop-opacity="1"/><stop offset="41.19586944580078%" stop-color="#E5A656" stop-opacity="1"/><stop offset="80.40425181388855%" stop-color="#E2AF68" stop-opacity="1"/><stop offset="91.46380424499512%" stop-color="#FFFAF3" stop-opacity="1"/><stop offset="100%" stop-color="#FFEDCB" stop-opacity="1"/></linearGradient><linearGradient x1="0.9210543036460876" y1="0.42105433344841003" x2="-0.08282506900729689" y2="0.4516474708467464" id="master_svg2_0_1160"><stop offset="0%" stop-color="#FFFFFF" stop-opacity="1"/><stop offset="100%" stop-color="#FFFFFF" stop-opacity="0.5919197797775269"/></linearGradient></defs><g filter="url(#master_svg0_0_1918)"><path d="M9.9989643,8.2559158e-15L79.323669,8.7334117e-13C87.055656,9.6982665e-13,93.323669,6.268013,93.323669,14C93.323669,21.731987,87.055656,28,79.323669,28L7.8653078,28C4.4909248,28,1.6212369,30.46196,1.1081378,33.797104L-2.7170974e-14,41L3.1624036e-13,9.9989643C3.7741289e-13,4.4766884,4.4766884,-6.0655155e-14,9.9989643,8.2559149e-15" fill-rule="evenodd" fill="url(#master_svg1_0_1156)" fill-opacity="1"/><path d="M1.1081378,33.797104L1,34.5L0,41L0,9.9989643C0,4.4766884,4.4766884,0,9.9989643,0L79.323669,0C87.055656,0,93.323669,6.268013,93.323669,14C93.323669,21.731987,87.055656,28,79.323669,28L7.8653078,28C4.4909248,28,1.6212369,30.46196,1.1081378,33.797104ZM9.9989643,0.9999994Q6.271471,0.9999994,3.6357353,3.6357353Q1,6.2714705,1,9.9989643L1,31.02426Q1.6608845,29.834101,2.7626109,28.888908Q4.964344,27,7.8653083,27L79.323669,27Q84.70845,27,88.516068,23.192389Q92.323669,19.384781,92.323669,14Q92.323669,8.6152191,88.516068,4.8076119Q84.70845,1,79.323669,1L9.9989643,0.9999994Z" fill-rule="evenodd" fill="url(#master_svg2_0_1160)" fill-opacity="1"/></g></svg>