<svg xmlns="http://www.w3.org/2000/svg" xmlns:xlink="http://www.w3.org/1999/xlink" fill="none" version="1.1" width="331" height="38" viewBox="0 0 331 38"><defs><linearGradient x1="0.5" y1="1" x2="0.5" y2="1.734723475976807e-17" id="master_svg0_0_122"><stop offset="0%" stop-color="#FFFFFF" stop-opacity="1"/><stop offset="46.49937152862549%" stop-color="#FBFDFF" stop-opacity="1"/><stop offset="100%" stop-color="#F3F8FF" stop-opacity="1"/></linearGradient><linearGradient x1="1" y1="0.5" x2="0.11128184754885972" y2="0.5002891277479193" id="master_svg1_0_124"><stop offset="0%" stop-color="#6CB0FF" stop-opacity="0"/><stop offset="54.711270332336426%" stop-color="#D9E9FF" stop-opacity="0.7271907925605774"/><stop offset="100%" stop-color="#DEEBFF" stop-opacity="0"/></linearGradient></defs><path d="M8.000001,10.622727L19.484669,10.622727C24.795927,10.622727,29.935415,8.7409439,33.990959,5.3113637C38.046501,1.8817832,43.185993,3.053946e-15,48.49725,2.8531235e-15L323,-7.5260199e-15C327.41827,-7.6930785e-15,331,3.5817223,331,8.000001L331,29.999998C331,34.418278,327.41827,38,323,38L8.0000076,38C3.5817223,38,-9.0144888e-16,34.418278,-2.0134428e-15,30L-4.8768786e-15,18.622728C-5.9888728e-15,14.20445,3.5817223,10.622727,8.000001,10.622727" fill-rule="evenodd" fill="url(#master_svg0_0_122)" fill-opacity="1"/><path d="M8.000001,10.622727L19.484669,10.622727C24.795927,10.622727,29.935415,8.7409439,33.990959,5.3113637C38.046501,1.8817832,43.185993,0,48.49725,0L323,0C327.41827,0,331,3.5817223,331,8.000001L331,29.999998C331,34.418278,327.41827,38,323,38L8.0000076,38C3.5817223,38,0,34.418278,0,30L0,18.622728C0,14.20445,3.5817223,10.622727,8.000001,10.622727ZM8.0000019,11.622728Q5.1005054,11.622728,3.0502529,13.67298Q1,15.723234,1,18.62273L1,30Q1,32.899498,3.0502534,34.949749Q5.1005073,37,8.0000076,37L323,37Q325.89951,37,327.94977,34.949749Q330,32.899498,330,29.999998L330,8.0000019Q330,5.1005049,327.94977,3.0502529Q325.89951,1,323,1L48.49725,1Q40.637886,1,34.636681,6.0749397Q28.076309,11.622728,19.484669,11.622728L8.0000019,11.622728Z" fill-rule="evenodd" fill="url(#master_svg1_0_124)" fill-opacity="1"/></svg>