<svg xmlns="http://www.w3.org/2000/svg" xmlns:xlink="http://www.w3.org/1999/xlink" fill="none" version="1.1" width="82" height="41" viewBox="0 0 82.00236511230469 41"><defs><filter id="master_svg0_0_1957" filterUnits="objectBoundingBox" color-interpolation-filters="sRGB" x="0" y="0" width="1" height="1"><feFlood flood-opacity="0" result="BackgroundImageFix"/><feBlend mode="normal" in="SourceGraphic" in2="BackgroundImageFix" result="shape"/><feColorMatrix in="SourceAlpha" type="matrix" result="hardAlpha" values="0 0 0 0 0 0 0 0 0 0 0 0 0 0 0 0 0 0 127 0"/><feOffset dy="1" dx="0"/><feGaussianBlur stdDeviation="1.5"/><feComposite in2="hardAlpha" operator="arithmetic" k2="-1" k3="1"/><feColorMatrix type="matrix" values="0 0 0 0 1 0 0 0 0 0.9675249457359314 0 0 0 0 0.9287347793579102 0 0 0 0.8492133021354675 0"/><feBlend mode="normal" in2="shape" result="effect1_innerShadow"/></filter><linearGradient x1="1.0717071294784546" y1="0.4879183769226074" x2="-0.046366505324840546" y2="0.4879183769226074" id="master_svg1_0_1156"><stop offset="0%" stop-color="#FFDBA6" stop-opacity="1"/><stop offset="16.277945041656494%" stop-color="#EEB977" stop-opacity="1"/><stop offset="41.19586944580078%" stop-color="#E5A656" stop-opacity="1"/><stop offset="80.40425181388855%" stop-color="#E2AF68" stop-opacity="1"/><stop offset="91.46380424499512%" stop-color="#FFFAF3" stop-opacity="1"/><stop offset="100%" stop-color="#FFEDCB" stop-opacity="1"/></linearGradient><linearGradient x1="0.9210543036460876" y1="0.42105433344841003" x2="-0.08361253176951619" y2="0.46070910106304686" id="master_svg2_0_1160"><stop offset="0%" stop-color="#FFFFFF" stop-opacity="1"/><stop offset="100%" stop-color="#FFFFFF" stop-opacity="0.5919197797775269"/></linearGradient></defs><g filter="url(#master_svg0_0_1957)"><path d="M8.7859678,-8.4702454e-14L68.002365,1.2973463e-13C75.734352,1.5773404e-13,82.002365,6.268013,82.002365,14C82.002365,21.731987,75.734352,28,68.002365,28L7.1381917,28C4.1821275,28,1.6681918,30.156752,1.2187011,33.078442L-2.7170974e-14,41L3.2967723e-13,8.7859688C3.834288e-13,3.9336114,3.9336114,-1.0227402e-13,8.7859678,-8.4702454e-14" fill-rule="evenodd" fill="url(#master_svg1_0_1156)" fill-opacity="1"/><path d="M1.2187011,33.078442L1,34.5L0,41L0,8.7859688C0,3.9336114,3.9336114,0,8.7859678,0L68.002365,0C75.734352,0,82.002365,6.268013,82.002365,14C82.002365,21.731987,75.734352,28,68.002365,28L7.1381917,28C4.1821275,28,1.6681918,30.156752,1.2187011,33.078442ZM8.7859678,1Q5.5609145,1,3.2804573,3.2804573Q1,5.5609145,1,8.7859688L1,30.616863Q1.59191,29.53863,2.5873508,28.684622Q4.5509658,27,7.1381922,27L68.002365,27Q73.387146,27,77.194756,23.192389Q81.002365,19.384777,81.002365,14Q81.002365,8.6152248,77.194756,4.8076115Q73.387146,1,68.002365,1L8.7859678,1Z" fill-rule="evenodd" fill="url(#master_svg2_0_1160)" fill-opacity="1"/></g></svg>