<svg xmlns="http://www.w3.org/2000/svg" xmlns:xlink="http://www.w3.org/1999/xlink" fill="none" version="1.1" width="323" height="168" viewBox="0 0 323 168"><defs><linearGradient x1="0.5" y1="1" x2="0.5" y2="1.734723475976807e-17" id="master_svg0_0_122"><stop offset="0%" stop-color="#FFFFFF" stop-opacity="1"/><stop offset="46.49937152862549%" stop-color="#FBFDFF" stop-opacity="1"/><stop offset="100%" stop-color="#F3F8FF" stop-opacity="1"/></linearGradient><linearGradient x1="0.5888329744338989" y1="0.043873801827430725" x2="0.5888329744338989" y2="1" id="master_svg1_0_1588"><stop offset="0%" stop-color="#6CB0FF" stop-opacity="0.0633741244673729"/><stop offset="100%" stop-color="#DEEBFF" stop-opacity="1"/></linearGradient></defs><path d="M12.800002,-7.0754017e-14L310.19998,-7.0754017e-14C314.68042,-7.0754017e-14,316.97128,0.0090700388,318.67645,0.89294559C320.14417,1.6537329,321.34625,2.8558278,322.10706,4.3235397C322.99094,6.0287066,323,8.3195744,323,12.800002L323,155.2C323,159.68042,322.99094,161.97128,322.10706,163.67645C321.34625,165.14417,320.14417,166.34627,318.67645,167.10706C316.97128,167.99094,314.68042,168,310.20001,168L12.800007,168C8.3195744,168,6.0287137,167.99094,4.3235397,167.10706C2.8558278,166.34627,1.6537329,165.14417,0.89294559,163.67645C0.0090700388,161.97128,-9.2897576e-15,159.68042,-1.429267e-14,155.2L-1.7329859e-13,12.799999C-1.7830151e-13,8.3195744,0.00906986,6.0287142,0.89294559,4.3235397C1.6537329,2.8558278,2.8558278,1.6537329,4.3235397,0.89294559C6.0287142,0.00906986,8.3195744,-7.0754017e-14,12.800002,-7.0754017e-14" fill-rule="evenodd" fill="url(#master_svg0_0_122)" fill-opacity="1"/><path d="M12.800002,0L310.19998,0C314.68042,0,316.97128,0.0090700388,318.67645,0.89294559C320.14417,1.6537329,321.34625,2.8558278,322.10706,4.3235397C322.99094,6.0287066,323,8.3195744,323,12.800002L323,155.2C323,159.68042,322.99094,161.97128,322.10706,163.67645C321.34625,165.14417,320.14417,166.34627,318.67645,167.10706C316.97128,167.99094,314.68042,168,310.20001,168L12.800007,168C8.3195744,168,6.0287137,167.99094,4.3235397,167.10706C2.8558278,166.34627,1.6537329,165.14417,0.89294559,163.67645C0.0090700388,161.97128,0,159.68042,0,155.2L0,12.799999C0,8.3195744,0.00906986,6.0287142,0.89294559,4.3235397C1.6537329,2.8558278,2.8558278,1.6537329,4.3235397,0.89294559C6.0287142,0.00906986,8.3195744,0,12.800002,0ZM12.800002,0.50000018Q8.9149399,0.50000012,7.5627913,0.61327422Q5.6385889,0.77447116,4.5536394,1.3368537Q2.4350321,2.4350324,1.3368537,4.5536394Q0.77447116,5.6385894,0.6132741,7.5627913Q0.5,8.9149389,0.5,12.799999L0.50000018,155.2Q0.50000018,159.08505,0.61327428,160.43721Q0.77447098,162.3614,1.3368537,163.44635Q2.435045,165.56499,4.5536408,166.66315Q5.6385913,167.22554,7.5627928,167.38673Q8.914917,167.5,12.800007,167.5L310.20001,167.5Q314.08508,167.5,315.43719,167.38673Q317.36139,167.22554,318.44635,166.66315Q320.56494,165.565,321.66315,163.44635Q322.22552,162.36142,322.38672,160.43721Q322.5,159.08498,322.5,155.2L322.5,12.800002Q322.5,8.915019,322.38672,7.562789Q322.22552,5.6385717,321.66315,4.5536432Q320.56494,2.4350219,318.44635,1.336854Q317.36139,0.7744714,315.43719,0.61327422Q314.08505,0.5,310.20001,0.5L12.800002,0.50000018Z" fill-rule="evenodd" fill="url(#master_svg1_0_1588)" fill-opacity="1"/></svg>