<svg xmlns="http://www.w3.org/2000/svg" xmlns:xlink="http://www.w3.org/1999/xlink" fill="none" version="1.1" width="97" height="140" viewBox="0 0 97 140"><defs><linearGradient x1="0.5" y1="4.996003610813204e-16" x2="0.5" y2="1" id="master_svg0_0_1385"><stop offset="0%" stop-color="#E0EFFF" stop-opacity="1"/><stop offset="26.936736702919006%" stop-color="#E0EFFF" stop-opacity="1"/><stop offset="27.018141746520996%" stop-color="#FFFFFF" stop-opacity="1"/><stop offset="100%" stop-color="#F1F8FF" stop-opacity="1"/></linearGradient></defs><path d="M9.6000013,5.7829568e-14L87.399994,5.7829568e-14C90.760323,5.7829568e-14,92.47847,0.0068025589,93.757347,0.66970932C94.858131,1.2402999,95.759697,2.1418712,96.330292,3.2426553C96.993202,4.521534,97,6.2396812,97,9.6000013L97,130.39999C97,133.76031,96.993202,135.47845,96.330292,136.75734C95.759697,137.85812,94.858131,138.7597,93.757347,139.33029C92.478462,139.99319,90.760323,140,87.400002,140L9.6000032,140C6.2396812,140,4.5215368,139.99319,3.2426548,139.33029C2.141871,138.7597,1.2402997,137.85812,0.66970921,136.75734C0.0068025589,135.47845,6.4967893e-16,133.76031,9.9955775e-16,130.39999L1.3577323e-14,9.6000032C1.3927202e-14,6.2396812,0.0068024397,4.5215359,0.66970921,3.2426553C1.2402997,2.1418712,2.141871,1.2402999,3.2426548,0.66970932C4.5215354,0.0068023801,6.2396812,5.7829568e-14,9.6000013,5.7829568e-14" fill-rule="evenodd" fill="url(#master_svg0_0_1385)" fill-opacity="1"/></svg>