<svg xmlns="http://www.w3.org/2000/svg" xmlns:xlink="http://www.w3.org/1999/xlink" fill="none" version="1.1" width="12" height="12" viewBox="0 0 12 12"><defs><linearGradient x1="0.3348369002342224" y1="-0.33774128556251526" x2="0.826451003551483" y2="1.2023022174835205" id="master_svg0_0_844"><stop offset="0%" stop-color="#6E96E5" stop-opacity="1"/><stop offset="100%" stop-color="#425892" stop-opacity="1"/></linearGradient></defs><g><path d="M6,0C2.676923,0,0,2.676923,0,6C0,9.3230772,2.676923,12,6,12C9.3230772,12,12,9.3230772,12,6C12,2.676923,9.3230772,0,6,0ZM6.0000033,11.076941C3.1846189,11.076941,0.92308044,8.815403,0.92308044,6.0000186C0.92308044,3.1846342,3.1846189,0.9230957,6.0000033,0.9230957C8.8153877,0.9230957,11.076926,3.1846342,11.076926,6.0000186C11.076926,8.815403,8.8153877,11.076941,6.0000033,11.076941ZM5.953846,6.7845907L8.3999996,3.8768988C8.5846157,3.6461296,8.8615379,3.6461296,9.092308,3.830745C9.2769232,3.9692063,9.3230762,4.2922835,9.1384621,4.4768987L6.6923075,7.3845911C6.4153843,7.7076678,6,7.8922834,5.5846152,7.8922834C5.2615385,7.8922834,4.9384613,7.7999759,4.7076921,7.6153603L2.953846,6.2768984C2.7692306,6.1384373,2.7230768,5.8153601,2.8615384,5.6307449C3,5.4461293,3.3230767,5.3999758,3.5076923,5.5384369L5.2615385,6.8768988C5.4461536,7.0153604,5.7692308,6.9692063,5.953846,6.7845907Z" fill-rule="evenodd" fill="url(#master_svg0_0_844)" fill-opacity="1"/></g></svg>