<svg xmlns="http://www.w3.org/2000/svg" xmlns:xlink="http://www.w3.org/1999/xlink" fill="none" version="1.1" width="240" height="62" viewBox="0 0 243.5 65.5"><path d="M187.31638,22.685108L238.23717,5.71151251Q238.30724,5.68815321,238.3714,5.65157121Q238.43558,5.61498928,238.49138,5.56659043Q238.54718,5.5181916399999995,238.59247,5.45983595Q238.63776,5.40148026,238.67081,5.33541021Q238.70383,5.26934016,238.72334,5.19809483Q238.74286,5.12684949,238.74809,5.053166777Q238.75333,4.979484068,238.74409,4.906195566Q238.73486,4.83290705,238.71152,4.76282918Q238.66434,4.62130171,238.56657,4.50860044Q238.46884,4.39589918,238.33542,4.32918167Q238.20198,4.26246309,238.05318,4.25188702Q237.90436,4.24131095,237.76283,4.28848749L186.68362,21.31489L138.74648,50.276917L93.915504,56.182297L48.980782,60.451889L4.032645851,58.493538Q3.88360326,58.487038,3.74342081,58.538071Q3.60323834,58.589111,3.49325746,58.689911Q3.38327616,58.79071,3.32024038,58.925922Q3.25720453,59.061134,3.25071084,59.210182Q3.24749553,59.283981,3.25873935,59.356987Q3.2699832300000002,59.429993,3.29525411,59.499405Q3.32052505,59.568817,3.3588518499999998,59.631966Q3.39717865,59.695114,3.44708848,59.749573Q3.49699837,59.804031,3.55657324,59.847702Q3.61614814,59.891373,3.68309864,59.922585Q3.75004914,59.953796,3.82180238,59.971348Q3.89355562,59.988899,3.967354149,59.992119L49.019241,61.954987L94.084473,57.672997L139.25352,51.723083L187.31638,22.685108Z" fill-rule="evenodd" fill="#F23346" fill-opacity="1"/><path d="M94.084473,57.6729994L139.09796,51.74357671Q139.24585,51.72409368,139.37505,51.64949268Q139.50424,51.57489169,139.59505,51.45652995Q139.68585,51.33816743,139.72446,51.19406325Q139.76306,51.04995909,139.74358,50.902051993Q139.72409,50.75414532,139.64948,50.62495321Q139.57487,50.49576116,139.45651,50.40495199Q139.33815,50.314142939999996,139.19406,50.2755416Q139.04996,50.23694026,138.90205,50.25642329L93.915535,56.1822953L48.980762,60.451886200000004L4.032645807,58.4935398Q3.88360297,58.4870458,3.74342033,58.5380826Q3.60323769,58.5891194,3.49325669,58.6899171Q3.38327569,58.7907143,3.32024002,58.925927200000004Q3.25720441,59.0611401,3.2507107299999998,59.2101831Q3.24749541,59.2839813,3.25873929,59.356988Q3.26998317,59.429995500000004,3.29525405,59.4994068Q3.32052493,59.568819,3.35885179,59.6319666Q3.39717865,59.6951141,3.44708848,59.749572799999996Q3.49699837,59.8040295,3.55657327,59.847702Q3.6161481699999998,59.8913765,3.68309867,59.9225883Q3.75004917,59.9538002,3.82180242,59.9713516Q3.89355566,59.988903,3.967354193,59.9921188L49.019245,61.954986L94.084473,57.6729994Z" fill-rule="evenodd" fill="#4175F1" fill-opacity="1"/><ellipse cx="4.5" cy="59" rx="3" ry="3" fill="#497AED" fill-opacity="1"/><ellipse cx="4.5" cy="59" rx="3.75" ry="3.75" fill-opacity="0" stroke-opacity="1" stroke="#FFFFFF" fill="none" stroke-width="1.5"/><ellipse cx="49.5" cy="61" rx="3" ry="3" fill="#497AED" fill-opacity="1"/><ellipse cx="49.5" cy="61" rx="3.75" ry="3.75" fill-opacity="0" stroke-opacity="1" stroke="#FFFFFF" fill="none" stroke-width="1.5"/><ellipse cx="92.5" cy="57" rx="3" ry="3" fill="#497AED" fill-opacity="1"/><ellipse cx="92.5" cy="57" rx="3.75" ry="3.75" fill-opacity="0" stroke-opacity="1" stroke="#FFFFFF" fill="none" stroke-width="1.5"/><ellipse cx="138.5" cy="51" rx="3" ry="3" fill="#497AED" fill-opacity="1"/><ellipse cx="138.5" cy="51" rx="3.75" ry="3.75" fill-opacity="0" stroke-opacity="1" stroke="#FFFFFF" fill="none" stroke-width="1.5"/><ellipse cx="186.5" cy="22" rx="3" ry="3" fill="#F23346" fill-opacity="1"/><ellipse cx="186.5" cy="22" rx="4" ry="4" fill-opacity="0" stroke-opacity="1" stroke="#FFFFFF" fill="none" stroke-width="2"/><ellipse cx="238.5" cy="5" rx="3" ry="3" fill="#F23346" fill-opacity="1"/><ellipse cx="238.5" cy="5" rx="4" ry="4" fill-opacity="0" stroke-opacity="1" stroke="#FFFFFF" fill="none" stroke-width="2"/></svg>