<svg xmlns="http://www.w3.org/2000/svg" xmlns:xlink="http://www.w3.org/1999/xlink" fill="none" version="1.1" width="157" height="44" viewBox="0 0 157 44"><defs><linearGradient x1="0.5" y1="-0.05844811350107193" x2="0.5" y2="1.0342849493026733" id="master_svg0_0_401"><stop offset="0%" stop-color="#FCE4C1" stop-opacity="1"/><stop offset="21.784374117851257%" stop-color="#E6AB63" stop-opacity="1"/><stop offset="41.19586944580078%" stop-color="#D89A4B" stop-opacity="1"/><stop offset="76.39853954315186%" stop-color="#E2AF68" stop-opacity="1"/><stop offset="100%" stop-color="#FFEDCB" stop-opacity="1"/></linearGradient><linearGradient x1="0.5" y1="0" x2="0.5" y2="1" id="master_svg1_0_404"><stop offset="0%" stop-color="#FFFFFF" stop-opacity="1"/><stop offset="100%" stop-color="#F4B053" stop-opacity="1"/></linearGradient><filter id="master_svg2_0_1764" filterUnits="objectBoundingBox" color-interpolation-filters="sRGB" x="-0.018133333524068197" y="-0.08242424329121907" width="1.0362666670481364" height="1.1648484865824382"><feFlood flood-opacity="0" result="BackgroundImageFix"/><feBlend mode="normal" in="SourceGraphic" in2="BackgroundImageFix" result="shape"/><feGaussianBlur stdDeviation="0.6800000071525574" result="effect1_foregroundBlur"/></filter><linearGradient x1="0.5" y1="-0.05118248984217644" x2="0.5" y2="0.4611344039440155" id="master_svg3_0_407"><stop offset="0%" stop-color="#FFFFFF" stop-opacity="1"/><stop offset="26.014387607574463%" stop-color="#FFFFFF" stop-opacity="0.353939026594162"/><stop offset="50.244539976119995%" stop-color="#FFFFFF" stop-opacity="0.12158544361591339"/><stop offset="100%" stop-color="#FFFFFF" stop-opacity="0"/></linearGradient></defs><path d="M0 8C4.90527396329193e-16 3.5817220013536524 3.5817220013536533 0 8 0L149 0C153.41827799864635 0 157 3.5817220013536533 157 8L157 36C157 40.418277998646346 153.41827799864635 44 149 44L8 44C3.5817220013536533 44 0 40.418277998646346 0 36Z" fill="url(#master_svg0_0_401)" fill-opacity="1"/><path d="M0.5 8.5C0.500000000000001 4.0817220013536515 4.081722001353653 0.5 8.5 0.5L148.5 0.5C152.91827799864635 0.5 156.5 4.081722001353653 156.5 8.5L156.5 35.5C156.5 39.918277998646346 152.91827799864635 43.5 148.5 43.5L8.5 43.5C4.081722001353653 43.5 0.5 39.918277998646346 0.5 35.5Z" stroke="url(#master_svg1_0_404)" fill-opacity="0" fill="none" stroke-width="1"/><path d="M3.932459592819214 9.028704404830933C3.932459592819214 5.714995905846172 6.618751093834454 3.0287044048309326 9.932459592819214 3.0287044048309326L147.9324595928192 3.0287044048309326C151.24616809180398 3.0287044048309326 153.9324595928192 5.714995905846172 153.9324595928192 9.028704404830933L153.9324595928192 36.02870440483093C153.9324595928192 36.02870440483093 153.9324595928192 36.02870440483093 153.9324595928192 36.02870440483093L3.932459592819214 36.02870440483093C3.932459592819214 36.02870440483093 3.932459592819214 36.02870440483093 3.932459592819214 36.02870440483093Z" fill="url(#master_svg3_0_407)" fill-opacity="1" filter="url(#master_svg2_0_1764)"/></svg>