<svg xmlns="http://www.w3.org/2000/svg" xmlns:xlink="http://www.w3.org/1999/xlink" fill="none" version="1.1" width="41.07" height="10.59" viewBox="0 0 41.07318115234375 10.5872802734375"><defs><linearGradient x1="1" y1="0.5" x2="0" y2="0.5" id="master_svg0_0_1110"><stop offset="0%" stop-color="#A8CBFF" stop-opacity="1"/><stop offset="35.49155592918396%" stop-color="#D9E5F6" stop-opacity="1"/><stop offset="50.44822692871094%" stop-color="#FFF9EF" stop-opacity="1"/><stop offset="100%" stop-color="#FCA1A7" stop-opacity="1"/></linearGradient></defs><path d="M41.63360435234375,6.316548342578125L43.91713785234375,9.006388642578125C44.77668665234375,10.018874642578124,45.22412635234375,10.540724642578125,45.60013485234375,10.581577642578125C45.90926935234375,10.615163642578125,46.22509335234375,10.499183642578124,46.43902015234375,10.273512642578124C46.69012355234375,10.008624642578125,46.702043052343754,9.359207142578125,46.70256905234375,8.120510142578125Q54.622908152343754,6.792315942578125,61.60977015234375,6.792315942578125Q68.59663215234374,6.792315942578125,76.51697515234375,8.120511042578125C76.51750215234375,9.359208142578124,76.52941915234375,10.008624642578125,76.78052515234376,10.273512642578124C76.99444915234375,10.499183642578124,77.31027215234374,10.615163642578125,77.61940815234375,10.581577642578125C77.99541815234375,10.540724642578125,78.44285615234375,10.018874642578124,79.30240615234375,9.006388642578125L81.58593715234375,6.316548342578125C81.89440115234375,5.953203242578125,82.05097915234376,5.767564342578125,82.10879915234375,5.563855142578125C82.15888215234375,5.387393942578125,82.15888215234375,5.199896842578125,82.10879915234375,5.023435642578125C82.05097915234376,4.819726442578125,81.89440115234375,4.634087542578125,81.58593715234375,4.270742442578125L79.30240615234375,1.580902842578125C78.44285615234375,0.568415162578125,77.99541515234375,0.046566724578125,77.61940815234375,0.005713820478125C77.31027215234374,-0.027873277421875,76.99444915234375,0.088106870578125,76.78052515234376,0.313777682578125C76.52941915234375,0.578665672578125,76.51750215234375,1.228080342578125,76.51697515234375,2.466773242578125Q68.59663415234375,3.794968642578125,61.60977015234375,3.794968642578125Q54.62290715234375,3.794968642578125,46.70256945234375,2.466774242578125C46.70204255234375,1.228080742578125,46.69012305234375,0.578665732578125,46.43902015234375,0.313777682578125C46.22509335234375,0.088106870578125,45.90926935234375,-0.027873277421875,45.60013485234375,0.005713820478125C45.22412685234375,0.046566724578125,44.77668715234375,0.568415162578125,43.91713785234375,1.580902842578125L41.63360440234375,4.270742442578125C41.32514345234375,4.634087542578125,41.16856533334375,4.819726442578125,41.11074608534375,5.023435642578125C41.06066063034375,5.199896842578125,41.06066063034375,5.387393942578125,41.11074608534375,5.563855142578125C41.16856533334375,5.767564342578125,41.32514345234375,5.953203242578125,41.63360435234375,6.316548342578125Z" fill-rule="evenodd" fill="url(#master_svg0_0_1110)" fill-opacity="1" transform="matrix(-1,0,0,1,82.1463623046875,0)"/></svg>