<svg xmlns="http://www.w3.org/2000/svg" xmlns:xlink="http://www.w3.org/1999/xlink" fill="none" version="1.1" width="97.96" height="65.33" viewBox="0 0 97.95611572265625 65.33333587646484"><defs><linearGradient x1="0.44381195306777954" y1="0.04998096451163292" x2="0.568903832474682" y2="0.990838882537459" id="master_svg0_0_1053"><stop offset="0%" stop-color="#FDFEFF" stop-opacity="1"/><stop offset="52.053576707839966%" stop-color="#E0EFFF" stop-opacity="1"/><stop offset="100%" stop-color="#D5E6FF" stop-opacity="1"/></linearGradient></defs><path d="M14.70164,10.747326L78.937317,2.4551377C85.507301,1.6070185,88.87748,1.1874021,91.416565,2.2318635C93.590027,3.1259234,95.414894,4.730361,96.579865,6.7714696C97.940811,9.1559391,97.956116,12.552109,97.956116,19.176605L97.956116,48.473122C97.956116,54.374756,97.944168,57.392288,96.779922,59.638351C95.777809,61.571625,94.194405,63.155033,92.261131,64.157143C90.015068,65.321388,86.997536,65.333336,81.095901,65.333336L16.860216,65.333336C10.95858,65.333336,7.9410491,65.321388,5.6949849,64.157143C3.7617087,63.155033,2.1783042,61.571625,1.1761918,59.638351C0.011945367,57.392288,-3.4325207e-14,54.374756,-3.4325207e-14,48.473118L-3.4325207e-14,27.468792C-3.4325207e-14,22.21874,0.0090055466,19.541687,0.99159855,17.44422C1.8416611,15.629655,3.1957152,14.08957,4.8865166,13.014188C6.8409243,11.771147,9.4947929,11.419478,14.70164,10.747326" fill-rule="evenodd" fill="url(#master_svg0_0_1053)" fill-opacity="1"/><path d="M14.70164,10.747326L78.937317,2.4551377C85.507301,1.6070185,88.87748,1.1874021,91.416565,2.2318635C93.590027,3.1259234,95.414894,4.730361,96.579865,6.7714696C97.940811,9.1559391,97.956116,12.552109,97.956116,19.176605L97.956116,48.473122C97.956116,54.374756,97.944168,57.392288,96.779922,59.638351C95.777809,61.571625,94.194405,63.155033,92.261131,64.157143C90.015068,65.321388,86.997536,65.333336,81.095901,65.333336L16.860216,65.333336C10.95858,65.333336,7.9410491,65.321388,5.6949849,64.157143C3.7617087,63.155033,2.1783042,61.571625,1.1761918,59.638351C0.011945367,57.392288,0,54.374756,0,48.473118L0,27.468792C0,22.21874,0.0090055466,19.541687,0.99159855,17.44422C1.8416611,15.629655,3.1957152,14.08957,4.8865166,13.014188C6.8409243,11.771147,9.4947929,11.419478,14.70164,10.747326ZM14.769094,11.269872Q10.249104,11.853357,8.6826982,12.182307Q6.4336171,12.654622,5.1692772,13.458767Q2.7067659,15.024972,1.4687203,17.667734Q0.8330642,19.024622,0.65258127,21.315664Q0.52688169,22.911289,0.52688169,27.468792L0.52688211,48.473114Q0.52688205,53.596046,0.67654622,55.382584Q0.89107442,57.943405,1.6439655,59.395882Q3.1097264,62.223621,5.9374566,63.689365Q7.3899398,64.442261,9.9507465,64.656792Q11.737284,64.806458,16.860216,64.806458L81.095909,64.806458Q86.218834,64.806458,88.005371,64.656792Q90.566177,64.442261,92.018654,63.689365Q94.846367,62.223629,96.312141,59.395882Q97.065048,57.943382,97.279572,55.382591Q97.42923,53.596165,97.42923,48.473122L97.42923,19.176607Q97.42923,13.425876,97.253487,11.430248Q97.001938,8.5738697,96.122269,7.0326424Q94.410248,4.0330467,91.216125,2.7191303Q89.574928,2.0440185,86.709877,2.1602316Q84.708237,2.2414229,79.004776,2.9776833L14.769094,11.269872Z" fill-rule="evenodd" fill="#C1D9FF" fill-opacity="1"/></svg>