<svg xmlns="http://www.w3.org/2000/svg" xmlns:xlink="http://www.w3.org/1999/xlink" fill="none" version="1.1" width="323" height="16.67" viewBox="0 0 323 16.666664123535156"><defs><filter id="master_svg0_0_2173" filterUnits="objectBoundingBox" color-interpolation-filters="sRGB" x="0" y="0" width="1" height="1"><feFlood flood-opacity="0" result="BackgroundImageFix"/><feBlend mode="normal" in="SourceGraphic" in2="BackgroundImageFix" result="shape"/><feColorMatrix in="SourceAlpha" type="matrix" result="hardAlpha" values="0 0 0 0 0 0 0 0 0 0 0 0 0 0 0 0 0 0 127 0"/><feOffset dy="1" dx="1"/><feGaussianBlur stdDeviation="1"/><feComposite in2="hardAlpha" operator="arithmetic" k2="-1" k3="1"/><feColorMatrix type="matrix" values="0 0 0 0 1 0 0 0 0 1 0 0 0 0 1 0 0 0 0.6971700191497803 0"/><feBlend mode="normal" in2="shape" result="effect1_innerShadow"/></filter><linearGradient x1="0.8804013133049011" y1="0.5" x2="0.44824397563934326" y2="0.5" id="master_svg1_0_1518"><stop offset="0%" stop-color="#FF3F53" stop-opacity="1"/><stop offset="46.2846040725708%" stop-color="#FFDFDF" stop-opacity="1"/><stop offset="100%" stop-color="#3E82FF" stop-opacity="1"/></linearGradient></defs><path d="M59.777031,5.3333321C58.572712,2.2132418,55.544899,0,51.999989,0C48.455078,0,45.427265,2.2132418,44.222946,5.3333321L3.0000005,5.3333321C1.3431458,5.3333321,0,6.6764779,0,8.3333321C0,9.9901867,1.3431458,11.333332,3.0000005,11.333332L44.222946,11.333332C45.427265,14.453424,48.455078,16.666666,51.999989,16.666666C55.544899,16.666666,58.572712,14.453424,59.777031,11.333332L153.22296,11.333332C154.42728,14.453424,157.45509,16.666666,161,16.666666C164.54492,16.666666,167.57274,14.453424,168.77705,11.333332L264.22296,11.333332C265.42728,14.453424,268.45508,16.666666,272,16.666666C275.54489,16.666666,278.57269,14.453424,279.77701,11.333332L320,11.333332C321.65686,11.333332,323,9.9901867,323,8.3333321C323,6.6764779,321.65686,5.3333321,320,5.3333321L279.77701,5.3333321C278.57269,2.2132418,275.54489,0,272,0C268.45508,0,265.42728,2.2132418,264.22296,5.3333321L168.77705,5.3333321C167.57274,2.2132418,164.54492,0,161,0C157.45509,0,154.42728,2.2132418,153.22296,5.3333321L59.777031,5.3333321Z" fill-rule="evenodd" fill="url(#master_svg1_0_1518)" fill-opacity="1" filter="url(#master_svg0_0_2173)"/></svg>