<svg xmlns="http://www.w3.org/2000/svg" xmlns:xlink="http://www.w3.org/1999/xlink" fill="none" version="1.1" width="42.13" height="10.59" viewBox="0 0 42.12647247314453 10.5872802734375"><defs><linearGradient x1="1" y1="0.5" x2="0" y2="0.5" id="master_svg0_0_1101"><stop offset="0%" stop-color="#A8CBFF" stop-opacity="1"/><stop offset="33.806049823760986%" stop-color="#D6E3F6" stop-opacity="1"/><stop offset="47.11536169052124%" stop-color="#FFF9EF" stop-opacity="1"/><stop offset="100%" stop-color="#FFD08E" stop-opacity="1"/></linearGradient></defs><g><path d="M0.5604232,6.316548342578125L2.8439567,9.006388642578125C3.7035055,10.018874642578124,4.1509452,10.540724642578125,4.5269537,10.581577642578125C4.8360882,10.615163642578125,5.1519122,10.499183642578124,5.365839,10.273512642578124C5.6169424,10.008624642578125,5.6288619,9.359207142578125,5.6293879,8.120510142578125Q13.549727,6.792315942578125,20.536589,6.792315942578125Q27.570698,6.792315942578125,36.497093,8.138533542578125C36.497734,9.365512842578125,36.51075,10.009912642578126,36.760635,10.273512642578124C36.97456,10.499183642578124,37.290382,10.615163642578125,37.599518,10.581577642578125C37.975529,10.540724642578125,38.422966,10.018874642578124,39.282516,9.006388642578125L41.566048,6.316548342578125C41.874512,5.953203242578125,42.03109,5.767564342578125,42.088909,5.563855142578125C42.138992,5.387393942578125,42.138992,5.199896842578125,42.088909,5.023435642578125C42.03109,4.819726442578125,41.874512,4.634087542578125,41.566048,4.270742442578125L39.282516,1.580902842578125C38.422966,0.568415162578125,37.975525,0.046566724578125,37.599518,0.005713820478125C37.290382,-0.027873277421875,36.97456,0.088106870578125,36.760635,0.313777682578125C36.51075,0.577377912578125,36.497734,1.221775142578125,36.497093,2.448749342578125Q27.570696,3.794968642578125,20.536589,3.794968642578125Q13.549726,3.794968642578125,5.6293883,2.466774242578125C5.6288614,1.228080742578125,5.6169419,0.578665732578125,5.365839,0.313777682578125C5.1519122,0.088106870578125,4.8360882,-0.027873277421875,4.5269537,0.005713820478125C4.1509457,0.046566724578125,3.703506,0.568415162578125,2.8439567,1.580902842578125L0.56042325,4.270742442578125C0.2519623,4.634087542578125,0.095384181,4.819726442578125,0.037564933,5.023435642578125C-0.012520522,5.199896842578125,-0.012520522,5.387393942578125,0.037564933,5.563855142578125C0.095384181,5.767564342578125,0.2519623,5.953203242578125,0.5604232,6.316548342578125Z" fill-rule="evenodd" fill="url(#master_svg0_0_1101)" fill-opacity="1"/></g></svg>