<svg xmlns="http://www.w3.org/2000/svg" xmlns:xlink="http://www.w3.org/1999/xlink" fill="none" version="1.1" width="508.67" height="54.43" viewBox="0 0 508.6679992675781 54.4349365234375"><defs><linearGradient x1="0.5" y1="1.1549999713897705" x2="0.5" y2="-0.1550000011920929" id="master_svg0_0_581"><stop offset="0%" stop-color="#FDBBBB" stop-opacity="1"/><stop offset="0.68359375%" stop-color="#FDBBBB" stop-opacity="1"/><stop offset="51.7578125%" stop-color="#FDFFFF" stop-opacity="1"/><stop offset="100%" stop-color="#FDFFFF" stop-opacity="1"/></linearGradient></defs><g><path d="M40.013988,37.676979Q44.744987,42.23698,52.382988,46.055981L47.195988,54.03598Q39.443989,49.076981,34.427986,44.003979Q28.955988,49.076981,19.664988,54.434978L15.047987,47.366982Q24.224987,42.578979,29.411987,37.790977Q25.820988,32.37598,24.053988,26.10598L22.001987,28.95598L16.415987,23.36998Q19.550987,19.37998,22.571987,12.796478Q25.592987,6.2129784,26.732988,1.0829811L34.712986,2.9639778Q33.686989,6.7259789,33.059986,8.5499802L51.755989,8.5499802L51.755989,16.700981L47.936989,16.700981Q46.910988,23.141979,44.972988,28.27198Q43.034988,33.401978,40.013988,37.676979ZM14.933987,35.282978L21.659988,33.344978L22.229988,42.407978L1.4819875,48.734978L-0.000012397766,39.614979L6.7259874,37.676979L6.7259874,13.79398L0.79798746,13.79398L0.79798746,5.3009796L20.348988,5.3009796L20.348988,13.79398L14.933987,13.79398L14.933987,35.282978ZM34.940987,31.29298Q36.821987,28.214979,37.961987,24.680979Q39.101986,21.14698,39.785988,16.700981L29.696987,16.700981Q30.665989,21.203979,31.891487,24.73798Q33.116989,28.27198,34.940987,31.29298ZM99.350983,14.135979L67.259987,14.135979L67.259987,19.49398L59.336987,19.49398L59.336987,6.440979L79.571991,6.440979L77.97599,2.2229805L87.152985,1.3109779L89.204987,6.440979L107.10299,6.440979L107.10299,19.37998L99.350983,19.37998L99.350983,14.135979ZM108.41399,21.83098L108.41399,29.69698L97.697983,29.69698L97.697983,44.801979Q97.697983,48.164978,96.728989,50.045979Q95.759987,51.926979,93.593987,52.724979Q91.427986,53.52298,87.608986,53.52298L79.685989,53.52298L77.97599,45.371979L85.67099,45.371979Q87.494987,45.371979,88.235992,45.172478Q88.97699,44.97298,89.204987,44.317478Q89.432983,43.66198,89.432983,42.122978L89.432983,29.69698L71.99099,29.69698Q76.664986,34.02898,81.28199,38.98798L75.467987,45.200981L68.11499,37.33498L64.580986,33.629982L68.285988,29.69698L57.968987,29.69698L57.968987,21.83098L89.432983,21.83098L89.432983,15.845978L97.697983,15.845978L97.697983,21.83098L108.41399,21.83098ZM162.05099,52.895981Q155.32498,50.21698,148.99799,45.143978L148.99799,54.263981L141.87299,54.263981L141.87299,38.930981L136.00198,38.930981L136.00198,54.263981L128.87698,54.263981L128.87698,45.54298Q123.91798,50.159981,117.53399,52.838978L113.65799,46.283981Q122.66399,43.034981,127.62299,38.930981L118.78799,38.930981L118.78799,32.831978L128.87698,32.831978L128.87698,29.69698L114.34199,29.69698L114.34199,23.711979L128.87698,23.711979L128.87698,20.576979L119.24399,20.576979L119.24399,14.534981L128.87698,14.534981L128.87698,11.684978L115.25399,11.684978L115.25399,5.471981L126.19798,5.471981Q125.57098,4.103981,124.31699,1.5959778L131.95499,0.28498077L134.63399,5.471981L144.03899,5.471981Q145.69199,2.735981,147.00299,0.34197998L154.64099,1.4249802Q153.84299,2.8499794,152.133,5.471981L165.01498,5.471981L165.01498,11.684978L148.99799,11.684978L148.99799,14.534981L161.30998,14.534981L161.30998,23.711979L165.52798,23.711979L165.52798,29.69698L161.30998,29.69698L161.30998,38.930981L151.62,38.930981Q154.52699,41.039978,157.94699,42.664478Q161.36699,44.288979,165.81299,45.884979L162.05099,52.895981ZM141.87299,11.684978L136.00198,11.684978L136.00198,14.534981L141.87299,14.534981L141.87299,11.684978ZM141.87299,20.576979L136.00198,20.576979L136.00198,23.711979L141.87299,23.711979L141.87299,20.576979ZM154.18498,23.711979L154.18498,20.576979L148.99799,20.576979L148.99799,23.711979L154.18498,23.711979ZM136.00198,29.69698L136.00198,32.831978L141.87299,32.831978L141.87299,29.69698L136.00198,29.69698ZM148.99799,32.831978L154.18498,32.831978L154.18498,29.69698L148.99799,29.69698L148.99799,32.831978ZM220.87498,29.69698L217.51199,29.183979L217.51199,54.206978L209.81699,54.206978L209.81699,52.15498L184.50899,52.15498L184.50899,54.206978L176.98499,54.206978L176.98499,29.753979Q174.30598,30.20998,173.22299,30.38098L171.05699,23.141979Q180.57599,21.88798,188.38498,19.66498Q185.53499,17.669979,183.08398,15.38998Q179.94899,18.01198,176.58598,20.120979L171.79799,13.850979Q176.52899,11.05798,180.49049,7.2389793Q184.45198,3.4199791,186.56099,-0.000019073486L195.05399,1.8239784Q193.85699,3.8189812,192.94499,4.9589806L217.45499,4.9589806L217.45499,12.596981Q212.72398,16.301979,207.13799,19.49398Q213.00899,20.861979,223.04099,21.944979L220.87498,29.69698ZM189.58199,11.513981Q193.00198,14.420979,197.44798,16.358978Q202.29298,14.249981,206.22598,11.513981L189.58199,11.513981ZM210.89999,28.04398Q203.034,26.50498,197.16299,24.224979Q191.17799,26.50498,185.02199,28.04398L210.89999,28.04398ZM184.50899,37.277981L193.28699,37.277981L193.28699,34.085979L184.50899,34.085979L184.50899,37.277981ZM200.75398,37.277981L209.81699,37.277981L209.81699,34.085979L200.75398,34.085979L200.75398,37.277981ZM193.28699,42.749981L184.50899,42.749981L184.50899,45.884979L193.28699,45.884979L193.28699,42.749981ZM200.75398,42.749981L200.75398,45.884979L209.81699,45.884979L209.81699,42.749981L200.75398,42.749981ZM278.84399,8.83498Q278.673,15.332981,278.27399,27.274479Q277.875,39.215981,277.647,45.485981Q277.53299,48.506981,276.564,50.24548Q275.595,51.983978,273.543,52.724979Q271.491,53.465981,268.01398,53.465981L260.48999,53.465981L258.95099,45.54298L265.50598,45.54298Q267.444,45.54298,268.32748,45.28648Q269.211,45.02998,269.55298,44.20348Q269.89499,43.37698,269.952,41.609978L270.75,16.928978L261.858,16.928978Q260.14798,20.74798,258.267,23.825979L252.79498,20.519979L252.79498,50.900978L238.03198,50.900978L238.03198,53.294979L230.05199,53.294979L230.05199,8.9489784L236.26498,8.9489784Q237.17699,6.0419807,238.20299,0.91197968L246.29698,2.2799797Q245.78398,4.9019814,244.58699,8.9489784L252.79498,8.9489784L252.79498,16.643978Q254.84698,12.824978,256.52847,8.4074783Q258.20999,3.9899788,259.008,0.39897919L267.10199,2.1659813Q266.07599,6.0989799,265.10699,8.83498L278.84399,8.83498ZM238.03198,25.364979L244.81499,25.364979L244.81499,16.871979L238.03198,16.871979L238.03198,25.364979ZM262.371,38.98798Q262.14297,38.645981,261.8295,38.16148Q261.51599,37.676979,261.11697,37.04998Q256.67099,30.20998,254.61899,27.530979L260.832,22.97098Q263.28299,26.162979,265.73398,29.63998L269.38199,34.655979L262.371,38.98798ZM238.03198,33.401978L238.03198,42.920979L244.81499,42.920979L244.81499,33.401978L238.03198,33.401978ZM333.16498,44.858978L336.75598,44.858978L336.75598,52.43998L303.01199,52.43998L303.01199,48.164978L286.48199,50.900978L285.228,43.319981L304.03799,40.013981L304.55099,44.858978L306.31799,44.858978L306.31799,17.32798Q304.03799,21.089979,301.47299,24.73798Q298.90799,28.385979,297.02698,30.49498L304.43698,29.12698L304.49399,36.650978L288.534,38.98798L286.93799,31.406979Q289.332,28.898979,292.97998,24.05398L287.16599,24.62398L285.56998,17.156979Q288.13498,13.73698,290.75699,9.4334793Q293.379,5.1299782,295.03198,1.2539787L302.15698,4.3889809Q300.73199,7.4099808,298.509,10.858479Q296.28598,14.30698,294.633,16.47298L298.39499,16.24498Q300.95999,12.026981,301.87198,10.259979L306.31799,12.539978L306.31799,2.9639778L333.16498,2.9639778L333.16498,44.858978ZM325.35599,17.04298L325.35599,10.544979L314.241,10.544979L314.241,17.04298L325.35599,17.04298ZM314.241,30.836979L325.35599,30.836979L325.35599,24.45298L314.241,24.45298L314.241,30.836979ZM325.35599,38.18998L314.241,38.18998L314.241,44.858978L325.35599,44.858978L325.35599,38.18998ZM370.89899,0.34197998Q374.547,6.0419807,380.75998,10.829979Q386.97299,15.617981,394.78198,18.923979L390.79199,26.276979Q386.004,23.996979,381.89999,21.31798L381.89999,25.079979L354.02698,25.079979L354.02698,21.60298Q349.58099,24.45298,345.13498,26.61898L341.54398,18.98098Q349.01099,15.67498,355.4805,10.630478Q361.94998,5.5859795,365.25598,0.34197998L370.89899,0.34197998ZM376.884,17.72698Q371.86798,13.850979,368.27698,9.2909813Q364.97098,13.394978,359.44199,17.72698L376.884,17.72698ZM356.42099,53.864979L348.327,53.864979L348.327,29.582979L387.65698,29.582979L387.65698,53.978981L379.73398,53.978981L379.73398,51.242981L356.42099,51.242981L356.42099,53.864979ZM379.73398,44.003979L379.73398,36.935982L356.42099,36.935982L356.42099,44.003979L379.73398,44.003979ZM450.58499,5.072979L450.58499,12.36898L410.79898,12.36898L410.79898,24.33898Q410.79898,31.86298,410.39999,36.850479Q410.00098,41.837978,408.8895,45.941978Q407.77798,50.045979,405.72598,54.206978L399.17099,48.962978Q400.88098,45.713978,401.73599,42.55048Q402.59097,39.386978,402.84747,35.510979Q403.10397,31.634979,403.10397,25.13698L403.10397,5.072979L423.11099,5.072979L421.914,2.0519791L431.20499,0.56998062Q431.88898,2.1659813,432.91498,5.072979L450.58499,5.072979ZM451.49698,41.096977L451.155,42.635979Q451.04099,43.205978,450.49948,45.428978Q449.95798,47.651978,449.55899,48.620979Q448.70398,51.185978,447.0795,52.553978Q445.45499,53.921978,443.34598,53.921978Q441.12299,53.921978,439.32748,52.724979Q437.53198,51.527981,435.59399,48.56398Q433.94098,45.941978,432.80099,42.778481Q431.66098,39.614979,430.91998,34.940979L421.629,34.940979L421.629,41.780979L430.46399,38.246979L432.06,45.086979L429.72299,46.11298Q430.521,47.309978,431.66098,49.13398L433.086,51.356979L426.189,54.377979Q424.53598,50.900978,423.33899,48.905979L416.043,52.09798L412.67999,45.54298Q412.965,45.25798,413.478,44.345978Q413.991,43.433979,413.991,42.578979L413.991,16.187981Q431.66098,15.731979,447.27899,13.565979L449.16,20.519979Q443.517,21.374979,437.07599,22.058979Q437.30399,25.763979,437.47498,27.815979L450.41397,27.815979L450.41397,34.940979L438.55798,34.940979Q439.52698,39.671982,441.465,43.205978Q442.71899,45.371979,443.23199,45.371979Q443.45999,45.371979,443.65948,44.915977Q443.85898,44.45998,443.97299,44.060978Q444.08698,43.66198,444.14398,43.490978L445.16998,38.41798L451.49698,41.096977ZM421.629,27.815979L430.12198,27.815979Q429.95099,25.99198,429.72299,22.742979L421.629,23.25598L421.629,27.815979ZM497.66699,40.469978L497.83798,36.707977L505.81799,38.816978Q505.81799,40.64098,505.24799,45.599979Q504.96298,48.620979,503.76599,50.302479Q502.569,51.983978,500.34598,52.639481Q498.12299,53.294979,494.418,53.294979L474.297,53.294979Q470.70599,53.294979,468.65399,52.496979Q466.60199,51.698978,465.60449,49.67548Q464.60699,47.651978,464.60699,43.94698L464.60699,25.13698Q463.06799,26.162979,459.87598,28.100979L455.77197,20.23498Q463.52399,16.187981,469.67999,11.086479Q475.836,5.9849777,479.31299,0.85498047L485.58298,0.85498047Q489.45898,6.2699776,495.30148,10.886978Q501.14398,15.503979,508.668,18.923979L504.621,27.07498Q501.48599,25.53598,497.66699,22.97098Q497.55298,31.06498,497.439,32.603981Q497.32498,35.795979,496.41299,37.59148Q495.50098,39.386978,493.53448,40.156479Q491.56799,40.92598,488.14798,40.92598L479.31299,40.92598L477.94498,33.572979L485.754,33.572979Q487.40698,33.572979,488.23349,33.344978Q489.06,33.116982,489.3735,32.489979Q489.68698,31.86298,489.74399,30.60898L489.858,27.18898L472.18799,27.18898L472.18799,41.837978Q472.18799,43.547981,472.35898,44.317478Q472.53,45.086979,473.32797,45.514481Q474.12598,45.941978,476.00699,45.941978L492.30899,45.941978Q495.38699,45.941978,496.47,45.115479Q497.55298,44.288979,497.60999,41.951981L497.66699,40.469978ZM482.50497,9.5189781Q478.28699,14.59198,471.84598,19.77898L493.27798,19.77898Q489.91498,17.156979,487.09348,14.477978Q484.272,11.798981,482.50497,9.5189781Z" fill="url(#master_svg0_0_581)" fill-opacity="1"/></g></svg>