<svg xmlns="http://www.w3.org/2000/svg" xmlns:xlink="http://www.w3.org/1999/xlink" fill="none" version="1.1" width="324.48" height="84.29" viewBox="0 0 324.48291015625 84.28567504882812"><defs><linearGradient x1="0.5" y1="1.1549999713897705" x2="0.5" y2="-0.1550000011920929" id="master_svg0_0_899"><stop offset="0%" stop-color="#E30B06" stop-opacity="1"/><stop offset="100%" stop-color="#F01E1E" stop-opacity="0.9960784316062927"/><stop offset="100%" stop-color="#F0A63D" stop-opacity="0.9960784316062927"/><stop offset="100%" stop-color="#0095EB" stop-opacity="0.9960784316062927"/><stop offset="100%" stop-color="#F4C67D" stop-opacity="0.9960784316062927"/><stop offset="100%" stop-color="#0095EB" stop-opacity="0.9960784316062927"/><stop offset="100%" stop-color="#6B91FE" stop-opacity="0.9960784316062927"/><stop offset="100%" stop-color="#0598EC" stop-opacity="0.9960784316062927"/><stop offset="100%" stop-color="#15A0EF" stop-opacity="0.9960784316062927"/><stop offset="100%" stop-color="#0699EC" stop-opacity="0.9960784316062927"/><stop offset="100%" stop-color="#6CCBFE" stop-opacity="0.9960784316062927"/><stop offset="100%" stop-color="#6ECCFE" stop-opacity="0.9960784316062927"/><stop offset="100%" stop-color="#089AEC" stop-opacity="0.9960784316062927"/><stop offset="100%" stop-color="#6ECCFE" stop-opacity="0.9960784316062927"/><stop offset="100%" stop-color="#089AEC" stop-opacity="0.9960784316062927"/><stop offset="100%" stop-color="#6ECCFE" stop-opacity="0.9960784316062927"/></linearGradient></defs><g><path d="M0.000015258789,17.417919Q0.000015258789,11.470337,2.6339426,7.2220688Q5.2678699,2.9738007,11.640276,0.0000076293945L14.69903,5.2678604Q9.7710371,7.5619278,7.8593149,10.110893Q5.9475937,12.659851,5.9475937,17.417919L13.509516,17.417919L13.509516,30.927418L0.000015258789,30.927418L0.000015258789,17.417919ZM17.163027,17.417919Q17.163027,11.470337,19.754473,7.2220688Q22.345917,2.9738007,28.803288,0.0000076293945L31.862041,5.2678604Q26.93405,7.5619278,25.022327,10.110893Q23.110605,12.659851,23.110605,17.417919L30.672527,17.417919L30.672527,30.927418L17.163027,30.927418L17.163027,17.417919ZM110.96483,83.945831Q102.55325,80.887077,96.435745,78.040733Q90.318237,75.194397,85.475212,71.965706Q76.29895,78.083221,60.495384,84.0308L54.547806,73.495087Q52.253738,78.508049,48.430294,84.200729L38.489342,75.364326Q42.907543,69.16185,44.989197,64.318825Q47.070847,59.475792,47.835537,53.145874Q48.600227,46.815948,48.600227,35.600513L48.600227,9.8559952Q62.109726,9.5161362,79.272736,8.2841339Q96.435745,7.0521393,110.79491,5.2678604L113.004,17.247986Q87.174515,19.881912,60.410416,21.156395L60.410416,27.953629L110.70995,27.953629L110.70995,39.93375Q107.22636,47.495674,103.65781,53.145874Q100.08926,58.79607,95.756027,63.384201Q104.25256,68.057297,116.91241,71.455917L110.96483,83.945831ZM55.227528,71.965706Q67.03772,68.397163,75.534256,63.46917Q67.632477,54.887665,60.665314,39.93375L60.410416,39.93375Q60.240486,51.064217,59.093452,58.371246Q57.946419,65.678268,55.227528,71.965706ZM85.645142,56.162144Q92.697273,49.534843,97.030502,39.93375L73.580055,39.93375Q78.762939,49.874702,85.645142,56.162144ZM200.60333,23.705357L200.60333,33.731277L165.42766,33.731277L165.42766,46.391121Q165.42766,56.247108,165.00284,62.364616Q164.578,68.482124,163.26105,73.665016Q161.94408,78.847908,159.31015,84.28569L150.72864,79.612595Q148.68947,82.926247,143.50659,82.926247L138.15376,82.926247L135.8597,72.135643L140.27789,72.135643Q141.55238,72.135643,142.01968,71.413437Q142.487,70.691231,142.40204,68.906952L142.40204,57.776485L136.70935,57.776485Q136.36949,66.442955,135.05252,72.687912Q133.73557,78.932869,130.9317,84.115761L123.02992,74.429703Q124.81419,71.370949,125.70633,68.099785Q126.59846,64.828613,126.93832,58.711105Q127.2782,52.593597,127.2782,40.783405L127.2782,7.1371002L152.00313,7.1371002L152.00313,24.894875Q155.65665,20.561638,158.80035,15.548679Q161.94408,10.535721,164.06821,5.692688L175.02875,6.8822098L173.75427,9.8559952L194.14597,9.8559952L194.14597,18.607433L190.15259,23.705357L200.60333,23.705357ZM142.40204,27.953629L142.40204,17.332951L136.87929,17.332951L136.87929,27.953629L142.40204,27.953629ZM182.16585,19.287155L168.65634,19.287155Q167.21193,21.751152,165.76752,23.705357L178.34241,23.705357L182.16585,19.287155ZM152.00313,74.089844Q154.21222,68.99192,154.80698,63.68158Q155.40173,58.371246,155.40173,47.325741L155.40173,43.417332L155.40173,36.365204L152.00313,32.881622L152.00313,74.089844ZM202.47258,63.893997Q202.21768,66.103096,202.04776,69.331779L201.79285,72.645432Q201.36803,78.168182,198.77658,80.122391Q196.18513,82.076591,190.23755,82.076591L178.59729,82.076591Q174.77385,82.076591,172.60724,81.141975Q170.44061,80.207352,169.46352,77.913284Q168.48642,75.619225,168.48642,71.540878L168.48642,37.12989L197.11975,37.12989L196.69493,54.547798Q196.52499,60.070553,194.74072,62.364616L202.47258,63.893997ZM136.87929,37.809616L136.87929,48.005463L142.40204,48.005463L142.40204,37.809616L136.87929,37.809616ZM188.11343,72.135643Q190.57742,72.135643,191.25714,71.413437Q191.93686,70.691231,192.02184,68.397163L192.27673,64.318825Q190.06763,65.253441,186.07425,65.253441L180.97633,65.253441L179.36198,55.227524L183.18542,55.227524Q185.22461,55.227524,186.03177,55.01511Q186.83894,54.802696,187.05136,54.08049Q187.26376,53.358284,187.34872,51.574013Q187.4337,50.724358,187.47618,49.449875Q187.51868,48.175392,187.4337,46.985878L178.51233,46.985878L178.51233,68.142265Q178.51233,70.436333,179.3195,71.285988Q180.12668,72.135643,182.33578,72.135643L188.11343,72.135643ZM222.94923,32.541759L222.35448,37.214859L244.02065,37.214859L243.17099,70.946121Q243.08603,77.488464,240.11224,80.079903Q237.13846,82.671349,230.1713,82.671349L218.70096,82.671349L216.57683,72.305573L226.68771,72.305573Q229.06674,72.305573,230.08632,72.008194Q231.10591,71.710815,231.53073,70.776192Q231.95557,69.841576,232.21045,67.802406L232.29543,64.913582L210.03448,71.285988L207.91035,60.495377L218.27612,57.86145L211.64883,53.273319L216.23697,47.070847L210.03448,47.070847L212.75339,22.685772L231.70067,22.685772L231.70067,17.163021L210.45932,17.163021L210.45932,6.8822098L243.17099,6.8822098L243.17099,32.541759L222.94923,32.541759ZM258.80463,37.214859L282.6799,37.214859L281.7453,70.946121Q281.57538,75.534256,280.30087,78.040733Q279.0264,80.547218,276.13757,81.609283Q273.24875,82.671349,268.06586,82.671349L256.85043,82.671349L254.64133,72.305573L264.41235,72.305573Q267.21622,72.305573,268.44821,72.008194Q269.68021,71.710815,270.10504,70.81868Q270.52985,69.926537,270.52985,67.887367Q270.52985,67.632477,270.57233,66.952751Q270.61481,66.273026,270.61481,64.913582L247.67416,71.455917L244.78534,60.750275L255.49097,58.116348L248.77872,53.358284L253.53677,47.070847L246.65457,47.070847L249.20354,22.685772L270.44489,22.685772L270.44489,17.163021L247.50423,17.163021L247.50423,6.8822098L282.08514,6.8822098L282.08514,32.541759L259.39938,32.541759L258.80463,37.214859ZM232.55032,47.070847L219.29572,47.070847Q224.73351,50.894287,228.04715,52.933456L225.66812,55.99221L232.46536,54.292904L232.55032,47.070847ZM262.62808,56.332073L271.03964,54.292904L271.20959,47.070847L256.34064,47.070847Q262.71304,51.23415,265.17703,53.018425L262.62808,56.332073ZM292.62088,27.273903Q297.4639,24.894875,299.37561,22.345909Q301.28735,19.796947,301.28735,15.123852L293.81039,15.123852L293.81039,1.6143494L307.31989,1.6143494L307.31989,15.123852Q307.31989,21.07143,304.68597,25.319702Q302.05203,29.56797,295.67963,32.541759L292.62088,27.273903ZM309.78387,27.273903Q314.62692,24.894875,316.53864,22.345909Q318.45035,19.796947,318.45035,15.123852L310.97339,15.123852L310.97339,1.6143494L324.48291,1.6143494L324.48291,15.123852Q324.48291,21.07143,321.84897,25.319702Q319.21506,29.56797,312.84265,32.541759L309.78387,27.273903Z" fill="url(#master_svg0_0_899)" fill-opacity="1"/></g></svg>