<svg xmlns="http://www.w3.org/2000/svg" xmlns:xlink="http://www.w3.org/1999/xlink" fill="none" version="1.1" width="311.53" height="96.05" viewBox="0 0 347.52618408203125 132.05319213867188"><defs><filter id="master_svg0_0_38" filterUnits="objectBoundingBox" color-interpolation-filters="sRGB" x="-0.0577800548388582" y="-0.13534167590424184" width="1.1155601096777163" height="1.3747923332732852"><feFlood flood-opacity="0" result="BackgroundImageFix"/><feColorMatrix in="SourceAlpha" type="matrix" values="0 0 0 0 0 0 0 0 0 0 0 0 0 0 0 0 0 0 127 0"/><feOffset dy="5" dx="0"/><feGaussianBlur stdDeviation="4.5"/><feColorMatrix type="matrix" values="0 0 0 0 1 0 0 0 0 0.2823529541492462 0 0 0 0 0.2823529541492462 0 0 0 0.250980406999588 0"/><feBlend mode="normal" in2="BackgroundImageFix" result="effect1_dropShadow"/><feBlend mode="normal" in="SourceGraphic" in2="effect1_dropShadow" result="shape"/></filter><linearGradient x1="1.25" y1="0.41505691409111023" x2="-0.2516551018676759" y2="0.43122547566025915" id="master_svg1_0_511"><stop offset="0%" stop-color="#FF371D" stop-opacity="1"/><stop offset="0.9521484375%" stop-color="#FF371D" stop-opacity="1"/><stop offset="48.61816465854645%" stop-color="#FF7A2A" stop-opacity="1"/><stop offset="80.3955078125%" stop-color="#FFBC37" stop-opacity="1"/><stop offset="100%" stop-color="#FFBC37" stop-opacity="1"/></linearGradient></defs><path d="M31.464892,35.114508C31.464892,35.114508,310.47,13.041905556,310.47,13.041905556C318.4899,12.43729132,325.48331,18.4462938,326.09018,26.466802C326.09018,26.466802,329.48401,71.32037700000001,329.48401,71.32037700000001C330.0907,79.341316,324.08121,86.333809,316.06119,86.939888C316.06119,86.939888,37.056189,109.010994,37.056189,109.010994C29.036193,109.617989,22.0427918,103.606087,21.4360909,95.586617C21.4360909,95.586617,18.042193051,50.731998,18.042193051,50.731998C17.43539298,42.713018000000005,23.4449906,35.720495,31.464892,35.114508C31.464892,35.114508,31.464892,35.114508,31.464892,35.114508Z" fill="url(#master_svg1_0_511)" fill-opacity="1" filter="url(#master_svg0_0_38)"/></svg>