<svg xmlns="http://www.w3.org/2000/svg" xmlns:xlink="http://www.w3.org/1999/xlink" fill="none" version="1.1" width="472.02" height="53.98" viewBox="0 0 472.01702880859375 53.97900390625"><defs><linearGradient x1="0.5" y1="1.1549999713897705" x2="0.5" y2="-0.1550000011920929" id="master_svg0_0_581"><stop offset="0%" stop-color="#FDBBBB" stop-opacity="1"/><stop offset="0.68359375%" stop-color="#FDBBBB" stop-opacity="1"/><stop offset="51.7578125%" stop-color="#FDFFFF" stop-opacity="1"/><stop offset="100%" stop-color="#FDFFFF" stop-opacity="1"/></linearGradient></defs><g><path d="M35.05499648242188,43.89006L51.470996482421874,43.89006L51.470996482421874,51.58506L8.663997682421876,51.58506L8.663997682421876,43.89006L26.732997482421876,43.89006L26.732997482421876,31.57806L17.384998482421874,31.57806Q12.767997482421874,39.159061,4.559998082421875,47.994061L-0.0000019073491250000014,40.64106Q5.642998182421875,34.485062,9.376498182421875,28.69956Q13.109997482421875,22.914061,15.674997482421874,15.846062L2.849997982421875,15.846062L2.849997982421875,7.8660622L18.182998482421876,7.8660622Q19.151998482421874,4.389061,19.892997482421876,0.62705994L28.214998482421876,1.3680611Q27.644998482421876,4.2180595,26.732997482421876,7.8660622L51.41399748242188,7.8660622L51.41399748242188,15.846062L24.509998482421874,15.846062Q22.799997482421876,20.691061,21.431997482421874,23.76906L48.73499648242188,23.76906L48.73499648242188,31.57806L35.05499648242188,31.57806L35.05499648242188,43.89006ZM109.32599948242188,30.49506L109.32599948242188,38.304062L88.80599948242188,38.304062L88.80599948242188,45.372059Q88.80599948242188,48.450062,88.00799548242188,50.131561Q87.20999948242188,51.813061,85.35749848242187,52.525562Q83.50499748242187,53.23806,80.08499948242188,53.23806L70.22399948242187,53.23806L68.57099948242187,44.916061L77.00699648242187,44.916061Q78.54599748242188,44.916061,79.14450048242188,44.74506Q79.74299648242187,44.574059,79.94249748242187,44.061062Q80.14199848242187,43.548061,80.14199848242187,42.237061L80.14199848242187,38.304062L57.96899748242188,38.304062L57.96899748242188,30.49506L80.14199848242187,30.49506L80.14199848242187,25.30806L61.84500148242188,25.30806L61.84500148242188,17.49906L80.14199848242187,17.49906L80.14199848242187,11.799061Q71.64900248242188,12.369061,62.07299848242187,12.71106L61.55999748242188,4.9590607Q70.22399948242187,4.73106,82.87799848242187,3.8190613Q95.53199748242187,2.9070587,104.48099948242188,1.7670593L105.62099948242188,9.6330605Q98.15399948242188,10.545059,88.80599948242188,11.229061L88.80599948242188,17.49906L105.33599948242187,17.49906L105.33599948242187,25.30806L88.80599948242188,25.30806L88.80599948242188,30.49506L109.32599948242188,30.49506ZM134.8049894824219,29.868061L134.91900948242187,36.993061L117.07799948242187,39.50106L115.48199948242187,31.86306Q119.18699948242187,27.987061,123.00599948242187,23.19906L116.10899948242188,23.76906L114.62699948242188,16.53006Q117.02099948242187,14.193062,120.01349948242188,9.462059Q123.00599948242187,4.73106,125.22899948242187,0.000061035156L132.01198948242188,3.6480598Q129.95998948242186,7.5240593,127.85099948242187,11.02956Q125.74199948242187,14.535061,124.25999948242188,16.359062L128.19298948242186,16.074062L131.27099948242187,11.172062L137.59798948242187,15.219059Q135.83098948242187,18.29706,132.69599948242188,22.600561Q129.56100948242187,26.90406,125.68499948242187,31.29306L134.8049894824219,29.868061ZM154.81199948242187,12.768059L154.81199948242187,42.750061L166.09798948242187,42.750061L166.09798948242187,50.730061L135.26099948242188,50.730061L135.26099948242188,42.750061L146.54699948242188,42.750061L146.54699948242188,12.768059L136.34398948242188,12.768059L136.34398948242188,4.7880592L164.90099948242187,4.7880592L164.90099948242187,12.768059L154.81199948242187,12.768059ZM115.53899948242187,51.528061L114.45599948242187,43.605061L133.83599948242187,39.900063L134.29198948242188,47.994061L115.53899948242187,51.528061ZM213.35099948242188,1.5390587L221.21699948242187,1.5390587L221.21699948242187,45.657059Q221.21699948242187,48.678062,220.36199948242188,50.388062Q219.50699948242186,52.098061,217.54049948242186,52.867561Q215.57400948242187,53.637062,212.03998948242187,53.637062L204.8579994824219,53.637062L203.26198948242188,45.429062L209.9880094824219,45.429062Q212.03998948242187,45.429062,212.69549948242187,44.916061Q213.35099948242188,44.403061,213.35099948242188,42.921059L213.35099948242188,1.5390587ZM189.86699948242187,23.826061L189.86699948242187,26.163061Q192.60299948242186,28.386061,195.62398948242188,31.00806Q198.64499948242187,33.630058,200.41199948242186,35.340061L195.96599948242186,42.180061Q194.19900948242187,40.014061,189.86699948242187,35.68206L189.86699948242187,53.409061L182.22899948242187,53.409061L182.22899948242187,36.366058Q178.63799948242186,41.610062,173.6789994824219,46.740059L171.17100948242188,37.677059Q177.04198948242188,32.43306,181.43099948242187,23.826061L172.59598948242188,23.826061L172.59598948242188,16.24506L182.22899948242187,16.24506L182.22899948242187,11.85606Q177.32699948242188,12.597061,173.9640094824219,12.996059L173.10898948242186,5.5290604Q178.80898948242188,5.0160599,185.5634894824219,3.9900589Q192.31798948242186,2.9640617,197.27698948242187,1.7670593L198.64499948242187,9.12006Q194.42699948242188,9.9750595,189.86699948242187,10.716061L189.86699948242187,16.24506L199.2149994824219,16.24506L199.2149994824219,23.826061L189.86699948242187,23.826061ZM201.72298948242187,6.9540596L209.47500948242188,6.9540596L209.47500948242188,40.527061L201.72298948242187,40.527061L201.72298948242187,6.9540596ZM300.04799948242186,15.333061L274.1130094824219,15.333061Q272.06100948242187,19.38006,269.4389994824219,23.48406L296.45699948242185,23.48406L296.45699948242185,53.637062L288.42000948242185,53.637062L288.42000948242185,50.274059L267.27300948242186,50.274059L267.27300948242186,53.637062L259.35000948242185,53.637062L259.35000948242185,35.796059Q256.27199948242185,38.931061,252.16799948242186,42.52206L248.69100948242186,33.402061Q258.38100948242186,26.50506,264.42299948242186,15.333061L251.02799948242188,15.333061L251.02799948242188,7.4100609L268.12798948242187,7.4100609Q269.4959994824219,4.0470619,270.69298948242186,0.34206009L279.4710094824219,1.2540588Q279.01501948242185,2.8500595,277.4760094824219,7.4100609L300.04799948242186,7.4100609L300.04799948242186,15.333061ZM267.27300948242186,42.636063L288.42000948242185,42.636063L288.42000948242185,31.521061L267.27300948242186,31.521061L267.27300948242186,42.636063ZM357.8460094824219,30.49506L357.8460094824219,38.304062L337.3260194824219,38.304062L337.3260194824219,45.372059Q337.3260194824219,48.450062,336.5280194824219,50.131561Q335.73000948242185,51.813061,333.87749948242185,52.525562Q332.0250194824219,53.23806,328.60500948242185,53.23806L318.7440194824219,53.23806L317.09099948242186,44.916061L325.5270094824219,44.916061Q327.06600948242186,44.916061,327.6645194824219,44.74506Q328.26302948242187,44.574059,328.4625194824219,44.061062Q328.6620194824219,43.548061,328.6620194824219,42.237061L328.6620194824219,38.304062L306.48900948242186,38.304062L306.48900948242186,30.49506L328.6620194824219,30.49506L328.6620194824219,25.30806L310.36501948242187,25.30806L310.36501948242187,17.49906L328.6620194824219,17.49906L328.6620194824219,11.799061Q320.16900948242187,12.369061,310.5930194824219,12.71106L310.0800194824219,4.9590607Q318.7440194824219,4.73106,331.39800948242186,3.8190613Q344.0519994824219,2.9070587,353.00100948242186,1.7670593L354.1410194824219,9.6330605Q346.67400948242187,10.545059,337.3260194824219,11.229061L337.3260194824219,17.49906L353.85601948242186,17.49906L353.85601948242186,25.30806L337.3260194824219,25.30806L337.3260194824219,30.49506L357.8460094824219,30.49506ZM380.7029994824219,2.337059Q378.82201948242187,9.0060616,376.25701948242187,14.991062L376.25701948242187,53.409061L368.79000948242185,53.409061L368.79000948242185,28.671061Q366.96599948242186,31.464058,364.7430094824219,34.257061L362.63399948242187,24.33906Q365.31301948242185,20.63406,368.3625194824219,13.708561Q371.4120194824219,6.783062,372.8940094824219,0.68405914L380.7029994824219,2.337059ZM415.35900948242187,39.045059Q415.2450294824219,40.128059,414.6750194824219,42.892559Q414.10500948242185,45.657059,413.7060194824219,46.96806Q412.79400948242187,50.331062,411.3975194824219,51.84156Q410.00100948242186,53.352062,407.8350194824219,53.352062Q405.55501948242187,53.352062,403.3890094824219,50.986561Q401.2230194824219,48.621059,399.5129994824219,43.605061Q397.40401948242186,37.563061,396.32100948242186,27.87306L388.0560294824219,27.87306L388.0560294824219,40.470062L395.52300948242186,35.625061L396.7770094824219,43.605061L394.2120094824219,45.201061Q396.9480294824219,49.70406,397.8030094824219,51.357059L391.30501948242187,53.979061L388.51201948242186,48.792061L382.6410194824219,52.44006L378.87902948242186,46.39806Q379.9620094824219,45.657059,380.2185094824219,44.916061Q380.47500948242185,44.17506,380.47500948242185,42.750061L380.47500948242185,5.3580589Q394.78200948242187,4.6170616,411.1410194824219,1.5960617L412.8510094824219,9.2340622Q409.03200948242187,10.032059,402.81902948242185,10.944061Q403.04702948242186,17.271061,403.2750194824219,20.292061L413.9340194824219,20.292061L413.9340194824219,27.87306L403.95901948242187,27.87306Q404.9850194824219,37.05006,406.8090194824219,41.952061Q407.4930094824219,43.434059,408.00600948242186,43.434059Q408.23400948242187,43.434059,408.40502948242187,43.06356Q408.5760194824219,42.693062,408.8040194824219,41.667061Q409.31701948242187,38.931061,409.54500948242185,36.708061L415.35900948242187,39.045059ZM388.0560294824219,20.292061L395.63701948242186,20.292061Q395.46599948242186,17.556061,395.2380094824219,12.027061L388.0560294824219,12.825062L388.0560294824219,20.292061ZM430.23601948242185,14.02206Q427.67101948242185,11.913059,421.51501948242185,7.0110588L425.8470194824219,1.026062Q431.6039994824219,5.1870613,434.5680194824219,7.6380615L430.23601948242185,14.02206ZM467.97002948242186,53.52306Q463.29601948242185,51.357059,460.3035294824219,49.818062Q457.31100948242187,48.27906,454.9170194824219,46.68306Q450.3000194824219,50.21706,442.89001948242185,53.865059L439.12801948242185,47.082062Q437.9880094824219,49.818062,435.9930094824219,53.80806L429.7230194824219,48.735062Q432.00301948242185,44.289062,433.1144994824219,40.840561Q434.2260094824219,37.392059,434.68200948242185,33.031563Q435.13802948242187,28.671061,435.13802948242187,21.43206L435.13802948242187,6.2700615L450.12902948242186,6.2700615L450.12902948242186,1.4820595L457.8240094824219,1.4820595L457.8240094824219,6.2700615L470.9340194824219,6.2700615L470.9340194824219,13.566059L467.79900948242187,19.437061L460.50301948242185,17.49906L462.9540094824219,13.737061L457.8240094824219,13.737061L457.8240094824219,21.43206L468.4260294824219,21.43206L468.4260294824219,28.899061Q466.77300948242186,32.775063,465.06301948242185,35.68206Q463.3530294824219,38.589062,460.9020094824219,41.325062Q464.7210094824219,43.320061,472.0170294824219,45.714062L467.97002948242186,53.52306ZM450.12902948242186,21.43206L450.12902948242186,13.737061L442.6620194824219,13.737061L442.6620194824219,21.43206L450.12902948242186,21.43206ZM429.2100194824219,28.101061Q427.67101948242185,26.79006,425.3910194824219,25.051561Q423.11101948242185,23.313061,422.25600948242186,22.68606L420.09002948242187,21.03306L424.25100948242186,14.649059Q426.0750094824219,16.017059,428.29799948242186,17.556061Q431.8320294824219,19.95006,433.5420194824219,21.31806L429.2100194824219,28.101061ZM454.68902948242186,36.76506Q457.93801948242185,33.345062,459.9330094824219,28.614061L449.95800948242186,28.614061Q451.83901948242186,33.744061,454.68902948242186,36.76506ZM433.3710294824219,32.94606L427.9560194824219,53.409061L420.3750294824219,51.186062Q421.23000948242185,48.450062,423.36751948242187,40.555561Q425.5050094824219,32.66106,425.90401948242186,30.666061L433.3710294824219,32.94606ZM439.41302948242185,46.341061Q444.48601948242185,44.17506,448.7040094824219,41.496059Q444.9990194824219,37.278061,442.54799948242186,30.89406Q442.3200094824219,35.39706,441.6360194824219,38.931061Q440.9520294824219,42.465061,439.41302948242185,46.341061Z" fill="url(#master_svg0_0_581)" fill-opacity="1"/></g></svg>