<svg xmlns="http://www.w3.org/2000/svg" xmlns:xlink="http://www.w3.org/1999/xlink" fill="none" version="1.1" width="330.18" height="80.46" viewBox="0 0 330.17559814453125 80.46224975585938"><defs><linearGradient x1="0.5" y1="1.1549999713897705" x2="0.5" y2="-0.1550000011920929" id="master_svg0_0_463"><stop offset="0%" stop-color="#6A290D" stop-opacity="1"/><stop offset="99.853515625%" stop-color="#A66345" stop-opacity="0.9960784316062927"/><stop offset="100%" stop-color="#9D4A17" stop-opacity="0.9960784316062927"/><stop offset="100%" stop-color="#6ECCFE" stop-opacity="0.9960784316062927"/><stop offset="100%" stop-color="#0095EB" stop-opacity="0.9960784316062927"/><stop offset="100%" stop-color="#0095EB" stop-opacity="0.9960784316062927"/></linearGradient></defs><g><path d="M30.332649,44.521877L30.502579,55.142555L3.9084072,58.881031L1.5293756,47.495667Q7.0521269,41.718018,12.74481,34.580925L2.463995,35.43058L0.2548945,24.639973Q3.8234415,21.156391,8.2841253,14.104263Q12.74481,7.0521317,16.05846,0.0000076293945L26.169344,5.4377899Q23.11059,11.215439,19.966869,16.440811Q16.823149,21.666183,14.614048,24.385075L20.476662,23.960251L25.064795,16.653225L34.495953,22.685768Q31.862026,27.273899,27.188929,33.688789Q22.515831,40.103676,16.738184,46.646011L30.332649,44.521877ZM60.155506,19.032257L60.155506,63.72406L76.978661,63.72406L76.978661,75.619217L31.012371,75.619217L31.012371,63.72406L47.835522,63.72406L47.835522,19.032257L32.626717,19.032257L32.626717,7.1371002L75.194382,7.1371002L75.194382,19.032257L60.155506,19.032257ZM1.6143413,76.808731L-0.0000016689301,64.998543L28.888237,59.475792L29.567959,71.540878L1.6143413,76.808731ZM146.65028,2.2940674L158.37552,2.2940674L158.37552,68.057297Q158.37552,72.560463,157.10104,75.109428Q155.82655,77.658386,152.89525,78.80542Q149.96394,79.952454,144.69609,79.952454L133.99045,79.952454L131.61142,67.717438L141.63734,67.717438Q144.69609,67.717438,145.6732,66.952744Q146.65028,66.188057,146.65028,63.978958L146.65028,2.2940674ZM111.64455,35.515545L111.64455,38.999126Q115.72289,42.312778,120.22605,46.221184Q124.72922,50.129593,127.36314,52.678558L120.73584,62.874405Q118.10191,59.645721,111.64455,53.188351L111.64455,79.612595L100.25919,79.612595L100.25919,54.207935Q94.906364,62.02475,87.514374,69.671638L83.775894,56.16214Q92.527328,48.345322,99.069664,35.515545L85.900024,35.515545L85.900024,24.215145L100.25919,24.215145L100.25919,17.67281Q92.952156,18.777359,87.939201,19.372116L86.664719,8.2416458Q95.161255,7.4769592,105.22966,5.9475861Q115.29806,4.4182053,122.69005,2.633934L124.72922,13.594471Q118.44178,14.86895,111.64455,15.973499L111.64455,24.215145L125.57887,24.215145L125.57887,35.515545L111.64455,35.515545ZM129.31735,10.365784L140.87265,10.365784L140.87265,60.410408L129.31735,60.410408L129.31735,10.365784ZM194.82568,3.4835892Q192.02182,13.424538,188.19838,22.345905L188.19838,79.612595L177.06792,79.612595L177.06792,42.737602Q174.34901,46.900909,171.03537,51.064217L167.89165,36.280235Q171.88503,30.757481,176.43068,20.434185Q180.97632,10.110889,183.18542,1.0195923L194.82568,3.4835892ZM246.48465,58.201309Q246.31471,59.815651,245.46507,63.936478Q244.6154,68.057297,244.02065,70.011497Q242.66121,75.02446,240.57956,77.276047Q238.49791,79.527626,235.26921,79.527626Q231.87059,79.527626,228.64192,76.001564Q225.41322,72.475494,222.86427,64.998543Q219.72055,55.99221,218.1062,41.548088L205.78622,41.548088L205.78622,60.325443L216.91669,53.103386L218.78593,64.998543L214.96248,67.377571Q219.04082,74.089844,220.31531,76.553833L210.62926,80.462242L206.46594,72.730392L197.71451,78.168182L192.1068,69.16185Q193.72113,68.057297,194.10347,66.952744Q194.48582,65.848198,194.48582,63.72406L194.48582,7.9867554Q215.81213,6.8822021,240.19722,2.3790359L242.74617,13.7644Q237.05348,14.953915,227.79227,16.313362Q228.13213,25.744522,228.47198,30.247688L244.36052,30.247688L244.36052,41.548088L229.49156,41.548088Q231.02095,55.22752,233.73984,62.534546Q234.75941,64.743645,235.52412,64.743645Q235.86397,64.743645,236.11888,64.191368Q236.37376,63.639099,236.71364,62.109718Q237.47832,58.03138,237.81818,54.717728L246.48465,58.201309ZM205.78622,30.247688L217.08662,30.247688Q216.83173,26.16935,216.49187,17.927704L205.78622,19.117222L205.78622,30.247688ZM267.89594,20.901493Q264.07251,17.757774,254.89622,10.450748L261.35358,1.5293808Q269.93512,7.7318573,274.35327,11.385368L267.89594,20.901493ZM324.14301,79.782524Q317.17584,76.553833,312.71521,74.259773Q308.25452,71.965706,304.68597,69.58667Q297.80377,74.85453,286.75824,80.292313L281.15051,70.181435Q279.45123,74.259773,276.47742,80.207352L267.13123,72.645432Q270.52985,66.018127,272.18671,60.87772Q273.84351,55.737312,274.52325,49.237457Q275.20294,42.737602,275.20294,31.946999L275.20294,9.346199L297.54883,9.346199L297.54883,2.2091064L309.01917,2.2091064L309.01917,9.346199L328.56122,9.346199L328.56122,20.221771L323.88812,28.973209L313.01257,26.084385L316.66608,20.476669L309.01917,20.476669L309.01917,31.946999L324.82275,31.946999L324.82275,43.077469Q322.35876,48.855114,319.80981,53.188351Q317.26086,57.521584,313.6073,61.599926Q319.29999,64.573715,330.1756,68.142258L324.14301,79.782524ZM297.54883,31.946999L297.54883,20.476669L286.4184,20.476669L286.4184,31.946999L297.54883,31.946999ZM266.36658,41.887951Q264.07251,39.933746,260.67389,37.3423Q257.27527,34.750854,256.00079,33.816238L252.77208,31.352242L258.97455,21.836113Q261.69348,23.875282,265.00708,26.16935Q270.27496,29.737896,272.82391,31.777065L266.36658,41.887951ZM304.34607,54.802692Q309.18915,49.704765,312.1629,42.652641L297.29395,42.652641Q300.09784,50.299526,304.34607,54.802692ZM272.56903,49.110008L264.49731,79.612595L253.19691,76.298943Q254.47139,72.220604,257.65759,60.452892Q260.84381,48.685181,261.43854,45.711395L272.56903,49.110008ZM281.57538,69.076881Q289.13727,65.848198,295.42474,61.85482Q289.90198,55.567383,286.24847,46.051254Q285.90857,52.763523,284.88904,58.03138Q283.86945,63.299232,281.57538,69.076881Z" fill="url(#master_svg0_0_463)" fill-opacity="1"/></g></svg>