<svg xmlns="http://www.w3.org/2000/svg" xmlns:xlink="http://www.w3.org/1999/xlink" fill="none" version="1.1" width="831.63" height="56.71" viewBox="0 0 831.6300048828125 56.71484375"><defs><linearGradient x1="0.5" y1="1.1549999713897705" x2="0.5" y2="-0.1550000011920929" id="master_svg0_0_581"><stop offset="0%" stop-color="#FDBBBB" stop-opacity="1"/><stop offset="0.68359375%" stop-color="#FDBBBB" stop-opacity="1"/><stop offset="51.7578125%" stop-color="#FDFFFF" stop-opacity="1"/><stop offset="100%" stop-color="#FDFFFF" stop-opacity="1"/></linearGradient></defs><g><path d="M2.3841858e-7,11.685089Q2.3841858e-7,7.6950912,1.7670002,4.845089Q3.5340004,1.9950905,7.809,0.000091552734L9.8610001,3.5340881Q6.5550003,5.0730896,5.2725,6.7830887Q3.9900002,8.4930916,3.9900002,11.685089L9.0630007,11.685089L9.0630007,20.748091L2.3841858e-7,20.748091L2.3841858e-7,11.685089ZM11.514,11.685089Q11.514,7.6950912,13.252501,4.845089Q14.991001,1.9950905,19.323,0.000091552734L21.375,3.5340881Q18.069,5.0730896,16.786501,6.7830887Q15.504,8.4930916,15.504,11.685089L20.577,11.685089L20.577,20.748091L11.514,20.748091L11.514,11.685089ZM69.882004,38.532089L69.882004,46.96809L78.602997,46.96809L78.602997,54.321091L43.376999,54.321091L43.376999,48.222092L34.941002,48.222092L34.941002,51.585091L28.5,51.585091L28.5,6.0990906L44.118,6.0990906L44.118,19.893089L48.335999,18.126091Q49.077003,20.064091,52.554001,31.17909L52.554001,12.597092L45.771,12.597092L45.771,5.1300888L76.949997,5.1300888L76.949997,12.597092L69.882004,12.597092L69.882004,30.95109Q71.535004,25.87809,73.587006,18.297089L79.686005,20.12109Q78.488998,24.282089,76.494003,30.38109Q74.499001,36.480091,73.074005,40.12809L69.882004,38.532089ZM62.757004,46.96809L62.757004,12.597092L59.679001,12.597092L59.679001,46.96809L62.757004,46.96809ZM34.941002,40.64109L38.076,40.64109L38.076,13.680088L34.941002,13.680088L34.941002,40.64109ZM48.735001,39.900089Q46.854,33.28809,44.118,24.852089L44.118,46.96809L52.554001,46.96809L52.554001,38.418091L48.735001,39.900089ZM121.467,1.9380913Q124.03201,8.2650909,127.53751,12.625591Q131.043,16.986092,136.173,20.12109L132.867,27.36009Q127.965,23.883089,124.26001,19.779089Q120.55501,15.675091,118.674,11.970089Q115.14,19.152088,104.367,27.474091L101.403,20.69109L101.403,26.44809L97.356003,26.44809L97.356003,30.38109L102.714,30.38109L102.714,37.62009L97.356003,37.62009L97.356003,44.175091L102.429,41.268089L105.051,47.709091L92.454002,55.119091L87.894005,48.963089Q89.091003,48.393089,89.376007,47.709091Q89.661003,47.025089,89.661003,45.543091L89.661003,37.62009L84.360001,37.62009L84.360001,30.38109L89.661003,30.38109L89.661003,26.44809L86.355003,26.44809L86.355003,22.45809L83.619003,18.297089Q85.158005,15.846088,86.383507,12.796589Q87.609001,9.7470894,89.148003,5.0730896L89.889008,2.7930908L97.128006,4.5030899Q96.786003,5.7570915,95.532005,9.3480911L103.68301,9.3480911L103.68301,16.58709L92.511002,16.58709L91.029007,19.494091L101.403,19.494091L101.403,20.178089Q106.47601,16.758091,109.92451,12.283588Q113.373,7.8090897,115.82401,1.9380913L121.467,1.9380913ZM119.41501,28.61409L132.867,28.61409L132.867,35.967091Q128.70601,40.185089,123.291,46.284088Q125.172,47.53809,127.908,49.533089L123.74701,56.373089Q119.07301,52.554089,109.953,46.113091L105.79201,43.14909L109.78201,37.050091L117.24901,42.123089L118.218,41.097092Q119.13,40.185089,120.95401,38.332588Q122.778,36.480091,123.519,35.853088L104.424,35.853088L104.424,28.61409L118.161,28.61409Q115.71001,24.79509,113.08801,21.37509L118.38901,17.214088Q121.011,20.63409,124.37401,25.251089L119.41501,28.61409ZM177.21301,33.972092L175.845,26.904089L180.063,26.904089Q181.77301,26.904089,182.37151,26.476589Q182.97,26.049089,182.97,24.51009L182.97,3.4200897L190.323,3.4200897L190.323,26.505091Q190.323,29.41209,189.6105,30.979589Q188.89801,32.547089,187.21651,33.25959Q185.535,33.972092,182.343,33.972092L177.21301,33.972092ZM141.132,31.122089Q143.412,28.842091,144.666,27.160589Q145.92,25.47909,146.547,23.82609L141.873,23.82609L141.873,16.929089L147.459,16.929089L147.459,15.390091L147.459,11.286091L143.298,11.286091L143.298,4.2180901L170.31601,4.2180901L170.31601,11.286091L166.44,11.286091L166.44,16.929089L170.487,16.929089L170.487,23.82609L166.44,23.82609L166.44,31.92009L159.201,31.92009L159.201,23.82609L154.12801,23.82609Q153.558,27.24609,151.99051,29.896589Q150.423,32.547089,147.231,35.568092L141.132,31.122089ZM172.36801,5.7570915L179.60701,5.7570915L179.60701,24.966089L172.36801,24.966089L172.36801,5.7570915ZM154.698,11.286091L154.698,15.44709L154.698,16.929089L159.201,16.929089L159.201,11.286091L154.698,11.286091ZM171.285,43.94709L171.285,47.82309L191.577,47.82309L191.577,54.94809L142.158,54.94809L142.158,47.82309L162.90601,47.82309L162.90601,43.94709L146.091,43.94709L146.091,36.993088L162.90601,36.993088L162.90601,33.174088L171.285,33.174088L171.285,36.993088L187.758,36.993088L187.758,43.94709L171.285,43.94709ZM198.36,18.297089Q201.60901,16.701088,202.89151,14.991089Q204.17401,13.28109,204.17401,10.146091L199.158,10.146091L199.158,1.0830879L208.22101,1.0830879L208.22101,10.146091Q208.22101,14.136089,206.45401,16.986092Q204.68701,19.83609,200.412,21.831089L198.36,18.297089ZM209.87401,18.297089Q213.123,16.701088,214.4055,14.991089Q215.688,13.28109,215.688,10.146091L210.672,10.146091L210.672,1.0830879L219.735,1.0830879L219.735,10.146091Q219.735,14.136089,217.968,16.986092Q216.201,19.83609,211.92601,21.831089L209.87401,18.297089ZM274.39801,55.46109Q268.12802,53.067089,263.51102,50.53059Q258.89401,47.994091,255.41702,44.916092L255.41702,56.088089L247.55101,56.088089L247.55101,44.973091Q240.82501,50.730091,228.798,55.404091L225.43501,47.709091Q233.07301,45.486092,238.48801,42.436592Q243.90302,39.387089,247.55101,35.397087L247.55101,34.599091L237.74701,34.599091L237.74701,42.123089L229.99501,42.123089L229.99501,28.21509L247.55101,28.21509L247.55101,25.821091L226.51801,25.821091L226.51801,19.26609L230.565,19.26609L225.26401,15.21909Q227.71501,12.654091,229.99501,9.1200905Q232.27501,5.5860901,233.41501,2.85009L241.28101,3.9900894Q240.54001,5.6430893,239.57101,7.4670906L251.48401,7.4670906L251.48401,12.42609Q253.422,8.9490891,255.987,2.9640884L263.91,3.7620888L262.371,7.4670906L276.79202,7.4670906L276.79202,13.79409L268.47,13.79409L270.237,16.131088L265.392,19.26609L276.45001,19.26609L276.45001,25.821091L255.41702,25.821091L255.41702,28.21509L273.94202,28.21509L273.94202,36.765091Q273.94202,40.12809,272.37451,41.581589Q270.80701,43.035088,267.33002,43.035088L265.392,43.035088Q270.12302,45.486092,277.41901,47.652088L274.39801,55.46109ZM235.69501,13.79409Q233.757,16.58709,231.42001,19.26609L240.02701,19.26609Q237.74701,15.048088,236.89201,13.79409L235.69501,13.79409ZM242.07901,19.26609L247.55101,19.26609L247.55101,16.81509L254.27701,16.81509L249.888,15.16209Q250.45801,14.250092,250.686,13.79409L244.35901,13.79409Q245.44202,15.675091,246.468,17.271091L242.07901,19.26609ZM259.46402,13.79409Q258.15302,16.359089,257.12701,17.89809L255.41702,17.271091L255.41702,19.26609L264.76501,19.26609L260.77499,13.79409L259.46402,13.79409ZM255.41702,35.45409Q258.267,38.76009,262.14301,41.21109L261.06,37.050091L264.48001,37.050091Q265.56302,37.050091,265.905,36.793591Q266.24701,36.53709,266.24701,35.73909L266.24701,34.599091L255.41702,34.599091L255.41702,35.45409ZM332.53799,33.459091L331.39801,33.117088L331.39801,56.31609L324.672,56.31609L324.672,52.953091L315.552,52.953091L315.552,56.31609L308.82602,56.31609L308.82602,33.51609L307.116,34.08609L305.46301,30.09609L305.46301,50.388088L290.13,50.388088L290.13,53.979088L284.487,53.979088L284.487,6.3270912L305.46301,6.3270912L305.46301,15.561089Q309.966,10.54509,312.987,2.7930908L320.397,4.1040916Q319.48502,6.1560898,318.91501,7.1820908L332.93701,7.1820908L332.93701,13.851089Q330.14401,19.152088,325.58401,23.54109Q329.17502,25.30809,334.70401,26.56209L332.53799,33.459091ZM292.58102,24.852089L292.58102,13.167091L290.13,13.167091L290.13,24.852089L292.58102,24.852089ZM297.255,24.852089L299.70602,24.852089L299.70602,13.167091L297.255,13.167091L297.255,24.852089ZM319.77002,19.437088Q322.73401,16.986092,325.12802,13.851089L315.38101,13.851089Q317.319,17.10009,319.77002,19.437088ZM305.46301,27.303089Q310.422,25.59309,314.41202,23.25609Q312.474,21.09009,311.39102,19.494091Q310.422,20.80509,308.25601,23.313089L305.46301,18.981091L305.46301,27.303089ZM330.543,32.889091Q324.38699,31.008089,319.94101,27.987089Q315.552,30.83709,310.422,32.889091L330.543,32.889091ZM292.58102,31.46409L290.13,31.46409L290.13,43.66209L292.58102,43.66209L292.58102,31.46409ZM297.255,31.46409L297.255,43.66209L299.70602,43.66209L299.70602,31.46409L297.255,31.46409ZM315.552,40.185089L315.552,45.88509L324.672,45.88509L324.672,40.185089L315.552,40.185089ZM410.685,48.62109L432.17398,48.62109L432.17398,54.09309L380.98798,54.09309L380.98798,48.62109L402.41998,48.62109L402.41998,46.39809L384.237,46.39809L384.237,41.439091L402.41998,41.439091L402.41998,39.27309L385.776,39.27309L385.776,20.064091L402.41998,20.064091L402.41998,18.126091L380.98798,18.126091L380.98798,12.71109L402.41998,12.71109L402.41998,10.83009Q401.39398,10.83009,400.88098,10.887089Q397.06198,10.944088,393.10049,11.05809Q389.13898,11.172089,385.37698,11.229092L385.03497,5.3010902Q394.72498,5.1300888,407.151,4.6740913Q419.577,4.2180901,427.55698,3.7620888L428.41199,9.633091Q419.46298,10.203091,410.685,10.488091L410.685,12.71109L432.11697,12.71109L432.11697,18.126091L410.685,18.126091L410.685,20.064091L427.55698,20.064091L427.55698,39.27309L410.685,39.27309L410.685,41.439091L428.92499,41.439091L428.92499,46.39809L410.685,46.39809L410.685,48.62109ZM402.41998,27.417089L402.41998,24.90909L393.47098,24.90909L393.47098,27.417089L402.41998,27.417089ZM419.69098,27.417089L419.69098,24.90909L410.685,24.90909L410.685,27.417089L419.69098,27.417089ZM393.47098,31.977089L393.47098,34.485092L402.41998,34.485092L402.41998,31.977089L393.47098,31.977089ZM410.685,31.977089L410.685,34.485092L419.69098,34.485092L419.69098,31.977089L410.685,31.977089ZM488.09097,8.8350906L487.12198,47.025089Q487.008,51.699089,484.728,53.58009Q482.448,55.46109,477.26099,55.46109L468.14099,55.46109L466.60199,47.139091L474.23999,47.139091Q476.51999,47.139091,477.57449,46.825588Q478.629,46.512089,479.02798,45.62859Q479.42697,44.74509,479.54099,42.86409L479.54099,42.57909L475.49399,44.574089L474.52499,42.180092L458.33698,43.71909L455.94299,36.82209Q458.56497,32.71809,460.845,28.04409Q463.125,23.37009,464.32199,19.608089L471.21899,21.77409Q469.67999,25.821091,468.53998,28.386089L474.12598,25.70709Q476.40598,30.039089,479.655,37.278091L480.168,16.644089L464.83499,16.644089Q462.099,21.717091,459.70499,24.852089L453.435,20.748091Q453.435,20.748091,453.4635,20.719589Q453.49197,20.69109,453.49197,20.69109L451.383,20.69109L451.383,23.997089L454.11899,26.049089L458.28,29.070089L454.00497,35.796089Q453.32098,35.112091,451.383,33.402092L451.383,56.03109L443.68799,56.03109L443.68799,35.226089Q441.237,40.69809,438.89999,44.74509L437.418,33.060089Q440.83798,27.53109,442.94699,20.69109L438.50098,20.69109L438.50098,12.99609L443.68799,12.99609L443.68799,3.7620888L451.383,3.7620888L451.383,12.99609L455.94299,12.99609L455.94299,17.043091Q460.56,9.9180908,462.44098,3.0210915L469.85098,5.0160904Q469.28098,6.7260895,468.483,8.8350906L488.09097,8.8350906ZM471.56097,35.45409Q469.90799,31.74909,468.42599,28.671089Q466.48798,33.174088,464.77798,36.02409L471.56097,35.45409ZM545.43298,16.58709L524.85596,16.58709L524.85596,22.57209L543.03894,22.57209L543.03894,42.06609Q543.03894,45.31509,542.24097,47.053589Q541.44299,48.792091,539.53345,49.504589Q537.62402,50.217091,534.03296,50.217091L527.87695,50.217091L526.39502,42.29409L532.20898,42.29409Q533.86194,42.29409,534.31799,41.695591Q534.77405,41.097092,534.77405,39.102089L534.77405,30.26709L524.85596,30.26709L524.85596,56.145088L516.47693,56.145088L516.47693,30.26709L506.67297,30.26709L506.67297,50.673088L498.75,50.673088L498.75,22.57209L516.47693,22.57209L516.47693,16.58709L495.50098,16.58709L495.50098,9.1200905L516.53394,9.1200905Q514.88098,4.2180901,514.42493,3.1350899L523.77295,2.7360916Q524.34302,4.1040916,525.88196,9.1200905L545.43298,9.1200905L545.43298,16.58709ZM583.90796,21.37509L601.578,21.37509Q601.40698,24.852089,600.95093,33.03159Q600.495,41.21109,600.15295,46.797089Q599.92493,49.98909,599.01294,51.727589Q598.10095,53.466091,596.19141,54.178589Q594.28198,54.89109,590.86194,54.89109L585.16199,54.89109L584.19299,49.020088Q581.3999,53.067089,577.2959,56.715088L572.052,51.471088Q577.58093,46.626091,580.60193,41.21109Q583.62292,35.796089,585.16199,28.50009L581.79895,28.50009Q577.97998,42.465088,568.34692,50.217091L563.50195,45.714088Q565.0979,44.346088,565.78198,43.605091Q562.13391,44.688091,558.37195,45.88509Q554.60999,47.082088,552.50098,47.82309L551.53198,39.786091Q552.55798,39.615089,556.9469,38.361092L556.9469,23.199089L552.78601,23.199089L552.78601,15.73209L556.9469,15.73209L556.9469,3.6480904L564.52795,3.6480904L564.52795,15.73209L568.85999,15.73209L568.85999,23.199089L564.52795,23.199089L564.52795,36.195091Q567.66296,35.283089,568.1189,35.112091L568.1759,37.10709L568.23291,41.097092Q570.68396,38.247089,572.27991,35.16909Q573.87598,32.091087,574.90198,28.50009L569.82898,28.50009L569.82898,22.00209L584.99097,13.053089L571.14001,13.053089L571.14001,5.5860901L598.15796,5.5860901L598.15796,13.167091L583.90796,21.37509ZM592.97095,44.175091Q593.14197,42.978088,593.48401,38.247089Q593.82593,33.51609,593.99695,31.35009L594.16797,28.50009L591.65991,28.50009Q589.83594,39.84309,585.16199,47.424091L589.26599,47.424091Q591.375,47.424091,592.0874,46.797089Q592.79993,46.17009,592.97095,44.175091ZM626.71497,5.5860901Q624.71997,11.799091,622.0979,17.67009L622.0979,55.917091L614.28894,55.917091L614.28894,31.407089Q611.60999,35.055092,609.8999,37.164089L608.13293,25.536089Q615.02991,16.131088,618.62097,4.1040916L626.71497,5.5860901ZM659.83191,12.483089L659.83191,20.178089L646.26599,20.178089L646.26599,27.987089L657.60901,27.987089L657.60901,56.088089L649.68591,56.088089L649.68591,52.611092L634.52393,52.611092L634.52393,56.088089L626.71497,56.088089L626.71497,27.987089L638.28601,27.987089L638.28601,20.178089L625.1189,20.178089L625.1189,12.483089L638.28601,12.483089L638.28601,4.1610909L646.26599,4.1610909L646.26599,12.483089L659.83191,12.483089ZM634.52393,45.144089L649.68591,45.144089L649.68591,35.682091L634.52393,35.682091L634.52393,45.144089ZM681.83398,4.5600891Q679.78198,11.799091,677.84399,16.81509L677.84399,55.917091L670.43396,55.917091L670.43396,31.692089Q668.724,34.428089,667.12793,36.651089L664.90491,26.27709Q667.29895,22.800089,669.77844,16.30209Q672.25793,9.8040886,673.91101,2.9640884L681.83398,4.5600891ZM713.81091,15.675091L713.81091,48.108089L716.83191,48.108089L716.83191,54.492088L679.55396,54.492088L679.55396,48.108089L682.974,48.108089L682.974,15.675091L694.43091,15.675091L694.43091,13.053089L681.32092,13.053089L681.32092,6.3840904L694.43091,6.3840904L694.43091,3.0210915L702.06897,3.0210915L702.06897,6.3840904L716.26196,6.3840904L716.26196,13.053089L702.06897,13.053089L702.06897,15.675091L713.81091,15.675091ZM706.28699,24.681089L706.28699,21.88809L690.61194,21.88809L690.61194,24.681089L706.28699,24.681089ZM690.61194,32.376091L706.28699,32.376091L706.28699,29.98209L690.61194,29.98209L690.61194,32.376091ZM706.28699,40.12809L706.28699,37.67709L690.61194,37.67709L690.61194,40.12809L706.28699,40.12809ZM706.28699,45.429089L690.61194,45.429089L690.61194,48.108089L706.28699,48.108089L706.28699,45.429089ZM760.89294,19.72209Q763.62891,25.536089,767.24841,30.40959Q770.86792,35.283089,774.97192,38.874092L770.526,47.082088Q767.6759,44.23209,765.28198,40.983089L765.28198,47.76609L758.15698,47.76609L758.15698,55.974091L750.68994,55.974091L750.68994,47.76609L743.2229,47.76609L743.2229,41.154091Q740.82898,44.118088,738.66296,46.45509L735.52795,40.869091L735.52795,55.917091L728.17493,55.917091L728.17493,31.806089Q725.78101,35.340088,724.41296,37.050091L721.79102,27.75909Q724.52698,23.71209,727.4054,16.929089Q730.28394,10.146091,732.22192,3.4200897L739.91699,4.845089Q738.09302,11.115089,735.52795,17.499088L735.52795,37.96209Q739.57495,34.08609,742.45349,29.754089Q745.33191,25.422091,747.83997,19.72209L738.66296,19.72209L738.66296,12.084091L750.68994,12.084091L750.68994,3.1920891L758.15698,3.1920891L758.15698,12.084091L771.77991,12.084091L771.77991,19.72209L760.89294,19.72209ZM750.68994,40.41309L750.68994,28.671089Q748.01099,34.827087,743.79297,40.41309L750.68994,40.41309ZM758.15698,40.41309L764.88293,40.41309Q761.17798,35.226089,758.15698,28.671089L758.15698,40.41309ZM810.71094,37.96209L810.71094,48.735088Q810.71094,51.528091,810.02698,53.01009Q809.34302,54.492088,807.60449,55.090591Q805.86597,55.689091,802.55994,55.689091L795.43494,55.689091L793.953,48.165089L799.31091,48.165089Q801.13501,48.165089,801.70496,47.79459Q802.2749,47.424091,802.2749,46.341091L802.2749,38.361092L793.896,38.76009L798.45593,44.460091Q795.32092,46.96809,791.15991,49.875092Q786.9989,52.782089,783.40796,54.834091L779.36096,48.33609Q788.76599,42.750092,793.04102,38.817089L785.06091,39.216091L783.52197,31.863091Q789.96301,29.355089,798.05701,25.30809L786.02991,26.220089L784.49097,19.608089Q789.22192,17.841091,795.66296,13.50909Q787.45496,13.908089,783.00891,13.965092L782.15393,6.7830887Q791.84399,6.6120911,805.69495,5.8710899Q819.5459,5.1300888,828.20996,4.2180901L829.46399,11.400089Q823.479,11.91309,819.88794,12.14109L825.24597,17.67009Q818.74792,21.831089,811.9364,25.536089Q805.125,29.241091,799.08301,31.806089L815.78394,30.78009L813.04797,27.93009L818.74792,23.25609Q823.13696,27.702089,831.00293,36.081089L825.6449,41.21109L822.11096,37.39209L810.71094,37.96209ZM810.4259,18.297089Q815.271,15.21909,819.14697,12.19809Q815.328,12.483089,807.57593,12.939091Q804.95398,14.87709,802.24646,16.701088Q799.53894,18.525089,798.34192,19.095089L810.4259,18.297089ZM816.58191,38.532089Q820.85693,41.382088,831.63,47.937088L827.64001,54.66309Q823.99194,52.15509,816.5249,47.709091L812.4209,45.201088L816.58191,38.532089Z" fill="url(#master_svg0_0_581)" fill-opacity="1"/></g></svg>