<svg xmlns="http://www.w3.org/2000/svg" xmlns:xlink="http://www.w3.org/1999/xlink" fill="none" version="1.1" width="699.33" height="54.95" viewBox="0 0 699.3330078125 54.947998046875"><defs><linearGradient x1="0.5" y1="1.1549999713897705" x2="0.5" y2="-0.1550000011920929" id="master_svg0_0_581"><stop offset="0%" stop-color="#FDBBBB" stop-opacity="1"/><stop offset="0.68359375%" stop-color="#FDBBBB" stop-opacity="1"/><stop offset="51.7578125%" stop-color="#FDFFFF" stop-opacity="1"/><stop offset="100%" stop-color="#FDFFFF" stop-opacity="1"/></linearGradient></defs><g><path d="M19.493994,5.8711166Q16.700994,9.4621162,12.425994,13.651615Q8.1509943,17.841116,4.1609945,20.976114L0.68399429,13.110115Q3.8189945,10.887115,7.4099941,7.4101143Q11.000995,3.9331169,13.565994,0.62711334L19.493994,5.8711166ZM22.742994,3.8761139L49.931995,3.8761139L49.931995,11.913116L22.742994,11.913116L22.742994,3.8761139ZM20.120995,20.121115Q17.954994,23.427114,14.819994,27.075115L14.819994,54.093117L6.9539948,54.093117L6.9539948,35.511116Q4.8449945,37.563114,2.9639945,39.159115L-0.0000057220459,31.236115Q3.5339942,28.158115,7.4669943,23.826115Q11.399995,19.494116,14.021994,15.618114L20.120995,20.121115ZM51.698994,20.235115L51.698994,28.272116L44.345993,28.272116L44.345993,45.657116Q44.345993,50.274117,42.293995,52.155113Q40.241993,54.036114,35.225994,54.036114L26.105995,54.036114L24.509995,46.113113L32.888996,46.113113Q34.712994,46.113113,35.282993,45.600117Q35.852993,45.087116,35.852993,43.434116L35.852993,28.272116L20.918995,28.272116L20.918995,20.235115L51.698994,20.235115ZM94.220993,34.428116L94.220993,43.947117L107.95799,43.947117L107.95799,51.984116L58.424995,51.984116L58.424995,43.947117L72.218994,43.947117L72.218994,34.143116L66.689995,36.765114Q60.704994,20.292116,57.683994,13.509113L65.150993,10.431114Q67.031998,14.421116,72.218994,28.386116L72.218994,2.0521164L80.426994,2.0521164L80.426994,43.947117L86.012993,43.947117L86.012993,2.0521164L94.220993,2.0521164L94.220993,28.044115Q97.469994,20.292116,100.71899,10.431114L108.528,13.452114Q106.875,17.955114,103.96799,25.165615Q101.06099,32.376114,99.065994,36.879116L94.220993,34.428116ZM165.69899,36.366116Q165.47099,41.496117,165.47099,41.895115L165.35699,45.600117Q165.243,48.507114,164.33099,50.188614Q163.41899,51.870117,161.4525,52.582615Q159.48599,53.295116,156.12299,53.295116L147.62999,53.295116Q143.41199,53.295116,141.6165,51.699116Q139.821,50.103115,139.59299,45.885117Q135.14699,48.735115,131.556,50.730114L127.56599,43.719116Q124.43099,48.963116,119.073,54.606117L113.48699,47.481117Q118.104,42.921116,120.86849,38.560616Q123.633,34.200115,125.08649,29.440615Q126.53999,24.681116,127.338,18.354115L116.56499,18.354115L116.56499,10.374115L128.07899,10.374115Q128.364,5.2441139,128.478,1.0831146L137.028,1.1401138Q136.79999,5.8711166,136.45799,10.374115L148.827,10.374115Q146.547,7.980114,144.09599,5.7571144L149.56799,0.79811478Q150.70799,1.7671165,154.92599,5.9851151L156.864,7.980114L154.35599,10.374115L165.243,10.374115L165.243,18.354115L147.573,18.354115L147.573,29.868114Q152.87399,25.137115,157.20599,19.665115L163.134,25.080114Q156.522,33.402115,147.573,40.242115L147.573,42.294113Q147.573,44.232117,148.17149,44.859116Q148.76999,45.486115,150.651,45.486115L154.41299,45.486115Q156.009,45.486115,156.69299,45.258114Q157.377,45.030113,157.605,44.403114Q157.83299,43.776115,157.94699,42.237114L158.118,36.708115L158.17499,34.485115L165.69899,36.366116ZM127.56599,43.719116Q133.77899,40.356117,139.59299,36.252113L139.59299,18.354115L135.603,18.354115Q134.51999,26.334116,132.696,32.347614Q130.87199,38.361115,127.56599,43.719116ZM222.58499,35.967117L204.573,35.967117L203.946,37.392117L222.29999,46.854115L218.48099,54.321114Q211.299,50.046116,199.728,43.662117Q196.308,47.082115,190.55099,49.675613Q184.79399,52.269115,175.446,54.777115L171.91199,46.512115Q178.92299,44.916115,183.28349,43.491116Q187.644,42.066116,190.55099,40.270615Q193.45799,38.475113,195.168,35.967117L171.91199,35.967117L171.91199,28.500114L197.961,28.500114Q198.702,24.510115,198.87299,18.297115Q198.987,15.561115,199.15799,4.1611137Q199.215,3.0211143,199.215,1.4821167L207.48,1.4821167Q207.48,3.1351166,207.42299,4.3321152Q207.252,16.758114,207.138,19.380116Q206.967,24.111115,206.34,28.500114L222.58499,28.500114L222.58499,35.967117ZM193.17299,17.556114Q190.95,15.846115,186.6465,13.053116Q182.34299,10.260117,179.43599,8.4931145L183.42599,1.9951134Q193.515,8.0941162,197.334,10.773117L193.17299,17.556114ZM188.49899,28.329115Q186.504,26.961115,182.571,24.510115Q178.638,22.059114,177.213,21.147116Q176.12999,20.520115,175.38899,20.035616Q174.64799,19.551115,174.13499,19.266115L178.18199,12.654114Q178.92299,13.110115,182.799,15.390114Q189.069,19.095116,192.83099,21.546116L188.49899,28.329115ZM254.61899,10.203114Q254.67599,11.856113,254.39099,25.479115Q254.10599,39.102116,253.992,45.144115Q253.935,49.818115,251.82599,51.642117Q249.717,53.466114,244.758,53.466114L240.483,53.466114L238.88699,45.258114L242.93399,45.258114Q244.758,45.258114,245.4135,44.973114Q246.069,44.688114,246.183,44.146614Q246.297,43.605114,246.35399,41.439117Q246.582,37.506115,246.86699,21.546116L246.98099,18.012115L242.478,18.012115Q242.13599,27.531115,241.42349,33.202614Q240.711,38.874115,238.9155,43.776115Q237.12,48.678116,233.586,54.264114L227.82899,47.880116Q230.84999,43.206116,232.21799,39.472614Q233.586,35.739113,234.0705,31.350115Q234.55499,26.961115,234.89699,18.012115L229.42499,18.012115L229.42499,10.203114L235.06799,10.203114L235.18199,1.9951134L242.877,1.9951134Q242.877,5.2441139,242.70599,10.203114L254.61899,10.203114ZM257.07001,52.896114L257.07001,5.8711166L278.04599,5.8711166L278.04599,52.896114L270.63599,52.896114L270.63599,48.222115L264.59399,48.222115L264.59399,52.896114L257.07001,52.896114ZM264.59399,13.908115L264.59399,40.641113L270.63599,40.641113L270.63599,13.908115L264.59399,13.908115ZM336.927,24.966116L331.056,24.966116L331.056,28.614115L336.414,28.614115L336.414,36.024117L331.056,36.024117L331.056,46.227116Q331.056,49.248116,330.258,50.872616Q329.45999,52.497116,327.57901,53.152615Q325.698,53.808117,322.164,53.808117L314.46899,53.808117L313.215,46.284115L311.961,47.595116Q310.36499,45.657116,306.66,41.724113Q306.20401,41.268116,305.74799,40.726616Q305.29199,40.185116,304.77899,39.672115L308.54099,36.024117L303.41098,36.024117L303.41098,28.614115L323.01898,28.614115L323.01898,24.966116L302.95499,24.966116L302.95499,17.499115L315.66599,17.499115L315.66599,13.965115L305.634,13.965115L305.634,6.612114L315.66599,6.612114L315.66599,1.6531143L323.58899,1.6531143L323.58899,6.612114L334.362,6.612114L334.362,13.965115L323.58899,13.965115L323.58899,17.499115L336.927,17.499115L336.927,24.966116ZM298.509,1.7101135L298.509,9.6901169L302.841,9.6901169L302.841,17.328114L298.509,17.328114L298.509,23.883116L301.70099,22.572115L301.98599,26.163115L302.556,31.065115Q300.67499,31.635115,298.509,32.433113L298.509,47.367115Q298.509,50.046116,297.85349,51.442616Q297.198,52.839115,295.63049,53.409115Q294.06299,53.979115,291.15601,53.979115L287.10901,53.979115L285.68399,46.113113L288.93298,46.113113Q290.18698,46.113113,290.586,45.771114Q290.98499,45.429115,290.98499,44.232117L290.98499,35.112114L286.42499,36.879116L285,28.329115Q287.33701,27.702116,290.98499,26.562115L290.98499,17.328114L286.19699,17.328114L286.19699,9.6901169L290.98499,9.6901169L290.98499,1.7101135L298.509,1.7101135ZM323.01898,36.024117L311.67599,36.024117Q314.35498,38.532116,317.43298,41.838116L313.5,45.999115L319.884,45.999115Q321.30899,45.999115,321.96451,45.771114Q322.62,45.543114,322.81949,44.973114Q323.01898,44.403114,323.01898,43.206116L323.01898,36.024117ZM411.76797,10.944115L411.65399,13.167114Q410.62799,39.444115,410.34299,43.947117Q410.00098,49.077114,407.379,51.186115Q404.75699,53.295116,398.82898,53.295116L389.70898,53.295116L388.11298,44.517117L396.09299,44.517117Q398.65799,44.517117,399.88348,44.175114Q401.10898,43.833115,401.59348,42.921116Q402.07797,42.009117,402.19199,40.071114L402.47699,33.516113Q402.98999,24.396114,403.10397,19.323114L388.16998,19.323114Q387.65698,28.443115,385.83298,34.200115Q384.00897,39.957115,379.99048,44.574116Q375.97198,49.191116,368.27698,54.663116L362.34897,48.051117Q369.01797,43.206116,372.38098,39.643616Q375.74399,36.081116,377.36847,31.492615Q378.99298,26.904116,379.56299,19.323114L365.08499,19.323114L365.08499,10.944115L379.96198,10.944115L380.01898,8.9491158Q380.07599,7.3531151,380.133,5.3581161Q380.18997,3.3631134,380.30399,1.4251137L388.797,1.4251137Q388.85397,3.0211143,388.51199,10.944115L411.76797,10.944115ZM470.991,24.282116L470.991,31.008116L466.71597,31.008116L466.71597,41.439117L448.59,41.439117L448.59,46.113113Q448.59,50.103115,446.65198,51.784615Q444.71399,53.466114,440.09698,53.466114L433.02899,53.466114L431.60397,46.626114L438.04498,46.626114Q439.98297,46.626114,440.55298,46.084614Q441.12299,45.543114,441.12299,43.890114L441.12299,41.439117L424.59299,41.439117L424.59299,34.884117L441.12299,34.884117L441.12299,31.008116L419.91898,31.008116L419.91898,24.282116L441.12299,24.282116L441.12299,20.805115L426.81598,20.805115L426.81598,18.468115Q426.07498,19.095116,424.59299,20.235115L419.97598,13.851116Q424.19397,11.058117,428.12698,7.2391167Q432.06,3.4201164,434.51099,0.00011444092L443.06097,0.79811478Q442.20599,2.280117,441.17999,3.7051163L460.73099,3.7051163L460.73099,10.716114L456.85498,14.136116L466.71597,14.136116L466.71597,24.282116L470.991,24.282116ZM435.25198,10.830116Q434.16898,11.970116,431.88898,14.136116L446.31,14.136116L450.41397,10.830116L435.25198,10.830116ZM459.47699,20.805115L448.59,20.805115L448.59,24.282116L459.47699,24.282116L459.47699,20.805115ZM448.59,34.884117L459.47699,34.884117L459.47699,31.008116L448.59,31.008116L448.59,34.884117ZM523.43103,50.844116Q522.23401,47.595116,521.32202,45.657116Q521.32202,46.569115,521.20801,47.595116Q521.09399,49.932114,520.41003,51.214615Q519.72595,52.497116,518.15845,53.067116Q516.59094,53.637115,513.74097,53.637115L507.41397,53.637115Q503.65198,53.637115,502.08447,52.155113Q500.517,50.673115,500.517,46.968117L500.517,39.957115Q498.63599,46.056114,496.41299,51.015114L490.54199,48.108116Q492.76498,43.776115,494.93097,37.506115L500.517,39.558113L500.517,38.190117L507.642,38.190117L507.642,45.372116Q507.642,46.626114,508.04099,46.968117Q508.43997,47.310116,509.63699,47.310116L513.62695,47.310116Q514.70996,47.310116,515.08044,47.053616Q515.45093,46.797115,515.45093,45.885117L515.39392,42.294113L511.29001,44.688114Q508.21198,38.532116,507.47098,37.392117L508.668,36.708115L496.12799,36.708115L496.12799,32.547115L493.392,37.563114Q492.76498,37.164116,490.25699,35.283115L490.25699,53.808117L483.07498,53.808117L483.07498,37.449116Q480.79498,42.180115,478.68597,45.258114L476.40598,36.309116Q477.88797,34.656116,479.54099,31.350115Q481.19397,28.044115,482.448,24.168116L477.43198,24.168116L477.43198,16.587116L483.07498,16.587116L483.07498,12.027115L478.51498,12.768116L477.77399,5.5861168Q481.422,5.1871147,486.23849,4.2466164Q491.05499,3.3061142,494.70297,2.223114L495.89999,9.5191154Q493.79099,10.032116,490.25699,10.716114L490.25699,16.587116L494.87399,16.587116L492.366,14.193115Q495.27298,11.400116,497.89499,7.837616Q500.517,4.275116,502.39798,0.68411636L509.35199,2.4511147Q508.32599,4.3891144,508.09799,4.7311134L523.37402,4.7311134L523.37402,10.602116L519.49792,14.649117L526.05298,14.649117L526.05298,36.708115L514.42493,36.708115Q516.021,39.615116,516.64795,40.869114L519.49792,41.496117Q518.92798,40.356117,518.69995,39.786118L524.229,37.221115Q527.07898,43.206116,529.18799,48.279114L523.43103,50.844116ZM504.10797,11.115116L503.36697,12.084114Q502.73999,12.939114,501.37198,14.649117L511.233,14.649117L514.93799,11.115116L504.10797,11.115116ZM490.25699,27.189116L496.12799,31.122116L496.12799,30.153114L518.64294,30.153114L518.64294,27.930115L497.26797,27.930115L497.26797,22.971115L518.64294,22.971115L518.64294,21.033115L496.46997,21.033115L496.46997,18.183115L495.27298,16.986115L495.27298,24.168116L490.25699,24.168116L490.25699,27.189116ZM576.38403,13.395115L543.32397,13.395115L543.32397,17.385117L535.74304,17.385117L535.74304,6.2701149L555.57898,6.2701149L554.43896,1.5391159L564.12903,0.85511398L565.38306,6.2701149L583.85095,6.2701149L583.85095,17.385117L576.38403,17.385117L576.38403,13.395115ZM564.69897,45.372116L585.44702,45.372116L583.79407,52.839115L562.93201,52.839115Q551.53198,52.839115,545.604,45.600117Q543.26697,50.274117,538.99207,54.720116L533.40601,48.792114Q537.396,44.574116,539.36255,40.071114Q541.32898,35.568115,541.95605,28.443115L549.76501,29.184114Q549.36597,33.858116,548.39697,37.848114Q551.47498,42.864117,556.60498,44.460114L556.60498,25.821115L537.453,25.821115L537.453,18.696115L582.255,18.696115L582.255,25.821115L564.69897,25.821115L564.69897,31.863113L580.94397,31.863113L580.94397,39.045116L564.69897,39.045116L564.69897,45.372116ZM638.91296,29.412115Q636.69006,27.759115,634.80896,26.163115Q633.95398,39.273117,633.38403,44.631115Q633.04199,47.823116,631.87354,49.675613Q630.70496,51.528114,628.48206,52.326115Q626.25903,53.124115,622.61096,53.124115L614.45996,53.124115L612.92102,45.429115L620.33105,45.429115Q622.44006,45.429115,623.4375,45.144115Q624.43506,44.859116,624.86255,44.004116Q625.29004,43.149117,625.46106,41.382114Q625.51807,40.869114,625.85999,37.050117L626.48706,29.754116L613.43396,29.754116L613.37695,31.293116Q613.20605,36.708115,611.75256,40.555614Q610.29907,44.403114,606.87903,47.823116Q603.45898,51.243114,597.18896,54.948116L591.77405,47.652115Q596.90405,45.315117,599.61157,43.063614Q602.31897,40.812115,603.54456,38.133114Q604.77002,35.454117,605.39697,31.236115L605.56799,29.754116L599.526,29.754116L599.526,25.593115Q596.96106,27.987116,594.51001,29.811115L590.40601,21.888115Q595.70703,18.240116,600.09607,12.825115Q604.48499,7.4101143,607.10706,1.4251137L614.45996,4.3321152Q612.18005,9.5191154,609.44397,13.851116Q606.70801,18.183115,603.17407,22.002115L630.30603,22.002115Q626.65796,18.183115,623.922,13.680115Q621.18604,9.1771164,618.96301,3.1921158L626.20203,0.45611572Q628.76697,7.5811157,632.69995,12.483116Q636.63306,17.385117,642.78906,21.489115L638.91296,29.412115ZM668.04004,30.324116L668.15405,37.449116L650.31299,39.957115L648.71704,32.319115Q652.422,28.443115,656.24097,23.655115L649.34399,24.225115L647.86206,16.986115Q650.25598,14.649117,653.24854,9.9181137Q656.24097,5.1871147,658.46399,0.45611572L665.24707,4.1041145Q663.19507,7.980114,661.08606,11.485615Q658.97705,14.991116,657.495,16.815117L661.42798,16.530117L664.50598,11.628117L670.83301,15.675114Q669.06604,18.753115,665.93103,23.056616Q662.79602,27.360115,658.92004,31.749115L668.04004,30.324116ZM688.047,13.224113L688.047,43.206116L699.33301,43.206116L699.33301,51.186115L668.49597,51.186115L668.49597,43.206116L679.78198,43.206116L679.78198,13.224113L669.57898,13.224113L669.57898,5.2441139L698.13599,5.2441139L698.13599,13.224113L688.047,13.224113ZM648.77405,51.984116L647.69104,44.061115L667.07104,40.356117L667.52698,48.450115L648.77405,51.984116Z" fill="url(#master_svg0_0_581)" fill-opacity="1"/></g></svg>