<svg xmlns="http://www.w3.org/2000/svg" xmlns:xlink="http://www.w3.org/1999/xlink" fill="none" version="1.1" width="241.07" height="267.89" viewBox="0 0 341.07078552246094 367.88671875"><path d="M124.586502,124.58654Q149.173042,100,183.9435,100L183.9435,0Q146.553497,0,112.329025,14.475760999999999Q79.310036,28.441647,53.875824,53.8758621Q28.441624,79.310062,14.475741999999997,112.32902899999999Q0,146.553444,0,183.94336Q0,221.33344,14.475735,255.55788Q28.441614,288.57689,53.8758659,314.01108Q79.310116,339.44525,112.329109,353.41107Q146.553497,367.88672,183.9435,367.88672Q228.24696,367.88672,267.50327,347.84396Q305.4086,328.49097,331.03525,294.40619000000004L251.10631,234.31158Q239.362,249.93211,222.03098,258.78067Q204.19562,267.88671999999997,183.9435,267.88671999999997Q149.172913,267.88671999999997,124.586456,243.30032Q100,218.71393,100,183.94336Q100,149.173042,124.586502,124.58654Z" fill-rule="evenodd" fill="#FE403A" fill-opacity="1"/></svg>